<svg width="345" height="269" fill="none" xmlns="http://www.w3.org/2000/svg"><ellipse cx="172.5" cy="134.5" rx="172.5" ry="134.5" fill="#4C0D00"/><path d="M176.634 221.367c-.533-3.535.661-15.06 4.196-15.593 3.535-.533 8.073 10.128 8.606 13.663a6.474 6.474 0 0 1-12.802 1.93Zm35.08-12.695c-2.089-2.069-6.964-10.257-4.894-12.344 2.069-2.089 10.3 2.712 12.388 4.782a5.324 5.324 0 1 1-7.494 7.562Zm-76.676 10.177c1.385-3.295 8.405-12.514 11.7-11.128 3.296 1.385 1.62 12.85.234 16.146a6.473 6.473 0 1 1-11.934-5.018Zm-21.822-23.462c2.401-1.349 11.026-3.634 12.375-1.233 1.348 2.4-5.092 8.577-7.492 9.925a4.985 4.985 0 0 1-4.883-8.692Z" stroke="#FFF4DA" stroke-width="1.333"/><path d="M334.5 132c0 69.756-72.408 126.5-162 126.5s-162-56.744-162-126.5S82.908 5.5 172.5 5.5s162 56.744 162 126.5Z" stroke="#FFF4DA"/></svg>