<svg width="206" height="240" fill="none" xmlns="http://www.w3.org/2000/svg"><path d="M106.701 2.71c8.396 18.431 21.17 30.868 36.809 38.096 15.631 7.223 34.093 9.228 53.856 6.858l-.002-.027c.461-.065.93-.029 1.38.11.495.15.96.422 1.361.799.402.377.731.85.962 1.39.23.54.355 1.133.366 1.737.669 47.92-11.671 90.618-30.28 123.473-18.573 32.792-43.364 55.734-67.651 64.324-24.27-8.59-49.052-31.532-67.625-64.324C17.267 142.291 4.92 99.594 5.57 51.676a4.676 4.676 0 0 1 .368-1.69c.225-.528.543-.993.931-1.367s.837-.65 1.316-.813a3.21 3.21 0 0 1 1.477-.143l.01.001c19.762 2.37 38.207.365 53.83-6.858 15.63-7.228 28.404-19.665 36.833-38.096a3.942 3.942 0 0 1 1.336-1.623A3.25 3.25 0 0 1 103.519.5c.647 0 1.286.2 1.847.587a3.94 3.94 0 0 1 1.335 1.622Zm0 0 .455-.208-.455.208Z" fill="#FFF4DA" stroke="#4C0D00"/><path d="M106.239 17.125c7.67 16.354 19.34 27.388 33.624 33.799 14.276 6.407 31.134 8.184 49.177 6.083l-.001-.024c.417-.057.84-.025 1.248.096.446.133.865.37 1.226.7.362.329.657.742.864 1.213.207.472.32.988.329 1.514.61 42.471-10.65 80.312-27.631 109.43-16.947 29.059-39.563 49.388-61.719 57.002-22.14-7.614-44.749-27.943-61.695-57.002-16.98-29.117-28.249-66.958-27.654-109.428a3.976 3.976 0 0 1 .33-1.472 3.63 3.63 0 0 1 .837-1.193 3.21 3.21 0 0 1 1.186-.711 2.982 2.982 0 0 1 1.334-.126l.009.001c18.043 2.102 34.886.324 49.154-6.083 14.276-6.411 25.946-17.445 33.647-33.799a3.469 3.469 0 0 1 1.2-1.417 2.997 2.997 0 0 1 1.668-.514c.584 0 1.161.176 1.667.514s.923.827 1.2 1.417Zm0 0 .453-.213-.453.213Z" fill="#FFF4DA" stroke="#4C0D00"/><path fill-rule="evenodd" clip-rule="evenodd" d="M64 130.384a40 40 0 0 0 4.061 9.797l10.777 1.262c.86.969 1.778 1.886 2.747 2.747l1.21 10.773a40.11 40.11 0 0 0 9.801 4.033l8.47-6.764c1.295.077 2.593.077 3.888 0l8.47 6.768a39.982 39.982 0 0 0 9.797-4.062l1.21-10.768a32.966 32.966 0 0 0 2.747-2.747l10.773-1.21a40.108 40.108 0 0 0 4.033-9.801l-6.764-8.47a32.749 32.749 0 0 0 0-3.888l6.768-8.47a39.996 39.996 0 0 0-4.062-9.797l-10.769-1.21a32.663 32.663 0 0 0-2.746-2.747l-1.21-10.772a40.103 40.103 0 0 0-9.801-4.054l-8.47 6.764a32.877 32.877 0 0 0-3.888 0L92.572 81a39.985 39.985 0 0 0-9.785 4.03l-1.21 10.768c-.97.86-1.886 1.778-2.747 2.747l-10.772 1.21a40.108 40.108 0 0 0-4.054 9.801l6.764 8.47a32.877 32.877 0 0 0 0 3.888L64 130.384Zm55.111-10.406c0 8.91-7.223 16.133-16.133 16.133s-16.133-7.223-16.133-16.133 7.223-16.133 16.133-16.133 16.133 7.223 16.133 16.133Z" fill="#FF6D2F" stroke="#4C0D00" stroke-linecap="round" stroke-linejoin="round"/><path d="m102.999 240-3.673-1.272C49.475 221.994-1.272 150.002.024 58.934a18.948 18.948 0 0 1 1.544-7.014 17.657 17.657 0 0 1 3.994-5.765 16.051 16.051 0 0 1 5.784-3.56 15.131 15.131 0 0 1 6.613-.764c4.254.5 8.53.757 12.81.77 19.261 0 44.943-5.757 57.908-33.134 1.355-2.852 3.409-5.244 5.935-6.914C97.14.883 100.041 0 103 0c2.959 0 5.861.883 8.388 2.553 2.526 1.67 4.58 4.062 5.935 6.914C130.317 36.844 155.999 42.6 175.23 42.6c4.28-.012 8.556-.27 12.81-.77h1.729c4.237.008 8.304 1.811 11.332 5.025 3.028 3.215 4.777 7.585 4.873 12.178 1.328 91.069-49.388 162.96-99.301 179.795L102.999 240Zm-1.821-7.664 1.821.636 1.852-.636c47.66-16.099 96.216-85.346 94.95-173.302a11.65 11.65 0 0 0-.946-4.346 10.833 10.833 0 0 0-2.477-3.569 9.849 9.849 0 0 0-3.59-2.188 9.293 9.293 0 0 0-4.099-.44c-4.47.529-8.963.797-13.459.804-20.959 0-48.987-6.393-63.372-36.816-.834-1.764-2.101-3.244-3.661-4.277a9.374 9.374 0 0 0-5.182-1.58 9.369 9.369 0 0 0-5.182 1.58c-1.56 1.033-2.827 2.513-3.662 4.277C79.756 42.835 51.76 49.295 30.77 49.295a116.228 116.228 0 0 1-13.459-.803 5.855 5.855 0 0 0-1.08 0c-2.619-.001-5.133 1.108-7.008 3.09-1.874 1.983-2.96 4.681-3.024 7.52-1.266 87.955 47.29 157.303 94.98 173.301v-.067Z" fill="#4C0D00"/></svg>