<svg width="207" height="240" fill="none" xmlns="http://www.w3.org/2000/svg"><path d="M107.373 2.71c8.384 18.43 21.14 30.868 36.758 38.095 15.61 7.224 34.046 9.229 53.781 6.86l-.001-.028c.46-.065.928-.029 1.378.11.494.15.958.422 1.359.798.401.377.729.85.959 1.391.23.54.356 1.132.366 1.735.668 47.921-11.655 90.619-30.238 123.475-18.547 32.792-43.304 55.734-67.556 64.324-24.236-8.59-48.984-31.532-67.531-64.324C18.065 142.291 5.734 99.595 6.385 51.676a4.682 4.682 0 0 1 .367-1.69c.225-.528.542-.993.93-1.367.387-.374.835-.65 1.314-.813a3.2 3.2 0 0 1 1.474-.143l.009.001c19.735 2.37 38.155.365 53.756-6.859 15.61-7.227 28.366-19.664 36.783-38.095a3.937 3.937 0 0 1 1.334-1.623A3.24 3.24 0 0 1 104.196.5c.645 0 1.283.2 1.844.587a3.942 3.942 0 0 1 1.333 1.622Zm0 0 .455-.208-.455.207Z" fill="#FFF4DA" stroke="#4C0D00"/><path d="m189.6 57.007-.001-.024a2.94 2.94 0 0 1 1.245.096c.446.133.864.37 1.225.7.361.328.656.742.863 1.213.206.471.318.987.328 1.512.61 42.472-10.635 80.314-27.593 109.433-16.923 29.058-39.508 49.387-61.632 57.001-22.109-7.614-44.686-27.943-61.609-57.001-16.957-29.118-28.21-66.959-27.616-109.429a3.98 3.98 0 0 1 .33-1.472 3.63 3.63 0 0 1 .835-1.193 3.204 3.204 0 0 1 1.185-.711 2.971 2.971 0 0 1 1.331-.126l.01.001c18.018 2.102 34.838.324 49.086-6.083 14.257-6.411 25.91-17.445 33.6-33.799a3.466 3.466 0 0 1 1.199-1.417 2.988 2.988 0 0 1 1.664-.514c.584 0 1.159.176 1.664.514a3.46 3.46 0 0 1 1.199 1.416c7.659 16.354 19.313 27.389 33.578 33.8 14.256 6.407 31.091 8.185 49.109 6.083Z" fill="#FFF4DA" stroke="#4C0D00"/><path d="m129.507 149.333 10.84-17.615-5.203-3.231-.003-.002a5.633 5.633 0 0 1-2.057-2.289 5.687 5.687 0 0 1-.556-3.032c.092-1.061.129-2.125.11-3.19v-.005l.5-.008a5.157 5.157 0 0 1 .667-2.733 5.108 5.108 0 0 1 1.997-1.969l-6.295 34.074Zm0 0-5.181-3.245-.005-.003a5.675 5.675 0 0 0-5.904 0l-.006.004a19.05 19.05 0 0 1-1.332.772l-.003.001-1.43.73a5.588 5.588 0 0 0-2.322 1.983 5.648 5.648 0 0 0-.942 2.924v.003l-.191 6.166m17.316-9.335-17.316 9.335m19.035-65.015-5.39 2.897 5.39-2.897Zm0 0 9.733 18.266-9.733-18.266Zm-37.29-11.097 20.55.649-.191 6.148v.004a5.727 5.727 0 0 0 .763 2.985 5.674 5.674 0 0 0 2.197 2.148 31.58 31.58 0 0 1 2.71 1.688 5.558 5.558 0 0 0 5.87.372l-31.9-13.994Zm0 0-.192 6.185v.008a5.736 5.736 0 0 1-.959 2.925 5.686 5.686 0 0 1-2.33 2c-.485.225-.94.445-1.391.7l-.412.229c-.331.183-.645.356-.956.551l-.004.003a5.594 5.594 0 0 1-5.87 0l-.003-.002-5.2-3.264-10.84 17.617 5.204 3.249.003.002a5.616 5.616 0 0 1 2.05 2.292c.457.94.645 1.989.544 3.03a26.262 26.262 0 0 0-.092 3.186v.002a5.704 5.704 0 0 1-.751 2.985 5.661 5.661 0 0 1-2.19 2.151l-.004.001-5.376 2.899 9.715 18.266 5.39-2.896a5.549 5.549 0 0 1 5.872.372c.863.608 1.76 1.165 2.686 1.667l.001.001-.238.439a5.183 5.183 0 0 1 2.016 1.956l3.326-66.554Zm18.255 76.112-20.57-.648 20.57.648Zm-10.899-19.849a18.065 18.065 0 0 0 10.344-2.064 18.164 18.164 0 0 0 5.494-4.526 18.326 18.326 0 0 0 3.349-6.301 18.382 18.382 0 0 0-1.379-13.945 18.226 18.226 0 0 0-7.461-7.499 18.06 18.06 0 0 0-10.344-2.065 18.1 18.1 0 0 0-9.741 4.066 18.298 18.298 0 0 0-5.855 8.827 18.404 18.404 0 0 0-.001 10.612 18.3 18.3 0 0 0 5.854 8.827 18.109 18.109 0 0 0 9.74 4.068Z" fill="#FF6D2F" stroke="#4C0D00"/><path d="m103.675 240-3.668-1.272C50.224 221.994-.453 150.002.843 58.934a18.96 18.96 0 0 1 1.54-7.014 17.657 17.657 0 0 1 3.99-5.765 16.025 16.025 0 0 1 5.775-3.56 15.09 15.09 0 0 1 6.604-.764c4.249.5 8.519.757 12.792.77 19.235 0 44.881-5.757 57.828-33.134 1.354-2.852 3.404-5.244 5.927-6.914C97.822.883 100.72 0 103.675 0c2.955 0 5.852.883 8.375 2.553 2.523 1.67 4.574 4.062 5.928 6.914C130.955 36.844 156.601 42.6 175.805 42.6c4.274-.012 8.544-.27 12.793-.77h1.726c4.231.008 8.293 1.811 11.316 5.025 3.024 3.215 4.771 7.585 4.867 12.178 1.326 91.069-49.32 162.96-99.164 179.795L103.675 240Zm-1.819-7.664 1.819.636 1.849-.636c47.594-16.099 96.082-85.346 94.818-173.302a11.647 11.647 0 0 0-.944-4.346 10.854 10.854 0 0 0-2.474-3.569 9.834 9.834 0 0 0-3.586-2.188 9.264 9.264 0 0 0-4.093-.44c-4.463.529-8.95.797-13.44.804-20.93 0-48.919-6.393-63.283-36.816-.834-1.764-2.099-3.244-3.657-4.277a9.349 9.349 0 0 0-5.175-1.58 9.347 9.347 0 0 0-5.174 1.58c-1.558 1.033-2.824 2.513-3.657 4.277-14.395 30.356-42.354 36.816-63.315 36.816a115.94 115.94 0 0 1-13.44-.803 5.837 5.837 0 0 0-1.078 0c-2.615-.001-5.127 1.108-6.998 3.09-1.872 1.983-2.956 4.681-3.02 7.52-1.264 87.955 47.223 157.303 94.848 173.301v-.067Z" fill="#4C0D00"/></svg>