<svg width="346" height="269" fill="none" xmlns="http://www.w3.org/2000/svg"><ellipse cx="173.318" cy="134.5" rx="172.5" ry="134.5" fill="#4C0D00"/><path d="M186.561 212.423c-.674-3.511.06-15.074 3.571-15.747 3.511-.674 8.47 9.798 9.143 13.309a6.473 6.473 0 1 1-12.714 2.438Zm34.545-14.082c-2.169-1.985-7.367-9.971-5.382-12.14 1.985-2.169 10.4 2.3 12.569 4.285a5.324 5.324 0 1 1-7.187 7.855Zm-76.209 13.225c1.253-3.348 7.9-12.839 11.247-11.586 3.348 1.253 2.131 12.776.878 16.124a6.474 6.474 0 0 1-12.125-4.538Zm-22.739-22.574c2.344-1.444 10.872-4.07 12.315-1.726 1.443 2.345-4.745 8.774-7.09 10.216a4.984 4.984 0 1 1-5.225-8.49Z" stroke="#FFF4DA" stroke-width="1.333"/></svg>