<svg width="241" height="240" fill="none" xmlns="http://www.w3.org/2000/svg"><path d="m219.573 119.673-.24.308.24.308 20.475 26.222-30.084 14.987-.345.172.079.378 6.723 32.259-33.786.787-.377.009-.095.365-8.263 31.935-30.797-13.573-.339-.15-.242.281-21.723 25.272-21.684-25.271-.242-.282-.34.15-30.796 13.573-8.264-31.935-.094-.366-.378-.008-33.786-.75 6.724-32.296.078-.378-.345-.172-30.084-14.987 20.436-26.223.24-.307-.24-.307L1.588 93.451l30.084-14.987.345-.172-.079-.378-6.723-32.259 33.786-.787.378-.009.094-.366 8.264-31.934 30.796 13.573.34.15.241-.281L120.8.767 142.522 26l.242.28.339-.149 30.758-13.573 8.302 31.935.095.365.377.009 33.748.787-6.685 32.26-.078.377.344.172 30.084 14.987-20.475 26.222Z" fill="#4C0D00" stroke="#4C0D00"/><path d="M139.004 212.746c51.307-8.292 86.178-56.607 77.886-107.914-8.292-51.307-56.607-86.178-107.914-77.886-51.307 8.292-86.177 56.607-77.885 107.914 8.292 51.307 56.606 86.178 107.913 77.886Z" fill="#FFF4DA" stroke="#4C0D00" stroke-width="1.003" stroke-linecap="round" stroke-linejoin="round"/><path d="M133.621 184.157c36.334-5.865 61.034-40.075 55.169-76.409-5.865-36.334-40.075-61.034-76.409-55.168-36.334 5.865-61.033 40.074-55.168 76.408 5.865 36.334 40.074 61.034 76.408 55.169Z" fill="#FFF4DA" stroke="#4C0D00" stroke-linecap="round" stroke-linejoin="round"/><path d="m110.066 103.642.263-.04.113-.241 9.991-21.234a2.914 2.914 0 0 1 1.024-1.104 2.729 2.729 0 0 1 1.413-.418c.497-.005.988.126 1.422.383a2.9 2.9 0 0 1 1.046 1.075l9.988 21.229.113.24.262.041 22.449 3.476h.004c.508.087.985.319 1.379.672.396.354.693.817.855 1.339.163.523.186 1.083.064 1.618a3.024 3.024 0 0 1-.745 1.407l-.003.003-16.253 16.545-.178.181.041.251 3.865 23.363v.001c.087.55.026 1.114-.176 1.628a2.97 2.97 0 0 1-.964 1.28 2.757 2.757 0 0 1-1.45.552 2.722 2.722 0 0 1-1.507-.327l-.001-.001-19.989-11.021-.241-.133-.242.133-19.989 11.021-.001.001a2.722 2.722 0 0 1-1.507.327 2.754 2.754 0 0 1-1.45-.552 2.96 2.96 0 0 1-.963-1.28 3.117 3.117 0 0 1-.177-1.627v-.002l3.931-23.292.043-.252-.179-.182-16.256-16.547a3.025 3.025 0 0 1-.745-1.407 3.123 3.123 0 0 1 .063-1.618 2.99 2.99 0 0 1 .855-1.34 2.77 2.77 0 0 1 1.38-.671l22.452-3.477Z" fill="#FF6D2F" stroke="#4C0D00"/></svg>