<svg width="218" height="270" fill="none" xmlns="http://www.w3.org/2000/svg"><path fill-rule="evenodd" clip-rule="evenodd" d="M153.071 196.117a.5.5 0 0 0-.111.698l13.419 18.461a.5.5 0 1 0 .808-.588l-13.418-18.46a.5.5 0 0 0-.698-.111Zm14.078-10.304a.5.5 0 0 0-.11.698l13.418 18.461a.5.5 0 0 0 .809-.588l-13.418-18.461a.501.501 0 0 0-.699-.11Z" fill="#4C0D00"/><path d="M211.327 266.379a14.011 14.011 0 0 0 3.079-19.618l-22.822-36.353a14.016 14.016 0 0 0-9.151-5.602 13.998 13.998 0 0 0-10.426 2.516 13.993 13.993 0 0 0-5.613 9.167 14.026 14.026 0 0 0 2.533 10.45l22.657 36.354a13.988 13.988 0 0 0 9.223 5.707 13.953 13.953 0 0 0 10.52-2.621Z" fill="#FFF4DA"/><path fill-rule="evenodd" clip-rule="evenodd" d="M172.301 207.726a13.506 13.506 0 0 1 18.869 2.962l22.813 36.339.02.029a13.53 13.53 0 0 1 2.443 10.078 13.512 13.512 0 0 1-5.413 8.84l-.006.004v.001a13.464 13.464 0 0 1-10.143 2.527 13.462 13.462 0 0 1-8.883-5.491l-22.649-36.34-.021-.031a13.508 13.508 0 0 1-2.443-10.078 13.512 13.512 0 0 1 5.412-8.839l.001-.001Zm-.588-.808a14.5 14.5 0 0 1 20.276 3.196l.019.028 22.812 36.338a14.51 14.51 0 0 1 2.614 10.809 14.516 14.516 0 0 1-5.811 9.492 14.454 14.454 0 0 1-10.893 2.713 14.453 14.453 0 0 1-9.57-5.937l-22.647-36.337a14.517 14.517 0 0 1 3.2-20.302Z" fill="#4C0D00"/><path d="M105.605.5c57.872 0 104.787 47.01 104.787 105.002 0 57.99-46.915 105.001-104.787 105.001C47.733 210.503.818 163.492.818 105.502.818 47.511 47.733.5 105.605.5Z" fill="#4C0D00"/><path fill-rule="evenodd" clip-rule="evenodd" d="M105.605 210.003c-57.595 0-104.287-46.786-104.287-104.501C1.318 47.786 48.01 1 105.605 1 163.2 1 209.892 47.786 209.892 105.502c0 57.715-46.692 104.501-104.287 104.501ZM.318 105.502c0 58.266 47.138 105.501 105.287 105.501 58.149 0 105.287-47.235 105.287-105.501C210.892 47.236 163.754 0 105.605 0 47.455 0 .318 47.236.318 105.502Z" fill="#4C0D00"/><path d="M23.566 158.969a96.968 96.968 0 0 0 44.887 34.089 96.752 96.752 0 0 0 56.223 3.331 96.897 96.897 0 0 0 48.584-28.55 97.22 97.22 0 0 0 24.546-50.795 97.32 97.32 0 0 0-7.777-55.897 97.08 97.08 0 0 0-37.473-42.131A96.794 96.794 0 0 0 98.032 4.869a96.818 96.818 0 0 0-53.17 18.613A97.175 97.175 0 0 0 6.276 86.816a97.298 97.298 0 0 0 17.29 72.153Z" fill="#FFF4DA"/><path fill-rule="evenodd" clip-rule="evenodd" d="M98.053 5.368a96.294 96.294 0 0 1 54.242 14.074 96.574 96.574 0 0 1 37.28 41.915 96.821 96.821 0 0 1 7.737 55.609 96.72 96.72 0 0 1-24.42 50.534 96.404 96.404 0 0 1-48.332 28.403 96.259 96.259 0 0 1-55.933-3.314 96.47 96.47 0 0 1-44.656-33.913 96.799 96.799 0 0 1-17.2-71.782 96.675 96.675 0 0 1 38.386-63.009A96.318 96.318 0 0 1 98.053 5.368Zm54.764 13.221a97.294 97.294 0 0 0-54.806-14.22 97.32 97.32 0 0 0-53.444 18.71 97.675 97.675 0 0 0-38.785 63.66 97.798 97.798 0 0 0 17.38 72.523 97.468 97.468 0 0 0 45.118 34.265 97.258 97.258 0 0 0 56.513 3.348 97.4 97.4 0 0 0 48.835-28.697 97.727 97.727 0 0 0 24.672-51.056c3-19.09.28-38.644-7.817-56.184a97.575 97.575 0 0 0-37.666-42.349Z" fill="#4C0D00"/><path fill-rule="evenodd" clip-rule="evenodd" d="M76.847 17.467a.5.5 0 0 1-.292.644A92.828 92.828 0 0 0 45.43 37.629a94.747 94.747 0 0 0-21.344 30.218.5.5 0 1 1-.914-.407 95.748 95.748 0 0 1 21.57-30.536 93.829 93.829 0 0 1 31.46-19.729.5.5 0 0 1 .645.292ZM19.5 77.166a.5.5 0 0 1 .33.626 95.336 95.336 0 0 0-4.255 28.422.5.5 0 0 1-1 .003 96.336 96.336 0 0 1 4.3-28.72.5.5 0 0 1 .625-.33Z" fill="#4C0D00"/><path d="M95.73 139.073a8.89 8.89 0 0 1-3.573-.722 8.954 8.954 0 0 1-2.993-2.095L68.822 114.34a9.054 9.054 0 0 1-1.849-2.998 9.117 9.117 0 0 1 .227-6.922 9.049 9.049 0 0 1 2.04-2.869 8.958 8.958 0 0 1 2.975-1.863 8.911 8.911 0 0 1 6.866.229 8.963 8.963 0 0 1 2.846 2.057L95.142 116.2l31.267-39.945a8.943 8.943 0 0 1 5.913-2.872c2.26-.17 4.5.53 6.27 1.957a9.06 9.06 0 0 1 3.27 5.737 9.103 9.103 0 0 1-1.481 6.446l-37.611 48.114a8.95 8.95 0 0 1-2.914 2.435 8.877 8.877 0 0 1-3.652 1.001h-.475Z" fill="#FF6D2F"/><path fill-rule="evenodd" clip-rule="evenodd" d="M95.723 138.073h.455a7.891 7.891 0 0 0 3.216-.887 7.961 7.961 0 0 0 2.588-2.164l.002-.001 37.589-48.088a8.1 8.1 0 0 0 1.3-5.71 8.056 8.056 0 0 0-2.908-5.105 7.919 7.919 0 0 0-5.567-1.738 7.94 7.94 0 0 0-5.225 2.523L95.208 117.74l-14.014-15.084a7.972 7.972 0 0 0-2.53-1.829 7.916 7.916 0 0 0-8.737 1.453 8.038 8.038 0 0 0-1.815 2.552 8.109 8.109 0 0 0 1.442 8.829l20.338 21.911.002.002a7.953 7.953 0 0 0 2.657 1.859 7.886 7.886 0 0 0 3.172.641Zm-6.56-1.817L68.822 114.34a9.054 9.054 0 0 1-1.849-2.998 9.117 9.117 0 0 1 .227-6.922 9.049 9.049 0 0 1 2.04-2.869 8.958 8.958 0 0 1 2.975-1.863 8.911 8.911 0 0 1 6.866.229 8.963 8.963 0 0 1 2.846 2.057L95.142 116.2l31.267-39.945a8.943 8.943 0 0 1 5.913-2.872c2.26-.17 4.5.53 6.27 1.957a9.06 9.06 0 0 1 3.27 5.737 9.103 9.103 0 0 1-1.481 6.446l-37.611 48.114a8.95 8.95 0 0 1-2.914 2.435 8.877 8.877 0 0 1-3.652 1.001h-.475a8.89 8.89 0 0 1-3.573-.722 8.954 8.954 0 0 1-2.993-2.095Z" fill="#4C0D00"/></svg>