<svg width="64" height="64" fill="none" xmlns="http://www.w3.org/2000/svg"><circle cx="32" cy="32" r="32" fill="#FF6D2F"/><path d="m29.64 23.974 3.068 10.593H31.21l-3.112-10.593h-1.747l3.009 10.593h-1.512l-2.98-10.593h-1.732l3.024 10.593h-1.497L21.67 23.974h-1.791l3.684 12.951c.5 1.759 2.011 4.66 4.785 5.612l7.163 2.344 1.6 5.67h1.894L31.46 23.973h-1.82Zm11.784-1.392c.338.22 1.453.747 2.408.337 1.115-.469.704-1.655-.28-2.402l1.894-.206-1.644-1.933c1.086-2.33-.514-3.429-1.335-3.663-.558-.161-1.292-.132-1.894.264-.44-1.246-1.38-2.007-2.554-1.978-3.435.088-2.54 3.897-2.54 3.897l4.155.425s1.644.132 1.1.16c-4.3.323-6.78 5.495-6.78 10.285l4.637 16.365 4.536-3.472c4.33-4.615 2.848-9.23.279-14.284-1.057-2.007-1.806-3.472-1.982-3.795Z" fill="#FFF4DA"/></svg>