<svg width="121" height="83" fill="none" xmlns="http://www.w3.org/2000/svg"><path d="M119.734 6.325v53.919a5.093 5.093 0 0 1-5.093 5.092H34.598L18.714 80.752a2.153 2.153 0 0 1-1.67.607c-2.084 0-2.346-1.698-2.346-3.781l.565-12.242H5.741a5.092 5.092 0 0 1-5.092-5.092V6.31a5.092 5.092 0 0 1 5.133-5.037h108.873a5.08 5.08 0 0 1 5.079 5.051Z" fill="#FFF4DA"/><path d="M17.085 82.049c-3.036 0-3.036-3.023-3.036-4.472l.538-11.55H5.782A5.796 5.796 0 0 1 0 60.243V6.31a5.81 5.81 0 0 1 1.711-4.14A5.7 5.7 0 0 1 5.851.5H114.71a5.77 5.77 0 0 1 5.769 5.755v53.919a5.798 5.798 0 0 1-5.796 5.782H34.957l-15.678 15.18a2.857 2.857 0 0 1-2.194.912ZM5.77 2.005A4.389 4.389 0 0 0 1.38 6.38V60.3a4.416 4.416 0 0 0 4.402 4.402h10.24l-.593 12.96c0 2.594.538 3.063 1.656 3.063a1.504 1.504 0 0 0 1.256-.47L34.35 64.702h80.278a4.417 4.417 0 0 0 4.416-4.402V6.325a4.39 4.39 0 0 0-4.389-4.375H5.769v.055Z" fill="#4C0D00"/><path d="m28.664 14.77-1.38 1.174-2.47 2.222a.37.37 0 0 0-.125.29l.29 3.45.124 1.38a.358.358 0 0 1-.497.345l-.22-.125-1.518-.828-1.104-.62-.663-.36-.58-.317a.303.303 0 0 0-.303 0l-1.132.566-1.076.538-.249.124-.51.263-.98.483-.552.29h-.152a.29.29 0 0 1-.29-.373v-.29l1.173-4.499a.304.304 0 0 0 0-.29l-3.188-3.395a.345.345 0 0 1 .221-.552l4.886-.704a.388.388 0 0 0 .262-.179l2.525-4.361v-.083a.468.468 0 0 1 .166-.083h.166a.276.276 0 0 1 .179.166l.193.483.235.58.152.345.358.897.263.634.58 1.38a.248.248 0 0 0 .22.18l2.76.414 1.463.22h.497a.347.347 0 1 1 .276.636Zm19.362 0-1.38 1.174-2.456 2.222a.372.372 0 0 0-.125.29l.29 3.45.124 1.38a.359.359 0 0 1-.51.345l-.207-.125-1.518-.828-1.104-.62-.663-.36-.58-.317a.303.303 0 0 0-.303 0l-1.132.566-1.076.538-.248.124-.511.263-.98.483-.566.29h-.138a.29.29 0 0 1-.29-.373v-.29l1.173-4.499a.303.303 0 0 0 0-.29l-3.188-3.395a.345.345 0 0 1 .221-.552l4.886-.704a.36.36 0 0 0 .248-.179l2.54-4.361.068-.083a.47.47 0 0 1 .166-.083h.166a.276.276 0 0 1 .18.166l.192.483.235.58.152.345.358.897.263.634.566 1.38a.291.291 0 0 0 .234.18l2.76.414 1.463.22h.483a.334.334 0 1 1 .207.636Zm19.362 0-1.38 1.174-2.456 2.222a.372.372 0 0 0-.124.29l.29 3.45.11 1.38a.345.345 0 0 1-.497.345l-.207-.125-1.518-.828-1.118-.62-.663-.36-.58-.317a.303.303 0 0 0-.303 0l-1.131.566-1.077.538-.248.124-.51.263-.98.483-.567.29h-.138a.29.29 0 0 1-.29-.373v-.29l1.174-4.499a.303.303 0 0 0 0-.29l-3.188-3.395a.345.345 0 0 1 .22-.552l4.886-.704a.36.36 0 0 0 .248-.179l2.54-4.361v-.083l.165-.083h.166c.078.032.142.09.18.166l.193.483.234.58.138.345.373.897.248.634.58 1.38a.292.292 0 0 0 .234.18l2.76.414 1.463.22h.483a.349.349 0 1 1 .29.636Zm19.362 0-1.38 1.174-2.456 2.222a.33.33 0 0 0-.124.29l.29 3.45.11 1.38a.345.345 0 0 1-.497.345l-.207-.125-1.518-.828-1.118-.62-.662-.36-.58-.317a.303.303 0 0 0-.303 0l-1.132.566-1.09.538-.235.124-.51.263-.98.483-.566.29h-.138a.303.303 0 0 1-.304-.373l.083-.29 1.173-4.499a.344.344 0 0 0 0-.29l-3.188-3.395a.345.345 0 0 1 .22-.552l4.872-.704a.36.36 0 0 0 .263-.179l2.54-4.361v-.083a.372.372 0 0 1 .165-.083h.165c.078.032.142.09.18.166l.193.483.234.58.138.345.36.897.261.634.58 1.38a.291.291 0 0 0 .235.18l2.76.414 1.463.22h.483a.336.336 0 1 1 .22.636Zm19.363 0-1.38 1.174-2.457 2.222a.335.335 0 0 0-.124.29l.29 3.45.11 1.38a.346.346 0 0 1-.497.345l-.22-.125-1.505-.828-1.117-.62-.663-.36-.593-.317a.276.276 0 0 0-.29 0l-1.132.566-1.09.538-.248.124-.511.263-.98.483-.552.29h-.138a.29.29 0 0 1-.303-.373l.082-.29 1.16-4.499a.303.303 0 0 0 0-.29l-3.188-3.395a.344.344 0 0 1 .22-.552l4.872-.704a.36.36 0 0 0 .262-.179l2.54-4.361v-.083a.318.318 0 0 1 .165-.083h.166c.078.032.141.09.18.166l.192.483.235.58.138.345.359.897.262.634.58 1.38a.288.288 0 0 0 .234.18l2.76.414 1.477.22h.483a.337.337 0 0 1 .221.636Z" fill="#FF6D2F"/><path d="M110.86 36.258H27.656v1.38h83.204v-1.38Zm-.014 7.756H11.399v1.38h99.447v-1.38Zm-31.216 7.77H11.4v1.38h68.23v-1.38Z" fill="#4C0D00"/></svg>