<svg width="191" height="92" fill="none" xmlns="http://www.w3.org/2000/svg"><path d="m80.635 10.43.562 14.722-.562-14.722Z" fill="#FFF9EB"/><path d="m80.635 10.43.562 14.722" stroke="#4C0D00" stroke-width="1.333" stroke-linejoin="bevel"/><path d="M4.531 32.776 80.635 10.43l105.258 25.765-61.345 21.861L4.531 32.776Z" fill="#FF6D2F"/><path d="M4.531 32.776 80.635 10.43l105.258 25.765-61.345 21.861L4.531 32.776Z" stroke="#4C0D00" stroke-width="1.333" stroke-linejoin="bevel"/><path d="m116.528 24.297 33.075 21.378-.537 8.452-39.457-27.631 6.919-2.199Z" fill="#FFF4DA"/><path d="m116.528 24.297 33.075 21.378-.537 8.452-39.457-27.631 6.919-2.199Z" stroke="#4C0D00" stroke-width="1.333" stroke-linejoin="bevel"/><path d="m109.94 33.502 41.168 25.308-2.042-4.683-39.457-27.631.331 7.006Z" fill="#FFF4DA"/><path d="m109.94 33.502 41.168 25.308-2.042-4.683-39.457-27.631.331 7.006Z" stroke="#4C0D00" stroke-width="1.333" stroke-linejoin="bevel"/><path d="m151.107 58.81-2.043-4.684.247-3.922.289-4.528 2.042 4.677-.535 8.457Z" fill="#FFF4DA"/><path d="m151.107 58.81-2.043-4.684.247-3.922.289-4.528 2.042 4.677-.535 8.457Z" stroke="#4C0D00" stroke-width="1.333" stroke-linejoin="bevel"/><path d="m42.127 29.646 47.006 21.1 8.436-6.456L51.18 22.72l-9.052 6.927Z" fill="#FFF4DA"/><path d="m42.127 29.646 47.006 21.1 8.436-6.456L51.18 22.72l-9.052 6.927Z" stroke="#4C0D00" stroke-width="1.333" stroke-linejoin="bevel"/><path d="M52.778 17.74 97.01 38.534l.558 5.756-46.39-21.571 1.6-4.979Z" fill="#FFF4DA"/><path d="M52.778 17.74 97.01 38.534l.558 5.756-46.39-21.571 1.6-4.979Z" stroke="#4C0D00" stroke-width="1.333" stroke-linejoin="bevel"/><path d="m42.127 29.646 3.271-6.257 7.38-5.649-1.6 4.979-9.051 6.927Z" fill="#FFF4DA"/><path d="m42.127 29.646 3.271-6.257 7.38-5.649-1.6 4.979-9.051 6.927Z" stroke="#4C0D00" stroke-width="1.333" stroke-linejoin="bevel"/><path d="m95.421 4.964-8.874 34.387-6.278-6.267 9.727-31.758 5.425 3.638Z" fill="#FFF4DA"/><path d="m95.421 4.964-8.874 34.387-6.278-6.267 9.727-31.758 5.425 3.638Z" stroke="#4C0D00" stroke-width="1.333" stroke-linejoin="bevel"/><path d="m85.243 3.725-9.59 29.55 4.618-.19 9.726-31.759-4.754 2.4Z" fill="#FFF4DA"/><path d="m85.243 3.725-9.59 29.55 4.618-.19 9.726-31.759-4.754 2.4Z" stroke="#4C0D00" stroke-width="1.333" stroke-linejoin="bevel"/><path d="m75.87 36.078 66.978 10.311 6.055 9.16s-54.432-4.392-78.588-12.76l5.554-6.71Z" fill="#FFF4DA"/><path d="m75.87 36.078 66.978 10.311 6.055 9.16s-54.432-4.392-78.588-12.76l5.554-6.71Z" stroke="#4C0D00" stroke-width="1.333" stroke-linejoin="bevel"/><path d="m73.406 50.661 73.236 10.477 2.261-5.59L70.315 42.79l3.09 7.872Z" fill="#FFF4DA"/><path d="m73.406 50.661 73.236 10.477 2.261-5.59L70.315 42.79l3.09 7.872Z" stroke="#4C0D00" stroke-width="1.333" stroke-linejoin="bevel"/><path d="m105.843 34.156-6.43-8.358L33.852 41.59l5.707 8.231 66.284-15.665Z" fill="#FFF4DA"/><path d="m105.843 34.156-6.43-8.358L33.852 41.59l5.707 8.231 66.284-15.665Z" stroke="#4C0D00" stroke-width="1.333" stroke-linejoin="bevel"/><path d="m105.843 34.156-6.879 5.93-54.32 12.54-5.085-2.805 66.284-15.665Z" fill="#FFF4DA"/><path d="m105.843 34.156-6.879 5.93-54.32 12.54-5.085-2.805 66.284-15.665Z" stroke="#4C0D00" stroke-width="1.333" stroke-linejoin="bevel"/><path d="m89.245 44.215 45.653-27.791-4.107-4.846-47.725 28.487 6.179 4.15Z" fill="#FFF4DA"/><path d="m89.245 44.215 45.653-27.791-4.107-4.846-47.725 28.487 6.179 4.15Z" stroke="#4C0D00" stroke-width="1.333" stroke-linejoin="bevel"/><path d="m89.246 44.215 45.654-27.79 1.251 7.454-42.09 26.573-4.815-6.237Z" fill="#FFF4DA"/><path d="m89.246 44.215 45.654-27.79 1.251 7.454-42.09 26.573-4.815-6.237Z" stroke="#4C0D00" stroke-width="1.333" stroke-linejoin="bevel"/><path d="m94.059 50.452-6.56-4.39-4.433-5.996 6.178 4.149 4.815 6.237Z" fill="#FFF4DA"/><path d="m94.059 50.452-6.56-4.39-4.433-5.996 6.178 4.149 4.815 6.237Z" stroke="#4C0D00" stroke-width="1.333" stroke-linejoin="bevel"/><path d="m142.216 30.805-52.62-11.606 1.174 8.494 53.742 11.053-2.296-7.941Z" fill="#FFF4DA"/><path d="m142.216 30.805-52.62-11.606 1.174 8.494 53.742 11.053-2.296-7.941Z" stroke="#4C0D00" stroke-width="1.333" stroke-linejoin="bevel"/><path d="M139.678 41.126 88.781 30.679l1.989-2.986 53.741 11.052-4.833 2.38Z" fill="#FFF4DA"/><path d="M139.678 41.126 88.781 30.679l1.989-2.986 53.741 11.052-4.833 2.38Z" stroke="#4C0D00" stroke-width="1.333" stroke-linejoin="bevel"/><path d="m87.186 22.82 2.411-3.621 1.175 8.494-1.989 2.986-1.597-7.859Z" fill="#FFF4DA"/><path d="m87.186 22.82 2.411-3.621 1.175 8.494-1.989 2.986-1.597-7.859Z" stroke="#4C0D00" stroke-width="1.333" stroke-linejoin="bevel"/><path d="m182.278 17.02-70.444 44.487 5.611 6.78 63.781-39.694 1.052-11.573Z" fill="#FFF4DA"/><path d="m182.278 17.02-70.444 44.487 5.611 6.78 63.78-39.694 1.053-11.573Z" stroke="#4C0D00" stroke-width="1.333" stroke-linejoin="bevel"/><path d="m188.678 32.451-64.482 35.836h-6.751l63.781-39.694 7.452 3.858Z" fill="#FFF4DA"/><path d="m188.678 32.451-64.482 35.836h-6.751l63.781-39.694 7.452 3.858Z" stroke="#4C0D00" stroke-width="1.333" stroke-linejoin="bevel"/><path d="m182.277 17.02 7.131 4.15-.731 11.28-7.452-3.857 1.052-11.573Z" fill="#FFF4DA"/><path d="m182.277 17.02 7.131 4.15-.731 11.28-7.452-3.857 1.052-11.573Z" stroke="#4C0D00" stroke-width="1.333" stroke-linejoin="bevel"/><path d="m124.197 90.731 54.243-22.445 7.453-32.09-61.345 21.86-.351 32.675Z" fill="#FFF4DA"/><path d="m124.197 90.731 54.243-22.445 7.453-32.09-61.345 21.86-.351 32.675Z" stroke="#4C0D00" stroke-width="1.333" stroke-linejoin="bevel"/><path d="m4.531 32.776 10.346 32.475 109.321 25.48.35-32.674L4.531 32.777Z" fill="#FFF4DA"/><path d="m4.531 32.776 10.346 32.475 109.321 25.48.35-32.674L4.531 32.777Z" stroke="#4C0D00" stroke-width="1.333" stroke-linejoin="bevel"/><path d="m43.246 67.901-9.003 15.575c-1.59 2.722-5.3 4.423-11.85 4.423-6.548 0-10.607-2.008-11.849-4.423L1 66.906l42.246.995Z" fill="#FFF4DA"/><path d="m43.246 67.901-9.003 15.575c-1.59 2.722-5.3 4.423-11.85 4.423-6.548 0-10.607-2.008-11.849-4.423L1 66.906l42.246.995Z" stroke="#4C0D00" stroke-width="1.333" stroke-linejoin="bevel"/><path d="M43.789 66.12c0 4.406-9.578 7.978-21.394 7.978-11.815 0-21.393-3.572-21.393-7.978 0-4.407 9.578-7.979 21.393-7.979 11.816 0 21.394 3.572 21.394 7.979Z" fill="#FFF4DA"/><path d="M43.789 66.12c0 4.406-9.578 7.978-21.394 7.978-11.815 0-21.393-3.572-21.393-7.978 0-4.407 9.578-7.979 21.393-7.979 11.816 0 21.394 3.572 21.394 7.979Z" stroke="#4C0D00" stroke-width="1.333" stroke-linejoin="bevel"/><path d="M40.65 66.12c0 3.336-8.173 6.041-18.256 6.041-10.082 0-18.255-2.705-18.255-6.041 0-3.337 8.173-6.042 18.255-6.042 10.083 0 18.256 2.705 18.256 6.042Z" fill="#FF6D2F"/><path d="M40.65 66.12c0 3.336-8.173 6.041-18.256 6.041-10.082 0-18.255-2.705-18.255-6.041 0-3.337 8.173-6.042 18.255-6.042 10.083 0 18.256 2.705 18.256 6.042Z" stroke="#4C0D00" stroke-width="1.333" stroke-linejoin="bevel"/><path d="M40.648 66.12c0 3.332-8.171 6.038-18.257 6.038-6.94 0-12.979-1.286-16.06-3.168.093-2.11 1.975-3.725 6.242-2.87 0 0-1.224-2.926.76-4.267 0 0 5.122 5.537 12.98 5.647 6.532.094 7.779-3.764 14.304-1.741.023.117.031.243.031.36Z" fill="#FFF9EB"/><path d="M40.648 66.12c0 3.332-8.171 6.038-18.257 6.038-6.94 0-12.979-1.286-16.06-3.168.093-2.11 1.975-3.725 6.242-2.87 0 0-1.224-2.926.76-4.267 0 0 5.122 5.537 12.98 5.647 6.532.094 7.779-3.764 14.304-1.741.023.117.031.243.031.36Z" stroke="#4C0D00" stroke-width="1.333" stroke-linejoin="bevel"/><path d="M40.648 66.12c0 3.332-8.171 6.038-18.257 6.038-6.94 0-12.979-1.286-16.06-3.168.093-2.11 1.975-3.725 6.242-2.87 0 0-1.224-2.926.76-4.267 0 0 5.122 5.537 12.98 5.647 6.532.094 7.779-3.764 14.304-1.741.023.117.031.243.031.36Z" fill="#FFF4DA"/><path d="M40.648 66.12c0 3.332-8.171 6.038-18.257 6.038-6.94 0-12.979-1.286-16.06-3.168.093-2.11 1.975-3.725 6.242-2.87 0 0-1.224-2.926.76-4.267 0 0 5.122 5.537 12.98 5.647 6.532.094 7.779-3.764 14.304-1.741.023.117.031.243.031.36Z" stroke="#4C0D00" stroke-width="1.333" stroke-linejoin="bevel"/><path d="m33.559 4.34-14.61 35.03 4.443 9.238L39.996 1.44l-6.437 2.9Z" fill="#FFF4DA"/><path d="m33.559 4.34-14.61 35.03 4.443 9.238L39.996 1.44l-6.437 2.9Z" stroke="#4C0D00" stroke-width="1.333" stroke-linejoin="bevel"/><path d="M24.041 46.76 39.994 1.44l5.474 6.537L28.76 47.72l-4.719-.96Z" fill="#FFF4DA"/><path d="M24.041 46.76 39.994 1.44l5.474 6.537L28.76 47.72l-4.719-.96Z" stroke="#4C0D00" stroke-width="1.333" stroke-linejoin="bevel"/><path d="M24.575 34.538c-1.396-.657-2.096.238-4.669 2.727-2.572 2.49-3.827 3.737-1.005 6.552 2.821 2.814 3.388 3.132 3.407 5.858.018 2.725-.228 4.613 1.675 4.626 1.903.013 1.882-2.244 2.01-3.67.126-1.428-.442-6.394 1.35-6.048 1.793.345.285 4.401 2.105 4.35 1.82-.05 4.43-9.51 4.495-10.882.065-1.373-1.853-.244-2.468-1.985-.616-1.742.83-5.334-.978-5.868-1.81-.534-2.276 5.029-3.826 5.07-1.387.037-1.582-.488-2.096-.73Z" fill="#FFF4DA"/><path d="M24.575 34.538c-1.396-.657-2.096.238-4.669 2.727-2.572 2.49-3.827 3.737-1.005 6.552 2.821 2.814 3.388 3.132 3.407 5.858.018 2.725-.228 4.613 1.675 4.626 1.903.013 1.882-2.244 2.01-3.67.126-1.428-.442-6.394 1.35-6.048 1.793.345.285 4.401 2.105 4.35 1.82-.05 4.43-9.51 4.495-10.882.065-1.373-1.853-.244-2.468-1.985-.616-1.742.83-5.334-.978-5.868-1.81-.534-2.276 5.029-3.826 5.07-1.387.037-1.582-.488-2.096-.73Z" stroke="#4C0D00" stroke-width="1.333" stroke-linejoin="bevel"/></svg>