<svg width="219" height="70" viewBox="0 0 219 70" fill="none" xmlns="http://www.w3.org/2000/svg">
<path d="M18.1995 20.458L23.9194 40.2039H21.1279L15.3259 20.458H12.0692L17.6795 40.2039H14.8607L9.30501 20.458H6.07563L11.7134 40.2039H8.92188L3.33886 20.458H0L6.8693 44.601C7.7998 47.8783 10.6187 53.2859 15.7912 55.0612L29.1466 59.4309L32.1297 70.0003H35.6601L21.5931 20.458H18.1995Z" fill="#FF6D2F"/>
<path d="M40.1743 17.863C40.8037 18.2726 42.8837 19.2558 44.6626 18.4911C46.7425 17.6172 45.9762 15.405 44.1426 14.0121L47.673 13.6298L44.6079 10.0247C46.6331 5.68223 43.65 3.6339 42.1174 3.19692C41.0774 2.8965 39.709 2.95112 38.587 3.68852C37.7659 1.36708 36.0144 -0.0531012 33.825 0.00152094C27.421 0.165387 29.0904 7.26627 29.0904 7.26627L36.8354 8.05829C36.8354 8.05829 39.9006 8.30409 38.888 8.35872C30.8693 8.95956 26.2441 18.6004 26.2441 27.5311L34.8923 58.0376L43.3489 51.5648C51.4224 42.9619 48.6583 34.3589 43.8689 24.9365C41.8984 21.1949 40.5027 18.4638 40.1743 17.863Z" fill="#FF6D2F"/>
<path d="M218.888 46.7037L209.419 33.6763L217.301 23.1615C217.602 22.7792 217.492 22.4788 217 22.4788H211.69C211.252 22.4788 211.006 22.6699 210.787 22.9704L203.097 34.0314C202.851 34.3864 202.851 34.523 203.097 34.9326L211.033 46.7856C211.28 47.1407 211.581 47.2772 211.991 47.2772H218.642C218.997 47.2499 219.107 46.9495 218.888 46.7037Z" fill="#4C0D00"/>
<path d="M79.1746 22.4514H58.6214C58.3751 22.4514 58.2383 22.588 58.2383 22.8338V27.5859C58.2383 27.8317 58.3751 27.9683 58.6214 27.9683H65.7097V46.8129C65.7097 47.0587 65.8465 47.1953 66.1202 47.1953H71.6758C71.9221 47.1953 72.0863 47.0587 72.0863 46.8129V27.9683H79.1746C79.4209 27.9683 79.5577 27.8317 79.5577 27.5859V22.8338C79.5577 22.6153 79.4209 22.4514 79.1746 22.4514Z" fill="#4C0D00"/>
<path d="M94.2815 21.9604C86.5911 21.9604 80.625 26.9584 80.625 34.742C80.625 42.5257 86.5911 47.7148 94.2815 47.7148C101.972 47.7148 107.938 42.7988 107.938 34.742C107.938 26.658 101.972 21.9604 94.2815 21.9604ZM94.2815 42.3891C90.3132 42.3891 87.3848 39.2757 87.3848 34.742C87.3848 30.5361 90.3132 27.3134 94.2815 27.3134C98.2498 27.3134 101.178 30.5361 101.178 34.742C101.178 39.2484 98.2498 42.3891 94.2815 42.3891Z" fill="#4C0D00"/>
<path d="M161.03 22.4516H155.475C155.228 22.4516 155.064 22.5882 155.064 22.834V31.8466C153.833 33.1303 152.081 33.8677 150.248 33.8677C147.511 33.8677 145.978 32.3929 145.978 28.9517V22.8067C145.978 22.5609 145.841 22.4243 145.568 22.4243H140.012C139.766 22.4243 139.629 22.5609 139.629 22.8067V30.645C139.629 36.1891 142.721 39.4118 148.222 39.4118C150.795 39.4118 153.203 38.5652 155.092 37.145V46.8131C155.092 47.0589 155.228 47.2228 155.502 47.2228H161.058C161.304 47.2228 161.441 47.0862 161.441 46.8131V22.8067C161.441 22.5882 161.277 22.4516 161.03 22.4516Z" fill="#4C0D00"/>
<path d="M189.195 22.4514H184.926C184.542 22.4514 184.323 22.6426 184.077 22.9976L173.458 37.4998V22.8611C173.458 22.6153 173.322 22.4787 173.075 22.4787H167.766C167.52 22.4787 167.355 22.6153 167.355 22.8611V46.8675C167.355 47.1133 167.492 47.2772 167.766 47.2772H171.898C172.391 47.2772 172.692 47.086 172.938 46.731L183.53 32.2834V46.8948C183.53 47.1406 183.667 47.2772 183.94 47.2772H189.25C189.496 47.2772 189.633 47.1406 189.633 46.8948V22.8884C189.605 22.6153 189.441 22.4514 189.195 22.4514Z" fill="#4C0D00"/>
<path d="M201.454 22.4514H195.899C195.68 22.4514 195.488 22.6153 195.488 22.8338V46.8402C195.488 47.0587 195.68 47.2226 195.899 47.2226H201.454C201.673 47.2226 201.838 47.0587 201.838 46.8402V22.8338C201.865 22.6426 201.673 22.4514 201.454 22.4514Z" fill="#4C0D00"/>
<path d="M134.457 22.4514H112.317C112.07 22.4514 111.934 22.588 111.934 22.8338V46.8402C111.934 47.086 112.07 47.2226 112.317 47.2226H117.872C118.119 47.2226 118.283 47.086 118.283 46.8402V27.9956H128.518V46.8402C128.518 47.086 128.655 47.2226 128.902 47.2226H134.457C134.704 47.2226 134.868 47.086 134.868 46.8402V22.8338C134.84 22.6153 134.704 22.4514 134.457 22.4514Z" fill="#4C0D00"/>
</svg>
