<svg width="219" height="70" fill="none" xmlns="http://www.w3.org/2000/svg"><path d="m18.2 20.458 5.72 19.746h-2.792l-5.802-19.746h-3.257l5.61 19.746h-2.818L9.305 20.458h-3.23l5.638 19.746H8.922L3.339 20.458H0l6.87 24.143c.93 3.277 3.749 8.685 8.921 10.46l13.356 4.37L32.13 70h3.53L21.593 20.457H18.2Zm21.974-2.595c.63.41 2.71 1.393 4.489.628 2.08-.874 1.313-3.086-.52-4.479l3.53-.382-3.065-3.605c2.025-4.343-.958-6.391-2.49-6.828-1.04-.3-2.409-.246-3.531.492-.821-2.322-2.573-3.742-4.762-3.687-6.404.163-4.735 7.264-4.735 7.264l7.745.792s3.066.246 2.053.3C30.869 8.96 26.244 18.6 26.244 27.532l8.648 30.507 8.457-6.473c8.073-8.603 5.31-17.206.52-26.628-1.97-3.742-3.366-6.473-3.695-7.074Zm178.714 28.841-9.469-13.028 7.882-10.514c.301-.383.191-.683-.301-.683h-5.31c-.438 0-.684.191-.903.492l-7.69 11.06c-.246.356-.246.492 0 .902l7.936 11.853c.247.355.548.492.958.492h6.651c.355-.028.465-.328.246-.574ZM79.175 22.452H58.62c-.246 0-.383.136-.383.382v4.752c0 .246.137.383.383.383h7.089v18.844c0 .246.137.383.41.383h5.556c.246 0 .41-.137.41-.383V27.968h7.089c.246 0 .383-.136.383-.382v-4.752c0-.218-.137-.382-.383-.382Zm15.106-.492c-7.69 0-13.656 4.998-13.656 12.782s5.966 12.973 13.656 12.973c7.691 0 13.657-4.916 13.657-12.973 0-8.084-5.966-12.782-13.657-12.782Zm0 20.43c-3.968 0-6.896-3.114-6.896-7.648 0-4.206 2.928-7.429 6.896-7.429 3.969 0 6.897 3.223 6.897 7.429 0 4.506-2.928 7.647-6.897 7.647Zm66.749-19.938h-5.555c-.247 0-.411.136-.411.382v9.013c-1.231 1.283-2.983 2.02-4.816 2.02-2.737 0-4.27-1.474-4.27-4.915v-6.145c0-.246-.137-.383-.41-.383h-5.556c-.246 0-.383.137-.383.383v7.838c0 5.544 3.092 8.767 8.593 8.767 2.573 0 4.981-.847 6.87-2.267v9.668c0 .246.136.41.41.41h5.556c.246 0 .383-.137.383-.41V22.807c0-.219-.164-.355-.411-.355Zm28.165 0h-4.269c-.384 0-.603.19-.849.546L173.458 37.5V22.861c0-.245-.136-.382-.383-.382h-5.309c-.246 0-.411.137-.411.382v24.007c0 .246.137.41.411.41h4.132c.493 0 .794-.192 1.04-.547l10.592-14.447v14.611c0 .246.137.382.41.382h5.31c.246 0 .383-.136.383-.382V22.89c-.028-.273-.192-.437-.438-.437Zm12.259 0h-5.555c-.219 0-.411.163-.411.382V46.84c0 .219.192.383.411.383h5.555a.374.374 0 0 0 .384-.383V22.834c.027-.191-.165-.382-.384-.382Zm-66.997 0h-22.14c-.247 0-.383.136-.383.382V46.84c0 .246.136.383.383.383h5.555c.247 0 .411-.137.411-.383V27.996h10.235V46.84c0 .245.137.382.384.382h5.555c.247 0 .411-.137.411-.383V22.834c-.028-.218-.164-.382-.411-.382Z" fill="#FFF4DA"/></svg>