<svg width="283" height="64" fill="none" xmlns="http://www.w3.org/2000/svg"><mask id="a" style="mask-type:luminance" maskUnits="userSpaceOnUse" x="0" y="0" width="308" height="65"><path d="M308 0H0v64.458h308V0Z" fill="#fff"/></mask><g mask="url(#a)"><path d="M25.7 4.249h-9.51v9.52h9.51v-9.52ZM9.403 20.76H-.105v9.52h9.508v-9.52Zm0-16.511H-.105v9.52h9.508v-9.52Z" fill="#76BC21"/><path d="M96.7 20.76v9.126H71.183v6.418h18.963v8.606H71.183v6.257h26.502v9.197H61.656V20.76H96.7Zm39.556 14.899a13.975 13.975 0 0 0-12.535-6.92 11.804 11.804 0 0 0-8.653 3.295 11.843 11.843 0 0 0 0 17.056 11.818 11.818 0 0 0 8.653 3.296 13.686 13.686 0 0 0 7.169-1.513 13.707 13.707 0 0 0 5.366-4.995l7.682 4.32c-4.011 7.512-11.658 11.241-20.325 11.241-12.069 0-21.488-7.942-21.488-20.778 0-12.837 9.867-20.76 21.488-20.76 8.954 0 16.26 3.782 20.325 11.24l-7.682 4.518Zm138.96 0a13.99 13.99 0 0 0-12.535-6.92 11.815 11.815 0 0 0-11.335 7.19 11.88 11.88 0 0 0-.944 4.633 11.84 11.84 0 0 0 3.626 8.528 11.812 11.812 0 0 0 8.653 3.296 13.674 13.674 0 0 0 12.535-6.508l7.718 4.32c-4.011 7.512-11.658 11.241-20.325 11.241-12.069 0-21.488-7.942-21.488-20.778 0-12.837 9.867-20.76 21.488-20.76 8.954 0 16.26 3.782 20.325 11.24l-7.718 4.518ZM30.625 20.76H15.941v14.702h14.684V20.76Z" fill="#4A4F54"/><path d="M38.146 20.76h-.68v9.198h1.432a5.81 5.81 0 0 1 4.554 1.562 5.83 5.83 0 0 1 1.821 4.462 6.033 6.033 0 0 1-1.772 4.593 6.018 6.018 0 0 1-4.603 1.735H15.941v18.054h9.527v-8.839h12.678c9.509 0 16.528-6.095 16.528-15.472 0-9.376-7.02-15.292-16.528-15.292ZM180.04 51.077l10.315-30.316h-9.688l-5.659 17.695h-11.12a2.273 2.273 0 0 1-2.167-1.614l-4.834-16.135h-9.563l5.802 18.233c1.934 5.736 5.587 7.852 11.89 7.852h7.45l-.555 1.954a4.634 4.634 0 0 1-4.459 3.245h-12.088l-2.757 8.462h14.487a13.653 13.653 0 0 0 7.985-2.596 13.681 13.681 0 0 0 4.961-6.78ZM43.464 6.131h-4.065v7.637h-1.934V4.284h5.999v1.847Zm10.812 1.345a3.09 3.09 0 0 1-.925 2.42 3.08 3.08 0 0 1-2.442.86h-2.041v3.066h-1.934V4.285h3.975a3.04 3.04 0 0 1 3.154 1.9c.163.41.236.85.212 1.29Zm-1.952 0c0-.843-.484-1.363-1.487-1.363h-1.97v2.743h1.97c1.093 0 1.487-.538 1.487-1.362v-.018Zm8.418 6.292h-2.167l1.79-3.28-3.33-6.204h2.149l2.185 4.106 2.13-4.106h2.15l-4.907 9.484Zm16.455 0H75.21V6.131h-4.155v7.637h-1.934V4.284h8.076v9.484Zm12.215 0h-1.934V6.131H83.27v7.637h-1.934V4.284h8.076v9.484Zm10.17-2.241H95.75l-.842 2.241h-2.006l3.582-9.484h2.435l3.581 9.484h-2.13l-.788-2.24Zm-.68-1.792-1.236-3.443-1.254 3.443h2.49Zm19.287 1.792h-3.922l-.823 2.241h-2.042l3.582-9.484h2.453l3.581 9.484h-2.059l-.77-2.24Zm-.68-1.792-1.254-3.443-1.235 3.443h2.489Zm12.909-3.604h-4.047v7.637h-1.933V4.284h5.98v1.847Zm10.834 1.345a3.076 3.076 0 0 1-.924 2.42 3.084 3.084 0 0 1-2.442.86h-2.042v3.066h-1.934V4.285h3.976a3.06 3.06 0 0 1 3.366 3.191Zm-1.97 0c0-.843-.483-1.363-1.486-1.363h-1.952v2.743h2.042c.913 0 1.396-.537 1.396-1.362v-.018Zm15.114 1.488a4.95 4.95 0 0 1-3.026 4.597 4.935 4.935 0 0 1-5.398-1.05 4.952 4.952 0 0 1 .732-7.623 4.941 4.941 0 0 1 2.75-.837 4.83 4.83 0 0 1 4.585 3.013 4.83 4.83 0 0 1 .357 1.9Zm-7.915 0a2.969 2.969 0 0 0 .871 2.104 2.979 2.979 0 0 0 2.102.872 2.976 2.976 0 0 0 2.746-1.837 2.968 2.968 0 0 0 0-2.278 2.97 2.97 0 0 0-5.492 0c-.15.361-.227.748-.227 1.139Zm19.697 4.804h-1.934V6.131h-4.208v7.637h-1.934V4.284h8.076v9.484Zm11.476-6.292a3.083 3.083 0 0 1-3.366 3.227h-2.042v3.066h-1.934V4.285h3.976a3.058 3.058 0 0 1 3.147 1.903c.165.409.24.848.219 1.288Zm-1.951 0c0-.843-.484-1.363-1.487-1.363h-1.97v2.743h1.97c1.003 0 1.487-.537 1.487-1.362v-.018Zm7.614-1.345v1.9h4.047v1.793h-4.047v2.044h4.423v1.793h-6.357V4.284h6.357v1.793l-4.423.054Zm17.942 5.791v3.729h-1.934v-1.883h-6.411v1.883h-1.934v-3.73h1.343a2.28 2.28 0 0 0 .448-1.254l1.021-6.383h6.106v7.638h1.361Zm-6.84 0H198V6.13h-2.543l-.752 4.715a7.528 7.528 0 0 1-.286 1.076Zm18.391 1.846h-1.934V6.131h-4.208v7.637h-1.934V4.284h8.076v9.484Zm11.477-6.292a3.083 3.083 0 0 1-3.366 3.227h-2.042v3.066h-1.934V4.285h3.976a3.046 3.046 0 0 1 3.153 1.9c.163.41.236.85.213 1.29Zm-1.952 0c0-.843-.483-1.363-1.486-1.363h-1.97v2.743h1.97c1.003 0 1.486-.538 1.486-1.362v-.018Zm13.7-3.192v9.484h-1.934V9.806l.179-2.671-4.118 6.633h-2.221V4.284h1.934v3.963l-.179 2.67 4.137-6.633h2.202Zm11.262 0v9.484h-1.97v-3.263h-1.217l-2.31 3.263h-2.382l2.543-3.46a2.818 2.818 0 0 1-2.006-2.922 2.93 2.93 0 0 1 .89-2.303 2.908 2.908 0 0 1 2.333-.799h4.119Zm-1.97 4.465V6.13h-1.934c-1.002 0-1.486.52-1.486 1.309 0 .789.484 1.309 1.486 1.309h1.934Zm12.822-2.618h-2.74v7.637h-1.934V6.131h-2.776V4.338h7.378l.072 1.793Zm11.515-1.847v9.484h-1.934V9.806l.179-2.671-4.118 6.633h-2.221V4.284h1.934v3.963l-.179 2.67 4.119-6.633h2.22Zm12.102.001v9.483h-1.934V9.806l.179-2.67-4.119 6.632h-2.22V4.285h1.934v3.962l-.179 2.671 4.118-6.633h2.221Zm-6.321-3.156V.771h1.522v.305a.76.76 0 0 0 .172.605.74.74 0 0 0 .571.263.757.757 0 0 0 .571-.263.766.766 0 0 0 .172-.605V.77h1.522v.358a2.277 2.277 0 0 1-2.265 2.075 2.272 2.272 0 0 1-2.265-2.075ZM218.826 20.76h-22.205v39.604h9.527v-8.839h12.678c9.508 0 16.528-6.095 16.528-15.472 0-9.376-7.02-15.292-16.528-15.292Zm.752 21.514h-13.43V29.958h13.43a5.812 5.812 0 0 1 4.554 1.562 5.84 5.84 0 0 1 1.821 4.462 6.028 6.028 0 0 1-3.888 5.953 6.016 6.016 0 0 1-2.487.375v-.036Z" fill="#4A4F54"/></g></svg>