<svg width="416" height="426" fill="none" xmlns="http://www.w3.org/2000/svg"><path fill-rule="evenodd" clip-rule="evenodd" d="M123.485 125.305c-.531.534-.965 25.629-.965 55.769v54.798H235.1l-.372-55.394-.373-55.394-54.952-.375c-30.222-.204-55.386.063-55.918.596Zm162.514-.141c-.588.61-1.069 16.442-1.069 35.182v34.07l8.192.023c31.331.084 50.695 17.552 50.61 45.652-.052 17.03-6.272 30.476-17.71 38.28-12.49 8.523-8.317 8.181-109.475 8.96l-93.315.719v135.806l35.972.381 35.973.382v-67.042l60.192-.562c56.215-.523 60.975-.766 72.042-3.672 31.019-8.144 57.067-26.708 71.934-51.266 6.874-11.353 13.282-31.111 15.349-47.325 2.11-16.551.094-37.045-5.21-52.964-12.575-37.747-44.54-65.093-86.088-73.649-13.007-2.679-35.93-4.502-37.397-2.975Z" fill="#4A4F55"/><path d="M123.944 72.191V.715l35.616.404 35.618.406v69.856l-35.618.406-35.616.404ZM2.137 71.807l-.38-35.188-.382-35.19h71.333l-.382 35.038-.38 35.038-34.905.15-34.904.152Zm-.712 89.611c0-19.328.422-35.566.939-36.084.713-.717 68.23-.414 69.938.313.195.083.356 16.072.356 35.533v35.38H1.425v-35.142Z" fill="#75BC20"/></svg>