<svg width="119" height="88" viewBox="0 0 119 88" fill="none" xmlns="http://www.w3.org/2000/svg">
<path d="M99.7901 2.00152V86.9824H1.71289L86.6935 2.00152H99.7901Z" fill="#4C0D00"/>
<path d="M99.7901 2.00152V86.9824H1.71289L86.6935 2.00152H99.7901Z" stroke="#FF6D2F" stroke-width="1.33333"/>
<path d="M109.489 2.00152V86.9824H11.4121L96.3928 2.00152H109.489Z" fill="white"/>
<path d="M109.489 2.00152V86.9824H11.4121L96.3928 2.00152H109.489Z" stroke="#4C0D00" stroke-width="1.33333"/>
<path d="M50.7529 48.7645C49.4759 42.1467 52.193 33.7085 60.5519 35.246C60.5519 35.246 55.8152 31.3036 58.8799 27.7743C61.945 24.245 66.8674 30.5605 66.8674 30.5605C66.8674 30.5605 64.3133 19.7404 74.2974 19.9726C74.2974 19.9726 69.3248 16.5083 71.8362 13.3321C74.9941 9.33821 80.4507 9.66346 83.864 12.2407C83.864 12.2407 83.504 8.69944 87.5905 6.84205C91.6772 4.98441 99.0958 8.17725 99.0958 8.17725C99.0958 8.17725 120.365 44.6778 102.718 58.981C85.0714 73.284 50.7529 48.7645 50.7529 48.7645Z" fill="#FFF4DA"/>
<path d="M50.7529 48.7645C49.4759 42.1467 52.193 33.7085 60.5519 35.246C60.5519 35.246 55.8152 31.3036 58.8799 27.7743C61.945 24.245 66.8674 30.5605 66.8674 30.5605C66.8674 30.5605 64.3133 19.7404 74.2974 19.9726C74.2974 19.9726 69.3248 16.5083 71.8362 13.3321C74.9941 9.33821 80.4507 9.66346 83.864 12.2407C83.864 12.2407 83.504 8.69944 87.5905 6.84205C91.6772 4.98441 99.0958 8.17725 99.0958 8.17725C99.0958 8.17725 120.365 44.6778 102.718 58.981C85.0714 73.284 50.7529 48.7645 50.7529 48.7645Z" stroke="#4C0D00" stroke-width="1.33333" stroke-miterlimit="10"/>
<path d="M16.0486 84.3689C6.0553 82.6416 12.9055 64.8795 23.4004 68.8728C23.4004 68.8728 20.7067 59.353 25.072 56.4275C29.4373 53.5017 31.7592 59.2137 31.7592 59.2137C31.7592 59.2137 31.1554 55.4522 34.9171 51.0405C38.6786 46.6288 42.2523 47.1576 46.4788 48.739C46.4788 48.739 48.4306 38.5949 59.9938 48.44C67.0973 54.4879 47.5482 81.8755 47.5482 81.8755L16.0486 84.3689Z" fill="#FFF4DA"/>
<path d="M16.0486 84.3689C6.0553 82.6416 12.9055 64.8795 23.4004 68.8728C23.4004 68.8728 20.7067 59.353 25.072 56.4275C29.4373 53.5017 31.7592 59.2137 31.7592 59.2137C31.7592 59.2137 31.1554 55.4522 34.9171 51.0405C38.6786 46.6288 42.2523 47.1576 46.4788 48.739C46.4788 48.739 48.4306 38.5949 59.9938 48.44C67.0973 54.4879 47.5482 81.8755 47.5482 81.8755L16.0486 84.3689Z" stroke="#4C0D00" stroke-width="1.33333" stroke-miterlimit="10"/>
<path d="M18.2189 81.3619C18.2595 81.3211 18.3003 81.2803 18.3411 81.2446L18.1016 81.4844C18.1373 81.4436 18.1781 81.4027 18.2189 81.3619Z" fill="white"/>
<path d="M28.7345 70.8497C28.7753 70.8089 28.8162 70.7681 28.857 70.7324L28.6172 70.9722C28.6529 70.9314 28.6937 70.8905 28.7345 70.8497Z" fill="white"/>
<path d="M33.9943 65.5887C34.0351 65.5479 34.0757 65.5071 34.1165 65.4714L33.877 65.7112C33.9127 65.6704 33.9535 65.6295 33.9943 65.5887Z" fill="white"/>
<path d="M39.2541 60.3277C39.2949 60.2869 39.3357 60.2461 39.3763 60.2104L39.1367 60.4502C39.1724 60.4094 39.2132 60.3686 39.2541 60.3277Z" fill="white"/>
<path d="M44.5119 55.0687C44.5524 55.0279 44.5933 54.9871 44.6341 54.9514L44.3945 55.1912C44.4302 55.1503 44.4711 55.1095 44.5119 55.0687Z" fill="white"/>
<path d="M55.0353 44.5465C55.0761 44.5057 55.1169 44.4649 55.1578 44.4292L54.918 44.6689C54.9539 44.6281 54.9945 44.5873 55.0353 44.5465Z" fill="white"/>
<path d="M60.2931 39.2875C60.3339 39.2466 60.3748 39.2058 60.4156 39.1701L60.1758 39.4099C60.2118 39.3691 60.2526 39.3283 60.2931 39.2875Z" fill="white"/>
<path d="M70.8146 28.7662C70.8554 28.7254 70.8962 28.6846 70.9368 28.6489L70.6973 28.8887C70.733 28.8479 70.7738 28.807 70.8146 28.7662Z" fill="white"/>
<path d="M76.0744 23.5072C76.1152 23.4664 76.156 23.4256 76.1968 23.3898L75.957 23.6296C75.9927 23.5888 76.0336 23.548 76.0744 23.5072Z" fill="white"/>
<path d="M81.34 18.2408C81.3808 18.2 81.4216 18.1592 81.4625 18.1235L81.2227 18.3633C81.2586 18.3225 81.2994 18.2816 81.34 18.2408Z" fill="white"/>
<path d="M114.09 2.44646V86.9817L12.9629 86.6246C13.0037 86.5837 13.0445 86.5429 13.0853 86.5072C14.32 85.349 15.0397 85.9868 16.3098 84.7164C17.5853 83.4409 16.9427 82.7266 18.1009 81.4868L18.3404 81.247C19.5802 80.094 20.2945 80.7317 21.57 79.4562C22.8455 78.1858 22.2029 77.4664 23.3608 76.2317C23.3965 76.1909 23.4376 76.1501 23.4784 76.1093C23.5192 76.0685 23.5598 76.0277 23.6006 75.992C24.8353 74.8338 25.5547 75.4715 26.8251 74.2011C28.1006 72.9256 27.4628 72.2114 28.6159 70.9716L28.8559 70.7318C30.0955 69.5736 30.8097 70.2165 32.0852 68.941C33.3607 67.6655 32.7179 66.9512 33.8763 65.7114L34.1158 65.4716C35.3556 64.3186 36.0699 64.9563 37.3454 63.6808C38.6209 62.4104 37.9783 61.691 39.1365 60.4512L39.376 60.2114C40.6158 59.0584 41.3301 59.6961 42.6056 58.4206C43.8762 57.1502 43.2385 56.4308 44.3966 55.1911L44.6362 54.9513C45.8762 53.7982 46.5903 54.436 47.8658 53.1605C49.1364 51.8901 48.4987 51.1707 49.6566 49.936C49.6925 49.8952 49.7333 49.8543 49.7742 49.8135C49.8147 49.7727 49.8555 49.7319 49.8964 49.6962C51.1364 48.538 51.8504 49.1758 53.1259 47.9003C54.4014 46.6299 53.7586 45.9105 54.9167 44.6707L55.1565 44.4309C56.3963 43.2779 57.1109 43.9156 58.3864 42.6401C59.6619 41.3646 59.0188 40.6503 60.1769 39.4105L60.417 39.1707C61.6567 38.0126 62.371 38.6554 63.6465 37.3799C64.922 36.1044 64.2843 35.3901 65.4424 34.1504C65.4779 34.1095 65.519 34.0687 65.5598 34.0279C65.6003 33.9871 65.6412 33.9463 65.682 33.9106C66.9167 32.7524 67.636 33.3953 68.9067 32.1198C70.1822 30.8443 69.5445 30.13 70.6973 28.8902L70.937 28.6504C72.1768 27.4922 72.8911 28.1351 74.1666 26.8596C75.4421 25.5841 74.8044 24.8698 75.9574 23.63L76.1975 23.3902C77.437 22.2321 78.1567 22.8749 79.4322 21.5994C80.7023 20.3239 80.0646 19.6045 81.2227 18.3647L81.4628 18.1249C82.7025 16.9668 83.4168 17.6096 84.6923 16.3341C85.9678 15.0586 85.3301 14.3444 86.4882 13.1046C86.5237 13.0637 86.5648 13.0229 86.6056 12.9821C86.6461 12.9413 86.687 12.9005 86.7278 12.8648C87.9678 11.7066 88.6818 12.3444 89.9574 11.0689C91.2328 9.79335 90.5903 9.07908 91.7533 7.83929C91.789 7.79847 91.8298 7.75765 91.8706 7.71684C91.9117 7.67602 91.9525 7.63521 91.9933 7.59949C93.2328 6.44134 93.9471 7.07909 95.2226 5.80358C96.5035 4.52298 95.8604 3.8087 97.0239 2.56891C97.0593 2.52809 97.1002 2.48727 97.1412 2.44646H114.09Z" fill="#FFF4DA"/>
<path d="M114.09 2.44646V86.9817L12.9629 86.6246C13.0037 86.5837 13.0445 86.5429 13.0853 86.5072C14.32 85.349 15.0397 85.9868 16.3098 84.7164C17.5853 83.4409 16.9427 82.7266 18.1009 81.4868L18.3404 81.247C19.5802 80.094 20.2945 80.7317 21.57 79.4562C22.8455 78.1858 22.2029 77.4664 23.3608 76.2317C23.3965 76.1909 23.4376 76.1501 23.4784 76.1093C23.5192 76.0685 23.5598 76.0277 23.6006 75.992C24.8353 74.8338 25.5547 75.4715 26.8251 74.2011C28.1006 72.9256 27.4628 72.2114 28.6159 70.9716L28.8559 70.7318C30.0955 69.5736 30.8097 70.2165 32.0852 68.941C33.3607 67.6655 32.7179 66.9512 33.8763 65.7114L34.1158 65.4716C35.3556 64.3186 36.0699 64.9563 37.3454 63.6808C38.6209 62.4104 37.9783 61.691 39.1365 60.4512L39.376 60.2114C40.6158 59.0584 41.3301 59.6961 42.6056 58.4206C43.8762 57.1502 43.2385 56.4308 44.3966 55.1911L44.6362 54.9513C45.8762 53.7982 46.5903 54.436 47.8658 53.1605C49.1364 51.8901 48.4987 51.1707 49.6566 49.936C49.6925 49.8952 49.7333 49.8543 49.7742 49.8135C49.8147 49.7727 49.8555 49.7319 49.8964 49.6962C51.1364 48.538 51.8504 49.1758 53.1259 47.9003C54.4014 46.6299 53.7586 45.9105 54.9167 44.6707L55.1565 44.4309C56.3963 43.2779 57.1109 43.9156 58.3864 42.6401C59.6619 41.3646 59.0188 40.6503 60.1769 39.4105L60.417 39.1707C61.6567 38.0126 62.371 38.6554 63.6465 37.3799C64.922 36.1044 64.2843 35.3901 65.4424 34.1504C65.4779 34.1095 65.519 34.0687 65.5598 34.0279C65.6003 33.9871 65.6412 33.9463 65.682 33.9106C66.9167 32.7524 67.636 33.3953 68.9067 32.1198C70.1822 30.8443 69.5445 30.13 70.6973 28.8902L70.9371 28.6504C72.1768 27.4922 72.8911 28.1351 74.1666 26.8596C75.4421 25.5841 74.8044 24.8698 75.9574 23.63L76.1975 23.3902C77.437 22.2321 78.1567 22.8749 79.4322 21.5994C80.7023 20.3239 80.0646 19.6045 81.2227 18.3647L81.4628 18.1249C82.7025 16.9668 83.4168 17.6096 84.6923 16.3341C85.9678 15.0586 85.3301 14.3443 86.4882 13.1046C86.5237 13.0637 86.5648 13.0229 86.6056 12.9821C86.6461 12.9413 86.687 12.9005 86.7278 12.8648C87.9678 11.7066 88.6818 12.3444 89.9573 11.0689C91.2329 9.79335 90.5903 9.07908 91.7533 7.83929C91.789 7.79847 91.8298 7.75765 91.8706 7.71684C91.9117 7.67602 91.9525 7.63521 91.9933 7.59949C93.2328 6.44134 93.9471 7.07909 95.2226 5.80358C96.5035 4.52298 95.8604 3.8087 97.0239 2.56891C97.0593 2.52809 97.1002 2.48727 97.1412 2.44646H114.09Z" stroke="#4C0D00" stroke-width="1.33333"/>
<path d="M18.2189 81.3619C18.2595 81.3211 18.3003 81.2803 18.3411 81.2446L18.1016 81.4844C18.1373 81.4436 18.1781 81.4027 18.2189 81.3619Z" fill="white"/>
<path d="M18.2189 81.3619C18.2595 81.3211 18.3003 81.2803 18.3411 81.2446L18.1016 81.4844C18.1373 81.4436 18.1781 81.4027 18.2189 81.3619Z" stroke="#4C0D00" stroke-width="1.33333"/>
<path d="M28.7345 70.8497C28.7753 70.8089 28.8162 70.7681 28.857 70.7324L28.6172 70.9722C28.6529 70.9314 28.6937 70.8905 28.7345 70.8497Z" fill="white"/>
<path d="M28.7345 70.8497C28.7753 70.8089 28.8162 70.7681 28.857 70.7324L28.6172 70.9722C28.6529 70.9314 28.6937 70.8905 28.7345 70.8497Z" stroke="#4C0D00" stroke-width="1.33333"/>
<path d="M33.9943 65.5887C34.0351 65.5479 34.0757 65.5071 34.1165 65.4714L33.877 65.7112C33.9127 65.6704 33.9535 65.6295 33.9943 65.5887Z" fill="white"/>
<path d="M33.9943 65.5887C34.0351 65.5479 34.0757 65.5071 34.1165 65.4714L33.877 65.7112C33.9127 65.6704 33.9535 65.6295 33.9943 65.5887Z" stroke="#4C0D00" stroke-width="1.33333"/>
<path d="M39.2541 60.3277C39.2949 60.2869 39.3357 60.2461 39.3763 60.2104L39.1367 60.4502C39.1724 60.4094 39.2132 60.3686 39.2541 60.3277Z" fill="white"/>
<path d="M39.2541 60.3277C39.2949 60.2869 39.3357 60.2461 39.3763 60.2104L39.1367 60.4502C39.1724 60.4094 39.2132 60.3686 39.2541 60.3277Z" stroke="#4C0D00" stroke-width="1.33333"/>
<path d="M44.5119 55.0687C44.5524 55.0279 44.5933 54.9871 44.6341 54.9514L44.3945 55.1912C44.4302 55.1503 44.4711 55.1095 44.5119 55.0687Z" fill="white"/>
<path d="M44.5119 55.0687C44.5524 55.0279 44.5933 54.9871 44.6341 54.9514L44.3945 55.1912C44.4302 55.1503 44.4711 55.1095 44.5119 55.0687Z" stroke="#4C0D00" stroke-width="1.33333"/>
<path d="M55.0353 44.5465C55.0761 44.5057 55.1169 44.4649 55.1578 44.4292L54.918 44.6689C54.9539 44.6281 54.9945 44.5873 55.0353 44.5465Z" fill="white"/>
<path d="M55.0353 44.5465C55.0761 44.5057 55.1169 44.4649 55.1578 44.4292L54.918 44.6689C54.9539 44.6281 54.9945 44.5873 55.0353 44.5465Z" stroke="#4C0D00" stroke-width="1.33333"/>
<path d="M60.2931 39.2875C60.3339 39.2466 60.3748 39.2058 60.4156 39.1701L60.1758 39.4099C60.2118 39.3691 60.2526 39.3283 60.2931 39.2875Z" fill="white"/>
<path d="M60.2931 39.2875C60.3339 39.2466 60.3748 39.2058 60.4156 39.1701L60.1758 39.4099C60.2118 39.3691 60.2526 39.3283 60.2931 39.2875Z" stroke="#4C0D00" stroke-width="1.33333"/>
<path d="M70.8146 28.7662C70.8554 28.7254 70.8962 28.6846 70.9368 28.6489L70.6973 28.8887C70.733 28.8479 70.7738 28.807 70.8146 28.7662Z" fill="white"/>
<path d="M70.8146 28.7662C70.8554 28.7254 70.8962 28.6846 70.9368 28.6489L70.6973 28.8887C70.733 28.8479 70.7738 28.807 70.8146 28.7662Z" stroke="#4C0D00" stroke-width="1.33333"/>
<path d="M76.0744 23.5072C76.1152 23.4664 76.156 23.4256 76.1968 23.3898L75.957 23.6296C75.9927 23.5888 76.0336 23.548 76.0744 23.5072Z" fill="white"/>
<path d="M76.0744 23.5072C76.1152 23.4664 76.156 23.4256 76.1968 23.3898L75.957 23.6296C75.9927 23.5888 76.0336 23.548 76.0744 23.5072Z" stroke="#4C0D00" stroke-width="1.33333"/>
<path d="M81.4625 18.1235L81.2227 18.3633C81.2584 18.3225 81.2992 18.2816 81.34 18.2408C81.3808 18.2 81.4216 18.1592 81.4625 18.1235Z" fill="white"/>
<path d="M81.4625 18.1235L81.2227 18.3633C81.2584 18.3225 81.2992 18.2816 81.34 18.2408C81.3808 18.2 81.4216 18.1592 81.4625 18.1235Z" stroke="#4C0D00" stroke-width="1.33333"/>
<path d="M75.4815 28.2597C77.3358 26.3429 80.5202 28.1814 79.7873 30.7456C82.3516 30.0127 84.1901 33.1969 82.2733 35.0515C84.8605 35.6989 84.8605 39.3759 82.2733 40.0234C84.1901 41.8777 82.3516 45.0619 79.7873 44.3292C80.5202 46.8935 77.3358 48.732 75.4815 46.8152C74.834 49.4024 71.157 49.4024 70.5096 46.8152C68.6552 48.732 65.4708 46.8935 66.2037 44.3292C63.6395 45.0619 61.8009 41.8777 63.7178 40.0234C61.1305 39.3759 61.1305 35.6989 63.7178 35.0515C61.8009 33.1969 63.6395 30.0127 66.2037 30.7456C65.4708 28.1814 68.6552 26.3429 70.5096 28.2597C71.157 25.6725 74.834 25.6725 75.4815 28.2597Z" fill="#FFF4DA"/>
<path d="M75.4815 28.2597C77.3358 26.3429 80.5202 28.1814 79.7873 30.7456C82.3516 30.0127 84.1901 33.1969 82.2733 35.0515C84.8605 35.6989 84.8605 39.3759 82.2733 40.0234C84.1901 41.8777 82.3516 45.0619 79.7873 44.3292C80.5202 46.8935 77.3358 48.732 75.4815 46.8152C74.834 49.4024 71.157 49.4024 70.5096 46.8152C68.6552 48.732 65.4708 46.8935 66.2037 44.3292C63.6395 45.0619 61.8009 41.8777 63.7178 40.0234C61.1305 39.3759 61.1305 35.6989 63.7178 35.0515C61.8009 33.1969 63.6395 30.0127 66.2037 30.7456C65.4708 28.1814 68.6552 26.3429 70.5096 28.2597C71.157 25.6725 74.834 25.6725 75.4815 28.2597Z" stroke="#4C0D00" stroke-width="1.33333" stroke-miterlimit="10"/>
<path d="M70.6139 36.9692C70.6139 37.7957 69.944 38.4656 69.1175 38.4656C68.291 38.4656 67.6211 37.7957 67.6211 36.9692C67.6211 36.1426 68.291 35.4727 69.1175 35.4727C69.944 35.4727 70.6139 36.1426 70.6139 36.9692Z" fill="#FFF4DA"/>
<path d="M70.6139 36.9692C70.6139 37.7957 69.944 38.4656 69.1175 38.4656C68.291 38.4656 67.6211 37.7957 67.6211 36.9692C67.6211 36.1426 68.291 35.4727 69.1175 35.4727C69.944 35.4727 70.6139 36.1426 70.6139 36.9692Z" stroke="#4C0D00" stroke-width="1.33333"/>
<path d="M78.707 35.2387C78.707 36.4042 77.7621 37.3489 76.5968 37.3489C75.4312 37.3489 74.4863 36.4042 74.4863 35.2387C74.4863 34.0731 75.4312 33.1285 76.5968 33.1285C77.7621 33.1285 78.707 34.0731 78.707 35.2387Z" fill="#FFF4DA"/>
<path d="M78.707 35.2387C78.707 36.4042 77.7621 37.3489 76.5968 37.3489C75.4312 37.3489 74.4863 36.4042 74.4863 35.2387C74.4863 34.0731 75.4312 33.1285 76.5968 33.1285C77.7621 33.1285 78.707 34.0731 78.707 35.2387Z" stroke="#4C0D00" stroke-width="1.33333"/>
<path d="M72.9031 41.2967C72.8531 42.0138 72.2312 42.5548 71.5141 42.5046C70.7968 42.4546 70.2559 41.8326 70.3059 41.1156C70.3559 40.3985 70.9779 39.8574 71.6952 39.9077C72.4123 39.9577 72.9531 40.5796 72.9031 41.2967Z" fill="#FFF4DA"/>
<path d="M72.9031 41.2967C72.8531 42.0138 72.2312 42.5548 71.5141 42.5046C70.7968 42.4546 70.2559 41.8326 70.3059 41.1156C70.3559 40.3985 70.9779 39.8574 71.6952 39.9077C72.4123 39.9577 72.9531 40.5796 72.9031 41.2967Z" stroke="#4C0D00" stroke-width="1.33333"/>
<path d="M73.2901 33.5292C73.2901 34.1137 72.8164 34.5874 72.232 34.5874C71.6475 34.5874 71.1738 34.1137 71.1738 33.5292C71.1738 32.9448 71.6475 32.4711 72.232 32.4711C72.8164 32.4711 73.2901 32.9448 73.2901 33.5292Z" fill="#FFF4DA"/>
<path d="M73.2901 33.5292C73.2901 34.1137 72.8164 34.5874 72.232 34.5874C71.6475 34.5874 71.1738 34.1137 71.1738 33.5292C71.1738 32.9448 71.6475 32.4711 72.232 32.4711C72.8164 32.4711 73.2901 32.9448 73.2901 33.5292Z" stroke="#4C0D00" stroke-width="1.33333"/>
<path d="M77.1319 39.904C77.1319 40.4884 76.6582 40.9622 76.0738 40.9622C75.4893 40.9622 75.0156 40.4884 75.0156 39.904C75.0156 39.3196 75.4893 38.8458 76.0738 38.8458C76.6582 38.8458 77.1319 39.3196 77.1319 39.904Z" fill="#FFF4DA"/>
<path d="M77.1319 39.904C77.1319 40.4884 76.6582 40.9622 76.0738 40.9622C75.4893 40.9622 75.0156 40.4884 75.0156 39.904C75.0156 39.3196 75.4893 38.8458 76.0738 38.8458C76.6582 38.8458 77.1319 39.3196 77.1319 39.904Z" stroke="#4C0D00" stroke-width="1.33333"/>
<path d="M52.5269 52.0723C53.0945 52.444 54.5746 54.0708 54.2029 54.6384C53.8312 55.2062 51.7483 54.4998 51.1807 54.1282C50.6131 53.7562 50.4542 52.9947 50.8259 52.4271C51.1975 51.8595 51.9593 51.7006 52.5269 52.0723Z" fill="white"/>
<path d="M52.5269 52.0723C53.0945 52.444 54.5746 54.0708 54.2029 54.6384C53.8312 55.2062 51.7483 54.4998 51.1807 54.1282C50.6131 53.7562 50.4542 52.9947 50.8259 52.4271C51.1975 51.8595 51.9593 51.7006 52.5269 52.0723Z" stroke="#4C0D00" stroke-width="1.33333"/>
<path d="M49.8849 58.6404C50.442 58.6068 52.2172 58.9522 52.2512 59.5093C52.2849 60.0662 50.5642 60.6238 50.0073 60.6575C49.4502 60.6915 48.9711 60.2672 48.9374 59.7101C48.9037 59.1532 49.3277 58.6741 49.8849 58.6404Z" fill="white"/>
<path d="M49.8849 58.6404C50.442 58.6068 52.2172 58.9522 52.2512 59.5093C52.2849 60.0662 50.5642 60.6238 50.0073 60.6575C49.4502 60.6915 48.9711 60.2672 48.9374 59.7101C48.9037 59.1532 49.3277 58.6741 49.8849 58.6404Z" stroke="#4C0D00" stroke-width="1.33333"/>
<path d="M50.2111 68.1521C44.4892 61.8175 44.9859 52.0418 51.3206 46.3199C56.9443 41.2403 65.2822 41.0622 71.0868 45.5196L67.0993 49.9293L64.3483 52.9747L63.8575 53.5193L62.6664 54.8349L61.4593 56.1731L60.0351 57.7476L59.7366 58.0782L58.6767 59.2509L56.719 61.417L55.869 62.3552L50.4236 68.3784C50.3504 68.3065 50.2818 68.2305 50.2111 68.1521Z" fill="#FFF4DA"/>
<path d="M50.2111 68.1521C44.4892 61.8175 44.9859 52.0418 51.3206 46.3199C56.9443 41.2403 65.2822 41.0622 71.0868 45.5196L67.0993 49.9293L64.3483 52.9747L63.8575 53.5193L62.6664 54.8349L61.4593 56.1731L60.0351 57.7476L59.7366 58.0782L58.6767 59.2509L56.719 61.417L55.869 62.3552L50.4236 68.3784C50.3504 68.3065 50.2818 68.2305 50.2111 68.1521Z" stroke="#4C0D00" stroke-width="1.33333"/>
<path d="M55.609 62.5852C55.2874 62.3234 55.03 61.9755 54.8738 61.5599C54.3904 60.2832 55.0328 58.8543 56.3075 58.3689C56.4164 58.3276 56.5289 58.2946 56.6412 58.2707C56.5843 58.1717 56.5361 58.0689 56.4948 57.9602C56.0113 56.6834 56.6537 55.2546 57.9305 54.7712C58.3611 54.6097 58.8067 54.5725 59.2297 54.6452C59.0401 53.8016 59.2981 52.8822 59.9845 52.2623C60.7292 51.5896 61.7684 51.4546 62.6304 51.8291C62.7603 51.5863 62.936 51.3582 63.1529 51.1623C64.0115 50.3868 65.2649 50.3268 66.185 50.9411L64.3473 52.9745L63.8567 53.5192L62.6656 54.8347L61.4582 56.173L60.0343 57.7475L59.7358 58.0781L58.6756 59.2508L56.718 61.4171L55.8682 62.3551L55.5879 62.6653C55.5914 62.6377 55.6011 62.6125 55.609 62.5852Z" fill="white"/>
<path d="M55.609 62.5852C55.2874 62.3234 55.03 61.9755 54.8738 61.5599C54.3904 60.2832 55.0328 58.8543 56.3075 58.3689C56.4164 58.3276 56.5289 58.2946 56.6412 58.2707C56.5843 58.1717 56.5361 58.0689 56.4948 57.9602C56.0113 56.6834 56.6537 55.2546 57.9305 54.7712C58.3611 54.6097 58.8067 54.5725 59.2297 54.6452C59.0401 53.8016 59.2981 52.8822 59.9845 52.2623C60.7292 51.5896 61.7684 51.4546 62.6304 51.8291C62.7603 51.5863 62.936 51.3582 63.1529 51.1623C64.0115 50.3868 65.2649 50.3268 66.185 50.9411L64.3473 52.9745L63.8567 53.5192L62.6656 54.8347L61.4582 56.173L60.0343 57.7475L59.7358 58.0781L58.6756 59.2508L56.718 61.4171L55.8682 62.3551L55.5879 62.6653C55.5914 62.6377 55.6011 62.6125 55.609 62.5852Z" stroke="#4C0D00" stroke-width="1.33333"/>
<path d="M47.8203 71.2576L50.4244 68.3775L47.8203 71.2576Z" fill="white"/>
<path d="M47.8203 71.2576L50.4244 68.3775" stroke="#4C0D00" stroke-width="1.33333"/>
<path d="M71.0859 45.5193L73.6854 42.6433L71.0859 45.5193Z" fill="white"/>
<path d="M71.0859 45.5193L73.6854 42.6433" stroke="#4C0D00" stroke-width="1.33333"/>
<path d="M55.609 62.5852C55.2874 62.3234 55.03 61.9755 54.8738 61.5599C54.3904 60.2832 55.0328 58.8543 56.3075 58.3689C56.4164 58.3276 56.5289 58.2946 56.6412 58.2707C56.5843 58.1717 56.5361 58.0689 56.4948 57.9602C56.0113 56.6834 56.6537 55.2546 57.9305 54.7712C58.3611 54.6097 58.8067 54.5725 59.2297 54.6452C59.0401 53.8016 59.2981 52.8822 59.9845 52.2623C60.7292 51.5896 61.7684 51.4546 62.6304 51.8291C62.7603 51.5863 62.936 51.3582 63.1529 51.1623C64.0115 50.3868 65.2649 50.3268 66.185 50.9411L64.3473 52.9745L63.8567 53.5192L62.6656 54.8347L61.4582 56.173L60.0343 57.7475L59.7358 58.0781L58.6756 59.2508L56.718 61.4171L55.8682 62.3551L55.5879 62.6653C55.5914 62.6377 55.6011 62.6125 55.609 62.5852Z" fill="white"/>
<path d="M55.609 62.5852C55.2874 62.3234 55.03 61.9755 54.8738 61.5599C54.3904 60.2832 55.0328 58.8543 56.3075 58.3689C56.4164 58.3276 56.5289 58.2946 56.6412 58.2707C56.5843 58.1717 56.5361 58.0689 56.4948 57.9602C56.0113 56.6834 56.6537 55.2546 57.9305 54.7712C58.3611 54.6097 58.8067 54.5725 59.2297 54.6452C59.0401 53.8016 59.2981 52.8822 59.9845 52.2623C60.7292 51.5896 61.7684 51.4546 62.6304 51.8291C62.7603 51.5863 62.936 51.3582 63.1529 51.1623C64.0115 50.3868 65.2649 50.3268 66.185 50.9411L64.3473 52.9745L63.8567 53.5192L62.6656 54.8347L61.4582 56.173L60.0343 57.7475L59.7358 58.0781L58.6756 59.2508L56.718 61.4171L55.8682 62.3551L55.5879 62.6653C55.5914 62.6377 55.6011 62.6125 55.609 62.5852Z" stroke="#4C0D00" stroke-width="1.33333"/>
<path d="M47.3408 70.7446C40.1867 62.8245 40.8099 50.6041 48.73 43.4501C55.843 37.0254 66.4218 36.8695 73.687 42.6427L71.0873 45.5187C65.2828 41.0613 56.945 41.2394 51.3214 46.3189C44.9867 52.0408 44.4898 61.8166 50.2119 68.1512C50.2826 68.2295 50.3512 68.3055 50.4244 68.3775L47.8203 71.2576C47.6581 71.0912 47.4984 70.919 47.3408 70.7446Z" fill="#4C0D00"/>
<path d="M47.3408 70.7446C40.1867 62.8245 40.8099 50.6041 48.73 43.4501C55.843 37.0254 66.4218 36.8695 73.687 42.6427L71.0873 45.5187C65.2828 41.0613 56.945 41.2394 51.3214 46.3189C44.9867 52.0408 44.4898 61.8166 50.2119 68.1512C50.2826 68.2295 50.3512 68.3055 50.4244 68.3775L47.8203 71.2576C47.6581 71.0912 47.4984 70.919 47.3408 70.7446Z" stroke="#4C0D00" stroke-width="1.33333"/>
<path d="M57.2665 47.0979C57.5575 47.7109 57.9744 49.8703 57.3614 50.1614C56.7486 50.4524 55.3379 48.7652 55.0468 48.1522C54.7558 47.5392 55.0165 46.8063 55.6295 46.5152C56.2425 46.2242 56.9754 46.4849 57.2665 47.0979Z" fill="white"/>
<path d="M57.2665 47.0979C57.5575 47.7109 57.9744 49.8703 57.3614 50.1614C56.7486 50.4524 55.3379 48.7652 55.0468 48.1522C54.7558 47.5392 55.0165 46.8063 55.6295 46.5152C56.2425 46.2242 56.9754 46.4849 57.2665 47.0979Z" stroke="#4C0D00" stroke-width="1.33333"/>
<path d="M64.224 46.3823C64.1112 46.8925 63.3437 48.4022 62.8335 48.2894C62.323 48.1767 62.2636 46.4841 62.3763 45.9739C62.4891 45.4637 62.9942 45.1415 63.5044 45.2542C64.0146 45.367 64.3368 45.8721 64.224 46.3823Z" fill="white"/>
<path d="M64.224 46.3823C64.1112 46.8925 63.3437 48.4022 62.8335 48.2894C62.323 48.1767 62.2636 46.4841 62.3763 45.9739C62.4891 45.4637 62.9942 45.1415 63.5044 45.2542C64.0146 45.367 64.3368 45.8721 64.224 46.3823Z" stroke="#4C0D00" stroke-width="1.33333"/>
<path d="M57.2411 56.6711C54.484 58.1295 53.5297 56.3257 50.7728 57.7841C48.0157 59.2425 48.97 61.0466 46.2129 62.505C43.4578 63.9624 42.5035 62.1586 39.7481 63.616C36.9923 65.0739 37.9466 66.8777 35.1905 68.3358C32.4354 69.7932 31.4811 67.9891 28.726 69.4465L26.1875 64.6478C28.9426 63.1904 29.8969 64.9943 32.652 63.5369C35.4081 62.079 34.4538 60.2752 37.2099 58.8173C39.965 57.3596 40.9193 59.1637 43.6744 57.7063C46.4315 56.2476 45.4772 54.4438 48.2343 52.9854C50.9912 51.5267 51.9455 53.3308 54.7026 51.8724L57.2411 56.6711Z" fill="#4C0D00"/>
<path d="M57.2411 56.6711C54.484 58.1295 53.5297 56.3257 50.7728 57.7841C48.0157 59.2425 48.97 61.0466 46.2129 62.505C43.4578 63.9624 42.5035 62.1586 39.7481 63.616C36.9923 65.0739 37.9466 66.8777 35.1905 68.3358C32.4354 69.7932 31.4811 67.9891 28.726 69.4465L26.1875 64.6478C28.9426 63.1904 29.8969 64.9943 32.652 63.5369C35.4081 62.079 34.4538 60.2752 37.2099 58.8173C39.965 57.3596 40.9193 59.1637 43.6744 57.7063C46.4315 56.2476 45.4772 54.4438 48.2343 52.9854C50.9912 51.5267 51.9455 53.3308 54.7026 51.8724L57.2411 56.6711Z" stroke="#4C0D00" stroke-width="1.33333"/>
<path d="M117.853 2.00152V86.9824H19.7754L104.756 2.00152H117.853Z" fill="#FF6D2F"/>
<path d="M117.853 2.00152V86.9824H19.7754L104.756 2.00152H117.853Z" stroke="#4C0D00" stroke-width="1.33333"/>
<path d="M117.855 86.9824H32.873L117.855 2V86.9824Z" fill="#FFF4DA"/>
<path d="M117.855 86.9824H32.873L117.855 2V86.9824Z" stroke="#4C0D00" stroke-width="1.33333"/>
<path d="M117.856 75.5593H72.9961" stroke="#4C0D00" stroke-width="1.33333"/>
<path d="M117.856 69.5098H80.0859" stroke="#4C0D00" stroke-width="1.33333"/>
<path d="M117.856 63.4609H85.5352" stroke="#4C0D00" stroke-width="1.33333"/>
</svg>
