<svg width="28" height="27" viewBox="0 0 28 27" fill="none" xmlns="http://www.w3.org/2000/svg">
<path d="M13.0946 5.30204C13.4547 4.53558 14.545 4.53573 14.9049 5.30229L16.9026 9.55735C17.0441 9.85868 17.3263 10.0699 17.6552 10.1206L22.2044 10.823C23.0083 10.9471 23.3356 11.928 22.7673 12.5099L19.4156 15.9425C19.1936 16.1699 19.0929 16.4893 19.1443 16.8029L19.9291 21.5903C20.0643 22.4145 19.1893 23.0314 18.4584 22.6272L14.4895 20.4324C14.1886 20.266 13.8233 20.2658 13.5223 20.432L9.54542 22.6272C8.81452 23.0306 7.94027 22.4138 8.07533 21.5899L8.8605 16.8007C8.91194 16.487 8.81114 16.1675 8.58899 15.9401L5.2334 12.5052C4.66492 11.9233 4.99215 10.9422 5.79613 10.8181L10.3449 10.1158C10.6738 10.065 10.9559 9.85397 11.0974 9.55277L13.0946 5.30204Z" fill="#4C0D00"/>
</svg>
