<svg width="180" height="100" viewBox="0 0 180 100" fill="none" xmlns="http://www.w3.org/2000/svg">
<path d="M149.734 22.8251V76.744C149.734 78.0946 149.197 79.3899 148.242 80.3449C147.287 81.2999 145.992 81.8364 144.641 81.8364H64.5979L48.7134 97.2517C48.4943 97.4659 48.232 97.6309 47.944 97.7356C47.6561 97.8403 47.349 97.8823 47.0435 97.8589C44.9596 97.8589 44.6974 96.1614 44.6974 94.0775L45.2633 81.8364H35.7409C34.3903 81.8364 33.095 81.2999 32.14 80.3449C31.185 79.3899 30.6484 78.0946 30.6484 76.744V22.8113C30.663 21.4631 31.2116 20.1757 32.174 19.2314C33.1364 18.2871 34.434 17.7631 35.7823 17.7741H144.655C145.997 17.7741 147.285 18.3053 148.236 19.2518C149.188 20.1983 149.726 21.483 149.734 22.8251Z" fill="#FFF4DA"/>
<path d="M47.0852 98.5487C44.049 98.5487 44.049 95.5263 44.049 94.0773L44.5873 82.5262H35.7825C34.25 82.5226 32.7813 81.9122 31.6977 80.8285C30.6141 79.7449 30.0037 78.2762 30 76.7438V22.8111C29.9971 22.0421 30.1468 21.2801 30.4406 20.5694C30.7344 19.8587 31.1663 19.2134 31.7113 18.6709C32.2535 18.1283 32.8997 17.7007 33.6111 17.4137C34.3225 17.1268 35.0845 16.9864 35.8515 17.001H144.71C146.238 17.001 147.703 17.6069 148.785 18.6857C149.866 19.7646 150.475 21.2283 150.479 22.7559V76.6747C150.475 78.2096 149.863 79.6804 148.777 80.7644C147.69 81.8484 146.218 82.4572 144.683 82.4572H64.9569L49.2795 97.6378C49.0005 97.9382 48.6601 98.175 48.2815 98.3322C47.9029 98.4894 47.4949 98.5632 47.0852 98.5487ZM35.7687 18.5053C34.6071 18.5053 33.493 18.9658 32.6704 19.7858C31.8477 20.6058 31.3838 21.7185 31.3801 22.8801V76.799C31.3837 77.9654 31.8487 79.0831 32.6736 79.9079C33.4984 80.7327 34.616 81.1977 35.7825 81.2014H46.0225L45.4291 94.1601C45.4291 96.7546 45.9673 97.2238 47.0852 97.2238C47.3165 97.2481 47.5503 97.2183 47.7683 97.1369C47.9862 97.0555 48.1822 96.9246 48.341 96.7546L64.3497 81.2014H144.628C145.797 81.2014 146.918 80.738 147.746 79.9128C148.573 79.0875 149.04 77.9678 149.044 76.799V22.8249C149.04 21.6633 148.576 20.5506 147.754 19.7306C146.931 18.9106 145.817 18.4501 144.655 18.4501H35.7687V18.5053Z" fill="#4C0D00"/>
<path d="M58.6649 31.2707L57.2848 32.4437L54.8145 34.6656C54.7739 34.7019 54.7417 34.7467 54.7203 34.7967C54.6988 34.8468 54.6886 34.901 54.6903 34.9554L54.9801 38.4056L55.1043 39.7856C55.1067 39.8459 55.0938 39.9057 55.0669 39.9597C55.04 40.0136 55 40.0599 54.9505 40.0943C54.9009 40.1286 54.8436 40.15 54.7836 40.1564C54.7237 40.1627 54.6631 40.1539 54.6075 40.1306L54.3867 40.0064L52.8686 39.1784L51.7646 38.5574L51.1022 38.1986L50.5225 37.8812C50.4764 37.8545 50.424 37.8405 50.3707 37.8405C50.3174 37.8405 50.2651 37.8545 50.2189 37.8812L49.0873 38.447L48.0108 38.9852L47.7624 39.1094L47.2518 39.3716L46.272 39.8546L45.7199 40.1444H45.5681C45.522 40.1464 45.476 40.1373 45.4341 40.1179C45.3922 40.0984 45.3556 40.0693 45.3272 40.0328C45.2989 39.9964 45.2796 39.9536 45.2711 39.9083C45.2626 39.8629 45.2651 39.8161 45.2783 39.7718V39.482L46.4514 34.983C46.4755 34.9386 46.4882 34.8887 46.4882 34.8381C46.4882 34.7875 46.4755 34.7377 46.4514 34.6932L43.2634 31.2983C43.2267 31.2508 43.203 31.1945 43.1947 31.135C43.1864 31.0755 43.1938 31.0149 43.2161 30.9592C43.2384 30.9034 43.2749 30.8544 43.3219 30.8171C43.3689 30.7798 43.4249 30.7553 43.4842 30.7463L48.3697 30.0424C48.4236 30.0328 48.4748 30.0118 48.5201 29.9809C48.5653 29.95 48.6034 29.9098 48.6319 29.863L51.1574 25.502V25.4192C51.2065 25.3809 51.2628 25.3528 51.323 25.3364H51.4886C51.5292 25.3484 51.5665 25.3696 51.5976 25.3983C51.6287 25.427 51.6528 25.4625 51.668 25.502L51.8612 25.985L52.0958 26.5647L52.2476 26.9097L52.6064 27.8067L52.8686 28.4416L53.4483 29.8216C53.4623 29.8705 53.4909 29.914 53.5304 29.9461C53.5699 29.9781 53.6183 29.9973 53.6691 30.001L56.4292 30.415L57.8921 30.6358H58.3889C58.4306 30.6177 58.4754 30.608 58.5209 30.6072C58.5663 30.6064 58.6115 30.6146 58.6538 30.6312C58.696 30.6479 58.7346 30.6727 58.7673 30.7043C58.8 30.7359 58.8262 30.7736 58.8443 30.8152C58.8624 30.8569 58.8722 30.9018 58.8729 30.9472C58.8737 30.9927 58.8656 31.0378 58.8489 31.0801C58.8323 31.1224 58.8074 31.161 58.7758 31.1937C58.7443 31.2264 58.7066 31.2525 58.6649 31.2707Z" fill="#FF6D2F"/>
<path d="M78.0261 31.2707L76.646 32.4437L74.1895 34.6656C74.1489 34.7019 74.1167 34.7467 74.0952 34.7967C74.0738 34.8468 74.0636 34.901 74.0653 34.9554L74.3551 38.4056L74.4793 39.7856C74.4828 39.8476 74.4702 39.9095 74.4426 39.9651C74.415 40.0208 74.3734 40.0683 74.322 40.1031C74.2705 40.1379 74.2109 40.1587 74.149 40.1635C74.0871 40.1684 74.0249 40.157 73.9687 40.1306L73.7617 40.0064L72.2436 39.1784L71.1396 38.5574L70.4772 38.1986L69.8975 37.8812C69.8514 37.8545 69.799 37.8405 69.7457 37.8405C69.6924 37.8405 69.6401 37.8545 69.5939 37.8812L68.4623 38.447L67.3858 38.9852L67.1374 39.1094L66.6268 39.3716L65.647 39.8546L65.0811 40.1444H64.9431C64.897 40.1464 64.851 40.1373 64.8091 40.1179C64.7672 40.0984 64.7306 40.0693 64.7022 40.0328C64.6738 39.9964 64.6546 39.9536 64.6461 39.9082C64.6376 39.8629 64.6401 39.8161 64.6533 39.7718V39.482L65.8264 34.983C65.8505 34.9386 65.8632 34.8887 65.8632 34.8381C65.8632 34.7875 65.8505 34.7377 65.8264 34.6932L62.6384 31.2983C62.6017 31.2508 62.578 31.1945 62.5697 31.135C62.5614 31.0755 62.5688 31.0149 62.5911 30.9592C62.6134 30.9034 62.6498 30.8544 62.6969 30.8171C62.7439 30.7798 62.7999 30.7553 62.8592 30.7463L67.7446 30.0424C67.7967 30.0327 67.846 30.0116 67.889 29.9806C67.9319 29.9496 67.9675 29.9094 67.993 29.863L70.5324 25.502L70.6014 25.4192C70.6505 25.3809 70.7068 25.3528 70.767 25.3364H70.9326C70.9732 25.3484 71.0105 25.3696 71.0416 25.3983C71.0727 25.427 71.0968 25.4625 71.112 25.502L71.3052 25.985L71.5398 26.5647L71.6916 26.9097L72.0504 27.8067L72.3126 28.4416L72.8785 29.8216C72.8979 29.8698 72.9299 29.9119 72.9712 29.9434C73.0125 29.975 73.0615 29.9949 73.1131 30.001L75.8732 30.415L77.3361 30.6358H77.8191C77.9033 30.6084 77.9949 30.6155 78.0738 30.6556C78.1528 30.6957 78.2125 30.7656 78.24 30.8498C78.2674 30.9339 78.2603 31.0256 78.2202 31.1045C78.1801 31.1834 78.1103 31.2432 78.0261 31.2707Z" fill="#FF6D2F"/>
<path d="M97.3875 31.2707L96.0075 32.4437L93.551 34.6656C93.5104 34.7019 93.4782 34.7467 93.4567 34.7967C93.4352 34.8468 93.425 34.901 93.4268 34.9554L93.7166 38.4056L93.827 39.7856C93.8335 39.8471 93.8233 39.9092 93.7976 39.9654C93.7718 40.0216 93.7315 40.0699 93.6807 40.1051C93.6299 40.1404 93.5706 40.1614 93.5089 40.1659C93.4473 40.1704 93.3855 40.1582 93.3302 40.1306L93.1232 40.0064L91.6051 39.1784L90.4873 38.5574L89.8248 38.1986L89.2452 37.8812C89.1991 37.8545 89.1467 37.8405 89.0934 37.8405C89.0401 37.8405 88.9877 37.8545 88.9416 37.8812L87.8099 38.447L86.7335 38.9852L86.4851 39.1094L85.9745 39.3716L84.9946 39.8546L84.4288 40.1444H84.2908C84.2446 40.1464 84.1987 40.1373 84.1568 40.1179C84.1149 40.0984 84.0782 40.0693 84.0499 40.0328C84.0215 39.9964 84.0023 39.9536 83.9938 39.9083C83.9853 39.8629 83.9877 39.8161 84.001 39.7718V39.482L85.174 34.983C85.1982 34.9386 85.2108 34.8887 85.2108 34.8381C85.2108 34.7875 85.1982 34.7377 85.174 34.6932L81.9861 31.2983C81.9494 31.2508 81.9257 31.1945 81.9174 31.135C81.9091 31.0755 81.9164 31.0149 81.9387 30.9592C81.9611 30.9034 81.9975 30.8544 82.0445 30.8171C82.0916 30.7798 82.1475 30.7553 82.2069 30.7463L87.0923 30.0424C87.1444 30.0327 87.1937 30.0116 87.2366 29.9806C87.2796 29.9496 87.3151 29.9094 87.3407 29.863L89.88 25.502V25.4192L90.0456 25.3364H90.2112C90.2892 25.3679 90.353 25.4268 90.3906 25.502L90.5839 25.985L90.8185 26.5647L90.9565 26.9097L91.3291 27.8067L91.5775 28.4416L92.1571 29.8216C92.1766 29.8698 92.2086 29.9119 92.2499 29.9434C92.2911 29.975 92.3401 29.9949 92.3917 30.001L95.1519 30.415L96.6147 30.6358H97.0977C97.1819 30.5974 97.2779 30.594 97.3646 30.6263C97.4513 30.6587 97.5216 30.7242 97.5601 30.8084C97.5985 30.8925 97.6019 30.9885 97.5696 31.0752C97.5372 31.1619 97.4717 31.2322 97.3875 31.2707Z" fill="#FF6D2F"/>
<path d="M116.752 31.2707L115.372 32.4437L112.916 34.6656C112.872 34.6998 112.838 34.7442 112.817 34.7948C112.795 34.8454 112.786 34.9006 112.791 34.9554L113.081 38.4056L113.192 39.7856C113.198 39.8471 113.188 39.9092 113.162 39.9654C113.136 40.0216 113.096 40.0699 113.045 40.1051C112.994 40.1404 112.935 40.1614 112.873 40.1659C112.812 40.1704 112.75 40.1582 112.695 40.1306L112.488 40.0064L110.97 39.1784L109.852 38.5574L109.189 38.1986L108.61 37.8812C108.564 37.8545 108.511 37.8405 108.458 37.8405C108.405 37.8405 108.352 37.8545 108.306 37.8812L107.175 38.447L106.084 38.9852L105.85 39.1094L105.339 39.3716L104.359 39.8546L103.793 40.1444H103.655C103.609 40.1457 103.563 40.1362 103.521 40.1169C103.479 40.0975 103.441 40.0687 103.412 40.0327C103.383 39.9967 103.362 39.9545 103.352 39.9093C103.341 39.8641 103.341 39.817 103.352 39.7718L103.435 39.482L104.608 34.983C104.629 34.9376 104.64 34.8882 104.64 34.8381C104.64 34.7881 104.629 34.7386 104.608 34.6932L101.42 31.2983C101.383 31.2508 101.359 31.1945 101.351 31.135C101.343 31.0755 101.35 31.0149 101.372 30.9592C101.395 30.9034 101.431 30.8544 101.478 30.8171C101.525 30.7798 101.581 30.7553 101.64 30.7463L106.512 30.0424C106.567 30.0347 106.619 30.0144 106.664 29.9833C106.71 29.9522 106.747 29.911 106.774 29.863L109.314 25.502V25.4192C109.361 25.3781 109.418 25.3497 109.479 25.3364H109.645C109.723 25.3679 109.787 25.4268 109.824 25.502L110.017 25.985L110.252 26.5647L110.39 26.9097L110.749 27.8067L111.011 28.4416L111.591 29.8216C111.61 29.8698 111.642 29.9119 111.683 29.9434C111.725 29.975 111.774 29.9949 111.825 30.001L114.585 30.415L116.048 30.6358H116.531C116.616 30.6066 116.708 30.6119 116.788 30.6507C116.868 30.6896 116.93 30.7587 116.959 30.8429C116.988 30.927 116.983 31.0194 116.944 31.0996C116.905 31.1799 116.836 31.2414 116.752 31.2707Z" fill="#FF6D2F"/>
<path d="M136.114 31.2707L134.734 32.4437L132.277 34.6656C132.234 34.6998 132.2 34.7442 132.178 34.7948C132.157 34.8454 132.148 34.9006 132.153 34.9554L132.443 38.4056L132.553 39.7856C132.56 39.8471 132.549 39.9092 132.524 39.9654C132.498 40.0216 132.457 40.0699 132.407 40.1051C132.356 40.1404 132.297 40.1614 132.235 40.1659C132.173 40.1704 132.112 40.1582 132.056 40.1306L131.835 40.0064L130.331 39.1784L129.213 38.5574L128.551 38.1986L127.957 37.8812C127.914 37.8543 127.864 37.8401 127.813 37.8401C127.761 37.8401 127.711 37.8543 127.668 37.8812L126.536 38.447L125.446 38.9852L125.197 39.1094L124.687 39.3716L123.707 39.8546L123.155 40.1444H123.017C122.97 40.1487 122.922 40.1414 122.878 40.123C122.834 40.1046 122.796 40.0757 122.766 40.0389C122.736 40.0021 122.715 39.9585 122.706 39.9119C122.697 39.8654 122.699 39.8173 122.713 39.7718L122.796 39.482L123.955 34.983C123.979 34.9386 123.992 34.8887 123.992 34.8381C123.992 34.7875 123.979 34.7377 123.955 34.6932L120.767 31.2983C120.731 31.2508 120.707 31.1945 120.699 31.135C120.69 31.0755 120.698 31.0149 120.72 30.9592C120.742 30.9034 120.779 30.8544 120.826 30.8171C120.873 30.7798 120.929 30.7553 120.988 30.7463L125.86 30.0424C125.914 30.0347 125.966 30.0144 126.012 29.9833C126.057 29.9522 126.095 29.911 126.122 29.863L128.661 25.502V25.4192C128.707 25.3758 128.765 25.347 128.827 25.3364H128.992C129.07 25.3679 129.134 25.4268 129.172 25.502L129.365 25.985L129.6 26.5647L129.738 26.9097L130.097 27.8067L130.359 28.4416L130.938 29.8216C130.958 29.8698 130.99 29.9119 131.031 29.9434C131.072 29.975 131.121 29.9949 131.173 30.001L133.933 30.415L135.41 30.6358H135.893C135.977 30.6066 136.069 30.6119 136.15 30.6507C136.23 30.6896 136.291 30.7587 136.321 30.8429C136.35 30.927 136.345 31.0194 136.306 31.0996C136.267 31.1799 136.198 31.2414 136.114 31.2707Z" fill="#FF6D2F"/>
<path d="M140.86 52.7581H57.6562V54.1381H140.86V52.7581Z" fill="#4C0D00"/>
<path d="M140.845 60.5144H41.3984V61.8945H140.845V60.5144Z" fill="#4C0D00"/>
<path d="M109.629 68.2839H41.3984V69.664H109.629V68.2839Z" fill="#4C0D00"/>
</svg>
