<svg width="180" height="130" viewBox="0 0 180 130" fill="none" xmlns="http://www.w3.org/2000/svg">
<g clip-path="url(#clip0_1201_14471)">
<path d="M124.861 51.7137C124.805 51.8117 124.743 51.9071 124.685 51.9978C124.642 52.0605 124.6 52.1232 124.553 52.1832C122.005 55.8304 117.779 55.526 112.632 54.4971C112.608 54.4957 112.586 54.4896 112.565 54.4835C112.316 54.4395 112.061 54.3856 111.806 54.3316C111.586 54.2918 111.371 54.2427 111.152 54.1909C107.238 53.2819 102.874 51.5535 98.55 49.0569C87.2534 42.5348 80.3831 33.1885 82.9214 27.9292L83.0934 27.5989C86.0889 22.4106 97.8674 23.6008 109.402 30.2604C120.937 36.92 127.857 46.5254 124.861 51.7137Z" fill="#4C0D00"/>
<path d="M124.861 51.7137C124.805 51.8117 124.743 51.9071 124.685 51.9978C124.642 52.0605 124.6 52.1232 124.553 52.1832C122.005 55.8304 117.779 55.526 112.632 54.4971C112.608 54.4957 112.586 54.4896 112.565 54.4835C112.316 54.4395 112.061 54.3856 111.806 54.3316C111.586 54.2918 111.371 54.2427 111.152 54.1909C107.238 53.2819 102.874 51.5535 98.55 49.0569C87.2534 42.5348 80.3831 33.1885 82.9214 27.9292L83.0934 27.5989C86.0889 22.4106 97.8674 23.6008 109.402 30.2604C120.937 36.92 127.857 46.5254 124.861 51.7137Z" stroke="#4C0D00" stroke-width="1.33333"/>
<path d="M84.5475 27.299C84.5475 27.299 95.0139 7.72375 99.0028 8.24221C104.423 8.9467 103.472 16.5775 103.472 16.5775C103.472 16.5775 109.173 6.00033 116.051 8.61716C121.836 10.8185 119.802 16.9094 119.802 16.9094C119.802 16.9094 124.41 13.4431 127.82 16.5263C130.499 18.948 127.266 24.56 127.266 24.56C127.266 24.56 134.943 22.6862 135.32 28.3027C135.596 32.4183 124.418 49.0749 124.418 49.0749L119.35 57.8598L78.252 38.2834L84.5475 27.299Z" fill="#FF6D2F"/>
<path d="M84.5475 27.299C84.5475 27.299 95.0139 7.72375 99.0028 8.24221C104.423 8.9467 103.472 16.5775 103.472 16.5775C103.472 16.5775 109.173 6.00033 116.051 8.61716C121.836 10.8185 119.802 16.9094 119.802 16.9094C119.802 16.9094 124.41 13.4431 127.82 16.5263C130.499 18.948 127.266 24.56 127.266 24.56C127.266 24.56 134.943 22.6862 135.32 28.3027C135.596 32.4183 124.418 49.0749 124.418 49.0749L119.35 57.8598L78.252 38.2834L84.5475 27.299Z" stroke="#4C0D00"/>
<path d="M97.97 31.8612C98.9514 26.6763 103.786 20.2463 105.752 21.4034C107.719 22.5608 104.994 26.3594 107.039 25.8495C109.083 25.34 110.957 20.6545 113.628 21.8972C118.046 23.9534 110.221 39.0364 110.221 39.0364C110.221 39.0364 100.667 40.8956 100.514 40.835C100.361 40.7747 97.97 31.8612 97.97 31.8612Z" fill="#FFF4DA"/>
<path d="M97.97 31.8612C98.9514 26.6763 103.786 20.2463 105.752 21.4034C107.719 22.5608 104.994 26.3594 107.039 25.8495C109.083 25.34 110.957 20.6545 113.628 21.8972C118.046 23.9534 110.221 39.0364 110.221 39.0364C110.221 39.0364 100.667 40.8956 100.514 40.835C100.361 40.7747 97.97 31.8612 97.97 31.8612Z" stroke="#4C0D00" stroke-width="1.33333"/>
<path d="M96.1892 38.9786C94.206 42.4135 89.6062 43.4708 85.9153 41.3398C82.2245 39.2089 80.8402 34.6968 82.8233 31.2618C84.8065 27.8268 89.4063 26.7696 93.0972 28.9005C96.7881 31.0314 98.1724 35.5436 96.1892 38.9786Z" fill="#FFF4DA"/>
<path d="M96.1892 38.9786C94.206 42.4135 89.6062 43.4708 85.9153 41.3398C82.2245 39.2089 80.8402 34.6968 82.8233 31.2618C84.8065 27.8268 89.4063 26.7696 93.0972 28.9005C96.7881 31.0314 98.1724 35.5436 96.1892 38.9786Z" stroke="#4C0D00" stroke-width="1.33333"/>
<path d="M109.28 43.0682C106.442 47.9845 100.156 49.6689 95.2395 46.8305C90.3235 43.9922 88.6388 37.7058 91.4772 32.7896C94.3157 27.8733 100.602 26.189 105.518 29.0273C110.434 31.8657 112.119 38.152 109.28 43.0682Z" fill="#FFF4DA"/>
<path d="M109.28 43.0682C106.442 47.9845 100.156 49.6689 95.2395 46.8305C90.3235 43.9922 88.6388 37.7058 91.4772 32.7896C94.3157 27.8733 100.602 26.189 105.518 29.0273C110.434 31.8657 112.119 38.152 109.28 43.0682Z" stroke="#4C0D00" stroke-width="1.33333"/>
<path d="M107.608 42.1028C105.303 46.0956 100.197 47.4637 96.2044 45.1585C92.2116 42.8532 90.8435 37.7474 93.1487 33.7546C95.454 29.7618 100.56 28.3937 104.553 30.6989C108.545 33.0042 109.913 38.11 107.608 42.1028Z" fill="#FFF4DA"/>
<path d="M107.608 42.1028C105.303 46.0956 100.197 47.4637 96.2044 45.1585C92.2116 42.8532 90.8435 37.7474 93.1487 33.7546C95.454 29.7618 100.56 28.3937 104.553 30.6989C108.545 33.0042 109.913 38.11 107.608 42.1028Z" stroke="#4C0D00" stroke-width="1.33333"/>
<path d="M105.764 41.0378C104.047 44.0118 100.244 45.0308 97.2699 43.3137C94.2959 41.5966 93.2767 37.7937 94.9937 34.8197C96.7108 31.8456 100.514 30.8268 103.488 32.5439C106.462 34.261 107.481 38.0637 105.764 41.0378Z" fill="#FFF4DA"/>
<path d="M105.764 41.0378C104.047 44.0118 100.244 45.0308 97.2699 43.3137C94.2959 41.5966 93.2767 37.7937 94.9937 34.8197C96.7108 31.8456 100.514 30.8268 103.488 32.5439C106.462 34.261 107.481 38.0637 105.764 41.0378Z" stroke="#4C0D00" stroke-width="1.33333"/>
<path d="M122.839 31.3611C124.588 37.8886 120.714 44.5993 114.186 46.3481C108.391 47.9009 102.451 45.0204 99.9668 39.7864L104.367 38.1159L107.404 36.9615L107.946 36.7543L109.26 36.2566L110.593 35.7487L112.164 35.1524L112.494 35.027L113.664 34.5827L115.824 33.7616L116.762 33.407L122.771 31.125C122.796 31.202 122.817 31.2805 122.839 31.3611Z" fill="#FFF4DA"/>
<path d="M122.839 31.3611C124.588 37.8886 120.714 44.5993 114.186 46.3481C108.391 47.9009 102.451 45.0204 99.9668 39.7864L104.367 38.1159L107.404 36.9615L107.946 36.7543L109.26 36.2566L110.593 35.7487L112.164 35.1524L112.494 35.027L113.664 34.5827L115.824 33.7616L116.762 33.407L122.771 31.125C122.796 31.202 122.817 31.2805 122.839 31.3611Z" stroke="#4C0D00" stroke-width="1.33333"/>
<path d="M117.026 33.3382C117.158 33.6385 117.214 33.9768 117.175 34.3257C117.055 35.4 116.087 36.1754 115.014 36.0581C114.922 36.0481 114.831 36.0304 114.743 36.0072C114.748 36.0972 114.744 36.1868 114.734 36.2785C114.615 37.3527 113.647 38.1283 112.573 38.0084C112.211 37.9671 111.883 37.8327 111.612 37.6288C111.441 38.2919 110.928 38.8468 110.221 39.0364C109.453 39.242 108.672 38.9624 108.2 38.3876C108.021 38.5121 107.815 38.6093 107.591 38.6692C106.706 38.9063 105.801 38.4968 105.374 37.7322L107.403 36.9615L107.945 36.7545L109.258 36.2568L110.592 35.7488L112.163 35.1524L112.493 35.0272L113.663 34.5829L115.823 33.7618L116.76 33.4069L117.07 33.2894C117.057 33.3077 117.041 33.3219 117.026 33.3382Z" fill="#FFF4DA"/>
<path d="M117.026 33.3382C117.158 33.6385 117.214 33.9768 117.175 34.3257C117.055 35.4 116.087 36.1754 115.014 36.0581C114.922 36.0481 114.831 36.0304 114.743 36.0072C114.748 36.0972 114.744 36.1868 114.734 36.2785C114.615 37.3527 113.647 38.1283 112.573 38.0084C112.211 37.9671 111.883 37.8327 111.612 37.6288C111.441 38.2919 110.928 38.8468 110.221 39.0364C109.453 39.242 108.672 38.9624 108.2 38.3876C108.021 38.5121 107.815 38.6093 107.591 38.6692C106.706 38.9063 105.801 38.4968 105.374 37.7322L107.403 36.9615L107.945 36.7545L109.258 36.2568L110.592 35.7488L112.163 35.1524L112.493 35.0272L113.663 34.5829L115.823 33.7618L116.76 33.4069L117.07 33.2894C117.057 33.3077 117.041 33.3219 117.026 33.3382Z" stroke="#4C0D00" stroke-width="1.33333"/>
<path d="M125.643 30.0341L122.77 31.125L125.643 30.0341Z" fill="#FFF4DA"/>
<path d="M125.643 30.0341L122.77 31.125" stroke="#4C0D00" stroke-width="1.33333"/>
<path d="M99.9666 39.7864L97.0977 40.8762L99.9666 39.7864Z" fill="#FFF4DA"/>
<path d="M99.9666 39.7864L97.0977 40.8762" stroke="#4C0D00" stroke-width="1.33333"/>
<path d="M117.026 33.3382C117.158 33.6385 117.214 33.9768 117.175 34.3257C117.055 35.4 116.087 36.1754 115.014 36.0581C114.922 36.0481 114.831 36.0304 114.743 36.0072C114.748 36.0972 114.744 36.1868 114.734 36.2785C114.615 37.3527 113.647 38.1283 112.573 38.0084C112.211 37.9671 111.883 37.8327 111.612 37.6288C111.441 38.2919 110.928 38.8468 110.221 39.0364C109.453 39.242 108.672 38.9624 108.2 38.3876C108.021 38.5121 107.815 38.6093 107.591 38.6692C106.706 38.9063 105.801 38.4968 105.374 37.7322L107.403 36.9615L107.945 36.7545L109.258 36.2568L110.592 35.7488L112.163 35.1524L112.493 35.0272L113.663 34.5829L115.823 33.7618L116.76 33.4069L117.07 33.2894C117.057 33.3077 117.041 33.3219 117.026 33.3382Z" fill="#FFF4DA"/>
<path d="M117.026 33.3382C117.158 33.6385 117.214 33.9768 117.175 34.3257C117.055 35.4 116.087 36.1754 115.014 36.0581C114.922 36.0481 114.831 36.0304 114.743 36.0072C114.748 36.0972 114.744 36.1868 114.734 36.2785C114.615 37.3527 113.647 38.1283 112.573 38.0084C112.211 37.9671 111.883 37.8327 111.612 37.6288C111.441 38.2919 110.928 38.8468 110.221 39.0364C109.453 39.242 108.672 38.9624 108.2 38.3876C108.021 38.5121 107.815 38.6093 107.591 38.6692C106.706 38.9063 105.801 38.4968 105.374 37.7322L107.403 36.9615L107.945 36.7545L109.258 36.2568L110.592 35.7488L112.163 35.1524L112.493 35.0272L113.663 34.5829L115.823 33.7618L116.76 33.4069L117.07 33.2894C117.057 33.3077 117.041 33.3219 117.026 33.3382Z" stroke="#4C0D00" stroke-width="1.33333"/>
<path d="M125.797 30.5686C127.984 38.7295 123.139 47.1178 114.978 49.3045C107.649 51.2684 100.137 47.5643 97.0978 40.8762L99.967 39.7865C102.451 45.0207 108.392 47.901 114.186 46.3485C120.714 44.5993 124.588 37.8886 122.839 31.3613C122.817 31.2808 122.796 31.2024 122.771 31.1254L125.644 30.0341C125.699 30.2097 125.749 30.3889 125.797 30.5686Z" fill="#FFF4DA"/>
<path d="M125.797 30.5686C127.984 38.7295 123.139 47.1178 114.978 49.3045C107.649 51.2684 100.137 47.5643 97.0978 40.8762L99.967 39.7865C102.451 45.0207 108.392 47.901 114.186 46.3485C120.714 44.5993 124.588 37.8886 122.839 31.3613C122.817 31.2808 122.796 31.2024 122.771 31.1254L125.644 30.0341C125.699 30.2097 125.749 30.3889 125.797 30.5686Z" stroke="#4C0D00" stroke-width="1.33333"/>
<path d="M115.411 41.8601C115.145 41.3935 114.688 39.7133 115.155 39.4473C115.621 39.1811 116.835 40.4299 117.101 40.8964C117.367 41.3632 117.204 41.9571 116.738 42.2232C116.271 42.4892 115.677 42.3266 115.411 41.8601Z" fill="#FFF4DA"/>
<path d="M115.411 41.8601C115.145 41.3935 114.688 39.7133 115.155 39.4473C115.621 39.1811 116.835 40.4299 117.101 40.8964C117.367 41.3632 117.204 41.9571 116.738 42.2232C116.271 42.4892 115.677 42.3266 115.411 41.8601Z" stroke="#4C0D00" stroke-width="1.33333"/>
<path d="M119.639 38.1814C119.235 38.0044 118.108 37.1207 118.285 36.716C118.462 36.3114 119.876 36.5385 120.281 36.7156C120.685 36.8926 120.87 37.3644 120.693 37.769C120.516 38.1737 120.044 38.3584 119.639 38.1814Z" fill="#FFF4DA"/>
<path d="M119.639 38.1814C119.235 38.0044 118.108 37.1207 118.285 36.716C118.462 36.3114 119.876 36.5385 120.281 36.7156C120.685 36.8926 120.87 37.3644 120.693 37.769C120.516 38.1737 120.044 38.3584 119.639 38.1814Z" stroke="#4C0D00" stroke-width="1.33333"/>
<path d="M109.444 43.7594C109.46 43.2225 109.945 41.5503 110.482 41.5661C111.018 41.5819 111.404 43.2796 111.389 43.8167C111.373 44.3536 110.925 44.7761 110.388 44.7603C109.851 44.7445 109.428 44.2964 109.444 43.7594Z" fill="#FFF4DA"/>
<path d="M109.444 43.7594C109.46 43.2225 109.945 41.5503 110.482 41.5661C111.018 41.5819 111.404 43.2796 111.389 43.8167C111.373 44.3536 110.925 44.7761 110.388 44.7603C109.851 44.7445 109.428 44.2964 109.444 43.7594Z" stroke="#4C0D00" stroke-width="1.33333"/>
<path d="M105.114 41.6523C105.377 41.3334 106.463 40.546 106.782 40.8095C107.101 41.073 106.532 42.2873 106.269 42.6062C106.005 42.9253 105.533 42.9703 105.214 42.7068C104.895 42.4433 104.85 41.9712 105.114 41.6523Z" fill="#FFF4DA"/>
<path d="M105.114 41.6523C105.377 41.3334 106.463 40.546 106.782 40.8095C107.101 41.073 106.532 42.2873 106.269 42.6062C106.005 42.9253 105.533 42.9703 105.214 42.7068C104.895 42.4433 104.85 41.9712 105.114 41.6523Z" stroke="#4C0D00" stroke-width="1.33333"/>
<path d="M85.7511 41.0443C87.4556 32.465 94.4009 30.2825 96.8576 34.9496C99.3147 39.6166 101.989 34.6635 104.955 36.8401C107.922 39.0169 105.717 41.711 108.005 42.8119C110.293 43.913 112.494 41.1451 114.712 42.4491C116.929 43.753 115.064 46.0179 119.629 48.5608C124.194 51.1037 108.12 65.1203 108.12 65.1203L85.7511 41.0443Z" fill="#FFF4DA"/>
<path d="M85.7511 41.0443C87.4556 32.465 94.4009 30.2825 96.8576 34.9496C99.3147 39.6166 101.989 34.6635 104.955 36.8401C107.922 39.0169 105.717 41.711 108.005 42.8119C110.293 43.913 112.494 41.1451 114.712 42.4491C116.929 43.753 115.064 46.0179 119.629 48.5608C124.194 51.1037 108.12 65.1204 108.12 65.1204L85.7511 41.0443Z" stroke="#4C0D00" stroke-width="1.33333"/>
<path d="M95.0014 103.43L79.7679 129.815L38 105.7L53.2384 79.3176L82.9191 27.9302C80.3808 33.1894 87.2511 42.5357 98.5479 49.058C102.872 51.5545 107.235 53.2828 111.15 54.192C100.42 51.9074 86.2372 47.9155 74.8894 68.8106L64.927 86.0661L95.0014 103.43Z" fill="#FFF4DA"/>
<path d="M95.0014 103.43L79.7679 129.815L38 105.7L53.2384 79.3176L82.9191 27.9302C80.3808 33.1894 87.2511 42.5357 98.5479 49.058C102.872 51.5545 107.235 53.2828 111.15 54.192C100.42 51.9074 86.2372 47.9155 74.8894 68.8106L64.927 86.0661L95.0014 103.43Z" stroke="#4C0D00" stroke-width="1.33333"/>
<path d="M79.7679 129.815L38 105.7C44.7084 103.37 54.3759 104.739 63.3922 109.945C72.4121 115.152 78.4314 122.84 79.7679 129.815Z" fill="#FFF4DA"/>
<path d="M79.7679 129.815L38 105.7C44.7084 103.37 54.3759 104.739 63.3922 109.945C72.4121 115.152 78.4314 122.84 79.7679 129.815Z" stroke="#4C0D00" stroke-width="1.33333" stroke-linecap="round" stroke-linejoin="round"/>
<path d="M89.361 42.8104L86.9721 46.9482C86.5333 47.7083 85.5613 47.9687 84.8013 47.5299C84.0415 47.0912 83.781 46.1193 84.2198 45.3592L85.9147 42.4237C86.1069 42.0908 85.9902 41.6647 85.6548 41.4761C85.325 41.2903 84.907 41.4049 84.7178 41.7327L72.9346 62.1417C72.4682 62.9496 71.4351 63.2264 70.6272 62.76C69.819 62.2934 69.5422 61.2603 70.0086 60.4524L83.0813 37.81C83.8685 36.4464 85.7548 36.2427 86.8153 37.4067L89.0663 40.0812C89.7482 40.8301 89.8672 41.9337 89.361 42.8104Z" fill="#FFF4DA"/>
<path d="M89.361 42.8104L86.9721 46.9482C86.5333 47.7083 85.5613 47.9687 84.8013 47.5299C84.0415 47.0912 83.781 46.1193 84.2198 45.3592L85.9147 42.4237C86.1069 42.0908 85.9902 41.6647 85.6548 41.4761C85.325 41.2903 84.907 41.4049 84.7178 41.7327L72.9346 62.1417C72.4682 62.9496 71.4351 63.2264 70.6272 62.76C69.819 62.2934 69.5422 61.2603 70.0086 60.4524L83.0813 37.81C83.8685 36.4464 85.7548 36.2427 86.8153 37.4067L89.0663 40.0812C89.7482 40.8301 89.8672 41.9337 89.361 42.8104Z" stroke="#4C0D00" stroke-width="1.33333"/>
<path d="M124.858 51.7146L79.7671 129.815C75.6103 124.286 62.6573 114.154 62.6573 114.154C57.3267 109.275 56.1042 101.346 59.7174 95.0879L74.8886 68.8106C86.2364 47.9154 100.42 51.9074 111.149 54.1919C111.368 54.2436 111.583 54.2929 111.803 54.3325C112.058 54.3865 112.313 54.4405 112.562 54.4845C112.583 54.4906 112.605 54.4966 112.629 54.498C117.776 55.5269 122.002 55.8313 124.55 52.1841C124.597 52.1241 124.639 52.0614 124.682 51.9987C124.74 51.908 124.802 51.8126 124.858 51.7146Z" fill="#FFF4DA"/>
<path d="M124.858 51.7146L79.7671 129.815C75.6103 124.286 62.6573 114.154 62.6573 114.154C57.3267 109.275 56.1042 101.346 59.7174 95.0879L74.8886 68.8106C86.2364 47.9154 100.42 51.9074 111.149 54.1919C111.368 54.2436 111.583 54.2929 111.803 54.3325C112.058 54.3865 112.313 54.4405 112.562 54.4845C112.583 54.4906 112.605 54.4966 112.629 54.498C117.776 55.5269 122.002 55.8313 124.55 52.1841C124.597 52.1241 124.639 52.0614 124.682 51.9987C124.74 51.908 124.802 51.8126 124.858 51.7146Z" stroke="#4C0D00" stroke-width="1.33333"/>
<path d="M80.1699 78.2393C80.1699 78.2393 86.8501 78.847 93.1634 76.714L80.1699 78.2393Z" fill="white"/>
<path d="M80.1699 78.2393C80.1699 78.2393 86.8501 78.847 93.1634 76.714" stroke="#4C0D00" stroke-width="1.33333"/>
<path d="M78.7852 84.9802C78.7852 84.9802 83.8583 85.96 86.7105 85.2399L78.7852 84.9802Z" fill="white"/>
<path d="M78.7852 84.9802C78.7852 84.9802 83.8583 85.96 86.7105 85.2399" stroke="#4C0D00" stroke-width="1.33333"/>
</g>
<defs>
<clipPath id="clip0_1201_14471">
<rect width="180" height="130" fill="white"/>
</clipPath>
</defs>
</svg>
