<svg width="283" height="64" viewBox="0 0 283 64" fill="none" xmlns="http://www.w3.org/2000/svg">
<mask id="mask0_1883_29075" style="mask-type:luminance" maskUnits="userSpaceOnUse" x="0" y="0" width="308" height="65">
<path d="M308 0H0V64.4577H308V0Z" fill="white"/>
</mask>
<g mask="url(#mask0_1883_29075)">
<path d="M25.6999 4.24902H16.1914V13.7688H25.6999V4.24902Z" fill="#76BC21"/>
<path d="M9.40313 20.7607H-0.105469V30.2805H9.40313V20.7607Z" fill="#76BC21"/>
<path d="M9.40313 4.24902H-0.105469V13.7688H9.40313V4.24902Z" fill="#76BC21"/>
<path d="M96.7002 20.7607V29.8861H71.1828V36.3043H90.1461V44.9098H71.1828V51.1666H97.6851V60.3637H61.6562V20.7607H96.7002Z" fill="#4A4F54"/>
<path d="M136.256 35.6589C134.983 33.4819 133.146 31.6896 130.94 30.4716C128.733 29.2534 126.239 28.6547 123.721 28.7386C122.131 28.6766 120.546 28.9366 119.059 29.5029C117.572 30.0691 116.215 30.93 115.068 32.034C113.922 33.1382 113.01 34.4625 112.386 35.928C111.763 37.3932 111.442 38.9694 111.442 40.5622C111.442 42.1547 111.763 43.7309 112.386 45.1964C113.01 46.6618 113.922 47.9861 115.068 49.0901C116.215 50.1943 117.572 51.0552 119.059 51.6214C120.546 52.1877 122.131 52.4477 123.721 52.3857C126.203 52.5425 128.682 52.0198 130.89 50.8733C133.099 49.7268 134.953 47.9998 136.256 45.8778L143.938 50.1985C139.927 57.7103 132.28 61.4393 123.613 61.4393C111.544 61.4393 102.125 53.4972 102.125 40.6608C102.125 27.8243 111.992 19.9001 123.613 19.9001C132.567 19.9001 139.873 23.683 143.938 31.141L136.256 35.6589Z" fill="#4A4F54"/>
<path d="M275.216 35.6589C273.943 33.4819 272.106 31.6896 269.899 30.4716C267.693 29.2534 265.199 28.6547 262.681 28.7386C261.091 28.6766 259.506 28.9366 258.02 29.5029C256.532 30.0691 255.175 30.93 254.028 32.034C252.882 33.1382 251.969 34.4625 251.346 35.928C250.725 37.3932 250.402 38.9694 250.402 40.5622C250.402 42.1547 250.725 43.7309 251.346 45.1964C251.969 46.6618 252.882 47.9861 254.028 49.0901C255.175 50.1943 256.532 51.0552 258.02 51.6214C259.506 52.1877 261.091 52.4477 262.681 52.3857C265.165 52.5445 267.643 52.0226 269.853 50.876C272.061 49.7291 273.916 48.0012 275.216 45.8778L282.934 50.1985C278.923 57.7103 271.276 61.4393 262.609 61.4393C250.54 61.4393 241.121 53.4972 241.121 40.6608C241.121 27.8243 250.988 19.9001 262.609 19.9001C271.563 19.9001 278.869 23.683 282.934 31.141L275.216 35.6589Z" fill="#4A4F54"/>
<path d="M30.6251 20.7607H15.9414V35.4617H30.6251V20.7607Z" fill="#4A4F54"/>
<path d="M38.146 20.7607H37.4656V29.9578H38.8981C39.7247 29.8778 40.5586 29.9759 41.344 30.2454C42.1296 30.5148 42.8484 30.9494 43.4522 31.52C44.056 32.0907 44.5309 32.784 44.845 33.5534C45.1591 34.3231 45.3051 35.1508 45.273 35.9816C45.3174 36.8291 45.1826 37.6762 44.8773 38.4679C44.5719 39.2594 44.103 39.9776 43.5011 40.5749C42.8991 41.1725 42.178 41.6359 41.3849 41.935C40.5916 42.234 39.7442 42.3618 38.8981 42.3102H15.9414V60.3637H25.4679V51.5252H38.146C47.6546 51.5252 54.6742 45.4297 54.6742 36.0533C54.6742 26.677 47.6546 20.7607 38.146 20.7607Z" fill="#4A4F54"/>
<path d="M180.04 51.077L190.355 20.7606H180.667L175.008 38.4557H163.888C163.402 38.4537 162.93 38.2959 162.54 38.0057C162.15 37.7153 161.863 37.3076 161.721 36.842L156.887 20.7068H147.324L153.126 38.9396C155.06 44.6765 158.713 46.792 165.016 46.792H172.466L171.911 48.7462C171.612 49.6935 171.017 50.5198 170.215 51.1039C169.412 51.688 168.444 51.999 167.452 51.9911H155.364L152.607 60.4533H167.094C169.962 60.4485 172.755 59.5403 175.079 57.8575C177.402 56.1746 179.138 53.8024 180.04 51.077Z" fill="#4A4F54"/>
<path d="M43.4637 6.13101H39.3988V13.7683H37.4648V4.28442H43.4637V6.13101Z" fill="#4A4F54"/>
<path d="M54.2755 7.47586C54.3061 7.92237 54.2391 8.3702 54.0796 8.78826C53.92 9.20632 53.6713 9.58457 53.3509 9.89675C53.0306 10.2089 52.6463 10.4476 52.2246 10.5961C51.8029 10.7446 51.3539 10.7994 50.9089 10.7567H48.8676V13.8224H46.9336V4.28468H50.9089C51.3471 4.23733 51.7905 4.28586 52.2083 4.42692C52.626 4.56799 53.0084 4.79822 53.3284 5.10169C53.6485 5.40518 53.899 5.77464 54.0625 6.18456C54.226 6.59448 54.2987 7.03508 54.2755 7.47586ZM52.3236 7.47586C52.3236 6.63324 51.8401 6.11333 50.8373 6.11333H48.8676V8.85632H50.8373C51.9296 8.85632 52.3236 8.31848 52.3236 7.49379V7.47586Z" fill="#4A4F54"/>
<path d="M60.7419 13.7683H58.5752L60.3659 10.4875L57.0352 4.28442H59.184L61.3686 8.38993L63.4996 4.28442H65.6484L60.7419 13.7683Z" fill="#4A4F54"/>
<path d="M77.1971 13.7683H75.2095V6.13101H71.0551V13.7683H69.1211V4.28442H77.1971V13.7683Z" fill="#4A4F54"/>
<path d="M89.412 13.7683H87.478V6.13101H83.2699V13.7683H81.3359V4.28442H89.412V13.7683Z" fill="#4A4F54"/>
<path d="M99.5816 11.5273H95.7496L94.9079 13.7683H92.9023L96.4837 4.28442H98.9191L102.5 13.7683H100.37L99.5816 11.5273ZM98.9012 9.73453L97.6656 6.29236L96.4121 9.73453H98.9012Z" fill="#4A4F54"/>
<path d="M118.189 11.5273H114.267L113.444 13.7683H111.402L114.984 4.28442H117.437L121.018 13.7683H118.959L118.189 11.5273ZM117.509 9.73453L116.255 6.29236L115.02 9.73453H117.509Z" fill="#4A4F54"/>
<path d="M130.418 6.13101H126.371V13.7683H124.438V4.28442H130.418V6.13101Z" fill="#4A4F54"/>
<path d="M141.252 7.47598C141.283 7.9225 141.216 8.37034 141.056 8.78838C140.897 9.20644 140.648 9.58469 140.328 9.89687C140.007 10.2091 139.623 10.4477 139.201 10.5962C138.78 10.7447 138.33 10.7995 137.886 10.7568H135.844V13.8225H133.91V4.2848H137.886C138.323 4.24055 138.765 4.29123 139.182 4.43344C139.598 4.57563 139.979 4.80598 140.298 5.1088C140.618 5.41164 140.868 5.77983 141.033 6.18832C141.198 6.59681 141.272 7.03599 141.252 7.47598ZM139.282 7.47598C139.282 6.63337 138.799 6.11345 137.796 6.11345H135.844V8.85644H137.886C138.799 8.85644 139.282 8.3186 139.282 7.49391V7.47598Z" fill="#4A4F54"/>
<path d="M154.396 8.96377C154.403 9.94391 154.12 10.9041 153.581 11.7225C153.042 12.5409 152.273 13.1807 151.37 13.5607C150.468 13.9407 149.473 14.0439 148.512 13.857C147.551 13.6702 146.667 13.2017 145.972 12.5112C145.277 11.8206 144.803 10.939 144.609 9.97823C144.416 9.01741 144.511 8.02069 144.884 7.11444C145.257 6.2082 145.891 5.43328 146.704 4.88797C147.518 4.34265 148.475 4.05154 149.454 4.0515C150.104 4.03696 150.75 4.15382 151.354 4.39507C151.958 4.63635 152.507 4.99706 152.968 5.45564C153.43 5.91422 153.794 6.46126 154.039 7.06403C154.285 7.66681 154.406 8.31293 154.396 8.96377ZM146.481 8.96377C146.481 9.35458 146.558 9.74158 146.708 10.1027C146.857 10.4637 147.076 10.7918 147.352 11.0682C147.628 11.3445 147.956 11.5637 148.316 11.7133C148.677 11.8628 149.064 11.9398 149.454 11.9398C149.844 11.9398 150.231 11.8628 150.592 11.7133C150.952 11.5637 151.28 11.3445 151.556 11.0682C151.832 10.7918 152.051 10.4637 152.2 10.1027C152.35 9.74158 152.426 9.35458 152.426 8.96377C152.426 8.57296 152.35 8.18597 152.2 7.8249C152.051 7.46383 151.832 7.13574 151.556 6.85938C151.28 6.58304 150.952 6.36382 150.592 6.21426C150.231 6.06471 149.844 5.98772 149.454 5.98772C149.064 5.98772 148.677 6.06471 148.316 6.21426C147.956 6.36382 147.628 6.58304 147.352 6.85938C147.076 7.13574 146.857 7.46383 146.708 7.8249C146.558 8.18597 146.481 8.57296 146.481 8.96377Z" fill="#4A4F54"/>
<path d="M166.178 13.7683H164.244V6.13101H160.036V13.7683H158.102V4.28442H166.178V13.7683Z" fill="#4A4F54"/>
<path d="M177.654 7.47598C177.677 7.91812 177.604 8.35996 177.441 8.7714C177.278 9.18285 177.028 9.5543 176.708 9.86048C176.389 10.1666 176.007 10.4004 175.59 10.5458C175.172 10.6912 174.728 10.7448 174.288 10.703H172.246V13.7687H170.312V4.2848H174.288C174.725 4.24055 175.168 4.29123 175.584 4.43344C176 4.57563 176.381 4.80598 176.701 5.1088C177.02 5.41164 177.271 5.77983 177.435 6.18832C177.6 6.59681 177.675 7.03599 177.654 7.47598ZM175.703 7.47598C175.703 6.63337 175.219 6.11345 174.216 6.11345H172.246V8.85644H174.216C175.219 8.85644 175.703 8.3186 175.703 7.49391V7.47598Z" fill="#4A4F54"/>
<path d="M183.317 6.13101V8.03137H187.364V9.82417H183.317V11.868H187.74V13.6608H181.383V4.28442H187.74V6.07722L183.317 6.13101Z" fill="#4A4F54"/>
<path d="M201.259 11.9217V15.6508H199.325V13.7683H192.914V15.6508H190.98V11.9217H192.323C192.594 11.557 192.75 11.1202 192.771 10.6668L193.792 4.28442H199.898V11.9217H201.259ZM194.419 11.9217H198V6.13101H195.457L194.705 10.8461C194.637 11.2113 194.54 11.5709 194.419 11.9217Z" fill="#4A4F54"/>
<path d="M212.81 13.7683H210.876V6.13101H206.668V13.7683H204.734V4.28442H212.81V13.7683Z" fill="#4A4F54"/>
<path d="M224.287 7.47586C224.31 7.918 224.237 8.35982 224.074 8.77128C223.911 9.18273 223.66 9.55418 223.342 9.86035C223.021 10.1665 222.64 10.4002 222.222 10.5456C221.805 10.691 221.361 10.7447 220.921 10.7029H218.879V13.7686H216.945V4.28468H220.921C221.359 4.23733 221.802 4.28586 222.221 4.42692C222.638 4.56799 223.019 4.79822 223.34 5.10169C223.66 5.40518 223.911 5.77464 224.074 6.18456C224.237 6.59448 224.31 7.03508 224.287 7.47586ZM222.335 7.47586C222.335 6.63324 221.852 6.11333 220.849 6.11333H218.879V8.85632H220.849C221.852 8.85632 222.335 8.31848 222.335 7.49379V7.47586Z" fill="#4A4F54"/>
<path d="M236.035 4.28442V13.7683H234.101V9.80625L234.28 7.13497L230.162 13.7683H227.941V4.28442H229.875V8.24651L229.696 10.9178L233.833 4.28442H236.035Z" fill="#4A4F54"/>
<path d="M247.297 4.28446V13.7684H245.327V10.5055H244.11L241.8 13.7684H239.418L241.961 10.3083C241.343 10.1253 240.806 9.73507 240.44 9.20304C240.075 8.67101 239.903 8.02949 239.955 7.386C239.927 6.96042 239.991 6.53372 240.145 6.1359C240.299 5.73808 240.537 5.37876 240.845 5.08318C241.151 4.78761 241.52 4.56293 241.923 4.42496C242.326 4.28697 242.754 4.23901 243.178 4.28446H247.297ZM245.327 8.74853V6.13104H243.393C242.391 6.13104 241.907 6.65095 241.907 7.43978C241.907 8.22861 242.391 8.74853 243.393 8.74853H245.327Z" fill="#4A4F54"/>
<path d="M258.149 6.13118H255.409V13.7685H253.475V6.13118H250.699V4.33838H258.077L258.149 6.13118Z" fill="#4A4F54"/>
<path d="M269.664 4.28442V13.7683H267.73V9.80625L267.909 7.13497L263.791 13.7683H261.57V4.28442H263.504V8.24651L263.325 10.9178L267.444 4.28442H269.664Z" fill="#4A4F54"/>
<path d="M281.766 4.28464V13.7685H279.832V9.80646L280.011 7.13519L275.892 13.7685H273.672V4.28464H275.606V8.24672L275.427 10.918L279.545 4.28464H281.766ZM275.445 1.12931V0.770752H276.967V1.07553C276.951 1.18291 276.956 1.29264 276.986 1.39718C277.017 1.50172 277.069 1.59859 277.139 1.68114C277.209 1.76368 277.296 1.82995 277.395 1.87538C277.493 1.92081 277.601 1.94435 277.71 1.94435C277.819 1.94435 277.925 1.92081 278.025 1.87538C278.124 1.82995 278.211 1.76368 278.281 1.68114C278.351 1.59859 278.403 1.50172 278.433 1.39718C278.464 1.29264 278.469 1.18291 278.453 1.07553V0.770752H279.975V1.12931C279.925 1.69599 279.664 2.22326 279.245 2.60729C278.826 2.99135 278.278 3.20433 277.71 3.20433C277.142 3.20433 276.594 2.99135 276.175 2.60729C275.756 2.22326 275.495 1.69599 275.445 1.12931Z" fill="#4A4F54"/>
<path d="M218.826 20.7607H196.621V60.3637H206.148V51.5252H218.826C228.334 51.5252 235.354 45.4297 235.354 36.0533C235.354 26.677 228.334 20.7607 218.826 20.7607ZM219.578 42.2743H206.148V29.9578H219.578C220.405 29.8778 221.238 29.9759 222.024 30.2454C222.81 30.5148 223.528 30.9494 224.132 31.52C224.735 32.0907 225.211 32.784 225.525 33.5534C225.838 34.3231 225.985 35.1508 225.953 35.9816C225.997 36.8291 225.863 37.6762 225.557 38.4679C225.251 39.2594 224.783 39.9776 224.18 40.5749C223.578 41.1725 222.858 41.6359 222.065 41.935C221.272 42.234 220.423 42.3618 219.578 42.3102V42.2743Z" fill="#4A4F54"/>
</g>
</svg>
