<svg width="416" height="426" viewBox="0 0 416 426" fill="none" xmlns="http://www.w3.org/2000/svg">
<path fill-rule="evenodd" clip-rule="evenodd" d="M123.485 125.305C122.954 125.839 122.52 150.934 122.52 181.074V235.872H178.811H235.1L234.728 180.478L234.355 125.084L179.403 124.709C149.181 124.505 124.017 124.772 123.485 125.305ZM285.999 125.164C285.411 125.774 284.93 141.606 284.93 160.346V194.416L293.122 194.439C324.453 194.523 343.817 211.991 343.732 240.091C343.68 257.121 337.46 270.567 326.022 278.371C313.532 286.894 317.705 286.552 216.547 287.331L123.232 288.05V355.953V423.856L159.204 424.237L195.177 424.619V391.098V357.577L255.369 357.015C311.584 356.492 316.344 356.249 327.411 353.343C358.43 345.199 384.478 326.635 399.345 302.077C406.219 290.724 412.627 270.966 414.694 254.752C416.804 238.201 414.788 217.707 409.484 201.788C396.909 164.041 364.944 136.695 323.396 128.139C310.389 125.46 287.466 123.637 285.999 125.164Z" fill="#4A4F55"/>
<path d="M123.944 72.1914V36.4531V0.714844L159.56 1.1194L195.178 1.52539V36.4531V71.3808L159.56 71.7868L123.944 72.1914Z" fill="#75BC20"/>
<path d="M2.1372 71.8068L1.75682 36.6189L1.375 1.42961H37.0413H72.7076L72.3258 36.4674L71.9454 71.5052L37.0413 71.6553L2.1372 71.8068Z" fill="#75BC20"/>
<path d="M1.42487 161.418C1.42487 142.09 1.84656 125.852 2.36371 125.334C3.07747 124.617 70.5948 124.92 72.3016 125.647C72.4968 125.73 72.6577 141.719 72.6577 161.18V196.56H37.0413H1.42487V161.418Z" fill="#75BC20"/>
</svg>
