<svg width="180" height="130" fill="none" xmlns="http://www.w3.org/2000/svg"><g clip-path="url(#a)"><path d="M124.861 51.714c-.056.098-.118.193-.176.284-.043.063-.085.125-.132.185-2.548 3.647-6.774 3.343-11.921 2.314a.3.3 0 0 1-.067-.014 23.148 23.148 0 0 1-.759-.151c-.22-.04-.435-.09-.654-.141-3.914-.91-8.278-2.638-12.602-5.134-11.297-6.522-18.167-15.869-15.629-21.128l.172-.33c2.996-5.188 14.774-3.998 26.309 2.661 11.535 6.66 18.455 16.265 15.459 21.454Z" fill="#4C0D00"/><path d="M124.861 51.714c-.056.098-.118.193-.176.284-.043.063-.085.125-.132.185-2.548 3.647-6.774 3.343-11.921 2.314a.3.3 0 0 1-.067-.014 23.148 23.148 0 0 1-.759-.151c-.22-.04-.435-.09-.654-.141-3.914-.91-8.278-2.638-12.602-5.134-11.297-6.522-18.167-15.869-15.629-21.128l.172-.33c2.996-5.188 14.774-3.998 26.309 2.661 11.535 6.66 18.455 16.265 15.459 21.454Z" stroke="#4C0D00" stroke-width="1.333"/><path d="M84.547 27.299S95.014 7.724 99.004 8.242c5.42.705 4.469 8.335 4.469 8.335s5.7-10.577 12.578-7.96c5.785 2.201 3.751 8.292 3.751 8.292s4.608-3.466 8.018-.383c2.679 2.422-.554 8.034-.554 8.034s7.677-1.874 8.054 3.743c.276 4.115-10.902 20.772-10.902 20.772l-5.068 8.785-41.098-19.577L84.548 27.3Z" fill="#FF6D2F"/><path d="M84.547 27.299S95.014 7.724 99.004 8.242c5.42.705 4.469 8.335 4.469 8.335s5.7-10.577 12.578-7.96c5.785 2.201 3.751 8.292 3.751 8.292s4.608-3.466 8.018-.383c2.679 2.422-.554 8.034-.554 8.034s7.677-1.874 8.054 3.743c.276 4.115-10.902 20.772-10.902 20.772l-5.068 8.785-41.098-19.577L84.548 27.3Z" stroke="#4C0D00"/><path d="M97.97 31.861c.981-5.185 5.816-11.615 7.782-10.458 1.967 1.158-.758 4.956 1.287 4.447 2.044-.51 3.918-5.196 6.589-3.953 4.418 2.056-3.407 17.14-3.407 17.14s-9.554 1.859-9.707 1.798c-.153-.06-2.544-8.974-2.544-8.974Z" fill="#FFF4DA"/><path d="M97.97 31.861c.981-5.185 5.816-11.615 7.782-10.458 1.967 1.158-.758 4.956 1.287 4.447 2.044-.51 3.918-5.196 6.589-3.953 4.418 2.056-3.407 17.14-3.407 17.14s-9.554 1.859-9.707 1.798c-.153-.06-2.544-8.974-2.544-8.974Z" stroke="#4C0D00" stroke-width="1.333"/><path d="M96.19 38.979c-1.984 3.434-6.584 4.492-10.275 2.36-3.69-2.13-5.075-6.642-3.092-10.077 1.984-3.435 6.583-4.492 10.274-2.361 3.691 2.13 5.075 6.643 3.092 10.078Z" fill="#FFF4DA"/><path d="M96.19 38.979c-1.984 3.434-6.584 4.492-10.275 2.36-3.69-2.13-5.075-6.642-3.092-10.077 1.984-3.435 6.583-4.492 10.274-2.361 3.691 2.13 5.075 6.643 3.092 10.078Z" stroke="#4C0D00" stroke-width="1.333"/><path d="M109.28 43.068c-2.838 4.916-9.124 6.6-14.04 3.763-4.916-2.839-6.601-9.125-3.763-14.041 2.839-4.917 9.125-6.601 14.041-3.763 4.916 2.839 6.601 9.125 3.762 14.041Z" fill="#FFF4DA"/><path d="M109.28 43.068c-2.838 4.916-9.124 6.6-14.04 3.763-4.916-2.839-6.601-9.125-3.763-14.041 2.839-4.917 9.125-6.601 14.041-3.763 4.916 2.839 6.601 9.125 3.762 14.041Z" stroke="#4C0D00" stroke-width="1.333"/><path d="M107.608 42.103a8.348 8.348 0 1 1-14.46-8.348 8.348 8.348 0 0 1 14.46 8.348Z" fill="#FFF4DA"/><path d="M107.608 42.103a8.348 8.348 0 1 1-14.46-8.348 8.348 8.348 0 0 1 14.46 8.348Z" stroke="#4C0D00" stroke-width="1.333"/><path d="M105.764 41.038a6.218 6.218 0 1 1-10.77-6.218 6.218 6.218 0 0 1 10.77 6.218Z" fill="#FFF4DA"/><path d="M105.764 41.038a6.218 6.218 0 1 1-10.77-6.218 6.218 6.218 0 0 1 10.77 6.218Z" stroke="#4C0D00" stroke-width="1.333"/><path d="M122.839 31.361c1.749 6.528-2.125 13.238-8.653 14.987-5.795 1.553-11.735-1.328-14.22-6.562l4.401-1.67 3.037-1.154.542-.208 1.314-.497 1.333-.508 1.571-.597.33-.125 1.17-.444 2.16-.821.938-.355 6.009-2.282c.025.077.046.155.068.236Z" fill="#FFF4DA"/><path d="M122.839 31.361c1.749 6.528-2.125 13.238-8.653 14.987-5.795 1.553-11.735-1.328-14.22-6.562l4.401-1.67 3.037-1.154.542-.208 1.314-.497 1.333-.508 1.571-.597.33-.125 1.17-.444 2.16-.821.938-.355 6.009-2.282c.025.077.046.155.068.236Z" stroke="#4C0D00" stroke-width="1.333"/><path d="M117.026 33.338c.132.3.188.639.149.988a1.962 1.962 0 0 1-2.432 1.681 1.957 1.957 0 0 1-3.131 1.622 1.958 1.958 0 0 1-3.412.759 1.96 1.96 0 0 1-2.826-.655l2.029-.771.542-.208 1.313-.497 1.334-.508 1.571-.597.33-.125 1.17-.444 2.16-.821.937-.355.31-.118c-.013.019-.029.033-.044.05Z" fill="#FFF4DA"/><path d="M117.026 33.338c.132.3.188.639.149.988a1.962 1.962 0 0 1-2.432 1.681 1.957 1.957 0 0 1-3.131 1.622 1.958 1.958 0 0 1-3.412.759 1.96 1.96 0 0 1-2.826-.655l2.029-.771.542-.208 1.313-.497 1.334-.508 1.571-.597.33-.125 1.17-.444 2.16-.821.937-.355.31-.118c-.013.019-.029.033-.044.05Z" stroke="#4C0D00" stroke-width="1.333"/><path d="m125.643 30.034-2.873 1.091 2.873-1.09Z" fill="#FFF4DA"/><path d="m125.643 30.034-2.873 1.091" stroke="#4C0D00" stroke-width="1.333"/><path d="m99.967 39.786-2.87 1.09 2.87-1.09Z" fill="#FFF4DA"/><path d="m99.967 39.786-2.87 1.09" stroke="#4C0D00" stroke-width="1.333"/><path d="M117.026 33.338c.132.3.188.639.149.988a1.962 1.962 0 0 1-2.432 1.681 1.957 1.957 0 0 1-3.131 1.622 1.958 1.958 0 0 1-3.412.759 1.96 1.96 0 0 1-2.826-.655l2.029-.771.542-.208 1.313-.497 1.334-.508 1.571-.597.33-.125 1.17-.444 2.16-.821.937-.355.31-.118c-.013.019-.029.033-.044.05Z" fill="#FFF4DA"/><path d="M117.026 33.338c.132.3.188.639.149.988a1.962 1.962 0 0 1-2.432 1.681 1.957 1.957 0 0 1-3.131 1.622 1.958 1.958 0 0 1-3.412.759 1.96 1.96 0 0 1-2.826-.655l2.029-.771.542-.208 1.313-.497 1.334-.508 1.571-.597.33-.125 1.17-.444 2.16-.821.937-.355.31-.118c-.013.019-.029.033-.044.05Z" stroke="#4C0D00" stroke-width="1.333"/><path d="M125.797 30.569c2.187 8.16-2.658 16.549-10.819 18.735-7.329 1.964-14.841-1.74-17.88-8.428l2.869-1.09c2.484 5.235 8.425 8.115 14.219 6.563 6.528-1.75 10.402-8.46 8.653-14.988-.022-.08-.043-.159-.068-.236l2.873-1.09c.055.175.105.354.153.534Z" fill="#FFF4DA"/><path d="M125.797 30.569c2.187 8.16-2.658 16.549-10.819 18.735-7.329 1.964-14.841-1.74-17.88-8.428l2.869-1.09c2.484 5.235 8.425 8.115 14.219 6.563 6.528-1.75 10.402-8.46 8.653-14.988-.022-.08-.043-.159-.068-.236l2.873-1.09c.055.175.105.354.153.534Z" stroke="#4C0D00" stroke-width="1.333"/><path d="M115.411 41.86c-.266-.466-.723-2.147-.256-2.413.466-.266 1.68.983 1.946 1.45a.973.973 0 0 1-1.69.963Z" fill="#FFF4DA"/><path d="M115.411 41.86c-.266-.466-.723-2.147-.256-2.413.466-.266 1.68.983 1.946 1.45a.973.973 0 0 1-1.69.963Z" stroke="#4C0D00" stroke-width="1.333"/><path d="M119.639 38.181c-.404-.177-1.531-1.06-1.354-1.465.177-.405 1.591-.178 1.996 0a.8.8 0 0 1-.642 1.465Z" fill="#FFF4DA"/><path d="M119.639 38.181c-.404-.177-1.531-1.06-1.354-1.465.177-.405 1.591-.178 1.996 0a.8.8 0 0 1-.642 1.465Z" stroke="#4C0D00" stroke-width="1.333"/><path d="M109.444 43.76c.016-.538.501-2.21 1.038-2.194.536.016.922 1.714.907 2.25a.973.973 0 0 1-1.945-.057Z" fill="#FFF4DA"/><path d="M109.444 43.76c.016-.538.501-2.21 1.038-2.194.536.016.922 1.714.907 2.25a.973.973 0 0 1-1.945-.057Z" stroke="#4C0D00" stroke-width="1.333"/><path d="M105.114 41.652c.263-.319 1.349-1.106 1.668-.843.319.264-.25 1.478-.513 1.797a.75.75 0 0 1-1.155-.954Z" fill="#FFF4DA"/><path d="M105.114 41.652c.263-.319 1.349-1.106 1.668-.843.319.264-.25 1.478-.513 1.797a.75.75 0 0 1-1.155-.954Z" stroke="#4C0D00" stroke-width="1.333"/><path d="M85.751 41.044c1.705-8.579 8.65-10.761 11.107-6.094 2.457 4.667 5.131-.287 8.097 1.89 2.967 2.177.762 4.871 3.05 5.972s4.489-1.667 6.707-.363c2.217 1.304.352 3.569 4.917 6.112 4.565 2.543-11.509 16.56-11.509 16.56L85.751 41.043Z" fill="#FFF4DA"/><path d="M85.751 41.044c1.705-8.579 8.65-10.761 11.107-6.094 2.457 4.667 5.131-.287 8.097 1.89 2.967 2.177.762 4.871 3.05 5.972s4.489-1.667 6.707-.363c2.217 1.304.352 3.569 4.917 6.112 4.565 2.543-11.509 16.56-11.509 16.56L85.751 41.043Z" stroke="#4C0D00" stroke-width="1.333"/><path d="m95.001 103.43-15.233 26.385L38 105.7l15.238-26.382L82.92 27.93c-2.538 5.26 4.332 14.606 15.629 21.128 4.324 2.496 8.687 4.225 12.602 5.134-10.73-2.285-24.913-6.276-36.26 14.619l-9.963 17.255 30.074 17.364Z" fill="#FFF4DA"/><path d="m95.001 103.43-15.233 26.385L38 105.7l15.238-26.382L82.92 27.93c-2.538 5.26 4.332 14.606 15.629 21.128 4.324 2.496 8.687 4.225 12.602 5.134-10.73-2.285-24.913-6.276-36.26 14.619l-9.963 17.255 30.074 17.364Z" stroke="#4C0D00" stroke-width="1.333"/><path d="M79.768 129.815 38 105.7c6.708-2.33 16.376-.961 25.392 4.245 9.02 5.207 15.04 12.895 16.376 19.87Z" fill="#FFF4DA"/><path d="M79.768 129.815 38 105.7c6.708-2.33 16.376-.961 25.392 4.245 9.02 5.207 15.04 12.895 16.376 19.87Z" stroke="#4C0D00" stroke-width="1.333" stroke-linecap="round" stroke-linejoin="round"/><path d="m89.361 42.81-2.389 4.138a1.59 1.59 0 0 1-2.752-1.589l1.695-2.935a.69.69 0 0 0-1.197-.691L72.935 62.142a1.69 1.69 0 0 1-2.926-1.69L83.08 37.81a2.326 2.326 0 0 1 3.734-.403l2.251 2.674c.682.75.801 1.853.295 2.73Z" fill="#FFF4DA"/><path d="m89.361 42.81-2.389 4.138a1.59 1.59 0 0 1-2.752-1.589l1.695-2.935a.69.69 0 0 0-1.197-.691L72.935 62.142a1.69 1.69 0 0 1-2.926-1.69L83.08 37.81a2.326 2.326 0 0 1 3.734-.403l2.251 2.674c.682.75.801 1.853.295 2.73Z" stroke="#4C0D00" stroke-width="1.333"/><path d="m124.858 51.715-45.09 78.1c-4.158-5.529-17.11-15.661-17.11-15.661a15.405 15.405 0 0 1-2.94-19.066l15.17-26.277c11.348-20.896 25.532-16.904 36.261-14.62.219.053.434.102.654.142.255.053.51.108.759.151a.3.3 0 0 0 .067.014c5.147 1.029 9.373 1.333 11.921-2.314.047-.06.089-.123.132-.185.058-.091.12-.186.176-.284Z" fill="#FFF4DA"/><path d="m124.858 51.715-45.09 78.1c-4.158-5.529-17.11-15.661-17.11-15.661a15.405 15.405 0 0 1-2.94-19.066l15.17-26.277c11.348-20.896 25.532-16.904 36.261-14.62.219.053.434.102.654.142.255.053.51.108.759.151a.3.3 0 0 0 .067.014c5.147 1.029 9.373 1.333 11.921-2.314.047-.06.089-.123.132-.185.058-.091.12-.186.176-.284Z" stroke="#4C0D00" stroke-width="1.333"/><path d="M80.17 78.24s6.68.607 12.993-1.526L80.17 78.239Z" fill="#fff"/><path d="M80.17 78.24s6.68.607 12.993-1.526" stroke="#4C0D00" stroke-width="1.333"/><path d="M78.785 84.98s5.073.98 7.925.26l-7.925-.26Z" fill="#fff"/><path d="M78.785 84.98s5.073.98 7.925.26" stroke="#4C0D00" stroke-width="1.333"/></g><defs><clipPath id="a"><path fill="#fff" d="M0 0h180v130H0z"/></clipPath></defs></svg>