<svg width="241" height="240" viewBox="0 0 241 240" fill="none" xmlns="http://www.w3.org/2000/svg">
<path d="M219.573 119.673L219.333 119.981L219.573 120.289L240.048 146.511L209.964 161.498L209.619 161.67L209.698 162.048L216.421 194.307L182.635 195.094L182.258 195.103L182.163 195.468L173.9 227.403L143.103 213.83L142.764 213.68L142.522 213.961L120.799 239.233L99.1145 213.962L98.8729 213.68L98.5334 213.83L67.7368 227.403L59.4734 195.468L59.3787 195.102L59.0005 195.094L25.215 194.344L31.9385 162.048L32.0171 161.67L31.6719 161.498L1.58845 146.511L22.0244 120.288L22.2639 119.981L22.0244 119.674L1.58845 93.451L31.6719 78.4638L32.0172 78.2918L31.9385 77.9142L25.215 45.6552L59.001 44.868L59.3788 44.8592L59.4734 44.4934L67.7368 12.5594L98.5334 26.1323L98.8727 26.2818L99.1143 26.0007L120.799 0.766771L142.522 26.001L142.764 26.2818L143.103 26.1322L173.861 12.5594L182.163 44.4939L182.258 44.8592L182.635 44.868L216.383 45.6552L209.698 77.9148L209.62 78.292L209.964 78.4638L240.048 93.4508L219.573 119.673Z" fill="#4C0D00" stroke="#4C0D00"/>
<path d="M139.004 212.746C190.311 204.454 225.182 156.139 216.89 104.832C208.598 53.5249 160.283 18.6543 108.976 26.9464C57.669 35.2384 22.7985 83.5531 31.0906 134.86C39.3826 186.167 87.6971 221.038 139.004 212.746Z" fill="#FFF4DA" stroke="#4C0D00" stroke-width="1.00285" stroke-linecap="round" stroke-linejoin="round"/>
<path d="M133.621 184.157C169.955 178.292 194.655 144.082 188.79 107.748C182.925 71.4143 148.715 46.7145 112.381 52.5798C76.0473 58.4451 51.3476 92.6544 57.2129 128.988C63.0782 165.322 97.2874 190.022 133.621 184.157Z" fill="#FFF4DA" stroke="#4C0D00" stroke-linecap="round" stroke-linejoin="round"/>
<path d="M110.066 103.642L110.329 103.602L110.442 103.361L120.433 82.1269C120.677 81.6689 121.031 81.2887 121.457 81.0226C121.886 80.7547 122.374 80.6114 122.87 80.6054C123.367 80.5995 123.858 80.731 124.292 80.9884C124.723 81.2432 125.084 81.6129 125.338 82.0627L135.326 103.292L135.439 103.532L135.701 103.573L158.15 107.049C158.152 107.049 158.153 107.049 158.154 107.049C158.662 107.136 159.139 107.368 159.533 107.721C159.929 108.075 160.226 108.538 160.388 109.06C160.551 109.583 160.574 110.143 160.452 110.678C160.331 111.212 160.072 111.698 159.707 112.085C159.706 112.086 159.705 112.087 159.704 112.088L143.451 128.633L143.273 128.814L143.314 129.065L147.179 152.428C147.179 152.428 147.179 152.429 147.179 152.429C147.266 152.979 147.205 153.543 147.003 154.057C146.8 154.572 146.465 155.014 146.039 155.337C145.612 155.659 145.11 155.849 144.589 155.889C144.068 155.928 143.547 155.815 143.082 155.562C143.081 155.562 143.081 155.561 143.081 155.561L123.092 144.54L122.851 144.407L122.609 144.54L102.62 155.561C102.62 155.561 102.62 155.562 102.619 155.562C102.154 155.815 101.633 155.928 101.112 155.889C100.591 155.849 100.089 155.659 99.6626 155.337C99.2359 155.014 98.9011 154.572 98.6986 154.057C98.4963 153.543 98.4349 152.979 98.522 152.43C98.5221 152.429 98.5222 152.429 98.5223 152.428L102.453 129.136L102.496 128.884L102.317 128.702L86.0608 112.155C85.6953 111.768 85.4367 111.281 85.3156 110.748C85.1941 110.212 85.2163 109.652 85.3792 109.13C85.5422 108.607 85.8389 108.144 86.2344 107.79C86.6287 107.437 87.1061 107.206 87.6137 107.119L110.066 103.642Z" fill="#FF6D2F" stroke="#4C0D00"/>
</svg>
