<svg width="206" height="240" viewBox="0 0 206 240" fill="none" xmlns="http://www.w3.org/2000/svg">
<path d="M106.701 2.70947C115.097 21.1412 127.871 33.5783 143.51 40.8055C159.141 48.0289 177.603 50.0339 197.366 47.6641L197.364 47.6373C197.825 47.5717 198.294 47.6084 198.744 47.7463C199.239 47.8978 199.704 48.1689 200.105 48.5456C200.507 48.9225 200.836 49.396 201.067 49.9365C201.297 50.4769 201.422 51.0694 201.433 51.673C202.102 99.5931 189.762 142.291 171.153 175.146C152.58 207.938 127.789 230.88 103.502 239.47C79.2323 230.88 54.4498 207.938 35.8765 175.146C17.2679 142.291 4.9197 99.5944 5.57149 51.6753C5.58913 51.0877 5.71488 50.5121 5.93927 49.9856C6.16412 49.4581 6.48216 48.9934 6.87013 48.619C7.2579 48.2448 7.70666 47.9694 8.18637 47.8062C8.6658 47.6431 9.16838 47.5947 9.66328 47.663L9.66326 47.6631L9.67209 47.6641C29.4348 50.0339 47.8797 48.0289 63.5024 40.8055C79.1334 33.5783 91.9072 21.1413 100.336 2.71016L100.336 2.70971C100.645 2.03311 101.109 1.4737 101.672 1.08691C102.233 0.700643 102.872 0.5 103.519 0.5C104.166 0.5 104.805 0.700643 105.366 1.08691C105.928 1.47365 106.393 2.03297 106.701 2.70947ZM106.701 2.70947L107.156 2.50221L106.701 2.70971C106.701 2.70963 106.701 2.70955 106.701 2.70947Z" fill="#FFF4DA" stroke="#4C0D00"/>
<path d="M106.239 17.1245C113.909 33.4788 125.579 44.513 139.863 50.924C154.139 57.3311 170.997 59.1085 189.04 57.0072L189.039 56.9834C189.456 56.9257 189.879 56.9579 190.287 57.079C190.733 57.2118 191.152 57.4493 191.513 57.7785C191.875 58.1078 192.17 58.5212 192.377 58.9924C192.584 59.4636 192.697 59.98 192.706 60.506C193.316 102.977 182.056 140.818 165.075 169.936C148.128 198.995 125.512 219.324 103.356 226.938C81.2164 219.324 58.6072 198.995 41.661 169.936C24.6803 140.819 13.4122 102.978 14.0068 60.5084C14.0227 59.9964 14.1356 59.4949 14.337 59.036C14.5388 58.5759 14.8246 58.1702 15.1737 57.8431C15.5226 57.5161 15.927 57.2748 16.36 57.1317C16.7929 56.9887 17.247 56.9462 17.6943 57.0061L17.6943 57.0062L17.7029 57.0072C35.7463 59.1085 52.5892 57.3311 66.8571 50.9239C81.1335 44.5129 92.8032 33.4789 100.504 17.1252L100.504 17.1247C100.781 16.5349 101.198 16.0463 101.704 15.708C102.21 15.37 102.787 15.1938 103.372 15.1938C103.956 15.1938 104.533 15.37 105.039 15.708C105.545 16.0463 105.962 16.5348 106.239 17.1245ZM106.239 17.1245L106.692 16.9122L106.239 17.1247C106.239 17.1247 106.239 17.1246 106.239 17.1245Z" fill="#FFF4DA" stroke="#4C0D00"/>
<path fill-rule="evenodd" clip-rule="evenodd" d="M64 130.384C64.9129 133.815 66.2787 137.11 68.0615 140.181L78.8385 141.443C79.6988 142.412 80.616 143.329 81.5852 144.19L82.7952 154.963C85.8693 156.735 89.1651 158.091 92.5961 158.996L101.066 152.232C102.361 152.309 103.659 152.309 104.954 152.232L113.424 159C116.856 158.087 120.15 156.721 123.221 154.938L124.431 144.17C125.4 143.309 126.317 142.392 127.178 141.423L137.951 140.213C139.723 137.139 141.079 133.843 141.984 130.412L135.22 121.942C135.297 120.647 135.297 119.349 135.22 118.054L141.988 109.584C141.075 106.153 139.709 102.858 137.926 99.7871L127.157 98.5771C126.297 97.6079 125.38 96.6907 124.411 95.8304L123.201 85.0575C120.128 83.2784 116.832 81.9153 113.4 81.004L104.93 87.7679C103.635 87.6912 102.337 87.6912 101.042 87.7679L92.5719 81C89.1462 81.9037 85.8558 83.2586 82.7871 85.0293L81.5771 95.7982C80.6079 96.6585 79.6907 97.5756 78.8304 98.5449L68.0575 99.7548C66.2784 102.828 64.9153 106.124 64.004 109.556L70.7679 118.026C70.6912 119.321 70.6912 120.619 70.7679 121.914L64 130.384ZM119.111 119.978C119.111 128.888 111.888 136.111 102.978 136.111C94.0679 136.111 86.8449 128.888 86.8449 119.978C86.8449 111.068 94.0679 103.845 102.978 103.845C111.888 103.845 119.111 111.068 119.111 119.978Z" fill="#FF6D2F" stroke="#4C0D00" stroke-linecap="round" stroke-linejoin="round"/>
<path d="M102.999 240L99.3262 238.728C49.4746 221.994 -1.27212 150.002 0.0243252 58.9338C0.0896085 56.5058 0.614954 54.1184 1.56769 51.92C2.52043 49.7217 3.88018 47.7594 5.56235 46.1552C7.24452 44.5511 9.21313 43.3394 11.3457 42.5955C13.4783 41.8516 15.7293 41.5915 17.9585 41.8313C22.2132 42.3306 26.4891 42.5876 30.7687 42.6011C50.0302 42.6011 75.7122 36.8444 88.6767 9.46693C90.0323 6.61518 92.0859 4.22329 94.6123 2.55336C97.1388 0.883434 100.041 0 102.999 0C105.958 0 108.86 0.883434 111.387 2.55336C113.913 4.22329 115.967 6.61518 117.322 9.46693C130.317 36.8444 155.999 42.6011 175.23 42.6011C179.51 42.5885 183.786 42.3315 188.04 41.8313H189.769C194.006 41.8388 198.073 43.6422 201.101 46.8564C204.129 50.0706 205.878 54.4409 205.974 59.0342C207.302 150.103 156.586 221.994 106.673 238.829L102.999 240ZM101.178 232.336L102.999 232.972L104.851 232.336C152.511 216.237 201.067 146.99 199.801 59.0342C199.766 57.53 199.444 56.0499 198.855 54.6875C198.266 53.3251 197.423 52.1101 196.378 51.1193C195.334 50.1284 194.111 49.3832 192.788 48.931C191.464 48.4787 190.068 48.329 188.689 48.4916C184.219 49.0197 179.726 49.2879 175.23 49.2949C154.271 49.2949 126.243 42.9023 111.858 12.4792C111.024 10.7153 109.757 9.23514 108.197 8.20163C106.636 7.16813 104.843 6.62134 103.015 6.62134C101.186 6.62134 99.3935 7.16813 97.8332 8.20163C96.2729 9.23514 95.0058 10.7153 94.1712 12.4792C79.7559 42.8354 51.7588 49.2949 30.7687 49.2949C26.2725 49.2879 21.78 49.0197 17.3103 48.4916C16.9508 48.4583 16.5894 48.4583 16.2299 48.4916C13.6115 48.4907 11.0965 49.5999 9.2221 51.5823C7.34767 53.5646 6.26235 56.263 6.19789 59.1012C4.93231 147.057 53.4874 216.405 101.178 232.403V232.336Z" fill="#4C0D00"/>
</svg>
