<svg width="207" height="240" viewBox="0 0 207 240" fill="none" xmlns="http://www.w3.org/2000/svg">
<path d="M107.373 2.70923C115.757 21.1408 128.513 33.5781 144.131 40.8054C159.741 48.0289 178.177 50.0339 197.912 47.6641L197.911 47.6373C198.371 47.5717 198.839 47.6083 199.289 47.7463C199.783 47.8977 200.247 48.1687 200.648 48.5453C201.049 48.9222 201.377 49.3958 201.607 49.9362C201.837 50.4763 201.963 51.0683 201.973 51.6714C202.641 99.5923 190.318 142.29 171.735 175.146C153.188 207.938 128.431 230.88 104.179 239.47C79.9432 230.88 55.1953 207.938 36.6478 175.146C18.065 142.291 5.73395 99.5945 6.38484 51.6753C6.40246 51.0876 6.52806 50.5119 6.75215 49.9854C6.97671 49.4578 7.29433 48.9931 7.68171 48.6188C8.06891 48.2446 8.51696 47.9692 8.99583 47.8061C9.47442 47.6431 9.97608 47.5947 10.4701 47.663L10.4701 47.6631L10.4789 47.6641C30.2144 50.0339 48.634 48.0289 64.2353 40.8054C79.8448 33.5781 92.6009 21.1409 101.018 2.70992L101.018 2.70947C101.326 2.03281 101.79 1.47344 102.352 1.08673C102.912 0.700543 103.55 0.5 104.196 0.5C104.841 0.5 105.479 0.700543 106.04 1.08673C106.601 1.47339 107.065 2.03267 107.373 2.70923ZM107.373 2.70923L107.828 2.50221L107.373 2.70947C107.373 2.70939 107.373 2.70931 107.373 2.70923Z" fill="#FFF4DA" stroke="#4C0D00"/>
<path d="M189.6 57.0072L189.599 56.9834C190.015 56.9258 190.438 56.9579 190.844 57.0789C191.29 57.2117 191.708 57.4491 192.069 57.7782C192.43 58.1075 192.725 58.5209 192.932 58.9921C193.138 59.463 193.25 59.9789 193.26 60.5044C193.87 102.976 182.625 140.818 165.667 169.937C148.744 198.995 126.159 219.324 104.035 226.938C81.9262 219.324 59.3486 198.995 42.426 169.937C25.4688 140.819 14.2162 102.978 14.8101 60.5083C14.8259 59.9963 14.9386 59.4947 15.1398 59.0357C15.3414 58.5756 15.6268 58.17 15.9753 57.8428C16.3237 57.5159 16.7274 57.2747 17.1597 57.1317C17.5918 56.9887 18.0451 56.9462 18.4915 57.0061L18.4915 57.0062L18.5001 57.0072C36.5188 59.1086 53.3385 57.3311 67.5868 50.9238C81.8437 44.5127 93.4972 33.4786 101.187 17.125L101.187 17.1245C101.464 16.5346 101.88 16.0461 102.386 15.7078C102.891 15.3699 103.467 15.1938 104.05 15.1938C104.634 15.1938 105.209 15.3699 105.714 15.7078C106.22 16.046 106.637 16.5345 106.913 17.1243C114.572 33.4785 126.226 44.5128 140.491 50.9239C154.747 57.3311 171.582 59.1086 189.6 57.0072Z" fill="#FFF4DA" stroke="#4C0D00"/>
<path d="M129.507 149.333L140.347 131.718L135.144 128.487L135.141 128.485C134.257 127.929 133.545 127.136 133.084 126.196C132.623 125.257 132.431 124.207 132.528 123.164C132.62 122.103 132.657 121.039 132.638 119.974C132.638 119.972 132.638 119.971 132.638 119.969L133.138 119.961C133.103 119.005 133.334 118.058 133.805 117.228C134.275 116.397 134.967 115.715 135.802 115.259L129.507 149.333ZM129.507 149.333L124.326 146.088L124.321 146.085C123.431 145.543 122.41 145.256 121.369 145.256C120.328 145.256 119.307 145.543 118.417 146.085L118.411 146.089C117.97 146.367 117.532 146.624 117.079 146.861C117.078 146.862 117.077 146.862 117.076 146.862L115.646 147.592C114.704 148.024 113.9 148.71 113.324 149.575C112.746 150.443 112.42 151.456 112.382 152.499L112.382 152.502L112.191 158.668M129.507 149.333L112.191 158.668M131.226 93.6529L125.836 96.5498L131.226 93.6529ZM131.226 93.6529L140.959 111.919L131.226 93.6529ZM93.9351 82.5564L114.486 83.2047L114.295 89.3525L114.295 89.3569C114.272 90.4034 114.536 91.4363 115.058 92.342C115.58 93.2472 116.34 93.9903 117.255 94.4895C118.186 95.0061 119.09 95.5698 119.965 96.1784C120.811 96.7835 121.809 97.1393 122.846 97.2052C123.883 97.2712 124.919 97.0442 125.835 96.5501L93.9351 82.5564ZM93.9351 82.5564L93.7442 88.7414L93.744 88.7486L93.7439 88.7486C93.6966 89.7935 93.3651 90.8055 92.7851 91.6741C92.2051 92.5427 91.399 93.2346 90.4543 93.6738L90.4542 93.6738C89.9702 93.8988 89.5153 94.1189 89.0636 94.3736C88.9229 94.4529 88.7859 94.5286 88.6516 94.6028C88.321 94.7855 88.007 94.9589 87.6964 95.1543L87.6924 95.1569L87.6924 95.1568C86.8092 95.7011 85.7934 95.9892 84.7574 95.9892C83.7213 95.9892 82.7057 95.7011 81.8224 95.1568L81.8189 95.1547L81.8189 95.1547L76.6194 91.8914L65.7781 109.508L70.9834 112.757L70.9859 112.759C71.8677 113.316 72.5772 114.11 73.0351 115.051C73.4928 115.991 73.6813 117.04 73.5797 118.081C73.4846 119.14 73.4539 120.204 73.4878 121.267L73.4879 121.269C73.5156 122.315 73.2557 123.347 72.7367 124.254C72.2178 125.16 71.4598 125.904 70.5462 126.405L70.5433 126.406L65.1666 129.305L74.8818 147.571L80.2718 144.675C81.1882 144.18 82.2237 143.953 83.2617 144.019C84.2992 144.085 85.2975 144.441 86.1444 145.047C87.0068 145.655 87.9037 146.212 88.8305 146.714C88.8308 146.714 88.8311 146.715 88.8313 146.715L88.593 147.154C89.431 147.607 90.1285 148.284 90.6085 149.11L93.9351 82.5564ZM112.191 158.668L91.6215 158.02L112.191 158.668ZM101.292 138.819C104.867 139.176 108.467 138.457 111.636 136.755C113.746 135.625 115.613 134.087 117.13 132.229C118.647 130.371 119.785 128.23 120.479 125.928C121.172 123.627 121.407 121.21 121.17 118.817C120.934 116.424 120.23 114.102 119.1 111.983C117.404 108.796 114.808 106.186 111.639 104.484C108.469 102.781 104.87 102.062 101.295 102.419C97.7195 102.775 94.3298 104.19 91.554 106.485C88.7782 108.78 86.7407 111.852 85.6986 115.312C84.6564 118.771 84.6562 122.464 85.6979 125.924C86.7396 129.384 88.7767 132.455 91.5522 134.751C94.3278 137.046 97.7172 138.462 101.292 138.819Z" fill="#FF6D2F" stroke="#4C0D00"/>
<path d="M103.675 240L100.007 238.728C50.2242 221.994 -0.452122 150.002 0.842529 58.9338C0.907721 56.5058 1.43234 54.1184 2.38376 51.92C3.33517 49.7217 4.69304 47.7594 6.37287 46.1552C8.05271 44.5511 10.0186 43.3394 12.1482 42.5955C14.2778 41.8516 16.5257 41.5915 18.7519 41.8313C23.0007 42.3306 27.2706 42.5876 31.5442 42.6011C50.779 42.6011 76.4255 36.8444 89.372 9.46693C90.7256 6.61518 92.7764 4.22329 95.2993 2.55336C97.8223 0.883434 100.72 0 103.675 0C106.63 0 109.527 0.883434 112.05 2.55336C114.573 4.22329 116.624 6.61518 117.978 9.46693C130.955 36.8444 156.601 42.6011 175.805 42.6011C180.079 42.5885 184.349 42.3315 188.598 41.8313H190.324C194.555 41.8388 198.617 43.6422 201.64 46.8564C204.664 50.0706 206.411 54.4409 206.507 59.0342C207.833 150.103 157.187 221.994 107.343 238.829L103.675 240ZM101.856 232.336L103.675 232.972L105.524 232.336C153.118 216.237 201.606 146.99 200.342 59.0342C200.308 57.53 199.986 56.0499 199.398 54.6875C198.809 53.3251 197.967 52.1101 196.924 51.1193C195.881 50.1284 194.66 49.3832 193.338 48.931C192.017 48.4787 190.623 48.329 189.245 48.4916C184.782 49.0197 180.295 49.2879 175.805 49.2949C154.875 49.2949 126.886 42.9023 112.522 12.4792C111.688 10.7153 110.423 9.23514 108.865 8.20163C107.307 7.16813 105.516 6.62134 103.69 6.62134C101.864 6.62134 100.074 7.16813 98.5157 8.20163C96.9576 9.23514 95.6922 10.7153 94.8588 12.4792C80.4635 42.8354 52.5052 49.2949 31.5442 49.2949C27.0543 49.2879 22.568 49.0197 18.1045 48.4916C17.7456 48.4583 17.3846 48.4583 17.0257 48.4916C14.4109 48.4907 11.8994 49.5999 10.0275 51.5823C8.15572 53.5646 7.0719 56.263 7.00753 59.1012C5.74371 147.057 54.2315 216.405 101.856 232.403V232.336Z" fill="#4C0D00"/>
</svg>
