<svg width="345" height="269" viewBox="0 0 345 269" fill="none" xmlns="http://www.w3.org/2000/svg">
<ellipse cx="172.5" cy="134.5" rx="172.5" ry="134.5" fill="#4C0D00"/>
<path d="M176.634 221.367C176.101 217.832 177.295 206.307 180.83 205.774C184.365 205.241 188.903 215.902 189.436 219.437C189.968 222.972 187.535 226.27 184 226.803C180.465 227.335 177.168 224.902 176.634 221.367Z" stroke="#FFF4DA" stroke-width="1.33333"/>
<path d="M211.714 208.672C209.625 206.603 204.75 198.415 206.82 196.328C208.889 194.239 217.12 199.04 219.208 201.11C221.296 203.179 221.312 206.55 219.243 208.638C217.173 210.727 213.803 210.742 211.714 208.672Z" stroke="#FFF4DA" stroke-width="1.33333"/>
<path d="M135.038 218.849C136.423 215.554 143.443 206.335 146.738 207.721C150.034 209.106 148.358 220.571 146.972 223.867C145.587 227.162 141.792 228.711 138.496 227.325C135.201 225.94 133.652 222.145 135.038 218.849Z" stroke="#FFF4DA" stroke-width="1.33333"/>
<path d="M113.216 195.387C115.617 194.038 124.242 191.753 125.591 194.154C126.939 196.554 120.499 202.731 118.099 204.079C115.699 205.428 112.66 204.575 111.312 202.175C109.963 199.774 110.816 196.736 113.216 195.387Z" stroke="#FFF4DA" stroke-width="1.33333"/>
<path d="M334.5 132C334.5 201.756 262.092 258.5 172.5 258.5C82.9081 258.5 10.5 201.756 10.5 132C10.5 62.2437 82.9081 5.5 172.5 5.5C262.092 5.5 334.5 62.2437 334.5 132Z" stroke="#FFF4DA"/>
</svg>
