<svg width="346" height="269" viewBox="0 0 346 269" fill="none" xmlns="http://www.w3.org/2000/svg">
<ellipse cx="173.318" cy="134.5" rx="172.5" ry="134.5" fill="#4C0D00"/>
<path d="M186.561 212.423C185.887 208.912 186.621 197.349 190.132 196.676C193.643 196.002 198.602 206.474 199.275 209.985C199.948 213.496 197.648 216.888 194.137 217.561C190.626 218.235 187.234 215.934 186.561 212.423Z" stroke="#FFF4DA" stroke-width="1.33333"/>
<path d="M221.106 198.341C218.937 196.356 213.739 188.37 215.724 186.201C217.709 184.032 226.124 188.501 228.293 190.486C230.462 192.47 230.612 195.838 228.628 198.007C226.643 200.176 223.276 200.326 221.106 198.341Z" stroke="#FFF4DA" stroke-width="1.33333"/>
<path d="M144.897 211.566C146.15 208.218 152.797 198.727 156.144 199.98C159.492 201.233 158.275 212.756 157.022 216.104C155.769 219.452 152.038 221.15 148.69 219.897C145.342 218.644 143.644 214.914 144.897 211.566Z" stroke="#FFF4DA" stroke-width="1.33333"/>
<path d="M122.158 188.992C124.502 187.548 133.03 184.922 134.473 187.266C135.916 189.611 129.728 196.04 127.383 197.482C125.038 198.926 121.968 198.194 120.525 195.85C119.082 193.505 119.813 190.435 122.158 188.992Z" stroke="#FFF4DA" stroke-width="1.33333"/>
</svg>
