<svg width="218" height="270" viewBox="0 0 218 270" fill="none" xmlns="http://www.w3.org/2000/svg">
<path fill-rule="evenodd" clip-rule="evenodd" d="M153.071 196.117C152.848 196.279 152.798 196.592 152.96 196.815L166.379 215.276C166.541 215.499 166.854 215.549 167.077 215.386C167.3 215.224 167.35 214.911 167.187 214.688L153.769 196.228C153.607 196.004 153.294 195.955 153.071 196.117Z" fill="#4C0D00"/>
<path fill-rule="evenodd" clip-rule="evenodd" d="M167.149 185.813C166.926 185.975 166.876 186.288 167.039 186.511L180.457 204.972C180.619 205.195 180.932 205.244 181.155 205.082C181.379 204.92 181.428 204.607 181.266 204.384L167.848 185.923C167.685 185.7 167.373 185.651 167.149 185.813Z" fill="#4C0D00"/>
<path d="M211.327 266.379C212.819 265.297 214.083 263.93 215.047 262.357C216.01 260.784 216.653 259.035 216.94 257.212C217.226 255.389 217.149 253.527 216.715 251.733C216.28 249.939 215.495 248.25 214.406 246.761L191.584 210.408C189.395 207.399 186.104 205.385 182.433 204.806C178.762 204.227 175.012 205.132 172.007 207.322C170.514 208.404 169.25 209.77 168.287 211.344C167.323 212.917 166.68 214.665 166.394 216.489C166.108 218.312 166.184 220.174 166.619 221.968C167.054 223.761 167.838 225.451 168.927 226.939L191.584 263.293C192.665 264.812 194.037 266.099 195.621 267.079C197.205 268.06 198.968 268.713 200.807 269C202.646 269.287 204.525 269.204 206.331 268.754C208.138 268.303 209.836 267.496 211.327 266.379Z" fill="#FFF4DA"/>
<path fill-rule="evenodd" clip-rule="evenodd" d="M172.301 207.726C175.2 205.615 178.816 204.742 182.355 205.3C185.889 205.857 189.059 207.795 191.17 210.688L213.983 247.027C213.989 247.037 213.996 247.047 214.003 247.056C215.053 248.492 215.809 250.121 216.229 251.851C216.648 253.58 216.722 255.376 216.446 257.134C216.17 258.893 215.549 260.579 214.62 262.096C213.692 263.613 212.472 264.931 211.033 265.974L211.027 265.978L211.027 265.979C209.589 267.056 207.952 267.834 206.21 268.268C204.468 268.702 202.658 268.783 200.884 268.506C199.111 268.229 197.411 267.599 195.884 266.654C194.361 265.712 193.041 264.475 192.001 263.015L169.352 226.675C169.345 226.665 169.338 226.654 169.331 226.644C168.281 225.209 167.524 223.579 167.105 221.85C166.686 220.12 166.612 218.325 166.888 216.566C167.164 214.808 167.784 213.122 168.713 211.605C169.642 210.088 170.861 208.77 172.3 207.727L172.301 207.726ZM171.713 206.918C174.825 204.65 178.709 203.713 182.511 204.312C186.313 204.911 189.722 206.998 191.989 210.114C191.995 210.123 192.002 210.132 192.008 210.142L214.82 246.48C215.943 248.019 216.752 249.763 217.201 251.615C217.651 253.473 217.73 255.401 217.434 257.289C217.137 259.178 216.471 260.989 215.473 262.618C214.476 264.246 213.168 265.661 211.623 266.781C210.08 267.937 208.322 268.773 206.452 269.239C204.581 269.705 202.635 269.792 200.73 269.494C198.825 269.196 196.998 268.52 195.358 267.505C193.717 266.489 192.296 265.156 191.177 263.582C191.171 263.574 191.165 263.566 191.16 263.557L168.513 227.22C167.391 225.682 166.582 223.937 166.133 222.085C165.683 220.228 165.603 218.299 165.9 216.411C166.196 214.523 166.863 212.712 167.86 211.083C168.858 209.453 170.167 208.038 171.713 206.918Z" fill="#4C0D00"/>
<path d="M105.605 0.499985C163.477 0.499985 210.392 47.5108 210.392 105.502C210.392 163.492 163.477 210.503 105.605 210.503C47.7328 210.503 0.818237 163.492 0.818237 105.502C0.818237 47.5108 47.7328 0.499985 105.605 0.499985Z" fill="#4C0D00"/>
<path fill-rule="evenodd" clip-rule="evenodd" d="M105.605 210.003C48.01 210.003 1.31824 163.217 1.31824 105.502C1.31824 47.786 48.01 0.999985 105.605 0.999985C163.2 0.999985 209.892 47.786 209.892 105.502C209.892 163.217 163.2 210.003 105.605 210.003ZM0.318237 105.502C0.318237 163.768 47.4557 211.003 105.605 211.003C163.754 211.003 210.892 163.768 210.892 105.502C210.892 47.2356 163.754 -1.52588e-05 105.605 -1.52588e-05C47.4557 -1.52588e-05 0.318237 47.2356 0.318237 105.502Z" fill="#4C0D00"/>
<path d="M23.5664 158.969C34.8324 174.533 50.454 186.396 68.4532 193.058C86.4523 199.719 106.019 200.879 124.676 196.389C143.334 191.9 160.242 181.964 173.26 167.839C186.278 153.715 194.821 136.037 197.806 117.044C200.791 98.0512 198.085 78.5978 190.029 61.1473C181.974 43.6968 168.932 29.0339 152.556 19.0155C136.179 8.99709 117.203 4.07371 98.0322 4.86876C78.8611 5.66381 60.3566 12.1415 44.8618 23.4817C24.1432 38.6451 10.2678 61.4201 6.27615 86.8161C2.28448 112.212 8.50203 138.158 23.5664 158.969Z" fill="#FFF4DA"/>
<path fill-rule="evenodd" clip-rule="evenodd" d="M98.0529 5.36833C117.125 4.57739 136.002 9.47531 152.295 19.442C168.587 29.4088 181.562 43.9961 189.575 61.3569C197.589 78.7177 200.282 98.0711 197.312 116.966C194.342 135.862 185.843 153.449 172.892 167.5C159.941 181.552 143.12 191.437 124.56 195.903C105.999 200.369 86.5328 199.216 68.6267 192.589C50.7206 185.962 35.1795 174.159 23.9714 158.676C8.98456 137.972 2.79889 112.159 6.77008 86.8937C10.7413 61.6281 24.5453 38.9704 45.1571 23.8852C60.5719 12.6035 78.9809 6.15927 98.0529 5.36833ZM152.817 18.589C136.355 8.51887 117.282 3.57003 98.0115 4.36919C78.7413 5.16835 60.1412 11.6796 44.5665 23.0782C23.741 38.3199 9.79439 61.212 5.78221 86.7384C1.77003 112.265 8.01947 138.344 23.1613 159.262C34.4854 174.906 50.1875 186.831 68.2796 193.527C86.3717 200.222 106.04 201.388 124.793 196.875C143.547 192.363 160.542 182.376 173.628 168.178C186.713 153.981 195.299 136.212 198.3 117.122C201.3 98.0313 198.58 78.478 190.483 60.9377C182.387 43.3975 169.278 28.6591 152.817 18.589Z" fill="#4C0D00"/>
<path fill-rule="evenodd" clip-rule="evenodd" d="M76.8466 17.4668C76.9439 17.7252 76.8134 18.0136 76.555 18.111C65.0153 22.4587 54.4363 29.0926 45.4301 37.6295C36.4238 46.1664 29.1689 56.437 24.0856 67.8473C23.9733 68.0996 23.6777 68.213 23.4254 68.1006C23.1732 67.9882 23.0598 67.6926 23.1722 67.4404C28.3086 55.9108 35.6398 45.5317 44.7421 36.9037C53.8445 28.2757 64.5373 21.5701 76.2024 17.1752C76.4608 17.0778 76.7492 17.2084 76.8466 17.4668Z" fill="#4C0D00"/>
<path fill-rule="evenodd" clip-rule="evenodd" d="M19.4997 77.1661C19.7635 77.2477 19.9112 77.5278 19.8296 77.7916C16.9845 86.9892 15.5497 96.5752 15.5753 106.214C15.576 106.49 15.3528 106.715 15.0766 106.716C14.8005 106.716 14.576 106.493 14.5753 106.217C14.5494 96.4769 15.9993 86.7904 18.8743 77.4961C18.9559 77.2322 19.2359 77.0845 19.4997 77.1661Z" fill="#4C0D00"/>
<path d="M95.73 139.073C94.5025 139.082 93.2864 138.836 92.1569 138.351C91.0274 137.867 90.0086 137.154 89.1635 136.256L68.8216 114.34C68.0162 113.473 67.3881 112.454 66.9733 111.342C66.5585 110.23 66.365 109.046 66.4039 107.858C66.4428 106.671 66.7134 105.503 67.2001 104.42C67.6869 103.338 68.3803 102.363 69.2408 101.551C70.1012 100.739 71.1119 100.106 72.2151 99.688C73.3183 99.2698 74.4925 99.0747 75.6705 99.1139C76.8484 99.1531 78.0072 99.426 79.0806 99.9167C80.154 100.407 81.1211 101.106 81.9265 101.974L95.1432 116.2L126.41 76.2551C127.951 74.5791 130.063 73.553 132.323 73.3832C134.583 73.2134 136.823 73.9123 138.593 75.3396C140.363 76.7669 141.531 78.8167 141.863 81.0769C142.195 83.337 141.665 85.6401 140.382 87.5229L102.771 135.637C101.984 136.649 100.99 137.479 99.8573 138.072C98.7247 138.665 97.4794 139.006 96.205 139.073H95.73Z" fill="#FF6D2F"/>
<path fill-rule="evenodd" clip-rule="evenodd" d="M95.7231 138.073L95.73 138.073L96.1779 138.073C97.2996 138.01 98.3957 137.708 99.3936 137.186C100.399 136.659 101.282 135.922 101.982 135.022L101.984 135.021L139.573 86.9334C140.702 85.2633 141.167 83.2242 140.873 81.2221C140.578 79.2097 139.538 77.3864 137.965 76.118C136.393 74.8498 134.404 74.2297 132.398 74.3804C130.405 74.5301 128.54 75.4303 127.173 76.9035L95.2082 117.739L81.1939 102.655C80.4778 101.883 79.6182 101.262 78.6649 100.826C77.7115 100.39 76.6827 100.148 75.6372 100.113C74.5916 100.079 73.5492 100.252 72.5696 100.623C71.59 100.994 70.692 101.557 69.9271 102.279C69.1621 103 68.5453 103.868 68.1121 104.831C67.6789 105.794 67.438 106.834 67.4033 107.891C67.3687 108.949 67.541 110.002 67.9102 110.992C68.2795 111.982 68.8383 112.889 69.5544 113.66L89.8916 135.571C89.8924 135.572 89.8931 135.572 89.8939 135.573C90.6447 136.37 91.5492 137.003 92.5511 137.432C93.5541 137.863 94.6337 138.081 95.7231 138.073ZM89.1635 136.256L68.8216 114.34C68.0162 113.473 67.3881 112.454 66.9733 111.342C66.5585 110.23 66.365 109.046 66.4039 107.858C66.4428 106.671 66.7134 105.503 67.2001 104.42C67.6869 103.338 68.3803 102.363 69.2408 101.551C70.1012 100.739 71.1119 100.106 72.2151 99.688C73.3183 99.2698 74.4925 99.0747 75.6705 99.1139C76.8484 99.1531 78.0072 99.426 79.0806 99.9167C80.154 100.407 81.1211 101.106 81.9265 101.974L95.1432 116.2L126.41 76.2551C127.951 74.5791 130.063 73.553 132.323 73.3832C134.583 73.2134 136.823 73.9123 138.593 75.3396C140.363 76.7669 141.531 78.8167 141.863 81.0769C142.195 83.337 141.665 85.6401 140.382 87.5229L102.771 135.637C101.984 136.649 100.99 137.479 99.8573 138.072C98.7247 138.665 97.4794 139.006 96.205 139.073H95.73C94.5025 139.082 93.2864 138.836 92.1569 138.351C91.0274 137.867 90.0086 137.154 89.1635 136.256Z" fill="#4C0D00"/>
</svg>
