<svg width="64" height="64" viewBox="0 0 64 64" fill="none" xmlns="http://www.w3.org/2000/svg">
<g id="Group 34073">
<circle id="Ellipse 1004" cx="32" cy="32" r="32" fill="#FF6D2F"/>
<g id="Group 34072">
<path id="Vector" d="M29.6399 23.9744L32.7077 34.5667H31.2105L28.0987 23.9744H26.352L29.361 34.5667H27.8492L24.8695 23.9744H23.1375L26.1612 34.5667H24.664L21.6697 23.9744H19.8789L23.5631 36.9254C24.0622 38.6835 25.5741 41.5843 28.3482 42.5366L35.5112 44.8806L37.1112 50.5504H39.0046L31.46 23.9744H29.6399Z" fill="#FFF4DA"/>
<path id="Vector_2" d="M41.4243 22.5823C41.7619 22.802 42.8775 23.3294 43.8316 22.9192C44.9471 22.4504 44.5361 21.2637 43.5527 20.5165L45.4462 20.3114L43.8022 18.3776C44.8884 16.0481 43.2885 14.9493 42.4665 14.7149C41.9087 14.5538 41.1748 14.5831 40.573 14.9786C40.1327 13.7333 39.1933 12.9715 38.019 13.0008C34.5843 13.0887 35.4797 16.8979 35.4797 16.8979L39.6336 17.3227C39.6336 17.3227 41.2776 17.4546 40.7345 17.4839C36.4337 17.8062 33.9531 22.9778 33.9531 27.7685L38.5914 44.1332L43.127 40.661C47.4571 36.0461 45.9746 31.4312 43.4059 26.3767C42.3491 24.3696 41.6005 22.9046 41.4243 22.5823Z" fill="#FFF4DA"/>
</g>
</g>
</svg>
