<svg width="121" height="83" viewBox="0 0 121 83" fill="none" xmlns="http://www.w3.org/2000/svg">
<path d="M119.734 6.32506V60.2439C119.734 61.5945 119.197 62.8898 118.242 63.8448C117.287 64.7998 115.992 65.3363 114.641 65.3363H34.598L18.7136 80.7516C18.4945 80.9658 18.2322 81.1308 17.9442 81.2355C17.6562 81.3402 17.3492 81.3823 17.0437 81.3588C14.9598 81.3588 14.6976 79.6613 14.6976 77.5775L15.2634 65.3363H5.74101C4.39041 65.3363 3.09514 64.7998 2.14013 63.8448C1.18511 62.8898 0.648587 61.5945 0.648587 60.2439V6.31125C0.663158 4.96305 1.2118 3.67565 2.17419 2.73137C3.13658 1.78708 4.43417 1.263 5.78241 1.27404H114.655C115.997 1.27402 117.285 1.80529 118.237 2.75175C119.188 3.69821 119.727 4.98291 119.734 6.32506Z" fill="#FFF4DA"/>
<path d="M17.0852 82.0487C14.049 82.0487 14.049 79.0263 14.049 77.5773L14.5873 66.0262H5.78249C4.25001 66.0226 2.78134 65.4122 1.69771 64.3285C0.614079 63.2449 0.00368717 61.7762 4.27319e-05 60.2438V6.31108C-0.00290659 5.54207 0.146842 4.78012 0.440598 4.06942C0.734353 3.35872 1.16628 2.71341 1.71132 2.1709C2.25354 1.62828 2.8997 1.20068 3.61111 0.913747C4.32252 0.626812 5.08454 0.486441 5.8515 0.501031H114.71C116.238 0.501027 117.703 1.1069 118.785 2.18575C119.866 3.26459 120.475 4.72832 120.479 6.25587V60.1747C120.475 61.7096 119.863 63.1804 118.777 64.2644C117.69 65.3484 116.218 65.9572 114.683 65.9572H34.9569L19.2795 81.1378C19.0005 81.4382 18.6601 81.675 18.2815 81.8322C17.9029 81.9894 17.4949 82.0632 17.0852 82.0487ZM5.76869 2.00529C4.60715 2.00528 3.49298 2.46576 2.67036 3.2858C1.84773 4.10583 1.38375 5.21854 1.3801 6.38007V60.299C1.38374 61.4654 1.84874 62.5831 2.67356 63.4079C3.49838 64.2327 4.61602 64.6977 5.78249 64.7014H16.0225L15.4291 77.6601C15.4291 80.2546 15.9673 80.7238 17.0852 80.7238C17.3165 80.7481 17.5503 80.7183 17.7683 80.6369C17.9862 80.5555 18.1822 80.4246 18.341 80.2546L34.3497 64.7014H114.628C115.797 64.7014 116.918 64.238 117.746 63.4128C118.573 62.5875 119.04 61.4678 119.044 60.299V6.32488C119.04 5.16335 118.576 4.05063 117.754 3.23059C116.931 2.41056 115.817 1.95008 114.655 1.95009H5.76869V2.00529Z" fill="#4C0D00"/>
<path d="M28.6639 14.7706L27.2838 15.9437L24.8135 18.1656C24.7729 18.2018 24.7407 18.2466 24.7193 18.2967C24.6978 18.3468 24.6876 18.4009 24.6893 18.4554L24.9791 21.9055L25.1033 23.2856C25.1057 23.3458 25.0928 23.4057 25.0659 23.4596C25.039 23.5135 24.999 23.5598 24.9495 23.5942C24.8999 23.6286 24.8426 23.6499 24.7826 23.6563C24.7227 23.6627 24.6621 23.6538 24.6065 23.6306L24.3857 23.5064L22.8676 22.6784L21.7636 22.0573L21.1012 21.6985L20.5215 21.3811C20.4754 21.3544 20.423 21.3404 20.3697 21.3404C20.3164 21.3404 20.2641 21.3544 20.2179 21.3811L19.0863 21.9469L18.0098 22.4851L17.7614 22.6093L17.2508 22.8716L16.271 23.3546L15.7189 23.6444H15.5671C15.521 23.6463 15.475 23.6372 15.4331 23.6178C15.3912 23.5984 15.3546 23.5692 15.3262 23.5328C15.2979 23.4963 15.2786 23.4536 15.2701 23.4082C15.2616 23.3628 15.2641 23.316 15.2773 23.2718V22.982L16.4504 18.483C16.4745 18.4385 16.4872 18.3887 16.4872 18.3381C16.4872 18.2874 16.4745 18.2376 16.4504 18.1932L13.2624 14.7982C13.2257 14.7507 13.202 14.6944 13.1937 14.6349C13.1854 14.5755 13.1928 14.5149 13.2151 14.4591C13.2374 14.4033 13.2739 14.3544 13.3209 14.317C13.3679 14.2797 13.4239 14.2553 13.4832 14.2462L18.3687 13.5424C18.4226 13.5327 18.4738 13.5118 18.5191 13.4808C18.5643 13.4499 18.6024 13.4097 18.6309 13.363L21.1564 9.00197V8.91916C21.2055 8.88084 21.2618 8.85269 21.322 8.83636H21.4876C21.5282 8.84836 21.5655 8.86953 21.5966 8.89824C21.6277 8.92696 21.6518 8.96245 21.667 9.00197L21.8602 9.48498L22.0948 10.0646L22.2466 10.4096L22.6054 11.3067L22.8676 11.9415L23.4473 13.3216C23.4613 13.3705 23.4899 13.4139 23.5294 13.446C23.5689 13.4781 23.6173 13.4973 23.6681 13.501L26.4282 13.915L27.8911 14.1358H28.3879C28.4296 14.1177 28.4744 14.1079 28.5199 14.1071C28.5653 14.1063 28.6105 14.1145 28.6528 14.1312C28.695 14.1478 28.7336 14.1727 28.7663 14.2042C28.799 14.2358 28.8252 14.2735 28.8433 14.3152C28.8614 14.3569 28.8712 14.4017 28.8719 14.4472C28.8727 14.4926 28.8646 14.5378 28.8479 14.5801C28.8313 14.6223 28.8064 14.6609 28.7748 14.6936C28.7433 14.7263 28.7056 14.7525 28.6639 14.7706Z" fill="#FF6D2F"/>
<path d="M48.0262 14.7706L46.6461 15.9437L44.1896 18.1656C44.149 18.2018 44.1168 18.2466 44.0953 18.2967C44.0739 18.3468 44.0637 18.4009 44.0654 18.4554L44.3552 21.9055L44.4794 23.2856C44.4829 23.3476 44.4702 23.4094 44.4426 23.4651C44.4151 23.5207 44.3735 23.5683 44.322 23.603C44.2706 23.6378 44.211 23.6586 44.1491 23.6635C44.0871 23.6683 44.025 23.657 43.9688 23.6306L43.7618 23.5064L42.2437 22.6783L41.1397 22.0573L40.4772 21.6985L39.8976 21.3811C39.8515 21.3544 39.7991 21.3404 39.7458 21.3404C39.6925 21.3404 39.6402 21.3544 39.594 21.3811L38.4623 21.9469L37.3859 22.4851L37.1375 22.6093L36.6269 22.8716L35.647 23.3546L35.0812 23.6444H34.9432C34.8971 23.6463 34.8511 23.6372 34.8092 23.6178C34.7673 23.5984 34.7306 23.5692 34.7023 23.5328C34.6739 23.4963 34.6547 23.4536 34.6462 23.4082C34.6377 23.3628 34.6401 23.316 34.6534 23.2718V22.982L35.8264 18.483C35.8506 18.4385 35.8633 18.3887 35.8633 18.3381C35.8633 18.2874 35.8506 18.2376 35.8264 18.1932L32.6385 14.7982C32.6018 14.7507 32.5781 14.6944 32.5698 14.6349C32.5615 14.5755 32.5688 14.5149 32.5912 14.4591C32.6135 14.4033 32.6499 14.3544 32.6969 14.317C32.744 14.2797 32.7999 14.2553 32.8593 14.2462L37.7447 13.5424C37.7968 13.5326 37.8461 13.5115 37.889 13.4805C37.932 13.4495 37.9675 13.4093 37.9931 13.363L40.5324 9.00197L40.6014 8.91916C40.6506 8.88084 40.7069 8.85269 40.7671 8.83636H40.9327C40.9733 8.84836 41.0106 8.86953 41.0417 8.89824C41.0728 8.92696 41.0969 8.96245 41.1121 9.00197L41.3053 9.48498L41.5399 10.0646L41.6917 10.4096L42.0505 11.3067L42.3127 11.9415L42.8785 13.3216C42.898 13.3697 42.93 13.4118 42.9713 13.4434C43.0125 13.4749 43.0616 13.4948 43.1131 13.501L45.8733 13.915L47.3361 14.1358H47.8192C47.9033 14.1083 47.995 14.1155 48.0739 14.1556C48.1529 14.1957 48.2126 14.2655 48.2401 14.3497C48.2675 14.4339 48.2604 14.5255 48.2203 14.6045C48.1802 14.6834 48.1103 14.7432 48.0262 14.7706Z" fill="#FF6D2F"/>
<path d="M67.3882 14.7706L66.0082 15.9437L63.5517 18.1656C63.5111 18.2018 63.4789 18.2466 63.4574 18.2967C63.4359 18.3468 63.4257 18.4009 63.4275 18.4554L63.7173 21.9055L63.8277 23.2856C63.8342 23.3471 63.824 23.4091 63.7983 23.4654C63.7725 23.5216 63.7322 23.5698 63.6814 23.6051C63.6306 23.6403 63.5713 23.6613 63.5096 23.6658C63.4479 23.6703 63.3862 23.6581 63.3309 23.6306L63.1239 23.5064L61.6058 22.6784L60.488 22.0573L59.8255 21.6985L59.2459 21.3811C59.1998 21.3544 59.1474 21.3404 59.0941 21.3404C59.0408 21.3404 58.9884 21.3544 58.9423 21.3811L57.8106 21.9469L56.7342 22.4851L56.4858 22.6093L55.9752 22.8716L54.9953 23.3546L54.4295 23.6444H54.2915C54.2453 23.6463 54.1994 23.6372 54.1575 23.6178C54.1156 23.5984 54.0789 23.5692 54.0506 23.5328C54.0222 23.4963 54.003 23.4536 53.9945 23.4082C53.986 23.3628 53.9884 23.316 54.0017 23.2718V22.982L55.1747 18.483C55.1989 18.4385 55.2115 18.3887 55.2115 18.3381C55.2115 18.2874 55.1989 18.2376 55.1747 18.1932L51.9868 14.7982C51.9501 14.7507 51.9264 14.6944 51.9181 14.6349C51.9098 14.5755 51.9171 14.5149 51.9394 14.4591C51.9617 14.4033 51.9982 14.3544 52.0452 14.317C52.0923 14.2797 52.1482 14.2553 52.2076 14.2462L57.093 13.5424C57.1451 13.5326 57.1944 13.5115 57.2373 13.4805C57.2803 13.4495 57.3158 13.4093 57.3414 13.363L59.8807 9.00197V8.91916L60.0463 8.83636H60.2119C60.2899 8.86785 60.3537 8.92674 60.3913 9.00197L60.5846 9.48498L60.8192 10.0646L60.9572 10.4096L61.3298 11.3067L61.5782 11.9415L62.1578 13.3216C62.1773 13.3697 62.2093 13.4118 62.2505 13.4434C62.2918 13.4749 62.3408 13.4948 62.3924 13.501L65.1526 13.915L66.6154 14.1358H67.0984C67.1826 14.0974 67.2786 14.0939 67.3653 14.1263C67.452 14.1586 67.5223 14.2241 67.5608 14.3083C67.5992 14.3925 67.6026 14.4885 67.5702 14.5752C67.5379 14.6619 67.4724 14.7322 67.3882 14.7706Z" fill="#FF6D2F"/>
<path d="M86.7506 14.7706L85.3705 15.9437L82.914 18.1656C82.8708 18.1997 82.8369 18.2441 82.8152 18.2947C82.7935 18.3453 82.7848 18.4005 82.7898 18.4554L83.0796 21.9055L83.19 23.2856C83.1965 23.3471 83.1863 23.4091 83.1606 23.4654C83.1349 23.5216 83.0945 23.5698 83.0437 23.6051C82.9929 23.6403 82.9336 23.6613 82.8719 23.6658C82.8103 23.6703 82.7485 23.6581 82.6932 23.6306L82.4862 23.5064L80.9681 22.6784L79.8503 22.0573L79.1879 21.6985L78.6082 21.3811C78.5621 21.3544 78.5097 21.3404 78.4564 21.3404C78.4031 21.3404 78.3508 21.3544 78.3046 21.3811L77.173 21.9469L76.0827 22.4851L75.8481 22.6093L75.3375 22.8716L74.3576 23.3546L73.7918 23.6444H73.6538C73.6074 23.6456 73.5613 23.6362 73.5192 23.6168C73.477 23.5974 73.4398 23.5686 73.4105 23.5327C73.3812 23.4967 73.3605 23.4544 73.35 23.4092C73.3396 23.364 73.3396 23.317 73.3502 23.2718L73.433 22.982L74.606 18.483C74.6271 18.4376 74.638 18.3881 74.638 18.3381C74.638 18.288 74.6271 18.2386 74.606 18.1932L71.4181 14.7982C71.3814 14.7507 71.3577 14.6944 71.3494 14.6349C71.3411 14.5755 71.3485 14.5149 71.3708 14.4591C71.3931 14.4033 71.4295 14.3544 71.4766 14.317C71.5236 14.2797 71.5796 14.2553 71.6389 14.2462L76.5105 13.5424C76.5651 13.5346 76.6171 13.5144 76.6626 13.4833C76.708 13.4521 76.7458 13.411 76.7728 13.363L79.3121 9.00197V8.91916C79.3594 8.87807 79.4164 8.84959 79.4777 8.83636H79.6433C79.7213 8.86785 79.7851 8.92674 79.8227 9.00197L80.0159 9.48498L80.2505 10.0646L80.3885 10.4096L80.7473 11.3067L81.0095 11.9415L81.5891 13.3216C81.6086 13.3697 81.6406 13.4118 81.6819 13.4434C81.7232 13.4749 81.7722 13.4948 81.8238 13.501L84.5839 13.915L86.0467 14.1358H86.5298C86.6139 14.1065 86.7063 14.1119 86.7865 14.1507C86.8668 14.1895 86.9283 14.2586 86.9576 14.3428C86.9868 14.427 86.9815 14.5193 86.9427 14.5996C86.9039 14.6798 86.8348 14.7413 86.7506 14.7706Z" fill="#FF6D2F"/>
<path d="M106.113 14.7706L104.733 15.9437L102.276 18.1656C102.233 18.1997 102.199 18.2441 102.177 18.2947C102.156 18.3453 102.147 18.4005 102.152 18.4554L102.442 21.9055L102.552 23.2856C102.559 23.3471 102.549 23.4091 102.523 23.4654C102.497 23.5216 102.457 23.5698 102.406 23.6051C102.355 23.6403 102.296 23.6613 102.234 23.6658C102.173 23.6703 102.111 23.6581 102.055 23.6306L101.835 23.5064L100.33 22.6784L99.2125 22.0573L98.5501 21.6985L97.9567 21.3811C97.9131 21.3542 97.8629 21.34 97.8118 21.34C97.7606 21.34 97.7104 21.3542 97.6669 21.3811L96.5352 21.9469L95.445 22.4851L95.1965 22.6093L94.6859 22.8716L93.7061 23.3546L93.1541 23.6444H93.0161C92.9688 23.6487 92.9212 23.6413 92.8774 23.6229C92.8337 23.6045 92.7951 23.5756 92.7651 23.5388C92.7352 23.502 92.7147 23.4584 92.7055 23.4119C92.6963 23.3653 92.6987 23.3172 92.7125 23.2718L92.7953 22.982L93.9545 18.483C93.9787 18.4385 93.9913 18.3887 93.9913 18.3381C93.9913 18.2874 93.9787 18.2376 93.9545 18.1932L90.7666 14.7982C90.7298 14.7507 90.7062 14.6944 90.6979 14.6349C90.6896 14.5755 90.6969 14.5149 90.7192 14.4591C90.7415 14.4033 90.778 14.3544 90.825 14.317C90.8721 14.2797 90.928 14.2553 90.9874 14.2462L95.859 13.5424C95.9135 13.5346 95.9656 13.5144 96.011 13.4833C96.0565 13.4521 96.0942 13.411 96.1212 13.363L98.6605 9.00197V8.91916C98.7063 8.87572 98.7639 8.84689 98.8261 8.83636H98.9917C99.0697 8.86785 99.1335 8.92674 99.1711 9.00197L99.3643 9.48498L99.5989 10.0646L99.737 10.4096L100.096 11.3067L100.358 11.9415L100.938 13.3216C100.957 13.3697 100.989 13.4118 101.03 13.4434C101.072 13.4749 101.121 13.4948 101.172 13.501L103.932 13.915L105.409 14.1358H105.892C105.976 14.1065 106.069 14.1119 106.149 14.1507C106.229 14.1895 106.291 14.2586 106.32 14.3428C106.349 14.427 106.344 14.5193 106.305 14.5996C106.266 14.6798 106.197 14.7413 106.113 14.7706Z" fill="#FF6D2F"/>
<path d="M110.86 36.258H27.6564V37.6381H110.86V36.258Z" fill="#4C0D00"/>
<path d="M110.846 44.0143H11.3993V45.3944H110.846V44.0143Z" fill="#4C0D00"/>
<path d="M79.6294 51.784H11.3993V53.1641H79.6294V51.784Z" fill="#4C0D00"/>
</svg>
