<svg width="119" height="88" fill="none" xmlns="http://www.w3.org/2000/svg"><path d="M99.79 2.002v84.98H1.713l84.98-84.98H99.79Z" fill="#4C0D00"/><path d="M99.79 2.002v84.98H1.713l84.98-84.98H99.79Z" stroke="#FF6D2F" stroke-width="1.333"/><path d="M109.489 2.002v84.98H11.412l84.98-84.98h13.097Z" fill="#fff"/><path d="M109.489 2.002v84.98H11.412l84.98-84.98h13.097Z" stroke="#4C0D00" stroke-width="1.333"/><path d="M50.753 48.764c-1.277-6.617 1.44-15.056 9.799-13.518 0 0-4.737-3.942-1.672-7.472 3.065-3.529 7.987 2.787 7.987 2.787s-2.554-10.82 7.43-10.588c0 0-4.972-3.465-2.46-6.64 3.157-3.995 8.614-3.67 12.027-1.092 0 0-.36-3.542 3.727-5.399 4.086-1.858 11.505 1.335 11.505 1.335s21.269 36.5 3.622 50.804C85.071 73.284 50.753 48.764 50.753 48.764Z" fill="#FFF4DA"/><path d="M50.753 48.764c-1.277-6.617 1.44-15.056 9.799-13.518 0 0-4.737-3.942-1.672-7.472 3.065-3.529 7.987 2.787 7.987 2.787s-2.554-10.82 7.43-10.588c0 0-4.972-3.465-2.46-6.64 3.157-3.995 8.614-3.67 12.027-1.092 0 0-.36-3.542 3.727-5.399 4.086-1.858 11.505 1.335 11.505 1.335s21.269 36.5 3.622 50.804C85.071 73.284 50.753 48.764 50.753 48.764Z" stroke="#4C0D00" stroke-width="1.333" stroke-miterlimit="10"/><path d="M16.049 84.369c-9.994-1.727-3.143-19.49 7.351-15.496 0 0-2.693-9.52 1.672-12.446 4.365-2.925 6.687 2.787 6.687 2.787s-.604-3.762 3.158-8.173c3.762-4.412 7.335-3.883 11.562-2.302 0 0 1.952-10.144 13.515-.299 7.103 6.048-12.446 33.436-12.446 33.436l-31.5 2.493Z" fill="#FFF4DA"/><path d="M16.049 84.369c-9.994-1.727-3.143-19.49 7.351-15.496 0 0-2.693-9.52 1.672-12.446 4.365-2.925 6.687 2.787 6.687 2.787s-.604-3.762 3.158-8.173c3.762-4.412 7.335-3.883 11.562-2.302 0 0 1.952-10.144 13.515-.299 7.103 6.048-12.446 33.436-12.446 33.436l-31.5 2.493Z" stroke="#4C0D00" stroke-width="1.333" stroke-miterlimit="10"/><path d="M18.219 81.362c.04-.04.081-.082.122-.117l-.24.24c.036-.041.077-.082.118-.123ZM28.735 70.85a2.24 2.24 0 0 1 .122-.118l-.24.24c.036-.04.077-.081.117-.122Zm5.259-5.261c.041-.041.082-.082.123-.118l-.24.24a2.64 2.64 0 0 1 .117-.122Zm5.26-5.261c.04-.041.082-.082.122-.118l-.24.24c.036-.04.077-.081.118-.122Zm5.258-5.259a2.24 2.24 0 0 1 .122-.118l-.24.24c.036-.04.077-.082.118-.122Zm10.523-10.522c.041-.041.082-.082.123-.118l-.24.24a3.3 3.3 0 0 1 .117-.122Zm5.258-5.259c.04-.041.082-.082.123-.118l-.24.24a3.3 3.3 0 0 1 .117-.122Zm10.522-10.522c.04-.04.081-.081.122-.117l-.24.24c.036-.041.077-.082.118-.123Zm5.259-5.259c.041-.04.082-.081.123-.117l-.24.24c.036-.041.077-.082.117-.123Zm5.266-5.267c.04-.04.082-.08.123-.116l-.24.24c.036-.041.076-.082.117-.123Z" fill="#fff"/><path d="M114.09 2.446v84.536l-101.127-.357c.04-.041.082-.082.122-.118 1.235-1.158 1.955-.52 3.225-1.79 1.275-1.276.633-1.99 1.79-3.23l.24-.24c1.24-1.153 1.954-.515 3.23-1.79 1.276-1.271.633-1.99 1.79-3.225.037-.041.078-.082.118-.123.041-.04.082-.081.123-.117 1.234-1.158 1.954-.52 3.224-1.79 1.276-1.276.638-1.99 1.79-3.23l.24-.24c1.24-1.158 1.955-.516 3.23-1.791 1.276-1.276.633-1.99 1.791-3.23l.24-.24c1.24-1.152 1.954-.515 3.23-1.79 1.275-1.27.632-1.99 1.79-3.23l.24-.24c1.24-1.153 1.954-.515 3.23-1.79 1.27-1.27.633-1.99 1.79-3.23l.24-.24c1.24-1.153 1.954-.515 3.23-1.79 1.27-1.27.633-1.99 1.79-3.225a4.413 4.413 0 0 1 .24-.24c1.24-1.158 1.954-.52 3.23-1.796 1.275-1.27.633-1.99 1.79-3.23l.24-.24c1.24-1.152 1.955-.514 3.23-1.79 1.276-1.275.633-1.99 1.79-3.23l.241-.24c1.24-1.157 1.954-.515 3.23-1.79 1.275-1.276.637-1.99 1.795-3.23.036-.04.077-.081.118-.122.04-.04.081-.082.122-.117 1.235-1.159 1.954-.516 3.225-1.791 1.275-1.276.638-1.99 1.79-3.23l.24-.24c1.24-1.158 1.954-.515 3.23-1.79 1.275-1.276.637-1.99 1.79-3.23l.24-.24c1.24-1.158 1.96-.515 3.235-1.79 1.27-1.276.633-1.995 1.79-3.235l.24-.24c1.24-1.158 1.955-.515 3.23-1.79 1.276-1.276.638-1.99 1.796-3.23.036-.041.077-.082.118-.123.04-.04.081-.082.122-.117 1.24-1.158 1.954-.52 3.23-1.796 1.275-1.276.632-1.99 1.795-3.23.036-.04.077-.081.118-.122.04-.041.082-.082.122-.118 1.24-1.158 1.954-.52 3.23-1.795 1.28-1.281.637-1.995 1.8-3.235a3.32 3.32 0 0 1 .118-.123h16.949Z" fill="#FFF4DA"/><path d="M114.09 2.446v84.536l-101.127-.357c.04-.041.082-.082.122-.118 1.235-1.158 1.955-.52 3.225-1.79 1.275-1.276.633-1.99 1.79-3.23l.24-.24c1.24-1.153 1.954-.515 3.23-1.79 1.276-1.271.633-1.99 1.79-3.225.037-.041.078-.082.118-.123.041-.04.082-.081.123-.117 1.234-1.158 1.954-.52 3.224-1.79 1.276-1.276.638-1.99 1.79-3.23l.24-.24c1.24-1.158 1.955-.516 3.23-1.791 1.276-1.276.633-1.99 1.791-3.23l.24-.24c1.24-1.152 1.954-.515 3.23-1.79 1.275-1.27.632-1.99 1.79-3.23l.24-.24c1.24-1.153 1.954-.515 3.23-1.79 1.27-1.27.633-1.99 1.79-3.23l.24-.24c1.24-1.153 1.954-.515 3.23-1.79 1.27-1.27.633-1.99 1.79-3.225a4.413 4.413 0 0 1 .24-.24c1.24-1.158 1.954-.52 3.23-1.796 1.275-1.27.633-1.99 1.79-3.23l.24-.24c1.24-1.152 1.955-.514 3.23-1.79 1.276-1.275.633-1.99 1.79-3.23l.241-.24c1.24-1.157 1.954-.515 3.23-1.79 1.275-1.276.637-1.99 1.795-3.23.036-.04.077-.081.118-.122.04-.04.081-.082.122-.117 1.235-1.159 1.954-.516 3.225-1.791 1.275-1.276.638-1.99 1.79-3.23l.24-.24c1.24-1.158 1.954-.515 3.23-1.79 1.275-1.276.637-1.99 1.79-3.23l.24-.24c1.24-1.158 1.96-.515 3.235-1.79 1.27-1.276.633-1.995 1.79-3.235l.24-.24c1.24-1.158 1.955-.515 3.23-1.79 1.276-1.276.638-1.99 1.796-3.23.036-.041.077-.082.118-.123.04-.04.081-.082.122-.117 1.24-1.158 1.954-.52 3.23-1.796 1.275-1.276.632-1.99 1.795-3.23.036-.04.077-.081.118-.122.04-.041.082-.082.122-.118 1.24-1.158 1.954-.52 3.23-1.795 1.28-1.281.637-1.995 1.8-3.235a3.32 3.32 0 0 1 .118-.123h16.949Z" stroke="#4C0D00" stroke-width="1.333"/><path d="M18.219 81.362c.04-.04.081-.082.122-.117l-.24.24c.036-.041.077-.082.118-.123Z" fill="#fff"/><path d="M18.219 81.362c.04-.04.081-.082.122-.117l-.24.24c.036-.041.077-.082.118-.123Z" stroke="#4C0D00" stroke-width="1.333"/><path d="M28.735 70.85a2.24 2.24 0 0 1 .122-.118l-.24.24c.036-.04.077-.081.117-.122Z" fill="#fff"/><path d="M28.735 70.85a2.24 2.24 0 0 1 .122-.118l-.24.24c.036-.04.077-.081.117-.122Z" stroke="#4C0D00" stroke-width="1.333"/><path d="M33.994 65.589c.041-.041.082-.082.123-.118l-.24.24a2.64 2.64 0 0 1 .117-.122Z" fill="#fff"/><path d="M33.994 65.589c.041-.041.082-.082.123-.118l-.24.24a2.64 2.64 0 0 1 .117-.122Z" stroke="#4C0D00" stroke-width="1.333"/><path d="M39.254 60.328c.04-.041.082-.082.122-.118l-.24.24c.036-.04.077-.081.118-.122Z" fill="#fff"/><path d="M39.254 60.328c.04-.041.082-.082.122-.118l-.24.24c.036-.04.077-.081.118-.122Z" stroke="#4C0D00" stroke-width="1.333"/><path d="M44.512 55.069a2.24 2.24 0 0 1 .122-.118l-.24.24c.036-.04.077-.082.118-.122Z" fill="#fff"/><path d="M44.512 55.069a2.24 2.24 0 0 1 .122-.118l-.24.24c.036-.04.077-.082.118-.122Z" stroke="#4C0D00" stroke-width="1.333"/><path d="M55.035 44.547c.041-.041.082-.082.123-.118l-.24.24a3.3 3.3 0 0 1 .117-.122Z" fill="#fff"/><path d="M55.035 44.547c.041-.041.082-.082.123-.118l-.24.24a3.3 3.3 0 0 1 .117-.122Z" stroke="#4C0D00" stroke-width="1.333"/><path d="M60.293 39.288c.04-.041.082-.082.123-.118l-.24.24a3.3 3.3 0 0 1 .117-.122Z" fill="#fff"/><path d="M60.293 39.288c.04-.041.082-.082.123-.118l-.24.24a3.3 3.3 0 0 1 .117-.122Z" stroke="#4C0D00" stroke-width="1.333"/><path d="M70.815 28.766c.04-.04.081-.081.122-.117l-.24.24c.036-.041.077-.082.118-.123Z" fill="#fff"/><path d="M70.815 28.766c.04-.04.081-.081.122-.117l-.24.24c.036-.041.077-.082.118-.123Z" stroke="#4C0D00" stroke-width="1.333"/><path d="M76.074 23.507c.041-.04.082-.081.123-.117l-.24.24c.036-.041.077-.082.117-.123Z" fill="#fff"/><path d="M76.074 23.507c.041-.04.082-.081.123-.117l-.24.24c.036-.041.077-.082.117-.123Z" stroke="#4C0D00" stroke-width="1.333"/><path d="m81.463 18.123-.24.24c.035-.04.076-.081.117-.122.04-.041.082-.082.123-.117Z" fill="#fff"/><path d="m81.463 18.123-.24.24c.035-.04.076-.081.117-.122.04-.041.082-.082.123-.117Z" stroke="#4C0D00" stroke-width="1.333"/><path d="M75.481 28.26c1.855-1.917 5.04-.079 4.306 2.486 2.565-.733 4.403 2.45 2.486 4.305 2.588.648 2.588 4.325 0 4.972 1.917 1.855.079 5.039-2.486 4.306.733 2.565-2.451 4.403-4.306 2.486-.647 2.587-4.324 2.587-4.971 0-1.855 1.917-5.04.079-4.306-2.486-2.564.733-4.403-2.451-2.486-4.306-2.588-.647-2.588-4.324 0-4.972-1.917-1.854-.079-5.038 2.486-4.305-.733-2.565 2.451-4.403 4.306-2.486.647-2.588 4.324-2.588 4.971 0Z" fill="#FFF4DA"/><path d="M75.481 28.26c1.855-1.917 5.04-.079 4.306 2.486 2.565-.733 4.403 2.45 2.486 4.305 2.588.648 2.588 4.325 0 4.972 1.917 1.855.079 5.039-2.486 4.306.733 2.565-2.451 4.403-4.306 2.486-.647 2.587-4.324 2.587-4.971 0-1.855 1.917-5.04.079-4.306-2.486-2.564.733-4.403-2.451-2.486-4.306-2.588-.647-2.588-4.324 0-4.972-1.917-1.854-.079-5.038 2.486-4.305-.733-2.565 2.451-4.403 4.306-2.486.647-2.588 4.324-2.588 4.971 0Z" stroke="#4C0D00" stroke-width="1.333" stroke-miterlimit="10"/><path d="M70.614 36.97a1.496 1.496 0 1 1-2.993 0 1.496 1.496 0 0 1 2.993 0Z" fill="#FFF4DA"/><path d="M70.614 36.97a1.496 1.496 0 1 1-2.993 0 1.496 1.496 0 0 1 2.993 0Z" stroke="#4C0D00" stroke-width="1.333"/><path d="M78.707 35.239a2.11 2.11 0 1 1-4.22 0 2.11 2.11 0 0 1 4.22 0Z" fill="#FFF4DA"/><path d="M78.707 35.239a2.11 2.11 0 1 1-4.22 0 2.11 2.11 0 0 1 4.22 0Z" stroke="#4C0D00" stroke-width="1.333"/><path d="M72.903 41.297a1.301 1.301 0 1 1-2.597-.181 1.301 1.301 0 0 1 2.597.18Z" fill="#FFF4DA"/><path d="M72.903 41.297a1.301 1.301 0 1 1-2.597-.181 1.301 1.301 0 0 1 2.597.18Z" stroke="#4C0D00" stroke-width="1.333"/><path d="M73.29 33.53a1.058 1.058 0 1 1-2.116 0 1.058 1.058 0 0 1 2.116 0Z" fill="#FFF4DA"/><path d="M73.29 33.53a1.058 1.058 0 1 1-2.116 0 1.058 1.058 0 0 1 2.116 0Z" stroke="#4C0D00" stroke-width="1.333"/><path d="M77.132 39.904a1.058 1.058 0 1 1-2.116 0 1.058 1.058 0 0 1 2.116 0Z" fill="#FFF4DA"/><path d="M77.132 39.904a1.058 1.058 0 1 1-2.116 0 1.058 1.058 0 0 1 2.116 0Z" stroke="#4C0D00" stroke-width="1.333"/><path d="M52.527 52.072c.567.372 2.048 1.999 1.676 2.566-.372.568-2.455-.138-3.022-.51a1.229 1.229 0 0 1 1.346-2.056Z" fill="#fff"/><path d="M52.527 52.072c.567.372 2.048 1.999 1.676 2.566-.372.568-2.455-.138-3.022-.51a1.229 1.229 0 0 1 1.346-2.056Z" stroke="#4C0D00" stroke-width="1.333"/><path d="M49.885 58.64c.557-.033 2.332.312 2.366.87.034.556-1.687 1.114-2.244 1.148a1.01 1.01 0 1 1-.122-2.018Z" fill="#fff"/><path d="M49.885 58.64c.557-.033 2.332.312 2.366.87.034.556-1.687 1.114-2.244 1.148a1.01 1.01 0 1 1-.122-2.018Z" stroke="#4C0D00" stroke-width="1.333"/><path d="M50.211 68.152c-5.722-6.334-5.225-16.11 1.11-21.832 5.623-5.08 13.961-5.258 19.766-.8l-3.988 4.41-2.75 3.045-.492.544-1.19 1.316-1.208 1.338-1.424 1.575-.298.33-1.06 1.173-1.958 2.166-.85.938-5.445 6.023a5.123 5.123 0 0 1-.213-.226Z" fill="#FFF4DA"/><path d="M50.211 68.152c-5.722-6.334-5.225-16.11 1.11-21.832 5.623-5.08 13.961-5.258 19.766-.8l-3.988 4.41-2.75 3.045-.492.544-1.19 1.316-1.208 1.338-1.424 1.575-.298.33-1.06 1.173-1.958 2.166-.85.938-5.445 6.023a5.123 5.123 0 0 1-.213-.226Z" stroke="#4C0D00" stroke-width="1.333"/><path d="M55.609 62.585a2.41 2.41 0 0 1-.735-1.025 2.477 2.477 0 0 1 1.433-3.191c.11-.041.222-.074.334-.098a2.156 2.156 0 0 1-.146-.31 2.474 2.474 0 0 1 2.735-3.316 2.476 2.476 0 0 1 3.4-2.816 2.473 2.473 0 0 1 3.555-.888l-1.838 2.033-.49.545-1.191 1.316-1.208 1.338-1.424 1.575-.298.33-1.06 1.173-1.958 2.166-.85.938-.28.31c.003-.027.013-.053.021-.08Z" fill="#fff"/><path d="M55.609 62.585a2.41 2.41 0 0 1-.735-1.025 2.477 2.477 0 0 1 1.433-3.191c.11-.041.222-.074.334-.098a2.156 2.156 0 0 1-.146-.31 2.474 2.474 0 0 1 2.735-3.316 2.476 2.476 0 0 1 3.4-2.816 2.473 2.473 0 0 1 3.555-.888l-1.838 2.033-.49.545-1.191 1.316-1.208 1.338-1.424 1.575-.298.33-1.06 1.173-1.958 2.166-.85.938-.28.31c.003-.027.013-.053.021-.08Z" stroke="#4C0D00" stroke-width="1.333"/><path d="m47.82 71.258 2.604-2.88-2.604 2.88Z" fill="#fff"/><path d="m47.82 71.258 2.604-2.88" stroke="#4C0D00" stroke-width="1.333"/><path d="m71.086 45.52 2.6-2.877-2.6 2.876Z" fill="#fff"/><path d="m71.086 45.52 2.6-2.877" stroke="#4C0D00" stroke-width="1.333"/><path d="M55.609 62.585a2.41 2.41 0 0 1-.735-1.025 2.477 2.477 0 0 1 1.433-3.191c.11-.041.222-.074.334-.098a2.156 2.156 0 0 1-.146-.31 2.474 2.474 0 0 1 2.735-3.316 2.476 2.476 0 0 1 3.4-2.816 2.473 2.473 0 0 1 3.555-.888l-1.838 2.033-.49.545-1.191 1.316-1.208 1.338-1.424 1.575-.298.33-1.06 1.173-1.958 2.166-.85.938-.28.31c.003-.027.013-.053.021-.08Z" fill="#fff"/><path d="M55.609 62.585a2.41 2.41 0 0 1-.735-1.025 2.477 2.477 0 0 1 1.433-3.191c.11-.041.222-.074.334-.098a2.156 2.156 0 0 1-.146-.31 2.474 2.474 0 0 1 2.735-3.316 2.476 2.476 0 0 1 3.4-2.816 2.473 2.473 0 0 1 3.555-.888l-1.838 2.033-.49.545-1.191 1.316-1.208 1.338-1.424 1.575-.298.33-1.06 1.173-1.958 2.166-.85.938-.28.31c.003-.027.013-.053.021-.08Z" stroke="#4C0D00" stroke-width="1.333"/><path d="M47.34 70.745c-7.153-7.92-6.53-20.14 1.39-27.295 7.113-6.425 17.692-6.58 24.957-.807l-2.6 2.876c-5.804-4.458-14.142-4.28-19.766.8-6.334 5.722-6.831 15.498-1.11 21.832.072.079.14.154.213.227l-2.604 2.88a18.63 18.63 0 0 1-.48-.513Z" fill="#4C0D00"/><path d="M47.34 70.745c-7.153-7.92-6.53-20.14 1.39-27.295 7.113-6.425 17.692-6.58 24.957-.807l-2.6 2.876c-5.804-4.458-14.142-4.28-19.766.8-6.334 5.722-6.831 15.498-1.11 21.832.072.079.14.154.213.227l-2.604 2.88a18.63 18.63 0 0 1-.48-.513Z" stroke="#4C0D00" stroke-width="1.333"/><path d="M57.267 47.098c.29.613.707 2.772.094 3.063-.612.291-2.023-1.396-2.314-2.009a1.229 1.229 0 0 1 2.22-1.054Z" fill="#fff"/><path d="M57.267 47.098c.29.613.707 2.772.094 3.063-.612.291-2.023-1.396-2.314-2.009a1.229 1.229 0 0 1 2.22-1.054Z" stroke="#4C0D00" stroke-width="1.333"/><path d="M64.224 46.382c-.113.51-.88 2.02-1.39 1.907-.511-.112-.57-1.805-.458-2.315a.946.946 0 0 1 1.848.408Z" fill="#fff"/><path d="M64.224 46.382c-.113.51-.88 2.02-1.39 1.907-.511-.112-.57-1.805-.458-2.315a.946.946 0 0 1 1.848.408Z" stroke="#4C0D00" stroke-width="1.333"/><path d="M57.241 56.671c-2.757 1.459-3.711-.345-6.468 1.113-2.757 1.459-1.803 3.263-4.56 4.721-2.755 1.457-3.71-.346-6.465 1.111-2.756 1.458-1.801 3.262-4.557 4.72-2.756 1.457-3.71-.347-6.465 1.11l-2.538-4.798c2.755-1.458 3.709.346 6.464-1.111 2.756-1.458 1.802-3.262 4.558-4.72 2.755-1.457 3.71.347 6.464-1.11 2.758-1.46 1.803-3.263 4.56-4.722 2.757-1.458 3.712.346 6.469-1.113l2.538 4.8Z" fill="#4C0D00"/><path d="M57.241 56.671c-2.757 1.459-3.711-.345-6.468 1.113-2.757 1.459-1.803 3.263-4.56 4.721-2.755 1.457-3.71-.346-6.465 1.111-2.756 1.458-1.801 3.262-4.557 4.72-2.756 1.457-3.71-.347-6.465 1.11l-2.538-4.798c2.755-1.458 3.709.346 6.464-1.111 2.756-1.458 1.802-3.262 4.558-4.72 2.755-1.457 3.71.347 6.464-1.11 2.758-1.46 1.803-3.263 4.56-4.722 2.757-1.458 3.712.346 6.469-1.113l2.538 4.8Z" stroke="#4C0D00" stroke-width="1.333"/><path d="M117.853 2.002v84.98H19.775l84.981-84.98h13.097Z" fill="#FF6D2F"/><path d="M117.853 2.002v84.98H19.775l84.981-84.98h13.097Z" stroke="#4C0D00" stroke-width="1.333"/><path d="M117.855 86.982H32.873L117.855 2v84.982Z" fill="#FFF4DA"/><path d="M117.855 86.982H32.873L117.855 2v84.982Zm.001-11.422h-44.86m44.86-6.05h-37.77m37.77-6.05h-32.32" stroke="#4C0D00" stroke-width="1.333"/></svg>