<svg width="180" height="100" fill="none" xmlns="http://www.w3.org/2000/svg"><path d="M149.734 22.825v53.919a5.093 5.093 0 0 1-5.093 5.092H64.598L48.713 97.252a2.153 2.153 0 0 1-1.67.607c-2.083 0-2.346-1.698-2.346-3.781l.566-12.242h-9.522a5.092 5.092 0 0 1-5.093-5.092V22.811a5.093 5.093 0 0 1 5.134-5.037h108.873a5.077 5.077 0 0 1 5.079 5.051Z" fill="#FFF4DA"/><path d="M47.085 98.549c-3.036 0-3.036-3.023-3.036-4.472l.538-11.55h-8.805A5.796 5.796 0 0 1 30 76.743V22.81a5.81 5.81 0 0 1 1.711-4.14 5.701 5.701 0 0 1 4.14-1.67H144.71a5.771 5.771 0 0 1 5.769 5.755v53.919a5.798 5.798 0 0 1-5.796 5.782H64.957L49.28 97.637a2.857 2.857 0 0 1-2.195.912ZM35.77 18.505a4.389 4.389 0 0 0-4.389 4.375V76.8a4.416 4.416 0 0 0 4.402 4.402h10.24l-.593 12.96c0 2.594.538 3.063 1.656 3.063a1.504 1.504 0 0 0 1.256-.47L64.35 81.202h80.278a4.417 4.417 0 0 0 4.416-4.402V22.825a4.392 4.392 0 0 0-4.389-4.375H35.769v.055Z" fill="#4C0D00"/><path d="m58.665 31.27-1.38 1.174-2.47 2.222a.373.373 0 0 0-.125.29l.29 3.45.124 1.38a.358.358 0 0 1-.496.345l-.221-.125-1.518-.828-1.104-.62-.663-.36-.58-.317a.303.303 0 0 0-.303 0l-1.132.566-1.076.538-.249.124-.51.263-.98.483-.552.29h-.152a.29.29 0 0 1-.29-.373v-.29l1.173-4.499a.304.304 0 0 0 0-.29l-3.188-3.395a.345.345 0 0 1 .221-.552l4.886-.704a.387.387 0 0 0 .262-.179l2.525-4.361v-.083a.47.47 0 0 1 .166-.083h.166a.276.276 0 0 1 .179.166l.193.483.235.58.152.345.358.897.263.635.58 1.38a.249.249 0 0 0 .22.179l2.76.414 1.463.22h.497a.347.347 0 0 1 .276.636Zm19.361 0-1.38 1.174-2.457 2.222a.374.374 0 0 0-.124.29l.29 3.45.124 1.38a.358.358 0 0 1-.51.345l-.207-.125-1.518-.828-1.104-.62-.663-.36-.58-.317a.303.303 0 0 0-.303 0l-1.132.566-1.076.538-.249.124-.51.263-.98.483-.566.29h-.138a.29.29 0 0 1-.29-.373v-.29l1.173-4.499a.304.304 0 0 0 0-.29l-3.188-3.395a.345.345 0 0 1 .221-.552l4.886-.704a.36.36 0 0 0 .248-.179l2.54-4.361.068-.083a.47.47 0 0 1 .166-.083h.166a.276.276 0 0 1 .179.166l.193.483.235.58.152.345.358.897.263.635.566 1.38a.289.289 0 0 0 .234.179l2.76.414 1.463.22h.483a.334.334 0 0 1 .207.636Zm19.362 0-1.38 1.174-2.457 2.222a.374.374 0 0 0-.124.29l.29 3.45.11 1.38a.345.345 0 0 1-.497.345l-.207-.125-1.518-.828-1.118-.62-.662-.36-.58-.317a.303.303 0 0 0-.303 0l-1.132.566-1.076.538-.249.124-.51.263-.98.483-.566.29h-.138a.289.289 0 0 1-.29-.373v-.29l1.173-4.499a.303.303 0 0 0 0-.29l-3.188-3.395a.345.345 0 0 1 .22-.552l4.886-.704a.358.358 0 0 0 .249-.179l2.539-4.361v-.083l.166-.083h.165c.078.032.142.09.18.166l.193.483.234.58.139.345.372.897.249.635.58 1.38a.29.29 0 0 0 .234.179l2.76.414 1.463.22h.483a.35.35 0 0 1 .29.636Zm19.364 0-1.38 1.174-2.456 2.222a.328.328 0 0 0-.125.29l.29 3.45.111 1.38a.348.348 0 0 1-.319.38.342.342 0 0 1-.178-.035l-.207-.125-1.518-.828-1.118-.62-.663-.36-.579-.317a.304.304 0 0 0-.304 0l-1.131.566-1.091.538-.234.124-.511.263-.98.483-.566.29h-.138a.301.301 0 0 1-.303-.236.29.29 0 0 1 0-.137l.083-.29 1.173-4.499a.345.345 0 0 0 0-.29l-3.188-3.395a.34.34 0 0 1-.048-.339.351.351 0 0 1 .268-.213l4.872-.704a.353.353 0 0 0 .262-.179l2.54-4.361v-.083a.37.37 0 0 1 .165-.083h.166c.078.032.142.09.179.166l.193.483.235.58.138.345.359.897.262.635.58 1.38a.286.286 0 0 0 .234.179l2.76.414 1.463.22h.483a.337.337 0 0 1 .221.636Zm19.362 0-1.38 1.174-2.457 2.222a.336.336 0 0 0-.099.129.34.34 0 0 0-.025.16l.29 3.45.11 1.38a.347.347 0 0 1-.146.32.345.345 0 0 1-.351.026l-.221-.125-1.504-.828-1.118-.62-.662-.36-.594-.317a.272.272 0 0 0-.289 0l-1.132.566-1.09.538-.249.124-.51.263-.98.483-.552.29h-.138a.292.292 0 0 1-.251-.106.288.288 0 0 1-.053-.267l.083-.29 1.159-4.499a.305.305 0 0 0 0-.29l-3.188-3.395a.348.348 0 0 1 .059-.48.345.345 0 0 1 .162-.072l4.872-.704a.363.363 0 0 0 .262-.179l2.539-4.361v-.083a.321.321 0 0 1 .166-.083h.165c.078.032.142.09.18.166l.193.483.235.58.138.345.359.897.262.635.579 1.38a.287.287 0 0 0 .235.18l2.76.413 1.477.22h.483a.337.337 0 0 1 .428.208.336.336 0 0 1-.207.428Z" fill="#FF6D2F"/><path d="M140.86 52.758H57.656v1.38h83.204v-1.38Zm-.015 7.756H41.398v1.38h99.447v-1.38Zm-31.216 7.77h-68.23v1.38h68.23v-1.38Z" fill="#4C0D00"/></svg>