<svg width="109" height="141" viewBox="0 0 109 141" fill="none" xmlns="http://www.w3.org/2000/svg">
<path d="M91.0568 63.2538C91.0568 71.6672 76.4164 78.4873 58.3567 78.4873C40.297 78.4873 25.6566 71.6672 25.6566 63.2538C25.6566 54.8404 40.297 48.0203 58.3567 48.0203C76.4164 48.0203 91.0568 54.8404 91.0568 63.2538Z" fill="white"/>
<path d="M91.0568 63.2538C91.0568 71.6672 76.4164 78.4873 58.3567 78.4873C40.297 78.4873 25.6566 71.6672 25.6566 63.2538C25.6566 54.8404 40.297 48.0203 58.3567 48.0203C76.4164 48.0203 91.0568 54.8404 91.0568 63.2538Z" stroke="#4C0D00" stroke-width="1.33333"/>
<path d="M87.6893 62.7411C87.6893 69.6424 74.5567 75.2368 58.3567 75.2368C42.1564 75.2368 29.0238 69.6424 29.0238 62.7411C29.0238 55.8399 42.1564 50.2455 58.3567 50.2455C74.5567 50.2455 87.6893 55.8399 87.6893 62.7411Z" fill="#FFF4DA"/>
<path d="M87.6893 62.7411C87.6893 69.6424 74.5567 75.2368 58.3567 75.2368C42.1564 75.2368 29.0238 69.6424 29.0238 62.7411C29.0238 55.8399 42.1564 50.2455 58.3567 50.2455C74.5567 50.2455 87.6893 55.8399 87.6893 62.7411Z" stroke="#4C0D00" stroke-width="1.33333"/>
<path d="M89.9105 67.2638L84.5877 127.604C84.5877 134.354 72.8408 139.821 58.3569 139.821C43.8729 139.821 32.1268 134.354 32.1268 127.604L26.8039 67.2638C30.5842 73.7309 43.2794 78.4889 58.3569 78.4889C73.435 78.4889 86.1302 73.7309 89.9105 67.2638Z" fill="#FFF4DA"/>
<path d="M89.9105 67.2638L84.5877 127.604C84.5877 134.354 72.8408 139.821 58.3569 139.821C43.8729 139.821 32.1268 134.354 32.1268 127.604L26.8039 67.2638C30.5842 73.7309 43.2794 78.4889 58.3569 78.4889C73.435 78.4889 86.1302 73.7309 89.9105 67.2638Z" stroke="#4C0D00" stroke-width="1.33333"/>
<path d="M89.7075 79.2783L87.1873 107.855L86.8183 112.034C84.1819 118.269 72.4426 122.969 58.357 122.969C44.2861 122.969 32.5538 118.276 29.9032 112.056L29.527 107.833L27.0064 79.2783C30.2725 85.9772 43.0691 90.9741 58.357 90.9741C73.6376 90.9741 86.4414 85.9772 89.7075 79.2783Z" fill="#FFF4DA"/>
<path d="M89.7075 79.2783L87.1873 107.855L86.8183 112.034C84.1819 118.269 72.4426 122.969 58.357 122.969C44.2861 122.969 32.5538 118.276 29.9032 112.056L29.527 107.833L27.0064 79.2783C30.2725 85.9772 43.0691 90.9741 58.357 90.9741C73.6376 90.9741 86.4414 85.9772 89.7075 79.2783Z" stroke="#4C0D00" stroke-width="1.33333"/>
<path d="M30.7123 83.6043L33.2611 116.2" stroke="#4C0D00" stroke-width="1.33333"/>
<path d="M39.9271 88.0435L41.6261 120.578" stroke="#4C0D00" stroke-width="1.33333"/>
<path d="M49.1422 90.2426L49.9917 122.713" stroke="#4C0D00" stroke-width="1.33333"/>
<path d="M58.3571 90.9742V122.969" stroke="#4C0D00" stroke-width="1.33333"/>
<path d="M86.002 83.8601L83.4532 116.456" stroke="#4C0D00" stroke-width="1.33333"/>
<path d="M76.7871 88.2993L75.0882 120.477" stroke="#4C0D00" stroke-width="1.33333"/>
<path d="M67.5724 90.4984L66.7229 122.394" stroke="#4C0D00" stroke-width="1.33333"/>
<path d="M94.1619 46.4649C93.2201 49.1517 90.1788 56.4444 87.6731 62.3611C87.4848 62.8101 87.2961 63.2518 87.1151 63.6863C86.5868 64.9392 86.0867 66.0979 85.6598 67.1046C85.5436 67.3073 85.4136 67.5029 85.2828 67.6984C80.7783 72.1377 70.4223 75.2373 58.3571 75.2373C47.4435 75.2373 37.9275 72.6954 32.8726 68.9295C34.531 65.6489 38.6014 61.9121 45.394 58.0738C49.7613 55.6043 52.238 52.961 53.6719 50.4045C55.1996 47.6888 55.5473 45.0817 55.7283 42.8874C55.9383 40.3816 55.9383 38.4191 57.2202 37.4921C60.6967 34.9791 62.2461 41.5838 70.5385 35.2326C78.8378 28.8741 79.54 13.1011 66.0481 11.9496C52.5567 10.7836 62.7244 0.21759 71.6538 1.6515C80.5683 3.07818 90.0484 13.2676 88.4404 27.7516C86.833 42.2356 90.6274 36.7244 93.1476 34.9936C95.661 33.2628 95.8489 41.6635 94.1619 46.4649Z" fill="#4C0D00"/>
<path d="M94.1619 46.4649C93.2201 49.1517 90.1788 56.4444 87.6731 62.3611C87.4848 62.8101 87.2961 63.2518 87.1151 63.6863C86.5868 64.9392 86.0867 66.0979 85.6598 67.1046C85.5436 67.3073 85.4136 67.5029 85.2828 67.6984C80.7783 72.1377 70.4223 75.2373 58.3571 75.2373C47.4435 75.2373 37.9275 72.6954 32.8726 68.9295C34.531 65.6489 38.6014 61.9121 45.394 58.0738C49.7613 55.6043 52.238 52.961 53.6719 50.4045C55.1996 47.6888 55.5473 45.0817 55.7283 42.8874C55.9383 40.3816 55.9383 38.4191 57.2202 37.4921C60.6967 34.9791 62.2461 41.5838 70.5385 35.2326C78.8378 28.8741 79.54 13.1011 66.0481 11.9496C52.5567 10.7836 62.7244 0.217592 71.6538 1.6515C80.5683 3.07818 90.0484 13.2676 88.4404 27.7516C86.833 42.2356 90.6274 36.7244 93.1476 34.9936C95.661 33.2628 95.8489 41.6635 94.1619 46.4649Z" stroke="#4C0D00" stroke-width="1.33333" stroke-linejoin="bevel"/>
<path d="M103.115 14.8083C105.856 13.5493 108.926 15.9446 106.525 19.5134C104.034 23.2177 98.0611 23.4187 96.9172 27.6545C95.7729 31.8903 91.3557 20.2097 103.115 14.8083Z" fill="#4C0D00"/>
<path d="M103.115 14.8083C105.856 13.5493 108.926 15.9446 106.525 19.5134C104.034 23.2177 98.0611 23.4187 96.9172 27.6545C95.7729 31.8903 91.3557 20.2097 103.115 14.8083Z" stroke="#4C0D00" stroke-width="1.33333" stroke-linejoin="bevel"/>
<path d="M50.3188 21.2934C56.0693 26.9352 50.9115 41.5108 38.8058 53.8501C26.7001 66.1893 12.2256 71.6244 6.47507 65.9826C5.79939 65.3199 5.27507 64.5385 4.8974 63.6423L4.57151 62.7548C4.57151 62.7461 4.57115 62.7374 4.56246 62.7291L2.12662 56.1038C2.45504 56.7957 2.88196 57.4135 3.42149 57.9425C3.64961 58.1663 3.89511 58.3727 4.15329 58.557C9.65285 62.489 21.8042 57.6322 32.0331 47.2059C42.2668 36.7745 46.8864 24.5374 42.8414 19.1139C42.652 18.8593 42.4456 18.6225 42.2175 18.3984C41.678 17.8693 41.0527 17.4536 40.3542 17.139L47.0291 19.4434L47.0421 19.4477L47.9488 19.7606C48.8519 20.1212 49.6435 20.6307 50.3188 21.2934Z" fill="#FF6D2F"/>
<path d="M50.3188 21.2934C56.0693 26.9352 50.9115 41.5108 38.8058 53.8501C26.7001 66.1893 12.2256 71.6244 6.47507 65.9826C5.79939 65.3199 5.27507 64.5385 4.8974 63.6423L4.57151 62.7548C4.57151 62.7461 4.57115 62.7374 4.56246 62.7291L2.12662 56.1038C2.45504 56.7957 2.88196 57.4135 3.42149 57.9425C3.64961 58.1663 3.89511 58.3727 4.15329 58.557C9.65285 62.489 21.8042 57.6322 32.0331 47.2059C42.2668 36.7745 46.8864 24.5374 42.8414 19.1139C42.652 18.8593 42.4456 18.6225 42.2175 18.3984C41.678 17.8693 41.0526 17.4536 40.3542 17.139L47.0291 19.4434L47.0421 19.4477L47.9488 19.7606C48.8519 20.1212 49.6435 20.6307 50.3188 21.2934Z" stroke="#4C0D00" stroke-width="1.33333"/>
<path d="M42.2181 18.3966C47.3052 23.3874 42.7442 36.285 32.0311 47.2045C21.3184 58.1243 8.50991 62.9305 3.42314 57.94C-1.66399 52.9492 2.89701 40.0512 13.6097 29.1318C24.3228 18.2123 37.1313 13.4058 42.2181 18.3966Z" fill="#FFF4DA"/>
<path d="M42.2181 18.3966C47.3052 23.3874 42.7442 36.285 32.0311 47.2045C21.3184 58.1243 8.50991 62.9305 3.42314 57.94C-1.66399 52.9492 2.89701 40.0512 13.6097 29.1318C24.3228 18.2123 37.1313 13.4058 42.2181 18.3966Z" stroke="#4C0D00" stroke-width="1.33333"/>
<path d="M36.9609 23.7551C40.1188 26.8532 36.3482 35.8177 28.5385 43.7781C20.7291 51.7381 11.8381 55.6792 8.68024 52.5811C5.52237 49.4829 9.29291 40.5184 17.1023 32.5584C24.9121 24.598 33.803 20.6569 36.9609 23.7551Z" fill="#4C0D00"/>
<path d="M36.9609 23.7551C40.1188 26.8532 36.3482 35.8177 28.5385 43.7781C20.7291 51.7381 11.8381 55.6792 8.68024 52.5811C5.52237 49.4829 9.29291 40.5184 17.1023 32.5584C24.9121 24.598 33.803 20.6569 36.9609 23.7551Z" stroke="#4C0D00" stroke-width="1.33333" stroke-linejoin="bevel"/>
<path d="M36.9627 23.7545C37.3794 24.1633 37.6753 24.6688 37.8549 25.267C33.9073 24.1401 26.3093 28.0237 19.5272 34.9365C12.7451 41.8497 9.0075 49.52 10.2093 53.4456C9.60823 53.2775 9.09694 52.9911 8.68017 52.5823C5.52194 49.4838 9.29067 40.5183 17.1015 32.5568C24.9124 24.5953 33.8044 20.656 36.9627 23.7545Z" fill="#FFF4DA"/>
<path d="M36.9627 23.7545C37.3794 24.1633 37.6753 24.6688 37.8549 25.267C33.9073 24.1401 26.3093 28.0237 19.5272 34.9365C12.7451 41.8497 9.0075 49.52 10.2093 53.4456C9.60823 53.2775 9.09694 52.9911 8.68017 52.5823C5.52194 49.4838 9.29067 40.5183 17.1015 32.5568C24.9124 24.5953 33.8044 20.656 36.9627 23.7545Z" stroke="#4C0D00" stroke-width="1.33333"/>
<path d="M11.3836 56.7328C11.577 55.9818 12.2585 55.2272 12.9056 55.0472L14.2225 54.6808C14.8696 54.5008 15.2371 54.9636 15.0434 55.7146C14.85 56.4656 14.1686 57.2202 13.5218 57.4001L12.2045 57.7666C11.5578 57.9466 11.1903 57.4838 11.3836 56.7328Z" stroke="#4C0D00" stroke-width="1.24133"/>
</svg>
