<svg width="164" height="141" viewBox="0 0 164 141" fill="none" xmlns="http://www.w3.org/2000/svg">
<path d="M14.8617 78.6569C12.9422 79.8956 11.6781 81.3806 10.9945 83.0354C10.9412 83.1477 10.8931 83.2715 10.8529 83.3986L8.17987 90.2495C1.85074 84.7271 0.0362592 78.969 1.73668 74.6108L6.78615 61.6683C5.92001 63.8887 5.96962 66.4665 7.05592 69.1916C8.28162 72.2666 10.817 75.519 14.8617 78.6569Z" fill="#FF6D2F"/>
<path d="M14.8617 78.6569C12.9422 79.8956 11.6781 81.3806 10.9945 83.0354C10.9412 83.1477 10.8931 83.2715 10.8529 83.3986L8.17987 90.2495C1.85074 84.7271 0.0362592 78.969 1.73668 74.6108L6.78615 61.6683C5.92001 63.8887 5.96962 66.4665 7.05592 69.1916C8.28162 72.2666 10.817 75.519 14.8617 78.6569Z" stroke="#4C0D00" stroke-width="1.33333"/>
<path d="M39.3141 108.445L34.2646 121.388C16.3632 119.273 2.45133 105.543 5.80364 96.3412L10.8531 83.3987C7.50406 92.5916 21.4127 106.33 39.3141 108.445Z" fill="#FF6D2F"/>
<path d="M39.3141 108.445L34.2646 121.388C16.3632 119.273 2.45133 105.543 5.80364 96.3412L10.8531 83.3987C7.50406 92.5916 21.4127 106.33 39.3141 108.445Z" stroke="#4C0D00" stroke-width="1.33333"/>
<path d="M115.98 120.999L111.101 133.504C107.189 140.461 93.0627 142.368 78.8279 135.122L83.8774 122.179C94.4058 127.542 104.875 127.889 111.197 124.896C113.215 123.943 114.814 122.646 115.842 121.059L115.98 120.999Z" fill="#FF6D2F"/>
<path d="M115.98 120.999L111.101 133.504C107.189 140.461 93.0627 142.368 78.8279 135.122L83.8774 122.179C94.4058 127.542 104.875 127.889 111.197 124.896C113.215 123.943 114.814 122.646 115.842 121.059L115.98 120.999Z" stroke="#4C0D00" stroke-width="1.33333"/>
<path d="M126.829 102.577L121.779 115.52C120.884 117.814 118.972 119.741 115.98 120.999L116.151 120.561C116.347 120.229 116.513 119.876 116.655 119.512C116.797 119.149 116.91 118.785 116.995 118.399C117.593 115.865 117.034 112.86 114.995 109.506C117.57 109.246 119.725 108.669 121.477 107.86C124.214 106.597 125.979 104.756 126.829 102.577Z" fill="#FF6D2F"/>
<path d="M126.829 102.577L121.779 115.52C120.884 117.814 118.972 119.741 115.98 120.999L116.151 120.561C116.347 120.229 116.513 119.876 116.655 119.512C116.797 119.149 116.91 118.785 116.995 118.399C117.593 115.865 117.034 112.86 114.995 109.506C117.57 109.246 119.725 108.669 121.477 107.86C124.214 106.597 125.979 104.756 126.829 102.577Z" stroke="#FF6D2F" stroke-width="1.33333"/>
<path d="M83.8774 122.179L78.828 135.122C73.3085 140.615 61.9954 140.31 51.9997 136.41C44.0509 133.309 36.94 127.938 34.2644 121.388L39.3142 108.445C41.9894 114.995 49.1003 120.366 57.0491 123.467C67.0452 127.367 78.358 127.672 83.8774 122.179Z" fill="#FF6D2F"/>
<path d="M83.8774 122.179L78.828 135.122C73.3085 140.615 61.9954 140.31 51.9997 136.41C44.0509 133.309 36.94 127.938 34.2644 121.388L39.3142 108.445C41.9894 114.995 49.1003 120.366 57.0491 123.467C67.0452 127.367 78.358 127.672 83.8774 122.179Z" stroke="#4C0D00" stroke-width="1.33333"/>
<path d="M115.842 121.059C115.962 120.897 116.063 120.737 116.151 120.561L115.98 120.999L115.842 121.059Z" fill="white"/>
<path d="M115.842 121.059C115.962 120.897 116.063 120.737 116.151 120.561L115.98 120.999L115.842 121.059Z" stroke="#4C0D00" stroke-width="1.33333"/>
<path d="M116.655 119.512C116.513 119.875 116.347 120.229 116.151 120.561L116.994 118.399C116.911 118.784 116.797 119.149 116.655 119.512Z" fill="white"/>
<path d="M116.655 119.512C116.513 119.875 116.347 120.229 116.151 120.561L116.994 118.399C116.911 118.784 116.797 119.149 116.655 119.512Z" stroke="#4C0D00" stroke-width="1.33333"/>
<path d="M111.945 131.342C111.861 131.727 111.747 132.092 111.606 132.455C111.464 132.818 111.297 133.172 111.101 133.504L111.945 131.342Z" fill="white"/>
<path d="M111.945 131.342C111.861 131.727 111.747 132.092 111.606 132.455C111.464 132.818 111.297 133.172 111.101 133.504L111.945 131.342Z" stroke="#4C0D00" stroke-width="1.33333"/>
<path d="M116.655 119.512C116.513 119.875 116.347 120.229 116.151 120.561L116.994 118.399C116.911 118.784 116.797 119.149 116.655 119.512Z" fill="white"/>
<path d="M116.655 119.512C116.513 119.875 116.347 120.229 116.151 120.561L116.994 118.399C116.911 118.784 116.797 119.149 116.655 119.512Z" stroke="#4C0D00" stroke-width="1.33333"/>
<path d="M39.3164 108.45C17.9301 105.927 2.23383 86.802 14.8628 78.6555C-1.89302 65.6496 7.13918 50.6142 28.9339 55.232C29.426 41.5371 56.3858 41.9133 70.9345 55.8183C88.3037 51.7468 112.89 67.2508 109.237 79.9721C130.404 88.5901 134.102 107.547 114.998 109.506C124.024 124.323 104.05 132.459 83.881 122.179C73.9686 132.039 45.3631 123.226 39.3164 108.45Z" fill="#FFF4DA"/>
<path d="M39.3164 108.45C17.9301 105.927 2.23383 86.802 14.8628 78.6555C-1.89302 65.6496 7.13918 50.6142 28.9339 55.232C29.426 41.5371 56.3858 41.9133 70.9345 55.8183C88.3037 51.7468 112.89 67.2508 109.237 79.9721C130.404 88.5901 134.102 107.547 114.998 109.506C124.024 124.323 104.05 132.459 83.881 122.179C73.9686 132.039 45.3631 123.226 39.3164 108.45Z" stroke="#4C0D00" stroke-width="1.33333"/>
<path d="M81.499 87.723C79.5936 88.0141 72.6377 87.7081 71.4326 86.2033C70.2279 84.6987 75.2307 82.5656 77.136 82.2745C79.0414 81.9833 81.5627 82.9672 82.7674 84.4717C83.9721 85.9762 83.4043 87.4319 81.499 87.723Z" stroke="#4C0D00" stroke-width="1.33333"/>
<path d="M47.5177 86.7998C49.4231 86.5086 56.379 86.8146 57.5841 88.3195C58.7888 89.824 53.786 91.9571 51.8806 92.2483C49.9753 92.5394 47.454 91.5556 46.2493 90.0511C45.0446 88.5465 45.6123 87.0909 47.5177 86.7998Z" stroke="#4C0D00" stroke-width="1.33333"/>
<path d="M67.8818 76.9086C67.9727 78.357 66.4313 82.4972 64.1786 81.9972C61.926 81.4971 59.8153 76.5458 59.7248 75.0974C59.6339 73.649 61.3865 72.8799 63.6391 73.3803C65.8914 73.8804 67.7913 75.4602 67.8818 76.9086Z" stroke="#4C0D00" stroke-width="1.33333"/>
<path d="M61.1348 97.6143C61.0442 96.1659 62.5853 92.0257 64.838 92.5257C67.0906 93.0258 69.2013 97.9771 69.2918 99.4255C69.3827 100.874 67.6301 101.643 65.3775 101.143C63.1252 100.643 61.2257 99.0627 61.1348 97.6143Z" stroke="#4C0D00" stroke-width="1.33333"/>
<path d="M50.8913 76.4471C52.8876 77.6043 58.302 82.0509 57.2545 83.0554C56.2066 84.0595 49.0935 81.2416 47.0972 80.0843C45.101 78.9271 44.3322 77.1745 45.3801 76.17C46.4277 75.1656 48.895 75.2898 50.8913 76.4471Z" stroke="#4C0D00" stroke-width="1.33333"/>
<path d="M78.1254 98.0759C76.1291 96.9186 70.7147 92.472 71.7622 91.4675C72.8101 90.4634 79.9232 93.2813 81.9195 94.4386C83.9157 95.5958 84.6844 97.3484 83.6365 98.3529C82.589 99.3573 80.1216 99.2331 78.1254 98.0759Z" stroke="#4C0D00" stroke-width="1.33333"/>
<path d="M6.78619 61.6685L7.08565 60.9008" stroke="#4C0D00" stroke-width="1.33333"/>
<path d="M10.8529 83.3987L10.9945 83.0355" stroke="#4C0D00" stroke-width="1.33333"/>
<path d="M116.151 120.562L116.994 118.399L117.011 118.358" stroke="#4C0D00" stroke-width="1.33333"/>
<path d="M126.829 102.577L127.131 101.801" stroke="#4C0D00" stroke-width="1.33333"/>
<path d="M146.574 8.47561C157.74 30.505 148.932 57.4198 126.902 68.5863C107.346 78.4991 83.9329 72.666 71.111 55.8157L85.5906 46.5312L95.5831 40.1173L97.3664 38.9691L101.691 36.2008L106.077 33.3812L111.248 30.0661L112.332 29.3702L116.182 26.9007L123.292 22.3389L126.377 20.3648L146.152 7.68262C146.302 7.93898 146.436 8.20331 146.574 8.47561Z" fill="#FFF4DA"/>
<path d="M146.574 8.47561C157.74 30.505 148.932 57.4198 126.902 68.5863C107.346 78.4991 83.9329 72.666 71.111 55.8157L85.5906 46.5312L95.5831 40.1173L97.3664 38.9691L101.691 36.2008L106.077 33.3812L111.248 30.0661L112.332 29.3702L116.182 26.9007L123.292 22.3389L126.377 20.3648L146.152 7.68262C146.302 7.93898 146.436 8.20331 146.574 8.47561Z" stroke="#4C0D00" stroke-width="1.33333"/>
<path d="M127.275 19.9193C127.974 20.894 128.429 22.0611 128.549 23.3393C128.929 27.271 126.052 30.7725 122.124 31.1606C121.789 31.1936 121.45 31.1994 121.118 31.1816C121.202 31.501 121.258 31.824 121.291 32.1593C121.672 36.091 118.794 39.5925 114.862 39.9727C113.537 40.0969 112.265 39.8622 111.139 39.3379C111.028 41.8379 109.61 44.2082 107.223 45.4183C104.634 46.7309 101.629 46.3185 99.5067 44.6184C98.9603 45.1985 98.2962 45.7011 97.542 46.0835C94.5561 47.597 91.0119 46.8135 88.9088 44.3997L95.5834 40.1175L97.3667 38.9693L101.691 36.2007L106.077 33.381L111.248 30.066L112.332 29.3701L116.182 26.9005L123.292 22.3388L126.377 20.3647L127.395 19.7121C127.364 19.7864 127.317 19.849 127.275 19.9193Z" stroke="#4C0D00" stroke-width="1.33333"/>
<path d="M155.608 1.6189L146.152 7.68262" stroke="#4C0D00" stroke-width="1.33333"/>
<path d="M71.1109 55.816L61.6699 61.8721" stroke="#4C0D00" stroke-width="1.33333"/>
<path d="M127.275 19.9193C127.974 20.894 128.429 22.0611 128.549 23.3393C128.929 27.271 126.052 30.7725 122.124 31.1606C121.789 31.1936 121.45 31.1994 121.118 31.1816C121.202 31.501 121.258 31.824 121.291 32.1593C121.672 36.091 118.794 39.5925 114.862 39.9727C113.537 40.0969 112.265 39.8622 111.139 39.3379C111.028 41.8379 109.61 44.2082 107.223 45.4183C104.634 46.7309 101.629 46.3185 99.5067 44.6184C98.9603 45.1985 98.2962 45.7011 97.542 46.0835C94.5561 47.597 91.0119 46.8135 88.9088 44.3997L95.5834 40.1175L97.3667 38.9693L101.691 36.2007L106.077 33.381L111.248 30.066L112.332 29.3701L116.182 26.9005L123.292 22.3388L126.377 20.3647L127.395 19.7121C127.364 19.7864 127.317 19.849 127.275 19.9193Z" stroke="#4C0D00" stroke-width="1.33333"/>
<path d="M156.558 3.41494C170.519 30.9573 159.502 64.6021 131.959 78.5628C107.224 91.1005 77.571 83.5048 61.6702 61.8719L71.1108 55.8158C83.9331 72.6664 107.346 78.4991 126.903 68.5863C148.932 57.4202 157.74 30.505 146.574 8.47563C146.436 8.2037 146.301 7.93936 146.152 7.68264L155.608 1.61892C155.935 2.20589 156.25 2.80842 156.558 3.41494Z" fill="#FFF4DA"/>
<path d="M156.558 3.41494C170.519 30.9573 159.502 64.6021 131.959 78.5628C107.224 91.1005 77.571 83.5048 61.6702 61.8719L71.1108 55.8158C83.9331 72.6664 107.346 78.4991 126.903 68.5863C148.932 57.4202 157.74 30.505 146.574 8.47563C146.436 8.2037 146.301 7.93936 146.152 7.68264L155.608 1.61892C155.935 2.20589 156.25 2.80842 156.558 3.41494Z" stroke="#4C0D00" stroke-width="1.33333"/>
<path d="M127.905 51.6128C126.603 50.1442 123.705 44.4791 125.174 43.1763C126.643 41.8735 131.922 45.4267 133.224 46.8954C134.527 48.3641 134.392 50.6109 132.924 51.9134C131.455 53.2162 129.208 53.0815 127.905 51.6128Z" stroke="#4C0D00" stroke-width="1.33333"/>
<path d="M140.265 35.2742C138.684 34.9458 133.99 32.6331 134.319 31.0525C134.647 29.4716 139.874 29.221 141.455 29.5498C143.035 29.8782 144.051 31.4258 143.722 33.0068C143.394 34.5877 141.846 35.6026 140.265 35.2742Z" stroke="#4C0D00" stroke-width="1.33333"/>
<path d="M107.995 62.895C107.647 60.9628 108.123 54.6174 110.055 54.2702C111.987 53.9225 114.644 59.7042 114.992 61.6363C115.339 63.5685 114.055 65.4167 112.122 65.7643C110.19 66.1119 108.342 64.8272 107.995 62.895Z" stroke="#4C0D00" stroke-width="1.33333"/>
<path d="M90.9267 58.6156C91.6289 57.2765 94.9182 53.6443 96.2572 54.3464C97.5959 55.0489 96.4777 59.8199 95.7753 61.1586C95.0731 62.4977 93.4184 63.0136 92.0797 62.3115C90.7406 61.6091 90.2246 59.9546 90.9267 58.6156Z" stroke="#4C0D00" stroke-width="1.33333"/>
</svg>
