<svg width="78" height="100" viewBox="0 0 78 100" fill="none" xmlns="http://www.w3.org/2000/svg">
<path d="M40.4841 1C30.7656 1 21.4452 4.86064 14.5732 11.7326C7.70122 18.6046 3.84058 27.925 3.84058 37.6435C3.84058 55.9226 37.6435 99 37.6435 99H40.4841C40.4841 99 77.1275 57.8798 77.1275 37.6435C77.1275 27.925 73.2669 18.6046 66.3949 11.7326C59.5229 4.86064 50.2025 1 40.4841 1ZM40.4841 55.5391C36.9446 55.5391 33.4847 54.4896 30.5418 52.5232C27.5988 50.5568 25.3051 47.7619 23.9506 44.4918C22.5962 41.2218 22.2418 37.6236 22.9323 34.1522C23.6228 30.6808 25.3272 27.4921 27.8299 24.9893C30.3327 22.4866 33.5214 20.7822 36.9928 20.0917C40.4642 19.4012 44.0624 19.7556 47.3324 21.11C50.6024 22.4645 53.3974 24.7583 55.3638 27.7012C57.3302 30.6441 58.3797 34.1041 58.3797 37.6435C58.3797 39.9936 57.9168 42.3206 57.0175 44.4918C56.1181 46.663 54.8 48.6359 53.1382 50.2976C51.4764 51.9594 49.5036 53.2776 47.3324 54.1769C45.1612 55.0762 42.8341 55.5391 40.4841 55.5391Z" fill="#FF6D2F" stroke="#4C0D00" stroke-linecap="round" stroke-linejoin="round"/>
<path d="M37.6435 1C27.925 1 18.6046 4.86064 11.7326 11.7326C4.86064 18.6046 1 27.925 1 37.6435C1 57.8798 37.6435 99 37.6435 99C37.6435 99 74.287 57.8798 74.287 37.6435C74.287 27.925 70.4263 18.6046 63.5543 11.7326C56.6823 4.86064 47.3619 1 37.6435 1ZM37.6435 55.5391C34.1041 55.5391 30.6441 54.4896 27.7012 52.5232C24.7583 50.5568 22.4645 47.7619 21.1101 44.4918C19.7556 41.2218 19.4012 37.6236 20.0917 34.1522C20.7822 30.6808 22.4866 27.4921 24.9893 24.9893C27.4921 22.4866 30.6808 20.7822 34.1522 20.0917C37.6236 19.4012 41.2219 19.7556 44.4919 21.11C47.7619 22.4645 50.5568 24.7583 52.5232 27.7012C54.4896 30.6441 55.5391 34.1041 55.5391 37.6435C55.5391 42.3897 53.6537 46.9415 50.2976 50.2976C46.9415 53.6537 42.3897 55.5391 37.6435 55.5391Z" fill="#FFF4DA" stroke="#4C0D00" stroke-linecap="round" stroke-linejoin="round"/>
</svg>
