<svg width="110" height="89" viewBox="0 0 110 89" fill="none" xmlns="http://www.w3.org/2000/svg">
<path d="M20.0133 89.0004L32.6507 83.2358L25.7059 68.0109L13.0685 73.7754L20.0133 89.0004Z" fill="#4C0D00"/>
<path d="M9.82538 49.7335L20.2897 72.6669L37.6605 67.1153L82.3928 63.7337L57.2784 8.66919L25.4007 40.2384L9.82538 49.7335Z" fill="#FFF4DA"/>
<path fill-rule="evenodd" clip-rule="evenodd" d="M37.468 66.127L80.8882 62.8445L56.9635 10.3885L26.0212 41.0314L11.1034 50.1255L20.8309 71.4441L37.468 66.127ZM20.2897 72.6669L9.82538 49.7335L25.4007 40.2384L57.2784 8.66919L82.3928 63.7337L37.6605 67.1153L20.2897 72.6669Z" fill="#4C0D00"/>
<path d="M61.8387 39.8201C68.8113 55.109 78.4385 65.6725 83.3512 63.4364C88.2639 61.2004 86.6006 46.9909 79.6281 31.713C72.6555 16.435 63.0173 5.84951 58.1046 8.09659C53.1918 10.3437 54.8661 24.5752 61.8387 39.8201Z" fill="#FF6D2F"/>
<path fill-rule="evenodd" clip-rule="evenodd" d="M62.7481 39.4041L62.7486 39.4051C66.2039 46.9818 70.3014 53.35 74.1066 57.5267C76.0132 59.6194 77.8072 61.1184 79.3712 61.9588C80.9524 62.8085 82.1212 62.8976 82.9369 62.5263C83.7519 62.1553 84.4514 61.2156 84.8471 59.4644C85.2384 57.7324 85.2832 55.3942 84.9534 52.5819C84.2952 46.969 82.1736 39.6991 78.7183 32.1281C75.263 24.557 71.1627 18.1859 67.3547 14.0064C65.4467 11.9122 63.6513 10.4118 62.0864 9.57112C60.5041 8.72109 59.3356 8.63315 58.5205 9.00598C57.7049 9.37902 57.0054 10.3222 56.6106 12.0771C56.2201 13.8124 56.1767 16.1536 56.5078 18.9673C57.1687 24.5829 59.2931 31.8501 62.7481 39.4041ZM83.3512 63.4364C78.4385 65.6725 68.8113 55.109 61.8387 39.8201C54.8661 24.5752 53.1918 10.3437 58.1046 8.09659C63.0173 5.84951 72.6555 16.435 79.6281 31.713C86.6006 46.9909 88.2639 61.2004 83.3512 63.4364Z" fill="#4C0D00"/>
<path d="M64.8789 37.8922C65.7051 39.6987 66.5642 41.4391 67.4565 43.0803C68.5619 43.368 69.7263 43.336 70.8143 42.9882C71.9024 42.6404 72.8694 41.991 73.603 41.1155C74.3367 40.2399 74.8069 39.1742 74.9589 38.0421C75.111 36.91 74.9387 35.758 74.4621 34.7199L73.2724 32.1093C72.8 31.0766 72.0457 30.1981 71.0964 29.5748C70.147 28.9515 69.0411 28.6086 67.9056 28.5856C66.7702 28.5626 65.6513 28.8604 64.6775 29.4447C63.7037 30.0291 62.9145 30.8763 62.4005 31.889C63.1165 33.8497 63.9537 35.8655 64.8789 37.8922Z" fill="#FFF4DA"/>
<path opacity="0.2" d="M56.4192 13.6146C55.8725 15.8365 55.7308 18.1387 56.0007 20.4109C56.221 22.6856 56.6187 24.9395 57.1903 27.1522C57.4436 28.2537 57.8071 29.3552 58.1155 30.4567C58.424 31.5582 58.8425 32.6597 59.2171 33.6841C59.5916 34.7085 60.0212 35.8211 60.4728 36.8675C60.9244 37.9139 61.365 38.9714 61.8386 40.0068C63.7236 44.1817 65.9875 48.1749 68.6019 51.9361C69.9159 53.8014 71.3902 55.5484 73.0079 57.1573C74.6072 58.7945 76.5323 60.0779 78.6587 60.9245C76.5978 59.9708 74.7507 58.6108 73.2283 56.926C71.6627 55.2939 70.247 53.5244 68.9985 51.6387C66.4536 47.8808 64.2422 43.9076 62.3894 39.7645C60.4416 35.6729 58.8424 31.4244 57.6089 27.0641C56.9829 24.9004 56.5299 22.6904 56.254 20.455C55.9084 18.1828 55.9643 15.8675 56.4192 13.6146Z" fill="black"/>
<path d="M76.1694 3.15015C75.2221 4.41688 74.3299 5.71667 73.4487 7.01645C72.5675 8.31623 71.7303 9.66007 70.8931 10.9929C70.056 12.3257 69.2519 13.6696 68.4698 15.0464L67.3132 17.1063C66.9497 17.8002 66.5642 18.4832 66.2117 19.1991C66.6964 18.5713 67.148 17.9214 67.6106 17.2825L68.9435 15.3328C69.8247 14.0331 70.6618 12.7002 71.499 11.3674C72.3361 10.0346 73.1402 8.67973 73.9113 7.31386C74.6823 5.94798 75.4644 4.57109 76.1694 3.15015Z" fill="#263238"/>
<path d="M79.2205 49.942C81.0049 49.942 82.7784 49.876 84.5518 49.7878C86.3252 49.6997 88.0987 49.5675 89.8611 49.4354C91.6235 49.3032 93.3969 49.1269 95.1593 48.9176L97.814 48.5982C98.6842 48.466 99.5654 48.3559 100.447 48.2017C99.5543 48.2017 98.6732 48.2017 97.7809 48.2017L95.1153 48.3228C93.3418 48.3999 91.5794 48.5431 89.806 48.6753C88.0325 48.8075 86.2701 48.9837 84.5077 49.193C82.7453 49.4023 80.9829 49.6557 79.2205 49.942Z" fill="#263238"/>
<path d="M109.325 35.7551C106.747 36.2067 104.192 36.7465 101.614 37.2862C99.0368 37.826 96.5253 38.3877 93.9808 38.9936C91.4364 39.5994 88.9029 40.2052 86.3804 40.8661L82.5912 41.8685C81.3355 42.221 80.0798 42.5514 78.8241 42.97C80.1129 42.7497 81.3906 42.4854 82.6684 42.243L86.5016 41.4499C89.0571 40.9102 91.6016 40.3484 94.1461 39.7316C96.6906 39.1147 99.213 38.5199 101.747 37.859C104.28 37.1981 106.813 36.5152 109.325 35.7551Z" fill="#263238"/>
<path d="M90.4118 0C88.6054 1.94967 86.865 3.94341 85.1356 5.94815C83.4062 7.9529 81.7099 9.97968 80.0136 12.0065C78.3173 14.0332 76.654 16.1041 75.0238 18.1749L72.5674 21.3032C71.7743 22.4047 70.9592 23.3961 70.1771 24.4755C71.0804 23.5062 71.9505 22.5038 72.8428 21.5235L75.4423 18.5274C77.1827 16.5337 78.868 14.4959 80.5644 12.4691C82.2607 10.4423 83.8689 8.37148 85.5542 6.28962C87.2395 4.20777 88.8587 2.13693 90.4118 0Z" fill="#263238"/>
<path d="M75.3102 33.453C78.1411 32.2854 80.9389 31.0517 83.7257 29.807C86.5125 28.5623 89.2333 27.2625 92.0642 25.9958C94.895 24.729 97.5717 23.3742 100.325 22.0304L104.434 19.9926C105.789 19.2876 107.155 18.6157 108.51 17.8887C107.089 18.4615 105.69 19.0783 104.28 19.6731L100.094 21.5347C97.2963 22.7794 94.5315 24.0792 91.7557 25.3459C88.9799 26.6126 86.2482 27.9675 83.4944 29.3113C80.7406 30.6552 78.0089 32.021 75.3102 33.453Z" fill="#263238"/>
<path d="M11.9844 77.9866L31.8337 71.2234L18.1309 41.1742L0 51.7266L11.9844 77.9866Z" fill="#FFF4DA"/>
<path fill-rule="evenodd" clip-rule="evenodd" d="M31.8337 71.2234L18.1309 41.1742L0 51.7266L11.9844 77.9866L31.8337 71.2234ZM12.5185 76.7482L1.28575 52.1354L17.6793 42.5941L30.4654 70.6331L12.5185 76.7482Z" fill="#4C0D00"/>
</svg>
