<svg width="186" height="131" viewBox="0 0 186 131" fill="none" xmlns="http://www.w3.org/2000/svg">
<g id="Frame 37430" clip-path="url(#clip0_1340_33685)">
<g id="Group 34085">
<path id="Vector" d="M33.8402 150L55.2086 140.285L43.4657 114.625L22.0973 124.34L33.8402 150Z" fill="#4C0D00"/>
<path id="Vector_2" d="M63.6422 112.617L63.5838 112.621L63.528 112.639L34.5779 121.861L17.2534 84.0165L43.2095 68.2448L43.2595 68.2144L43.3011 68.1733L96.694 15.4689L138.564 106.971L63.6422 112.617Z" fill="#FFF4DA" stroke="#4C0D00"/>
<path id="Vector_3" d="M105.017 66.9042L105.017 66.9037C99.1374 54.0911 95.501 41.7225 94.3655 32.1055C93.7974 27.2941 93.8589 23.2006 94.5601 20.0947C95.2634 16.9793 96.5851 14.9536 98.4556 14.1009C100.326 13.248 102.726 13.5772 105.545 15.0871C108.356 16.5924 111.497 19.2275 114.77 22.8084C121.313 29.966 128.308 40.8161 134.187 53.6567C140.067 66.4973 143.698 78.8706 144.829 88.4829C145.395 93.2919 145.331 97.3808 144.628 100.481C143.924 103.591 142.601 105.611 140.731 106.46C138.86 107.308 136.461 106.978 133.643 105.468C130.834 103.964 127.696 101.331 124.425 97.7524C117.887 90.5994 110.896 79.7541 105.017 66.9042Z" fill="#FF6D2F" stroke="#4C0D00"/>
<path id="Vector_4" d="M109.703 63.8629C111.1 66.9075 112.553 69.8407 114.061 72.6069C115.93 73.0916 117.899 73.0378 119.739 72.4516C121.579 71.8654 123.214 70.7709 124.454 69.2953C125.695 67.8197 126.49 66.0235 126.747 64.1155C127.004 62.2075 126.713 60.2659 125.907 58.5163L123.895 54.1164C123.096 52.3759 121.821 50.8953 120.216 49.8448C118.611 48.7943 116.741 48.2164 114.821 48.1776C112.901 48.1388 111.009 48.6407 109.362 49.6256C107.716 50.6104 106.381 52.0383 105.512 53.7452C106.723 57.0497 108.138 60.447 109.703 63.8629Z" fill="#FFF4DA"/>
<path id="Vector_5" opacity="0.2" d="M95.3986 22.946C94.4742 26.6908 94.2345 30.5709 94.6909 34.4005C95.0634 38.2341 95.7359 42.0329 96.7024 45.762C97.1307 47.6185 97.7454 49.475 98.2669 51.3314C98.7884 53.1879 99.4961 55.0444 100.129 56.7709C100.763 58.4974 101.489 60.3724 102.253 62.1361C103.016 63.8997 103.761 65.6819 104.562 67.427C107.749 74.4633 111.577 81.1934 115.998 87.5326C118.22 90.6762 120.713 93.6206 123.448 96.3322C126.152 99.0916 129.408 101.255 133.003 102.681C129.518 101.074 126.395 98.782 123.821 95.9424C121.174 93.1918 118.78 90.2094 116.669 87.0313C112.366 80.6978 108.626 74.0013 105.493 67.0186C102.2 60.1228 99.4959 52.9624 97.4101 45.6135C96.3518 41.9669 95.5857 38.2423 95.1192 34.4747C94.5348 30.6451 94.6294 26.743 95.3986 22.946Z" fill="#FFF4DA"/>
<path id="Vector_6" d="M128.794 5.30933C127.192 7.44426 125.683 9.6349 124.193 11.8255C122.703 14.0162 121.288 16.2811 119.872 18.5274C118.457 20.7737 117.097 23.0386 115.775 25.3592L113.819 28.8308C113.204 30.0004 112.553 31.1514 111.957 32.3581C112.776 31.2999 113.54 30.2046 114.322 29.1278L116.576 25.8419C118.066 23.6512 119.481 21.4049 120.897 19.1586C122.312 16.9123 123.672 14.6288 124.976 12.3268C126.279 10.0248 127.602 7.70417 128.794 5.30933Z" fill="#FFF4DA"/>
<path id="Vector_7" d="M133.953 84.1717C136.97 84.1717 139.969 84.0604 142.968 83.9118C145.966 83.7633 148.965 83.5406 151.945 83.3178C154.925 83.095 157.924 82.798 160.904 82.4452L165.392 81.9069C166.864 81.6841 168.354 81.4984 169.844 81.2385C168.335 81.2385 166.845 81.2385 165.337 81.2385L160.829 81.4427C157.83 81.5727 154.85 81.814 151.852 82.0368C148.853 82.2596 145.873 82.5566 142.893 82.9093C139.913 83.2621 136.933 83.6891 133.953 84.1717Z" fill="#FFF4DA"/>
<path id="Vector_8" d="M184.856 60.2612C180.498 61.0224 176.177 61.9321 171.818 62.8417C167.46 63.7514 163.214 64.6982 158.911 65.7193C154.609 66.7403 150.325 67.7614 146.06 68.8752L139.653 70.5646C137.529 71.1587 135.406 71.7156 133.283 72.4211C135.462 72.0498 137.622 71.6043 139.783 71.1958L146.264 69.8592C150.586 68.9495 154.888 68.0027 159.19 66.9631C163.493 65.9235 167.758 64.921 172.042 63.8071C176.326 62.6932 180.61 61.5422 184.856 60.2612Z" fill="#FFF4DA"/>
<path id="Vector_9" d="M152.876 0C149.822 3.28595 146.879 6.64616 143.955 10.0249C141.031 13.4037 138.162 16.8196 135.294 20.2355C132.426 23.6514 129.613 27.1416 126.857 30.6317L122.703 35.9041C121.362 37.7606 119.984 39.4314 118.662 41.2507C120.189 39.617 121.66 37.9277 123.169 36.2754L127.565 31.2258C130.507 27.8656 133.357 24.4311 136.225 21.0152C139.094 17.5993 141.813 14.1092 144.663 10.6004C147.512 7.09171 150.25 3.60155 152.876 0Z" fill="#FFF4DA"/>
<path id="Vector_10" d="M127.341 56.3811C132.128 54.4132 136.859 52.334 141.571 50.2362C146.283 48.1384 150.883 45.9477 155.67 43.8128C160.457 41.6778 164.983 39.3944 169.639 37.1295L176.586 33.695C178.877 32.5069 181.187 31.3744 183.478 30.1492C181.075 31.1145 178.71 32.1542 176.326 33.1567L169.248 36.2941C164.517 38.3919 159.842 40.5825 155.149 42.7175C150.455 44.8524 145.836 47.1359 141.18 49.4008C136.523 51.6656 131.904 53.9677 127.341 56.3811Z" fill="#FFF4DA"/>
<path id="Vector_11" d="M30.4317 70.1034L53.1421 119.744L20.531 130.819L0.643626 87.3841L30.4317 70.1034Z" fill="#FFF4DA" stroke="#4C0D00"/>
</g>
</g>
<defs>
<clipPath id="clip0_1340_33685">
<rect width="186" height="131" fill="white"/>
</clipPath>
</defs>
</svg>
