<svg width="83" height="179" viewBox="0 0 83 179" fill="none" xmlns="http://www.w3.org/2000/svg">
<path d="M81.5657 178.339H1.24706V73.3299C1.24706 51.1506 19.2271 33.1709 41.4064 33.1709C63.5857 33.1709 81.5657 51.1506 81.5657 73.3299V178.339Z" fill="#4C0D00"/>
<path d="M81.5657 178.339H1.24706V73.3299C1.24706 51.1506 19.2271 33.1709 41.4064 33.1709C63.5857 33.1709 81.5657 51.1506 81.5657 73.3299V178.339Z" stroke="#4C0D00" stroke-width="1.33333" stroke-linecap="round" stroke-linejoin="round"/>
<path d="M12.912 154.944H4.70178V38.6277H12.912V154.944Z" fill="#FFF4DA" stroke="#4C0D00" stroke-width="1.33333" stroke-linecap="round" stroke-linejoin="round"/>
<path d="M12.912 44.6614H4.70178V38.6277H12.912V44.6614Z" fill="#FFF4DA" stroke="#4C0D00" stroke-width="1.33333" stroke-linecap="round" stroke-linejoin="round"/>
<path d="M77.5472 167.143H69.3371V38.6277H77.5472V167.143Z" fill="#FFF4DA" stroke="#4C0D00" stroke-width="1.33333" stroke-linecap="round" stroke-linejoin="round"/>
<path d="M77.5472 41.4229H69.3371V38.6278H77.5472V41.4229Z" fill="#FFF4DA" stroke="#4C0D00" stroke-width="1.33333" stroke-linecap="round" stroke-linejoin="round"/>
<path d="M81.263 178.339H1.55045C9.22695 169.424 24.1961 163.37 41.4031 163.37C58.6173 163.37 73.5865 169.424 81.263 178.339Z" stroke="#4C0D00" stroke-width="1.33333" stroke-linecap="round" stroke-linejoin="round"/>
<path d="M32.1928 160.234H20.7356V33.171H32.1928V160.234Z" fill="#FFF4DA" stroke="#4C0D00" stroke-width="1.33333" stroke-linecap="round" stroke-linejoin="round"/>
<path d="M41.4066 141.342H30.2869V4.02292L41.4066 1.00012V141.342Z" fill="#FFF4DA"/>
<path d="M41.4066 141.342H30.2869V4.02292L41.4066 1.00012V141.342Z" stroke="#4C0D00" stroke-width="1.33333" stroke-linecap="round" stroke-linejoin="round"/>
<path d="M46.9668 141.342H41.4068V1.00012L46.9668 4.02292V141.342Z" fill="#FFF4DA"/>
<path d="M46.9668 141.342H41.4068V1.00012L46.9668 4.02292V141.342Z" stroke="#4C0D00" stroke-width="1.33333" stroke-linecap="round" stroke-linejoin="round"/>
<path d="M34.4796 167.143H25.2131V80.634L34.4796 80.5899V167.143Z" fill="#FFF4DA"/>
<path d="M34.4796 167.143H25.2131V80.6341L34.4796 80.5899V167.143Z" stroke="#4C0D00" stroke-width="1.33333" stroke-linecap="round" stroke-linejoin="round"/>
<path d="M39.1128 167.143H34.4794V80.5899L39.1128 77.8003V167.143Z" fill="#FFF4DA"/>
<path d="M39.1128 167.143H34.4794V80.5899L39.1128 77.8003V167.143Z" stroke="#4C0D00" stroke-width="1.33333" stroke-linecap="round" stroke-linejoin="round"/>
<path d="M30.4895 77.8005L25.2133 80.6343L34.4798 80.5901L39.1129 77.8005H30.4895Z" fill="#FFF4DA"/>
<path d="M30.4895 77.8005L25.2133 80.6343L34.4798 80.5901L39.1129 77.8005H30.4895Z" stroke="#4C0D00" stroke-width="1.33333" stroke-linecap="round" stroke-linejoin="round"/>
<path d="M58.6903 161.637H65.5883V11.4843L58.6903 9.42072V161.637Z" fill="#FFF4DA"/>
<path d="M58.6903 161.637H65.5883V11.4843L58.6903 9.42072V161.637Z" stroke="#4C0D00" stroke-width="1.33333" stroke-linecap="round" stroke-linejoin="round"/>
<path d="M55.2413 161.637H58.6903V9.42072L55.2413 11.4843V161.637Z" fill="#FFF4DA"/>
<path d="M55.2413 161.637H58.6903V9.42072L55.2413 11.4843V161.637Z" stroke="#4C0D00" stroke-width="1.33333" stroke-linecap="round" stroke-linejoin="round"/>
<path d="M18.3095 174.808H10.0993V24.6547L18.3095 25.8232V174.808Z" fill="#FFF4DA"/>
<path d="M18.3095 174.808H10.0993V24.6547L18.3095 25.8232V174.808Z" stroke="#4C0D00" stroke-width="1.33333" stroke-linecap="round" stroke-linejoin="round"/>
<path d="M56.966 168.762H48.3155V32.5162L56.966 31.2749V168.762Z" fill="#FFF4DA"/>
<path d="M56.966 168.762H48.3155V32.5162L56.966 31.2749V168.762Z" stroke="#4C0D00" stroke-width="1.33333" stroke-linecap="round" stroke-linejoin="round"/>
<path d="M48.3155 168.762H45.5088V30.5377L48.3155 32.5162V168.762Z" fill="#FFF4DA"/>
<path d="M48.3155 168.762H45.5088V30.5377L48.3155 32.5162V168.762Z" stroke="#4C0D00" stroke-width="1.33333" stroke-linecap="round" stroke-linejoin="round"/>
<path d="M23.1621 174.808H18.3096V25.8232L23.1621 24.6547V174.808Z" fill="#FFF4DA"/>
<path d="M23.1621 174.808H18.3096V25.8232L23.1621 24.6547V174.808Z" stroke="#4C0D00" stroke-width="1.33333" stroke-linecap="round" stroke-linejoin="round"/>
<path d="M67.8285 163.796H75.7359V69.0006H67.8285V163.796Z" fill="#FFF4DA" stroke="#4C0D00" stroke-width="1.33333" stroke-linecap="round" stroke-linejoin="round"/>
<path d="M64.8867 163.796H67.8284V69.0006L64.8867 67.7162V163.796Z" fill="#FFF4DA"/>
<path d="M64.8867 163.796H67.8284V69.0006L64.8867 67.7162V163.796Z" stroke="#4C0D00" stroke-width="1.33333" stroke-linecap="round" stroke-linejoin="round"/>
<path d="M72.2275 67.7165H64.8867L67.8284 69.0005H75.7359L72.2275 67.7165Z" fill="#FFF4DA"/>
<path d="M72.2275 67.7165H64.8867L67.8284 69.0005H75.7359L72.2275 67.7165Z" stroke="#4C0D00" stroke-width="1.33333" stroke-linecap="round" stroke-linejoin="round"/>
<path d="M81.5671 82.9984V178.339H1.24628V82.897C3.41163 86.011 6.03323 88.8571 9.03865 91.3556C12.4786 104.167 25.6663 113.704 41.4031 113.704C57.111 113.704 70.2696 104.21 73.753 91.4425C76.7657 88.9441 79.3945 86.1052 81.5671 82.9984Z" fill="#FF6D2F"/>
<path d="M81.5671 82.9984V178.339H1.24628V82.897C3.41163 86.011 6.03323 88.8571 9.03865 91.3556C12.4786 104.167 25.6663 113.704 41.4031 113.704C57.1109 113.704 70.2696 104.21 73.753 91.4425C76.7657 88.9441 79.3945 86.1052 81.5671 82.9984Z" stroke="#4C0D00" stroke-width="1.33333"/>
<path d="M51.2969 137.897C51.2969 143.359 46.8688 147.787 41.4069 147.787C35.9446 147.787 31.5165 143.359 31.5165 137.897C31.5165 132.435 35.9446 128.007 41.4069 128.007C46.8688 128.007 51.2969 132.435 51.2969 137.897Z" fill="#FFF4DA"/>
<path d="M51.2969 137.897C51.2969 143.359 46.8688 147.787 41.4069 147.787C35.9446 147.787 31.5165 143.359 31.5165 137.897C31.5165 132.435 35.9446 128.007 41.4069 128.007C46.8688 128.007 51.2969 132.435 51.2969 137.897Z" stroke="#4C0D00" stroke-width="1.33333" stroke-linecap="round" stroke-linejoin="round"/>
<path d="M81.263 178.339H1.55045C9.22695 169.424 24.1961 163.37 41.4031 163.37C58.6173 163.37 73.5865 169.424 81.263 178.339Z" fill="#FFF4DA"/>
<path d="M81.263 178.339H1.55045C9.22695 169.424 24.1961 163.37 41.4031 163.37C58.6173 163.37 73.5865 169.424 81.263 178.339Z" stroke="#4C0D00" stroke-width="1.33333" stroke-linecap="round" stroke-linejoin="round"/>
<path d="M10.0995 24.6547L17.6254 23.4482L23.1622 24.6547L18.3098 25.8232L10.0995 24.6547Z" fill="#FFF4DA"/>
<path d="M10.0995 24.6547L17.6254 23.4482L23.1622 24.6547L18.3098 25.8232L10.0995 24.6547Z" stroke="#4C0D00" stroke-width="1.33333" stroke-linecap="round" stroke-linejoin="round"/>
<path d="M52.6407 29.2372L45.5088 30.5375L48.3155 32.5164L56.966 31.2747L52.6407 29.2372Z" fill="#FFF4DA"/>
<path d="M52.6407 29.2372L45.5088 30.5375L48.3155 32.5164L56.966 31.2747L52.6407 29.2372Z" stroke="#4C0D00" stroke-width="1.33333" stroke-linecap="round" stroke-linejoin="round"/>
</svg>
