<svg width="242" height="116" viewBox="0 0 242 116" fill="none" xmlns="http://www.w3.org/2000/svg">
<path d="M102.403 12.515L103.117 31.1892L102.403 12.515Z" fill="#FFF9EB"/>
<path d="M102.403 12.515L103.117 31.1892" stroke="#4C0D00" stroke-width="1.33333" stroke-linejoin="bevel"/>
<path d="M5.8696 40.8597L102.403 12.515L235.917 45.197L158.104 72.9265L5.8696 40.8597Z" fill="#FF6D2F"/>
<path d="M5.8696 40.8597L102.403 12.515L235.917 45.197L158.104 72.9265L5.8696 40.8597Z" stroke="#4C0D00" stroke-width="1.33333" stroke-linejoin="bevel"/>
<path d="M147.93 30.1046L189.885 57.2218L189.203 67.9421L139.155 32.8938L147.93 30.1046Z" fill="#FFF4DA"/>
<path d="M147.93 30.1046L189.885 57.2218L189.203 67.9421L139.155 32.8938L147.93 30.1046Z" stroke="#4C0D00" stroke-width="1.33333" stroke-linejoin="bevel"/>
<path d="M139.574 41.7812L191.793 73.8831L189.203 67.9425L139.155 32.8938L139.574 41.7812Z" fill="#FFF4DA"/>
<path d="M139.574 41.7811L191.793 73.8831L189.203 67.9425L139.155 32.8938L139.574 41.7811Z" stroke="#4C0D00" stroke-width="1.33333" stroke-linejoin="bevel"/>
<path d="M191.793 73.8828L189.202 67.9404L189.515 62.9662L189.882 57.2226L192.472 63.1553L191.793 73.8828Z" fill="#FFF4DA"/>
<path d="M191.793 73.8828L189.202 67.9404L189.515 62.9662L189.882 57.2226L192.472 63.1553L191.793 73.8828Z" stroke="#4C0D00" stroke-width="1.33333" stroke-linejoin="bevel"/>
<path d="M53.5575 36.889L113.182 63.6536L123.883 55.4647L65.039 28.1023L53.5575 36.889Z" fill="#FFF4DA"/>
<path d="M53.5575 36.889L113.182 63.6536L123.883 55.4647L65.039 28.1023L53.5575 36.889Z" stroke="#4C0D00" stroke-width="1.33333" stroke-linejoin="bevel"/>
<path d="M67.0684 21.7878L123.175 48.1638L123.882 55.4648L65.0388 28.1025L67.0684 21.7878Z" fill="#FFF4DA"/>
<path d="M67.0684 21.7878L123.175 48.1638L123.882 55.4648L65.0388 28.1025L67.0684 21.7878Z" stroke="#4C0D00" stroke-width="1.33333" stroke-linejoin="bevel"/>
<path d="M53.5575 36.8889L57.7068 28.9521L67.0685 21.7876L65.039 28.1022L53.5575 36.8889Z" fill="#FFF4DA"/>
<path d="M53.5575 36.8889L57.7068 28.9521L67.0685 21.7876L65.039 28.1022L53.5575 36.8889Z" stroke="#4C0D00" stroke-width="1.33333" stroke-linejoin="bevel"/>
<path d="M121.159 5.58184L109.902 49.2L101.94 41.2504L114.277 0.967243L121.159 5.58184Z" fill="#FFF4DA"/>
<path d="M121.159 5.58184L109.902 49.2L101.94 41.2504L114.277 0.967242L121.159 5.58184Z" stroke="#4C0D00" stroke-width="1.33333" stroke-linejoin="bevel"/>
<path d="M108.247 4.0102L96.0819 41.4915L101.94 41.2507L114.277 0.967117L108.247 4.0102Z" fill="#FFF4DA"/>
<path d="M108.247 4.0102L96.0819 41.4915L101.94 41.2507L114.277 0.967116L108.247 4.0102Z" stroke="#4C0D00" stroke-width="1.33333" stroke-linejoin="bevel"/>
<path d="M96.3584 45.0487L181.317 58.127L188.997 69.7454C188.997 69.7454 119.954 64.1756 89.3123 53.5606L96.3584 45.0487Z" fill="#FFF4DA"/>
<path d="M96.3584 45.0487L181.317 58.127L188.997 69.7454C188.997 69.7454 119.954 64.1756 89.3123 53.5606L96.3584 45.0487Z" stroke="#4C0D00" stroke-width="1.33333" stroke-linejoin="bevel"/>
<path d="M93.2331 63.5463L186.13 76.8357L188.997 69.7451L89.3123 53.5607L93.2331 63.5463Z" fill="#FFF4DA"/>
<path d="M93.2331 63.5463L186.13 76.8357L188.997 69.7451L89.3123 53.5607L93.2331 63.5463Z" stroke="#4C0D00" stroke-width="1.33333" stroke-linejoin="bevel"/>
<path d="M134.379 42.61L126.223 32.0078L43.0615 52.0395L50.301 62.4802L134.379 42.61Z" fill="#FFF4DA"/>
<path d="M134.379 42.61L126.223 32.0078L43.0615 52.0395L50.301 62.4802L134.379 42.61Z" stroke="#4C0D00" stroke-width="1.33333" stroke-linejoin="bevel"/>
<path d="M134.379 42.6102L125.654 50.131L56.7513 66.0391L50.3009 62.4804L134.379 42.6102Z" fill="#FFF4DA"/>
<path d="M134.379 42.6102L125.654 50.131L56.7513 66.0391L50.3009 62.4804L134.379 42.6102Z" stroke="#4C0D00" stroke-width="1.33333" stroke-linejoin="bevel"/>
<path d="M113.325 55.3689L171.234 20.1182L166.025 13.9715L105.488 50.1058L113.325 55.3689Z" fill="#FFF4DA"/>
<path d="M113.325 55.3689L171.234 20.1182L166.025 13.9715L105.488 50.1058L113.325 55.3689Z" stroke="#4C0D00" stroke-width="1.33333" stroke-linejoin="bevel"/>
<path d="M113.325 55.3688L171.234 20.1181L172.821 29.5743L119.432 63.281L113.325 55.3688Z" fill="#FFF4DA"/>
<path d="M113.325 55.3688L171.234 20.1181L172.821 29.5743L119.432 63.281L113.325 55.3688Z" stroke="#4C0D00" stroke-width="1.33333" stroke-linejoin="bevel"/>
<path d="M119.431 63.281L111.11 57.713L105.488 50.106L113.325 55.3688L119.431 63.281Z" fill="#FFF4DA"/>
<path d="M119.431 63.281L111.11 57.713L105.488 50.106L113.325 55.3688L119.431 63.281Z" stroke="#4C0D00" stroke-width="1.33333" stroke-linejoin="bevel"/>
<path d="M180.515 38.3591L113.77 23.638L115.26 34.4119L183.428 48.4316L180.515 38.3591Z" fill="#FFF4DA"/>
<path d="M180.515 38.3591L113.77 23.638L115.26 34.4119L183.428 48.4316L180.515 38.3591Z" stroke="#4C0D00" stroke-width="1.33333" stroke-linejoin="bevel"/>
<path d="M177.297 51.4504L112.737 38.1994L115.259 34.4119L183.428 48.4316L177.297 51.4504Z" fill="#FFF4DA"/>
<path d="M177.297 51.4504L112.737 38.1994L115.259 34.4119L183.428 48.4316L177.297 51.4504Z" stroke="#4C0D00" stroke-width="1.33333" stroke-linejoin="bevel"/>
<path d="M110.711 28.2312L113.77 23.638L115.26 34.4119L112.737 38.1995L110.711 28.2312Z" fill="#FFF4DA"/>
<path d="M110.711 28.2312L113.77 23.638L115.26 34.4119L112.737 38.1995L110.711 28.2312Z" stroke="#4C0D00" stroke-width="1.33333" stroke-linejoin="bevel"/>
<path d="M231.331 20.8737L141.977 77.3029L149.095 85.9031L229.996 35.5539L231.331 20.8737Z" fill="#FFF4DA"/>
<path d="M231.331 20.8737L141.977 77.3029L149.095 85.9031L229.996 35.5539L231.331 20.8737Z" stroke="#4C0D00" stroke-width="1.33333" stroke-linejoin="bevel"/>
<path d="M239.449 40.4473L157.658 85.9031H149.095L229.996 35.5539L239.449 40.4473Z" fill="#FFF4DA"/>
<path d="M239.449 40.4473L157.658 85.9031H149.095L229.996 35.5539L239.449 40.4473Z" stroke="#4C0D00" stroke-width="1.33333" stroke-linejoin="bevel"/>
<path d="M231.331 20.8736L240.376 26.1378L239.45 40.4473L229.996 35.5539L231.331 20.8736Z" fill="#FFF4DA"/>
<path d="M231.331 20.8736L240.376 26.1378L239.45 40.4473L229.996 35.5539L231.331 20.8736Z" stroke="#4C0D00" stroke-width="1.33333" stroke-linejoin="bevel"/>
<path d="M157.659 114.372L226.463 85.9013L235.917 45.197L158.104 72.9262L157.659 114.372Z" fill="#FFF4DA"/>
<path d="M157.659 114.372L226.463 85.9013L235.917 45.197L158.104 72.9262L157.659 114.372Z" stroke="#4C0D00" stroke-width="1.33333" stroke-linejoin="bevel"/>
<path d="M5.8696 40.8595L18.9928 82.0523L157.659 114.372L158.104 72.9263L5.8696 40.8595Z" fill="#FFF4DA"/>
<path d="M5.8696 40.8595L18.9928 82.0523L157.659 114.372L158.104 72.9263L5.8696 40.8595Z" stroke="#4C0D00" stroke-width="1.33333" stroke-linejoin="bevel"/>
<path d="M54.9779 85.4141L43.558 105.17C41.5408 108.622 36.8339 110.78 28.5277 110.78C20.2215 110.78 15.0717 108.233 13.4969 105.17L1.39087 84.1508L54.9779 85.4141Z" fill="#FFF4DA"/>
<path d="M54.9779 85.4141L43.558 105.17C41.5408 108.622 36.8339 110.78 28.5277 110.78C20.2215 110.78 15.0717 108.233 13.4969 105.17L1.39087 84.1508L54.9779 85.4141Z" stroke="#4C0D00" stroke-width="1.33333" stroke-linejoin="bevel"/>
<path d="M55.6649 83.1541C55.6649 88.7435 43.5158 93.2744 28.5289 93.2744C13.5419 93.2744 1.39243 88.7435 1.39243 83.1541C1.39243 77.5647 13.5419 73.0338 28.5289 73.0338C43.5158 73.0338 55.6649 77.5647 55.6649 83.1541Z" fill="#FFF4DA"/>
<path d="M55.6649 83.1541C55.6649 88.7435 43.5158 93.2744 28.5289 93.2744C13.5419 93.2744 1.39243 88.7435 1.39243 83.1541C1.39243 77.5647 13.5419 73.0338 28.5289 73.0338C43.5158 73.0338 55.6649 77.5647 55.6649 83.1541Z" stroke="#4C0D00" stroke-width="1.33333" stroke-linejoin="bevel"/>
<path d="M51.6849 83.1543C51.6849 87.3865 41.3177 90.8174 28.529 90.8174C15.7401 90.8174 5.3728 87.3865 5.3728 83.1543C5.3728 78.9221 15.7401 75.4912 28.529 75.4912C41.3177 75.4912 51.6849 78.9221 51.6849 83.1543Z" fill="#FF6D2F"/>
<path d="M51.6849 83.1543C51.6849 87.3865 41.3177 90.8174 28.529 90.8174C15.7401 90.8174 5.3728 87.3865 5.3728 83.1543C5.3728 78.9221 15.7401 75.4912 28.529 75.4912C41.3177 75.4912 51.6849 78.9221 51.6849 83.1543Z" stroke="#4C0D00" stroke-width="1.33333" stroke-linejoin="bevel"/>
<path d="M51.6826 83.154C51.6826 87.3815 41.3175 90.8135 28.5246 90.8135C19.7216 90.8135 12.0617 89.1822 8.15213 86.7949C8.27162 84.119 10.6589 82.0695 16.0709 83.154C16.0709 83.154 14.5186 79.4436 17.0355 77.7424C17.0355 77.7424 23.5316 84.7653 33.4984 84.9047C41.7846 85.0242 43.3663 80.1301 51.6428 82.6963C51.6725 82.8455 51.6826 83.0048 51.6826 83.154Z" fill="#FFF9EB"/>
<path d="M51.6826 83.154C51.6826 87.3815 41.3175 90.8135 28.5246 90.8135C19.7216 90.8135 12.0617 89.1822 8.15213 86.7949C8.27162 84.119 10.6589 82.0695 16.0709 83.154C16.0709 83.154 14.5186 79.4436 17.0355 77.7424C17.0355 77.7424 23.5316 84.7653 33.4984 84.9047C41.7846 85.0242 43.3663 80.1301 51.6428 82.6963C51.6725 82.8455 51.6826 83.0048 51.6826 83.154Z" stroke="#4C0D00" stroke-width="1.33333" stroke-linejoin="bevel"/>
<path d="M51.6826 83.154C51.6826 87.3815 41.3175 90.8135 28.5246 90.8135C19.7216 90.8135 12.0617 89.1822 8.15213 86.7949C8.27162 84.119 10.6589 82.0695 16.0709 83.154C16.0709 83.154 14.5186 79.4436 17.0355 77.7424C17.0355 77.7424 23.5316 84.7653 33.4984 84.9047C41.7846 85.0242 43.3663 80.1301 51.6428 82.6963C51.6725 82.8455 51.6826 83.0048 51.6826 83.154Z" fill="#FFF4DA"/>
<path d="M51.6826 83.154C51.6826 87.3815 41.3175 90.8135 28.5246 90.8135C19.7216 90.8135 12.0617 89.1822 8.15213 86.7949C8.27162 84.119 10.6589 82.0695 16.0709 83.154C16.0709 83.154 14.5186 79.4436 17.0355 77.7424C17.0355 77.7424 23.5316 84.7653 33.4984 84.9047C41.7846 85.0242 43.3663 80.1301 51.6428 82.6963C51.6725 82.8455 51.6826 83.0048 51.6826 83.154Z" stroke="#4C0D00" stroke-width="1.33333" stroke-linejoin="bevel"/>
<path d="M42.6883 4.78924L24.1571 49.2242L29.7928 60.9421L50.854 1.11103L42.6883 4.78924Z" fill="#FFF4DA"/>
<path d="M42.6883 4.78924L24.1571 49.2242L29.7928 60.9421L50.854 1.11103L42.6883 4.78924Z" stroke="#4C0D00" stroke-width="1.33333" stroke-linejoin="bevel"/>
<path d="M30.6181 58.598L50.854 1.11108L57.7973 9.40351L36.604 59.8171L30.6181 58.598Z" fill="#FFF4DA"/>
<path d="M30.6181 58.598L50.854 1.11108L57.7973 9.40351L36.604 59.8171L30.6181 58.598Z" stroke="#4C0D00" stroke-width="1.33333" stroke-linejoin="bevel"/>
<path d="M31.2952 43.0951C29.5238 42.2616 28.6363 43.396 25.3731 46.5539C22.1098 49.7118 20.5188 51.2941 24.0978 54.8644C27.6767 58.4344 28.3959 58.8374 28.4194 62.2947C28.4426 65.752 28.1301 68.1459 30.5442 68.1625C32.9583 68.1795 32.9315 65.3164 33.0927 63.5067C33.2538 61.6969 32.5332 55.3971 34.8072 55.8356C37.0808 56.2741 35.1679 61.4191 37.4759 61.3543C39.7843 61.2895 43.0957 49.2914 43.1779 47.5508C43.26 45.8098 40.8278 47.2412 40.0468 45.0324C39.2657 42.8235 41.1012 38.2676 38.8066 37.5901C36.512 36.9126 35.9192 43.9681 33.9537 44.0203C32.1947 44.067 31.9473 43.4018 31.2952 43.0951Z" fill="#FFF4DA"/>
<path d="M31.2952 43.0951C29.5238 42.2616 28.6363 43.396 25.3731 46.5539C22.1098 49.7118 20.5188 51.2941 24.0978 54.8644C27.6767 58.4344 28.3959 58.8374 28.4194 62.2947C28.4426 65.752 28.1301 68.1459 30.5442 68.1625C32.9583 68.1795 32.9315 65.3164 33.0927 63.5067C33.2538 61.6969 32.5332 55.3971 34.8072 55.8356C37.0808 56.2741 35.1679 61.4191 37.4759 61.3543C39.7843 61.2895 43.0957 49.2914 43.1779 47.5508C43.26 45.8098 40.8278 47.2412 40.0468 45.0324C39.2657 42.8235 41.1012 38.2676 38.8066 37.5901C36.512 36.9126 35.9192 43.9681 33.9537 44.0203C32.1947 44.067 31.9473 43.4018 31.2952 43.0951Z" stroke="#4C0D00" stroke-width="1.33333" stroke-linejoin="bevel"/>
</svg>
