<svg width="602" height="397" viewBox="0 0 602 397" fill="none" xmlns="http://www.w3.org/2000/svg">
<g clip-path="url(#clip0_957_26123)">
<path d="M252.743 90.0041L254.514 136.363L252.743 90.0041Z" fill="#FFF4DA"/>
<path d="M252.743 90.0041L254.514 136.363" stroke="#4C0D00" stroke-width="0.8" stroke-linejoin="bevel"/>
<path d="M13.0914 160.37L252.74 90.0029L584.19 171.137L391.018 239.976L13.0914 160.37Z" fill="#FF6D2F"/>
<path d="M13.0914 160.37L252.74 90.0029L584.19 171.137L391.018 239.976L13.0914 160.37Z" stroke="#4C0D00" stroke-width="0.8" stroke-linejoin="bevel"/>
<path d="M365.739 133.67L469.892 200.99L468.2 227.603L343.953 140.595L365.739 133.67Z" fill="#FFF4DA"/>
<path d="M365.739 133.67L469.892 200.99L468.2 227.603L343.953 140.595L365.739 133.67Z" stroke="#4C0D00" stroke-width="0.8" stroke-linejoin="bevel"/>
<path d="M344.994 162.659L474.63 242.353L468.2 227.605L343.953 140.595L344.994 162.659Z" fill="#FFF4DA"/>
<path d="M344.994 162.659L474.63 242.353L468.2 227.605L343.953 140.595L344.994 162.659Z" stroke="#4C0D00" stroke-width="0.8" stroke-linejoin="bevel"/>
<path d="M474.647 242.351L468.215 227.599L468.992 215.25L469.902 200.991L476.332 215.719L474.647 242.351Z" fill="#FFF4DA"/>
<path d="M474.647 242.351L468.215 227.599L468.992 215.25L469.902 200.991L476.332 215.719L474.647 242.351Z" stroke="#4C0D00" stroke-width="0.8" stroke-linejoin="bevel"/>
<path d="M131.472 150.513L279.492 216.957L306.056 196.628L159.975 128.7L131.472 150.513Z" fill="#FFF4DA"/>
<path d="M131.472 150.513L279.492 216.957L306.056 196.628L159.975 128.7L131.472 150.513Z" stroke="#4C0D00" stroke-width="0.8" stroke-linejoin="bevel"/>
<path d="M165.021 113.023L304.307 178.503L306.064 196.628L159.983 128.7L165.021 113.023Z" fill="#FFF4DA"/>
<path d="M165.021 113.023L304.307 178.503L306.064 196.628L159.983 128.7L165.021 113.023Z" stroke="#4C0D00" stroke-width="0.8" stroke-linejoin="bevel"/>
<path d="M131.472 150.512L141.772 130.808L165.013 113.022L159.975 128.699L131.472 150.512Z" fill="#FFF4DA"/>
<path d="M131.472 150.512L141.772 130.808L165.013 113.022L159.975 128.699L131.472 150.512Z" stroke="#4C0D00" stroke-width="0.8" stroke-linejoin="bevel"/>
<path d="M299.292 72.7917L271.347 181.075L251.581 161.341L282.208 61.3359L299.292 72.7917Z" fill="#FFF4DA"/>
<path d="M299.292 72.7917L271.347 181.075L251.581 161.341L282.208 61.3359L299.292 72.7917Z" stroke="#4C0D00" stroke-width="0.8" stroke-linejoin="bevel"/>
<path d="M267.246 68.8904L237.046 161.939L251.589 161.341L282.216 61.3359L267.246 68.8904Z" fill="#FFF4DA"/>
<path d="M267.246 68.8904L237.046 161.939L251.589 161.341L282.216 61.3359L267.246 68.8904Z" stroke="#4C0D00" stroke-width="0.8" stroke-linejoin="bevel"/>
<path d="M237.732 170.77L448.643 203.237L467.71 232.08C467.71 232.08 296.308 218.252 220.24 191.9L237.732 170.77Z" fill="#FFF4DA"/>
<path d="M237.732 170.77L448.643 203.237L467.71 232.08C467.71 232.08 296.308 218.252 220.24 191.9L237.732 170.77Z" stroke="#4C0D00" stroke-width="0.8" stroke-linejoin="bevel"/>
<path d="M229.973 216.69L460.592 249.682L467.709 232.079L220.24 191.901L229.973 216.69Z" fill="#FFF4DA"/>
<path d="M229.973 216.69L460.592 249.682L467.709 232.079L220.24 191.901L229.973 216.69Z" stroke="#4C0D00" stroke-width="0.8" stroke-linejoin="bevel"/>
<path d="M332.105 164.717L311.858 138.396L105.407 188.125L123.379 214.045L332.105 164.717Z" fill="#FFF4DA"/>
<path d="M332.105 164.717L311.858 138.396L105.407 188.125L123.379 214.045L332.105 164.717Z" stroke="#4C0D00" stroke-width="0.8" stroke-linejoin="bevel"/>
<path d="M332.116 164.716L310.456 183.386L139.404 222.879L123.391 214.044L332.116 164.716Z" fill="#FFF4DA"/>
<path d="M332.116 164.716L310.456 183.386L139.404 222.879L123.391 214.044L332.116 164.716Z" stroke="#4C0D00" stroke-width="0.8" stroke-linejoin="bevel"/>
<path d="M279.846 196.391L423.606 108.88L410.674 93.6205L260.391 183.325L279.846 196.391Z" fill="#FFF4DA"/>
<path d="M279.846 196.391L423.606 108.88L410.674 93.6205L260.391 183.325L279.846 196.391Z" stroke="#4C0D00" stroke-width="0.8" stroke-linejoin="bevel"/>
<path d="M279.857 196.39L423.617 108.879L427.558 132.355L295.016 216.032L279.857 196.39Z" fill="#FFF4DA"/>
<path d="M279.857 196.39L423.617 108.879L427.558 132.355L295.016 216.032L279.857 196.39Z" stroke="#4C0D00" stroke-width="0.8" stroke-linejoin="bevel"/>
<path d="M295.005 216.032L274.346 202.21L260.391 183.325L279.845 196.39L295.005 216.032Z" fill="#FFF4DA"/>
<path d="M295.005 216.032L274.346 202.21L260.391 183.325L279.845 196.39L295.005 216.032Z" stroke="#4C0D00" stroke-width="0.8" stroke-linejoin="bevel"/>
<path d="M446.653 154.163L280.955 117.618L284.654 144.364L453.884 179.169L446.653 154.163Z" fill="#FFF4DA"/>
<path d="M446.653 154.163L280.955 117.618L284.654 144.364L453.884 179.169L446.653 154.163Z" stroke="#4C0D00" stroke-width="0.8" stroke-linejoin="bevel"/>
<path d="M438.65 186.663L278.378 153.767L284.64 144.364L453.869 179.168L438.65 186.663Z" fill="#FFF4DA"/>
<path d="M438.65 186.663L278.378 153.767L284.64 144.364L453.869 179.168L438.65 186.663Z" stroke="#4C0D00" stroke-width="0.8" stroke-linejoin="bevel"/>
<path d="M273.354 129.019L280.948 117.616L284.647 144.363L278.384 153.766L273.354 129.019Z" fill="#FFF4DA"/>
<path d="M273.354 129.019L280.948 117.616L284.647 144.363L278.384 153.766L273.354 129.019Z" stroke="#4C0D00" stroke-width="0.8" stroke-linejoin="bevel"/>
<path d="M572.806 110.753L350.982 250.84L368.653 272.19L569.492 147.197L572.806 110.753Z" fill="#FFF4DA"/>
<path d="M572.806 110.753L350.982 250.84L368.653 272.19L569.492 147.197L572.806 110.753Z" stroke="#4C0D00" stroke-width="0.8" stroke-linejoin="bevel"/>
<path d="M592.954 159.345L389.904 272.19L368.646 272.19L569.487 147.197L592.954 159.345Z" fill="#FFF4DA"/>
<path d="M592.954 159.345L389.904 272.19L368.646 272.19L569.487 147.197L592.954 159.345Z" stroke="#4C0D00" stroke-width="0.8" stroke-linejoin="bevel"/>
<path d="M572.789 110.755L595.244 123.823L592.944 159.347L569.476 147.199L572.789 110.755Z" fill="#FFF4DA"/>
<path d="M572.789 110.755L595.244 123.823L592.944 159.347L569.476 147.199L572.789 110.755Z" stroke="#4C0D00" stroke-width="0.8" stroke-linejoin="bevel"/>
<path d="M389.903 342.868L560.712 272.188L584.18 171.139L391.008 239.977L389.903 342.868Z" fill="#FFF4DA"/>
<path d="M389.903 342.868L560.712 272.188L584.18 171.139L391.008 239.977L389.903 342.868Z" stroke="#4C0D00" stroke-width="0.8" stroke-linejoin="bevel"/>
<path d="M13.0914 160.371L45.6702 262.633L389.914 342.868L391.018 239.978L13.0914 160.371Z" fill="#FFF4DA"/>
<path d="M13.0914 160.371L45.6702 262.633L389.914 342.868L391.018 239.978L13.0914 160.371Z" stroke="#4C0D00" stroke-width="0.8" stroke-linejoin="bevel"/>
<path d="M134.994 270.978L106.644 320.023C101.636 328.593 89.9509 333.951 69.3306 333.951C48.7102 333.951 35.9257 327.627 32.0163 320.023L1.96265 267.842L134.994 270.978Z" fill="#FFF4DA"/>
<path d="M134.994 270.978L106.644 320.023C101.636 328.593 89.9509 333.951 69.3306 333.951C48.7102 333.951 35.9257 327.627 32.0163 320.023L1.96265 267.842L134.994 270.978Z" stroke="#4C0D00" stroke-width="0.8" stroke-linejoin="bevel"/>
<path d="M136.696 265.367C136.696 279.243 106.535 290.491 69.3297 290.491C32.1242 290.491 1.96265 279.243 1.96265 265.367C1.96265 251.492 32.1242 240.244 69.3297 240.244C106.535 240.244 136.696 251.492 136.696 265.367Z" fill="#FFF4DA"/>
<path d="M136.696 265.367C136.696 279.243 106.535 290.491 69.3297 290.491C32.1242 290.491 1.96265 279.243 1.96265 265.367C1.96265 251.492 32.1242 240.244 69.3297 240.244C106.535 240.244 136.696 251.492 136.696 265.367Z" stroke="#4C0D00" stroke-width="0.8" stroke-linejoin="bevel"/>
<path d="M126.814 265.368C126.814 275.875 101.077 284.392 69.3293 284.392C37.5803 284.392 11.8433 275.875 11.8433 265.368C11.8433 254.861 37.5803 246.344 69.3293 246.344C101.077 246.344 126.814 254.861 126.814 265.368Z" fill="#FF6D2F"/>
<path d="M126.814 265.368C126.814 275.875 101.077 284.392 69.3293 284.392C37.5803 284.392 11.8433 275.875 11.8433 265.368C11.8433 254.861 37.5803 246.344 69.3293 246.344C101.077 246.344 126.814 254.861 126.814 265.368Z" stroke="#4C0D00" stroke-width="0.8" stroke-linejoin="bevel"/>
<path d="M126.817 265.368C126.817 275.863 101.086 284.383 69.3267 284.383C47.473 284.383 28.4572 280.333 18.7516 274.407C19.0482 267.764 24.9748 262.677 38.4101 265.368C38.4101 265.368 34.5564 256.157 40.8048 251.934C40.8048 251.934 56.9315 269.368 81.6743 269.714C102.245 270.011 106.172 257.861 126.718 264.232C126.792 264.602 126.817 264.998 126.817 265.368Z" fill="#FFF4DA"/>
<path d="M126.817 265.368C126.817 275.863 101.086 284.383 69.3267 284.383C47.473 284.383 28.4572 280.333 18.7516 274.407C19.0482 267.764 24.9748 262.677 38.4101 265.368C38.4101 265.368 34.5564 256.157 40.8048 251.934C40.8048 251.934 56.9315 269.368 81.6743 269.714C102.245 270.011 106.172 257.861 126.718 264.232C126.792 264.602 126.817 264.998 126.817 265.368Z" stroke="#4C0D00" stroke-width="0.8" stroke-linejoin="bevel"/>
<path d="M126.817 265.368C126.817 275.863 101.086 284.383 69.3267 284.383C47.473 284.383 28.4572 280.333 18.7516 274.407C19.0482 267.764 24.9748 262.677 38.4101 265.368C38.4101 265.368 34.5564 256.157 40.8048 251.934C40.8048 251.934 56.9315 269.368 81.6743 269.714C102.245 270.011 106.172 257.861 126.718 264.232C126.792 264.602 126.817 264.998 126.817 265.368Z" fill="#FFF4DA"/>
<path d="M126.817 265.368C126.817 275.863 101.086 284.383 69.3267 284.383C47.473 284.383 28.4572 280.333 18.7516 274.407C19.0482 267.764 24.9748 262.677 38.4101 265.368C38.4101 265.368 34.5564 256.157 40.8048 251.934C40.8048 251.934 56.9315 269.368 81.6743 269.714C102.245 270.011 106.172 257.861 126.718 264.232C126.792 264.602 126.817 264.998 126.817 265.368Z" stroke="#4C0D00" stroke-width="0.8" stroke-linejoin="bevel"/>
<path d="M104.487 70.8246L58.4829 181.136L72.4737 210.226L124.759 61.6933L104.487 70.8246Z" fill="#FFF4DA"/>
<path d="M104.487 70.8246L58.4829 181.136L72.4737 210.226L124.759 61.6933L104.487 70.8246Z" stroke="#4C0D00" stroke-width="0.8" stroke-linejoin="bevel"/>
<path d="M74.5177 204.406L124.754 61.6936L141.991 82.2798L89.3778 207.433L74.5177 204.406Z" fill="#FFF4DA"/>
<path d="M74.5177 204.406L124.754 61.6936L141.991 82.2798L89.3778 207.433L74.5177 204.406Z" stroke="#4C0D00" stroke-width="0.8" stroke-linejoin="bevel"/>
<path d="M76.2065 165.92C71.8089 163.851 69.6057 166.667 61.5046 174.506C53.4035 182.346 49.4536 186.274 58.3386 195.138C67.2235 204 69.0088 205.001 69.0672 213.583C69.1248 222.166 68.349 228.109 74.3421 228.15C80.3352 228.193 80.2687 221.085 80.6687 216.592C81.0687 212.099 79.2799 196.46 84.9251 197.548C90.5694 198.637 85.8204 211.41 91.5502 211.249C97.2808 211.088 105.501 181.302 105.705 176.981C105.91 172.659 99.8715 176.213 97.9325 170.729C95.9935 165.246 100.55 153.935 94.8537 152.254C89.1572 150.572 87.6857 168.087 82.8064 168.217C78.4394 168.333 77.8254 166.681 76.2065 165.92Z" fill="#FFF4DA"/>
<path d="M76.2065 165.92C71.8089 163.851 69.6057 166.667 61.5046 174.506C53.4035 182.346 49.4536 186.274 58.3386 195.138C67.2235 204 69.0088 205.001 69.0672 213.583C69.1248 222.166 68.349 228.109 74.3421 228.15C80.3352 228.193 80.2687 221.085 80.6687 216.592C81.0687 212.099 79.2799 196.46 84.9251 197.548C90.5694 198.637 85.8204 211.41 91.5502 211.249C97.2808 211.088 105.501 181.302 105.705 176.981C105.91 172.659 99.8715 176.213 97.9325 170.729C95.9935 165.246 100.55 153.935 94.8537 152.254C89.1572 150.572 87.6857 168.087 82.8064 168.217C78.4394 168.333 77.8254 166.681 76.2065 165.92Z" stroke="#4C0D00" stroke-width="0.8" stroke-linejoin="bevel"/>
</g>
<defs>
<clipPath id="clip0_957_26123">
<rect width="602" height="397" fill="white"/>
</clipPath>
</defs>
</svg>
