<svg width="67" height="168" viewBox="0 0 67 168" fill="none" xmlns="http://www.w3.org/2000/svg">
<path d="M66.3423 45.2849C66.3423 45.437 66.3351 45.5891 66.3278 45.7339C66.3206 45.8353 66.3133 45.9367 66.2989 46.0381C65.7847 51.991 60.6646 54.475 53.9875 56.7345C53.9585 56.749 53.9295 56.7562 53.9006 56.7635C53.5819 56.8793 53.2488 56.988 52.9157 57.0966C52.6332 57.198 52.3508 57.2849 52.0611 57.3718C46.8976 58.9433 40.6622 59.863 33.9562 59.863C16.4378 59.863 2.17108 53.606 1.59172 45.7846L1.57 45.2849C1.57 37.2391 16.0685 30.7141 33.9562 30.7141C51.8439 30.7141 66.3423 37.2391 66.3423 45.2849Z" fill="#4C0D00"/>
<path d="M66.3423 45.2849C66.3423 45.437 66.3351 45.5891 66.3278 45.7339C66.3206 45.8353 66.3133 45.9367 66.2989 46.0381C65.7847 51.991 60.6646 54.475 53.9875 56.7345C53.9585 56.749 53.9295 56.7562 53.9006 56.7635C53.5819 56.8793 53.2488 56.988 52.9157 57.0966C52.6332 57.198 52.3508 57.2849 52.0611 57.3718C46.8976 58.9433 40.6622 59.863 33.9562 59.863C16.4378 59.863 2.17108 53.606 1.59172 45.7846L1.57 45.2849C1.57 37.2391 16.0685 30.7141 33.9562 30.7141C51.8439 30.7141 66.3423 37.2391 66.3423 45.2849Z" stroke="#4C0D00" stroke-width="1.33333"/>
<path d="M3.05955 43.96C3.05955 43.96 2.08804 14.1643 7.07559 12.0888C13.8523 9.26876 17.8709 18.7822 17.8709 18.7822C17.8709 18.7822 17.3987 2.65212 27.1551 1.07735C35.3621 -0.247208 37.0871 8.20238 37.0871 8.20238C37.0871 8.20238 40.1182 1.07699 46.1552 2.37294C50.8968 3.3908 50.9052 12.0888 50.9052 12.0888C50.9052 12.0888 58.5755 4.75447 62.7856 11.0336C65.8707 15.6348 64.0548 42.5138 64.0548 42.5138L64.0591 56.1345L3.1135 60.9631L3.05955 43.96Z" fill="#FF6D2F"/>
<path d="M3.05955 43.96C3.05955 43.96 2.08804 14.1643 7.07559 12.0888C13.8523 9.26876 17.8709 18.7822 17.8709 18.7822C17.8709 18.7822 17.3987 2.65212 27.1551 1.07735C35.3621 -0.247209 37.0871 8.20238 37.0871 8.20238C37.0871 8.20238 40.1182 1.07699 46.1552 2.37294C50.8968 3.3908 50.9052 12.0888 50.9052 12.0888C50.9052 12.0888 58.5755 4.75447 62.7856 11.0336C65.8707 15.6348 64.0548 42.5138 64.0548 42.5138L64.0591 56.1345L3.1135 60.9631L3.05955 43.96Z" stroke="#4C0D00"/>
<path d="M21.7343 40.253C19.394 33.5635 20.6994 22.8385 23.7635 22.8639C26.8275 22.8896 26.2094 29.1372 28.2448 27.1714C30.2805 25.2059 29.3137 18.498 33.2544 18.1501C39.7744 17.5743 40.8013 40.3717 40.8013 40.3717C40.8013 40.3717 30.9374 48.9499 30.7187 48.9821C30.5003 49.0147 21.7343 40.253 21.7343 40.253Z" fill="#FFF4DA"/>
<path d="M21.7343 40.253C19.394 33.5635 20.6994 22.8385 23.7635 22.8639C26.8275 22.8896 26.2094 29.1372 28.2448 27.1714C30.2805 25.2059 29.3137 18.498 33.2544 18.1501C39.7744 17.5743 40.8013 40.3717 40.8013 40.3717C40.8013 40.3717 30.9374 48.9499 30.7187 48.9821C30.5003 49.0147 21.7343 40.253 21.7343 40.253Z" stroke="#4C0D00" stroke-width="1.33333"/>
<path d="M24.442 49.7271C24.442 55.0539 19.8021 59.3723 14.0784 59.3723C8.35468 59.3723 3.71474 55.0539 3.71474 49.7271C3.71474 44.4002 8.35468 40.0818 14.0784 40.0818C19.8021 40.0818 24.442 44.4002 24.442 49.7271Z" fill="#FFF4DA"/>
<path d="M24.442 49.7271C24.442 55.0539 19.8021 59.3723 14.0784 59.3723C8.35468 59.3723 3.71474 55.0539 3.71474 49.7271C3.71474 44.4002 8.35468 40.0818 14.0784 40.0818C19.8021 40.0818 24.442 44.4002 24.442 49.7271Z" stroke="#4C0D00" stroke-width="1.33333"/>
<path d="M42.4144 45.6925C42.4144 53.3165 36.2341 59.4968 28.6101 59.4968C20.9865 59.4968 14.8058 53.3165 14.8058 45.6925C14.8058 38.0685 20.9865 31.8882 28.6101 31.8882C36.2341 31.8882 42.4144 38.0685 42.4144 45.6925Z" fill="#FFF4DA"/>
<path d="M42.4144 45.6925C42.4144 53.3165 36.2341 59.4968 28.6101 59.4968C20.9865 59.4968 14.8058 53.3165 14.8058 45.6925C14.8058 38.0685 20.9865 31.8882 28.6101 31.8882C36.2341 31.8882 42.4144 38.0685 42.4144 45.6925Z" stroke="#4C0D00" stroke-width="1.33333"/>
<path d="M39.8218 45.6926C39.8218 51.8845 34.802 56.9043 28.6101 56.9043C22.4182 56.9043 17.3985 51.8845 17.3985 45.6926C17.3985 39.5007 22.4182 34.4809 28.6101 34.4809C34.802 34.4809 39.8218 39.5007 39.8218 45.6926Z" fill="#FFF4DA"/>
<path d="M39.8218 45.6926C39.8218 51.8845 34.802 56.9043 28.6101 56.9043C22.4182 56.9043 17.3985 51.8845 17.3985 45.6926C17.3985 39.5007 22.4182 34.4809 28.6101 34.4809C34.802 34.4809 39.8218 39.5007 39.8218 45.6926Z" stroke="#4C0D00" stroke-width="1.33333"/>
<path d="M36.961 45.6927C36.961 50.3048 33.2223 54.0435 28.6103 54.0435C23.9982 54.0435 20.2592 50.3048 20.2592 45.6927C20.2592 41.0807 23.9982 37.342 28.6103 37.342C33.2223 37.342 36.961 41.0807 36.961 45.6927Z" fill="#FFF4DA"/>
<path d="M36.961 45.6927C36.961 50.3048 33.2223 54.0435 28.6103 54.0435C23.9982 54.0435 20.2592 50.3048 20.2592 45.6927C20.2592 41.0807 23.9982 37.342 28.6103 37.342C33.2223 37.342 36.961 41.0807 36.961 45.6927Z" stroke="#4C0D00" stroke-width="1.33333"/>
<path d="M50.3221 22.9722C56.7396 29.3897 56.7396 39.7964 50.3221 46.2136C44.6248 51.9108 35.7817 52.5496 29.3776 48.1301L33.3733 43.2328L36.1304 39.8508L36.6217 39.2457L37.8156 37.7846L39.0253 36.2986L40.4524 34.55L40.7515 34.1828L41.8139 32.8803L43.7754 30.4746L44.6274 29.4328L50.0842 22.7434C50.1657 22.8158 50.2428 22.8929 50.3221 22.9722Z" fill="#FFF4DA"/>
<path d="M50.3221 22.9722C56.7396 29.3897 56.7396 39.7964 50.3221 46.2136C44.6248 51.9108 35.7817 52.5496 29.3776 48.1301L33.3733 43.2328L36.1304 39.8508L36.6217 39.2457L37.8156 37.7846L39.0253 36.2986L40.4524 34.55L40.7515 34.1828L41.8139 32.8803L43.7754 30.4746L44.6274 29.4328L50.0842 22.7434C50.1657 22.8158 50.2428 22.8929 50.3221 22.9722Z" stroke="#4C0D00" stroke-width="1.33333"/>
<path d="M44.8901 29.1745C45.2457 29.4349 45.5379 29.7908 45.7262 30.2232C46.3081 31.5531 45.7034 33.1047 44.3759 33.6892C44.2626 33.7391 44.1449 33.7797 44.0272 33.8116C44.0927 33.9133 44.1492 34.0198 44.1992 34.1331C44.7814 35.4627 44.1767 37.0147 42.8468 37.5966C42.3985 37.7914 41.927 37.8551 41.474 37.8004C41.721 38.6861 41.4968 39.6761 40.8013 40.3717C40.047 41.126 38.9506 41.3255 38.0149 40.9742C37.8903 41.2393 37.7162 41.4906 37.4964 41.7104C36.6266 42.5802 35.2992 42.7116 34.2889 42.1091L36.1305 39.8507L36.6219 39.2459L37.8157 37.7849L39.0252 36.2988L40.4526 34.5499L40.7516 34.1831L41.814 32.8806L43.7755 30.4748L44.6272 29.4327L44.9082 29.0883C44.906 29.118 44.897 29.1452 44.8901 29.1745Z" fill="#FFF4DA"/>
<path d="M44.8901 29.1745C45.2457 29.4349 45.5379 29.7908 45.7262 30.2232C46.3081 31.5531 45.7034 33.1047 44.3759 33.6892C44.2626 33.7391 44.1449 33.7797 44.0272 33.8116C44.0927 33.9133 44.1492 34.0198 44.1992 34.1331C44.7814 35.4627 44.1767 37.0147 42.8468 37.5966C42.3985 37.7914 41.927 37.8551 41.474 37.8004C41.721 38.6861 41.4968 39.6761 40.8013 40.3717C40.047 41.126 38.9506 41.3255 38.0149 40.9742C37.8903 41.2393 37.7162 41.4906 37.4964 41.7104C36.6266 42.5802 35.2992 42.7116 34.2889 42.1091L36.1305 39.8507L36.6219 39.2459L37.8157 37.7849L39.0252 36.2988L40.4526 34.5499L40.7516 34.1831L41.814 32.8806L43.7755 30.4748L44.6272 29.4327L44.9082 29.0883C44.906 29.118 44.897 29.1452 44.8901 29.1745Z" stroke="#4C0D00" stroke-width="1.33333"/>
<path d="M52.694 19.545L50.0843 22.7434L52.694 19.545Z" fill="#FFF4DA"/>
<path d="M52.694 19.545L50.0843 22.7434" stroke="#4C0D00" stroke-width="1.33333"/>
<path d="M29.3776 48.1301L26.7727 51.3242L29.3776 48.1301Z" fill="#FFF4DA"/>
<path d="M29.3776 48.1301L26.7727 51.3242" stroke="#4C0D00" stroke-width="1.33333"/>
<path d="M44.8901 29.1745C45.2457 29.4349 45.5379 29.7908 45.7262 30.2232C46.3081 31.5531 45.7034 33.1047 44.3759 33.6892C44.2626 33.7391 44.1449 33.7797 44.0272 33.8116C44.0927 33.9133 44.1492 34.0198 44.1992 34.1331C44.7814 35.4627 44.1767 37.0147 42.8468 37.5966C42.3985 37.7914 41.927 37.8551 41.474 37.8004C41.721 38.6861 41.4968 39.6761 40.8013 40.3717C40.047 41.126 38.9506 41.3255 38.0149 40.9742C37.8903 41.2393 37.7162 41.4906 37.4964 41.7104C36.6266 42.5802 35.2992 42.7116 34.2889 42.1091L36.1305 39.8507L36.6219 39.2459L37.8157 37.7849L39.0252 36.2988L40.4526 34.5499L40.7516 34.1831L41.814 32.8806L43.7755 30.4748L44.6272 29.4327L44.9082 29.0883C44.906 29.118 44.897 29.1452 44.8901 29.1745Z" fill="#FFF4DA"/>
<path d="M44.8901 29.1745C45.2457 29.4349 45.5379 29.7908 45.7262 30.2232C46.3081 31.5531 45.7034 33.1047 44.3759 33.6892C44.2626 33.7391 44.1449 33.7797 44.0272 33.8116C44.0927 33.9133 44.1492 34.0198 44.1992 34.1331C44.7814 35.4627 44.1767 37.0147 42.8468 37.5966C42.3985 37.7914 41.927 37.8551 41.474 37.8004C41.721 38.6861 41.4968 39.6761 40.8013 40.3717C40.047 41.126 38.9506 41.3255 38.0149 40.9742C37.8903 41.2393 37.7162 41.4906 37.4964 41.7104C36.6266 42.5802 35.2992 42.7116 34.2889 42.1091L36.1305 39.8507L36.6219 39.2459L37.8157 37.7849L39.0252 36.2988L40.4526 34.5499L40.7516 34.1831L41.814 32.8806L43.7755 30.4748L44.6272 29.4327L44.9082 29.0883C44.906 29.118 44.897 29.1452 44.8901 29.1745Z" stroke="#4C0D00" stroke-width="1.33333"/>
<path d="M53.2306 20.0636C61.254 28.087 61.2519 41.0965 53.2285 49.1199C46.0227 56.3257 34.7983 57.0618 26.7724 51.324L29.3777 48.1299C35.7814 52.5497 44.625 51.9106 50.3223 46.2137C56.7394 39.7962 56.7394 29.3895 50.3223 22.972C50.243 22.8931 50.1658 22.8159 50.0844 22.7435L52.6937 19.5447C52.8751 19.7124 53.0539 19.8869 53.2306 20.0636Z" fill="#FFF4DA"/>
<path d="M53.2306 20.0636C61.254 28.087 61.2519 41.0965 53.2285 49.1199C46.0227 56.3257 34.7983 57.0618 26.7724 51.324L29.3777 48.1299C35.7814 52.5497 44.625 51.9106 50.3223 46.2137C56.7394 39.7962 56.7394 29.3895 50.3223 22.972C50.243 22.8931 50.1658 22.8159 50.0844 22.7435L52.6937 19.5447C52.8751 19.7124 53.0539 19.8869 53.2306 20.0636Z" stroke="#4C0D00" stroke-width="1.33333"/>
<path d="M48.7327 40.1712C48.1099 39.8073 46.4504 38.1597 46.8147 37.5369C47.1786 36.9141 49.4283 37.5518 50.0511 37.9157C50.6739 38.2799 50.8836 39.0798 50.5197 39.7026C50.1554 40.3254 49.3555 40.5351 48.7327 40.1712Z" fill="#FFF4DA"/>
<path d="M48.7327 40.1712C48.1099 39.8073 46.4504 38.1597 46.8147 37.5369C47.1786 36.9141 49.4283 37.5518 50.0511 37.9157C50.6739 38.2799 50.8836 39.0798 50.5197 39.7026C50.1554 40.3254 49.3555 40.5351 48.7327 40.1712Z" stroke="#4C0D00" stroke-width="1.33333"/>
<path d="M51.1818 33.0526C50.5923 33.1185 48.6884 32.8473 48.6225 32.2578C48.5566 31.6683 50.3533 30.9832 50.9432 30.9173C51.5327 30.8514 52.0642 31.2761 52.1301 31.8656C52.196 32.4551 51.7713 32.9867 51.1818 33.0526Z" fill="#FFF4DA"/>
<path d="M51.1818 33.0526C50.5923 33.1185 48.6884 32.8473 48.6225 32.2578C48.5566 31.6683 50.3533 30.9832 50.9432 30.9173C51.5327 30.8514 52.0642 31.2761 52.1301 31.8656C52.196 32.4551 51.7713 32.9867 51.1818 33.0526Z" stroke="#4C0D00" stroke-width="1.33333"/>
<path d="M43.0682 46.3872C42.726 45.7521 42.167 43.4817 42.8021 43.1396C43.4372 42.7974 45.0257 44.513 45.3683 45.1481C45.7105 45.7832 45.4729 46.5755 44.8378 46.9177C44.2027 47.2599 43.4104 47.0223 43.0682 46.3872Z" fill="#FFF4DA"/>
<path d="M43.0682 46.3872C42.726 45.7521 42.167 43.4817 42.8021 43.1396C43.4372 42.7974 45.0257 44.513 45.3683 45.1481C45.7105 45.7832 45.4729 46.5755 44.8378 46.9177C44.2027 47.2599 43.4104 47.0223 43.0682 46.3872Z" stroke="#4C0D00" stroke-width="1.33333"/>
<path d="M36.6183 46.8431C36.7107 46.2953 37.4443 44.6506 37.9921 44.743C38.54 44.8353 38.6946 46.6291 38.6023 47.177C38.5099 47.7252 37.991 48.0945 37.4432 48.0022C36.8953 47.9099 36.526 47.391 36.6183 46.8431Z" fill="#FFF4DA"/>
<path d="M36.6183 46.8431C36.7107 46.2953 37.4443 44.6506 37.9921 44.743C38.54 44.8353 38.6946 46.6291 38.6023 47.177C38.5099 47.7252 37.991 48.0945 37.4432 48.0022C36.8953 47.9099 36.526 47.391 36.6183 46.8431Z" stroke="#4C0D00" stroke-width="1.33333"/>
<path d="M13.6878 59.1392C9.90931 48.0163 16.5216 40.8141 22.5129 44.5926C28.5046 48.3708 28.2887 40.8141 33.2006 41.3536C38.1125 41.8935 37.3568 46.5078 40.7573 46.2518C44.1581 45.9958 44.8599 41.2982 48.3143 41.3261C51.7687 41.3536 51.1209 45.2401 58.138 45.1321C65.1552 45.0242 55.8713 72.1208 55.8713 72.1208L13.6878 59.1392Z" fill="#FFF4DA"/>
<path d="M13.6878 59.1392C9.90931 48.0163 16.5216 40.8141 22.5129 44.5926C28.5046 48.3708 28.2887 40.8141 33.2006 41.3536C38.1125 41.8935 37.3568 46.5078 40.7573 46.2518C44.1581 45.9958 44.8599 41.2982 48.3143 41.3261C51.7687 41.3536 51.1209 45.2401 58.138 45.1321C65.1552 45.0242 55.8713 72.1208 55.8713 72.1208L13.6878 59.1392Z" stroke="#4C0D00" stroke-width="1.33333"/>
<path d="M66.3394 125.486V166.403H1.56714L1.57475 125.486L1.58886 45.7878C2.16822 53.6092 16.4349 59.8662 33.9537 59.8662C40.6594 59.8662 46.8947 58.9465 52.0586 57.375C38.045 61.923 18.8682 66.8041 19.7011 98.7267V125.486H66.3394Z" fill="#FFF4DA"/>
<path d="M66.3394 125.486V166.403H1.56714L1.57475 125.486L1.58886 45.7878C2.16822 53.6092 16.4349 59.8662 33.9537 59.8662C40.6594 59.8662 46.8947 58.9465 52.0586 57.375C38.045 61.923 18.8682 66.8041 19.7011 98.7267V125.486H66.3394Z" stroke="#4C0D00" stroke-width="1.33333"/>
<path d="M66.3394 166.403H1.56714C7.80502 159.189 19.9683 154.289 33.9504 154.289C47.9383 154.289 60.1016 159.189 66.3394 166.403Z" fill="#FFF4DA"/>
<path d="M66.3394 166.403H1.56714C7.80502 159.189 19.9683 154.289 33.9504 154.289C47.9383 154.289 60.1016 159.189 66.3394 166.403Z" stroke="#4C0D00" stroke-width="1.33333" stroke-linecap="round" stroke-linejoin="round"/>
<path d="M19.074 58.7684V65.1851C19.074 66.3638 18.1185 67.3194 16.9398 67.3194C15.7615 67.3194 14.806 66.3638 14.806 65.1851V60.6328C14.806 60.1165 14.3841 59.6993 13.8674 59.7051C13.359 59.7106 12.9498 60.1244 12.9498 60.6328V92.2825C12.9498 93.5353 11.9342 94.551 10.6813 94.551C9.42807 94.551 8.41238 93.5353 8.41238 92.2825V57.1694C8.41238 55.0547 10.4695 53.5513 12.4845 54.1929L16.8985 55.7919C18.1945 56.2051 19.074 57.4087 19.074 58.7684Z" fill="#FFF4DA"/>
<path d="M19.074 58.7684V65.1851C19.074 66.3638 18.1184 67.3194 16.9398 67.3194C15.7615 67.3194 14.806 66.3638 14.806 65.1851V60.6328C14.806 60.1165 14.3841 59.6993 13.8674 59.7051C13.359 59.7106 12.9498 60.1244 12.9498 60.6328V92.2825C12.9498 93.5353 11.9342 94.551 10.6813 94.551C9.42807 94.551 8.41238 93.5353 8.41238 92.2825V57.1694C8.41238 55.0547 10.4695 53.5513 12.4845 54.1929L16.8985 55.7919C18.1945 56.2051 19.074 57.4087 19.074 58.7684Z" stroke="#4C0D00" stroke-width="1.33333"/>
<path d="M66.3396 45.2881V166.403C57.7926 162.764 35.9233 159.677 35.9233 159.677C26.4471 157.582 19.7012 149.182 19.7012 139.477V98.7267C18.8684 66.8041 38.0452 61.923 52.0588 57.375C52.3481 57.2881 52.6309 57.2012 52.913 57.0998C53.2461 56.9912 53.5792 56.8825 53.8982 56.7667C53.9272 56.7594 53.9558 56.7522 53.9848 56.7377C60.6619 54.4782 65.782 51.9942 66.2962 46.0413C66.3106 45.9399 66.3179 45.8385 66.3251 45.7371C66.3324 45.5923 66.3396 45.4402 66.3396 45.2881Z" fill="#FFF4DA"/>
<path d="M66.3396 45.2881V166.403C57.7926 162.764 35.9233 159.677 35.9233 159.677C26.4471 157.582 19.7012 149.182 19.7012 139.477V98.7267C18.8684 66.8041 38.0452 61.923 52.0588 57.375C52.3481 57.2881 52.6309 57.2012 52.913 57.0998C53.2461 56.9912 53.5792 56.8825 53.8982 56.7667C53.9272 56.7594 53.9558 56.7522 53.9848 56.7377C60.6619 54.4782 65.782 51.9942 66.2962 46.0413C66.3106 45.9399 66.3179 45.8385 66.3251 45.7371C66.3324 45.5923 66.3396 45.4402 66.3396 45.2881Z" stroke="#4C0D00" stroke-width="1.33333"/>
<path d="M32.1748 106.147C32.1748 106.147 40.3525 102.368 46.263 95.6477L32.1748 106.147Z" fill="white"/>
<path d="M32.1748 106.147C32.1748 106.147 40.3525 102.368 46.263 95.6477" stroke="#4C0D00" stroke-width="1.33333"/>
<path d="M35.0896 114.917C35.0896 114.917 41.6479 112.65 44.4817 109.898L35.0896 114.917Z" fill="white"/>
<path d="M35.0896 114.917C35.0896 114.917 41.6479 112.65 44.4817 109.898" stroke="#4C0D00" stroke-width="1.33333"/>
</svg>
