<svg width="168" height="124" viewBox="0 0 168 124" fill="none" xmlns="http://www.w3.org/2000/svg">
<path d="M140.824 1.82906V122.454H1.6095L122.234 1.82906H140.824Z" fill="#4C0D00"/>
<path fill-rule="evenodd" clip-rule="evenodd" d="M0 123.121H141.491V1.16224H121.958L0 123.121ZM3.21894 121.787L122.51 2.49557H140.157V121.787H3.21894Z" fill="#FF6D2F"/>
<path d="M154.59 1.82906V122.454H15.3755L136 1.82906H154.59Z" fill="white"/>
<path fill-rule="evenodd" clip-rule="evenodd" d="M13.766 123.121H155.257V1.16248H135.724L13.766 123.121ZM16.9849 121.788L136.276 2.49582H153.923V121.788H16.9849Z" fill="#4C0D00"/>
<path d="M71.2168 68.2055C69.4042 58.8119 73.2609 46.8344 85.1258 49.0168C85.1258 49.0168 78.4023 43.4209 82.7526 38.4113C87.1032 33.4016 94.0903 42.3661 94.0903 42.3661C94.0903 42.3661 90.4649 27.0077 104.637 27.3372C104.637 27.3372 97.5784 22.4199 101.143 17.9114C105.626 12.2424 113.371 12.704 118.216 16.3623C118.216 16.3623 117.705 11.3357 123.505 8.69923C129.306 6.06242 139.836 10.5945 139.836 10.5945C139.836 10.5945 170.026 62.4047 144.978 82.7072C119.93 103.009 71.2168 68.2055 71.2168 68.2055Z" fill="#FFF4DA"/>
<path fill-rule="evenodd" clip-rule="evenodd" d="M122.852 89.672C131.049 90.0853 138.97 88.4349 145.398 83.225C151.836 78.0062 154.702 70.7726 155.406 62.9339C156.108 55.1076 154.661 46.6392 152.441 38.8545C150.22 31.0634 147.214 23.9174 144.765 18.7227C143.54 16.1241 142.454 14.0111 141.673 12.5465C141.282 11.8142 140.968 11.2438 140.751 10.8557C140.643 10.6617 140.558 10.5132 140.501 10.4129C140.472 10.3627 140.45 10.3245 140.436 10.2987L140.419 10.2693L140.413 10.2596C140.413 10.259 140.412 10.2587 139.836 10.5943C140.1 9.98196 140.1 9.98189 140.1 9.9818L140.097 9.98071L140.09 9.97783L140.065 9.96732C140.044 9.95823 140.013 9.94508 139.972 9.9282C139.89 9.89444 139.771 9.84578 139.618 9.78509C139.313 9.66373 138.871 9.49415 138.324 9.29933C137.23 8.91006 135.709 8.41823 134.001 8.00954C132.296 7.6014 130.388 7.27234 128.524 7.21645C126.667 7.16074 124.808 7.37481 123.229 8.09218C120.157 9.48846 118.717 11.5447 118.061 13.2844C117.8 13.9793 117.666 14.6166 117.599 15.1317C112.525 11.9749 105.08 11.857 100.62 17.4978C99.6117 18.7732 99.3392 20.1116 99.5255 21.3827C99.7077 22.6268 100.322 23.7666 101.016 24.7099C101.602 25.5059 102.265 26.191 102.835 26.716C100.105 26.9267 98.0708 27.7802 96.5804 29.0366C94.7834 30.5515 93.8525 32.5885 93.399 34.5799C92.9459 36.5692 92.9591 38.5528 93.0807 40.0262C93.0873 40.106 93.0942 40.1843 93.1014 40.2611C92.3926 39.5408 91.4715 38.6945 90.437 37.9651C89.2525 37.13 87.8609 36.4063 86.4306 36.2528C84.9531 36.0942 83.4839 36.5522 82.2491 37.974C81.0554 39.3487 80.6004 40.7964 80.6214 42.1918C80.6422 43.5684 81.1249 44.8476 81.7264 45.9189C82.2107 46.7814 82.7843 47.5312 83.2944 48.1177C81.0447 47.9775 79.0819 48.365 77.403 49.1725C75.2581 50.2041 73.6277 51.8967 72.4629 53.9399C70.1444 58.0074 69.6338 63.5211 70.5621 68.3317L70.6126 68.5931L70.8292 68.7478L71.2167 68.2054C70.8292 68.7478 70.8295 68.7481 70.83 68.7484L70.8392 68.755L70.8668 68.7746C70.8911 68.7918 70.927 68.8171 70.9742 68.8503C71.0687 68.9166 71.2086 69.0142 71.3918 69.1403C71.758 69.3926 72.2971 69.759 72.9914 70.2175C74.3799 71.1345 76.3896 72.4205 78.879 73.8994C83.8559 76.8562 90.7593 80.5898 98.4552 83.688C106.146 86.7842 114.66 89.259 122.852 89.672ZM71.8223 67.8164C71.007 63.2995 71.5389 58.2533 73.6213 54.6002C74.6773 52.7477 76.1224 51.268 77.981 50.374C79.8368 49.4814 82.1559 49.1483 85.0051 49.6723L87.509 50.1329L85.5526 48.5046L85.5504 48.5028L85.5392 48.4933C85.5329 48.4879 85.5243 48.4805 85.5137 48.4713C85.5068 48.4654 85.4991 48.4586 85.4905 48.4511C85.4468 48.4129 85.3815 48.3546 85.2989 48.2779C85.1334 48.1243 84.8993 47.8974 84.6306 47.6093C84.0907 47.0305 83.4232 46.2175 82.889 45.2661C82.3535 44.3123 81.971 43.2532 81.9546 42.1716C81.9386 41.1088 82.2744 39.9784 83.2559 38.8483C84.1964 37.7653 85.2321 37.4652 86.2883 37.5785C87.3917 37.6969 88.5626 38.275 89.6687 39.0548C90.765 39.8278 91.7407 40.758 92.4468 41.5024C92.7985 41.8731 93.0801 42.1943 93.273 42.4217C93.3694 42.5354 93.4434 42.6255 93.4928 42.6864C93.5175 42.7168 93.536 42.74 93.548 42.7551L93.5612 42.7717L93.564 42.7754M93.564 42.7754L95.4399 45.1822L94.7391 42.2132L94.7389 42.2123L94.7375 42.2062L94.7311 42.1779C94.7254 42.152 94.7168 42.1122 94.706 42.0594C94.6843 41.9538 94.6536 41.7964 94.6193 41.5947C94.5505 41.191 94.4669 40.6117 94.4096 39.9165C94.2943 38.5205 94.287 36.6851 94.699 34.876C95.1106 33.069 95.9307 31.3282 97.4397 30.056C98.9416 28.7899 101.202 27.9241 104.621 28.0036L106.833 28.055L105.018 26.7903L105.016 26.7885L105.003 26.7799C104.992 26.7719 104.975 26.7594 104.951 26.7424C104.905 26.7083 104.835 26.6567 104.747 26.5888C104.571 26.4528 104.32 26.2521 104.029 25.9971C103.445 25.4846 102.711 24.7644 102.09 23.9198C101.465 23.0703 100.983 22.1353 100.845 21.1894C100.71 20.2705 100.892 19.3036 101.666 18.3248C105.862 13.0181 113.172 13.389 117.814 16.8942L119.034 17.8151L118.879 16.2974L118.879 16.2961L118.879 16.2948L118.879 16.293C118.878 16.2877 118.878 16.2779 118.877 16.2638C118.875 16.2355 118.873 16.1899 118.872 16.1287C118.869 16.0063 118.872 15.8224 118.891 15.591C118.93 15.1274 119.036 14.4789 119.309 13.7543C119.849 12.3215 121.053 10.5462 123.781 9.30601C125.103 8.70497 126.736 8.49675 128.484 8.54918C130.227 8.60145 132.039 8.91101 133.691 9.30627C135.341 9.70099 136.815 10.1774 137.877 10.5555C138.407 10.7443 138.834 10.9082 139.127 11.0244C139.223 11.0626 139.305 11.0957 139.371 11.1227C139.425 11.2172 139.497 11.3456 139.587 11.5066C139.8 11.8873 140.11 12.4499 140.496 13.1739C141.269 14.622 142.345 16.7152 143.559 19.2911C145.988 24.4453 148.964 31.5207 151.159 39.22C153.356 46.9257 154.76 55.2166 154.078 62.8148C153.397 70.4006 150.643 77.2567 144.558 82.1892C138.462 87.1304 130.901 88.7428 122.919 88.3404C114.932 87.9377 106.571 85.5181 98.9532 82.4511C91.3398 79.3862 84.4995 75.6876 79.56 72.7531C77.0912 71.2864 75.0995 70.0119 73.7262 69.1049C73.0396 68.6515 72.5076 68.2899 72.1481 68.0423C72.0159 67.9512 71.907 67.8756 71.8223 67.8164M139.836 10.5943L140.1 9.9818L140.302 10.0688L140.412 10.2587L139.836 10.5943Z" fill="#4C0D00"/>
<path d="M21.9571 118.743C7.77223 116.291 17.4957 91.0789 32.3924 96.7472C32.3924 96.7472 28.569 83.2344 34.7653 79.0818C40.9615 74.9289 44.2573 83.0367 44.2573 83.0367C44.2573 83.0367 43.4003 77.6975 48.7398 71.4354C54.0789 65.1732 59.1516 65.9239 65.1508 68.1685C65.1508 68.1685 67.9213 53.7696 84.3345 67.7441C94.4175 76.3288 66.6688 115.204 66.6688 115.204L21.9571 118.743Z" fill="#FFF4DA"/>
<path fill-rule="evenodd" clip-rule="evenodd" d="M21.9262 119.414L67.031 115.844L67.2114 115.591L66.6688 115.204C67.2114 115.591 67.2111 115.591 67.2114 115.591L67.2323 115.562L67.2924 115.477C67.3452 115.402 67.4231 115.292 67.5241 115.147C67.7261 114.859 68.0206 114.435 68.3916 113.893C69.1334 112.809 70.1812 111.252 71.4068 109.357C73.8569 105.569 77.0219 100.423 79.8728 95.0035C82.7193 89.5922 85.2727 83.8708 86.4757 78.9393C87.077 76.4741 87.351 74.1671 87.1331 72.1756C86.9143 70.1757 86.1927 68.4506 84.7667 67.2365C80.622 63.7076 77.2779 61.9159 74.5681 61.2666C71.8314 60.6109 69.7524 61.125 68.2147 62.1633C66.7019 63.1847 65.777 64.6693 65.2337 65.8603C64.9823 66.4113 64.8077 66.9104 64.6919 67.2903C61.9234 66.2992 59.2537 65.6413 56.6202 65.9497C53.7315 66.288 50.985 67.7744 48.2325 71.0028C45.4872 74.2225 44.3194 77.2249 43.8444 79.4448C43.7558 79.8585 43.6914 80.2445 43.6454 80.5991C43.2788 80.0769 42.8279 79.522 42.2924 79.0169C41.4308 78.2042 40.3184 77.4909 38.9609 77.2883C37.5886 77.0836 36.0559 77.4142 34.3942 78.528C32.6704 79.6832 31.6777 81.4687 31.1381 83.4158C30.5992 85.3603 30.4969 87.5164 30.5894 89.5026C30.682 91.4939 30.972 93.347 31.2377 94.6994C31.314 95.0877 31.3885 95.4356 31.4559 95.7345C27.9884 94.7521 24.8017 95.342 22.1498 96.8703C19.2198 98.5588 16.9629 101.378 15.6561 104.438C14.3518 107.493 13.9612 110.867 14.8745 113.68C15.8026 116.54 18.0579 118.745 21.8436 119.4L21.9262 119.414ZM33.034 96.5656L33.0319 96.5584L33.0246 96.532C33.0181 96.5081 33.0082 96.4717 32.9955 96.4236C32.97 96.3275 32.933 96.1843 32.8878 95.9999C32.7975 95.6308 32.6746 95.0968 32.546 94.4424C32.2885 93.1314 32.0099 91.3467 31.9212 89.4407C31.8323 87.5296 31.936 85.5289 32.423 83.7719C32.9092 82.0174 33.7621 80.5566 35.1365 79.6356C36.5728 78.6729 37.7757 78.4596 38.7641 78.6071C39.7672 78.7567 40.6406 79.2917 41.3775 79.9868C42.1143 80.6818 42.6827 81.5075 43.0698 82.1707C43.2621 82.5002 43.4066 82.7842 43.5023 82.9841C43.5501 83.084 43.5855 83.1625 43.6085 83.2148C43.62 83.2409 43.6284 83.2605 43.6336 83.2729L43.639 83.2859L43.6398 83.2877L45.8429 88.7073L44.9159 82.9331L44.9157 82.9316L44.9151 82.9276C44.9143 82.9214 44.9127 82.9102 44.9108 82.8941C44.9068 82.862 44.9012 82.8104 44.8954 82.7403C44.8839 82.6003 44.8721 82.3866 44.8735 82.108C44.8764 81.5506 44.9321 80.7334 45.1482 79.7238C45.5795 77.7085 46.6529 74.9103 49.2471 71.8679C51.8337 68.8341 54.2932 67.5647 56.7753 67.274C59.2938 66.979 61.9349 67.677 64.9172 68.7929L65.6564 69.0694L65.8053 68.2954L65.8055 68.2944L65.8063 68.2907L65.8112 68.2672C65.8159 68.2451 65.8236 68.2105 65.8345 68.1646C65.8564 68.0728 65.8912 67.9362 65.9415 67.7652C66.0424 67.4225 66.2043 66.9452 66.4467 66.4137C66.9358 65.3416 67.7293 64.0999 68.9608 63.2684C70.1673 62.4537 71.8584 61.9884 74.2574 62.5632C76.6833 63.1445 79.8404 64.7933 83.9023 68.2517C84.9971 69.1838 85.6141 70.5513 85.8077 72.3206C86.0022 74.0982 85.7625 76.2368 85.1804 78.6233C84.0163 83.3953 81.5231 89.0023 78.6928 94.3828C75.8669 99.7549 72.7248 104.864 70.2872 108.633C69.0688 110.517 68.0276 112.064 67.2913 113.14C66.9232 113.678 66.6313 114.098 66.4318 114.383C66.3841 114.451 66.3417 114.511 66.3048 114.564L21.9893 118.072C18.7335 117.484 16.909 115.63 16.1427 113.269C15.3551 110.842 15.6668 107.808 16.8823 104.962C18.0953 102.121 20.1759 99.5467 22.8155 98.0255C25.4366 96.515 28.6287 96.0283 32.1554 97.3702L33.3951 97.8419L33.034 96.5656Z" fill="#4C0D00"/>
<path d="M25.0373 114.479C25.0949 114.421 25.1528 114.363 25.2107 114.312L24.8707 114.653C24.9214 114.595 24.9794 114.537 25.0373 114.479Z" fill="white"/>
<path d="M39.9628 99.5532C40.0208 99.4953 40.0787 99.4374 40.1366 99.3867L39.7963 99.7271C39.847 99.6691 39.9049 99.6112 39.9628 99.5532Z" fill="white"/>
<path d="M47.4294 92.0869C47.4873 92.029 47.5449 91.9711 47.6028 91.9204L47.2628 92.2607C47.3135 92.2028 47.3714 92.1449 47.4294 92.0869Z" fill="white"/>
<path d="M54.8958 84.6204C54.9537 84.5624 55.0117 84.5045 55.0693 84.4538L54.7292 84.7942C54.7799 84.7363 54.8379 84.6783 54.8958 84.6204Z" fill="white"/>
<path d="M62.3624 77.1538C62.4199 77.0959 62.4779 77.038 62.5358 76.9873L62.1958 77.3276C62.2465 77.2697 62.3044 77.2118 62.3624 77.1538Z" fill="white"/>
<path d="M77.2952 62.221C77.3532 62.163 77.4111 62.1051 77.469 62.0544L77.1287 62.3948C77.1797 62.3368 77.2373 62.2789 77.2952 62.221Z" fill="white"/>
<path d="M84.7617 54.7544C84.8196 54.6965 84.8775 54.6385 84.9355 54.5878L84.5951 54.9282C84.6461 54.8703 84.7041 54.8124 84.7617 54.7544Z" fill="white"/>
<path d="M99.6949 39.8213C99.7528 39.7634 99.8108 39.7054 99.8683 39.6547L99.5283 39.9951C99.579 39.9372 99.637 39.8792 99.6949 39.8213Z" fill="white"/>
<path d="M107.161 32.355C107.219 32.2971 107.277 32.2391 107.335 32.1884L106.995 32.5288C107.046 32.4709 107.104 32.4129 107.161 32.355Z" fill="white"/>
<path d="M114.635 24.8814C114.693 24.8234 114.751 24.7655 114.809 24.7148L114.468 25.0552C114.519 24.9972 114.577 24.9393 114.635 24.8814Z" fill="white"/>
<path d="M161.121 2.4602V122.453L17.5776 121.946C17.6356 121.888 17.6935 121.83 17.7514 121.779C19.504 120.135 20.5255 121.04 22.3284 119.237C24.1389 117.427 23.2268 116.413 24.8707 114.653L25.2107 114.313C26.9705 112.676 27.9844 113.581 29.7949 111.771C31.6054 109.967 30.6932 108.946 32.3368 107.194C32.3875 107.136 32.4458 107.078 32.5037 107.02C32.5617 106.962 32.6192 106.904 32.6772 106.853C34.4297 105.209 35.4509 106.115 37.2541 104.311C39.0646 102.501 38.1594 101.487 39.7961 99.7273L40.1368 99.3869C41.8962 97.743 42.9101 98.6555 44.7206 96.845C46.5311 95.0345 45.6186 94.0206 47.2629 92.2608L47.6029 91.9204C49.3627 90.2837 50.3766 91.189 52.1871 89.3785C53.9976 87.5752 53.0855 86.5541 54.7294 84.7943L55.0694 84.4539C56.8292 82.8173 57.8431 83.7225 59.6536 81.912C61.4572 80.1088 60.5519 79.0876 62.1959 77.3278L62.5359 76.9875C64.296 75.3508 65.3096 76.256 67.1201 74.4455C68.9237 72.6423 68.0184 71.6211 69.662 69.8686C69.7131 69.8106 69.771 69.7527 69.8289 69.6948C69.8865 69.6368 69.9444 69.5789 70.0024 69.5282C71.7625 67.8843 72.7761 68.7895 74.5865 66.979C76.397 65.1758 75.4845 64.1547 77.1285 62.3949L77.4689 62.0545C79.2287 60.4178 80.2429 61.323 82.0534 59.5125C83.8639 57.7021 82.951 56.6882 84.595 54.9284L84.9357 54.588C86.6955 52.9441 87.7094 53.8566 89.5199 52.0461C91.3304 50.2356 90.4251 49.2217 92.0691 47.4619C92.1194 47.404 92.1777 47.346 92.2356 47.2881C92.2932 47.2301 92.3511 47.1722 92.4091 47.1215C94.1616 45.4776 95.1827 46.3901 96.9864 44.5796C98.7969 42.7691 97.8916 41.7552 99.5279 39.9954L99.8683 39.655C101.628 38.0111 102.642 38.9236 104.452 37.1131C106.263 35.3026 105.358 34.2887 106.994 32.5289L107.335 32.1885C109.095 30.5446 110.116 31.4571 111.927 29.6466C113.729 27.8361 112.824 26.815 114.468 25.0552L114.809 24.7148C116.569 23.0709 117.583 23.9834 119.393 22.1729C121.204 20.3624 120.298 19.3485 121.942 17.5887C121.993 17.5308 122.051 17.4728 122.109 17.4149C122.166 17.3569 122.224 17.299 122.282 17.2483C124.042 15.6044 125.056 16.5096 126.866 14.6991C128.677 12.8886 127.765 11.8748 129.416 10.115C129.466 10.057 129.524 9.9991 129.582 9.94116C129.64 9.88323 129.698 9.82529 129.756 9.7746C131.516 8.13067 132.53 9.03592 134.34 7.22542C136.158 5.40768 135.245 4.39381 136.897 2.634C136.947 2.57607 137.005 2.51813 137.064 2.4602H161.121Z" fill="#FFF4DA"/>
<path fill-rule="evenodd" clip-rule="evenodd" d="M161.788 123.122V1.79346H136.789L136.594 1.98725C136.54 2.04053 136.469 2.1111 136.403 2.18649C135.5 3.15163 135.266 3.95081 135.061 4.65355C135.054 4.6759 135.048 4.69814 135.041 4.7203C134.851 5.36996 134.666 5.95708 133.869 6.7539C133.076 7.54716 132.49 7.7322 131.841 7.92275C131.819 7.92939 131.796 7.93604 131.773 7.94271C131.072 8.148 130.273 8.3818 129.309 9.28053C129.235 9.346 129.164 9.41699 129.112 9.46822L129.111 9.46969C129.058 9.52213 128.988 9.59238 128.922 9.66665C128.018 10.6332 127.785 11.4332 127.58 12.1362L127.561 12.2009C127.371 12.8501 127.188 13.4349 126.395 14.2277C125.602 15.0209 125.016 15.2059 124.368 15.3965C124.345 15.4031 124.322 15.4098 124.299 15.4165C123.598 15.6217 122.8 15.8555 121.835 16.754C121.76 16.8202 121.69 16.891 121.636 16.9449C121.585 16.9954 121.514 17.0667 121.447 17.1417C120.549 18.1062 120.316 18.9046 120.11 19.6057C120.104 19.6285 120.097 19.6512 120.091 19.6739C119.9 20.3227 119.715 20.9081 118.922 21.7014C118.129 22.4941 117.544 22.6774 116.896 22.8661C116.873 22.8727 116.851 22.8792 116.828 22.8858C116.124 23.0899 115.323 23.3225 114.354 24.2276L114.346 24.2352L113.989 24.5916L113.981 24.6C113.075 25.57 112.841 26.374 112.636 27.0801C112.63 27.1019 112.623 27.1236 112.617 27.1452C112.427 27.7969 112.243 28.3835 111.454 29.1761C111.454 29.1761 111.454 29.1761 111.454 29.1761M91.9609 46.6279C92.9231 45.7281 93.7229 45.4961 94.4244 45.2926C94.4471 45.286 94.4698 45.2794 94.4923 45.2728C95.141 45.084 95.7252 44.9009 96.5141 44.109L96.515 44.1081C97.3082 43.3149 97.4932 42.7295 97.6826 42.0814C97.6896 42.0575 97.6965 42.0336 97.7036 42.0096C97.9079 41.3082 98.1409 40.5081 99.0398 39.5414L99.048 39.5325L99.405 39.1755L99.4133 39.1678C100.382 38.2628 101.184 38.0302 101.887 37.8261C101.91 37.8195 101.933 37.8129 101.955 37.8064C102.604 37.6176 103.188 37.4343 103.981 36.6416C104.774 35.8484 104.959 35.263 105.149 34.6148C105.156 34.5911 105.163 34.5672 105.17 34.5433C105.374 33.8418 105.607 33.0416 106.506 32.0748L106.515 32.0659L106.872 31.709L106.88 31.7013C107.849 30.7961 108.653 30.5635 109.358 30.3595C109.381 30.3529 109.403 30.3463 109.426 30.3397C110.076 30.1509 110.662 29.9676 111.454 29.1761M91.9609 46.6279C91.8862 46.6939 91.8162 46.7644 91.7628 46.8181C91.7122 46.8686 91.6403 46.9399 91.5743 47.0149C90.6762 47.9793 90.4425 48.7778 90.2373 49.4789C90.2306 49.5017 90.224 49.5244 90.2173 49.5471C90.0268 50.1959 89.8418 50.7813 89.0485 51.5746C88.2558 52.3673 87.6711 52.5505 87.0225 52.7393C87 52.7459 86.9773 52.7524 86.9546 52.759C86.2512 52.9631 85.4495 53.1957 84.4807 54.1008L84.4725 54.1084L84.1157 54.4648L84.1078 54.4732C83.2028 55.442 82.9703 56.2438 82.7663 56.9472C82.7597 56.97 82.7531 56.9926 82.7466 57.0151C82.5579 57.6637 82.3747 58.2484 81.582 59.0411C80.7888 59.8343 80.2034 60.0192 79.5551 60.2087C79.5314 60.2157 79.5075 60.2226 79.4835 60.2296C78.7819 60.434 77.9817 60.6671 77.0149 61.5662L77.006 61.5745L76.6491 61.9314L76.6414 61.9397C75.7366 62.9083 75.5038 63.7117 75.2999 64.4155C75.2932 64.4386 75.2865 64.4616 75.2799 64.4845C75.0911 65.1339 74.908 65.7179 74.1161 66.5066L74.1152 66.5075C73.3219 67.3008 72.7366 67.4858 72.0878 67.6764C72.0652 67.683 72.0424 67.6897 72.0196 67.6963C71.3183 67.9016 70.5197 68.1354 69.5548 69.034C69.4803 69.0999 69.4102 69.1703 69.3567 69.2242C69.3039 69.2769 69.2342 69.3464 69.1691 69.4196C68.2683 70.3828 68.0351 71.183 67.8303 71.8855C67.8239 71.9074 67.8176 71.9292 67.8112 71.9509C67.6213 72.6005 67.4378 73.1851 66.6488 73.974C65.8555 74.7672 65.2702 74.9522 64.6221 75.1417C64.5983 75.1487 64.5744 75.1556 64.5504 75.1626C63.849 75.367 63.0489 75.6001 62.082 76.4992L62.073 76.5075L61.7164 76.8645L61.7088 76.8727C60.8032 77.842 60.5692 78.6456 60.364 79.3504C60.3576 79.3726 60.3511 79.3947 60.3447 79.4166C60.1548 80.0671 59.9713 80.6516 59.1823 81.4405C58.389 82.2337 57.8037 82.4187 57.1554 82.6082C57.1317 82.6151 57.1078 82.6221 57.0838 82.6291C56.3823 82.8335 55.5822 83.0666 54.6154 83.9657L54.6065 83.974L54.2499 84.331L54.2423 84.3391C53.3375 85.3077 53.1046 86.1111 52.9006 86.8149C52.8939 86.838 52.8873 86.861 52.8806 86.8839C52.6917 87.5333 52.5086 88.1173 51.7167 88.9061L51.7157 88.907C50.9225 89.7002 50.3372 89.8852 49.689 90.0747C49.6652 90.0816 49.6414 90.0886 49.6174 90.0956C48.9159 90.2999 48.1157 90.533 47.1489 91.4322L47.14 91.4405L46.7834 91.7974L46.7758 91.8056C45.8706 92.7745 45.6379 93.5762 45.4337 94.2797C45.4271 94.3024 45.4206 94.325 45.414 94.3474C45.2252 94.996 45.042 95.5808 44.2493 96.3735C43.4565 97.1662 42.8718 97.3495 42.2233 97.5382C42.2008 97.5448 42.1781 97.5513 42.1554 97.5579C41.452 97.762 40.6504 97.9946 39.6817 98.8997L39.6736 98.9073L39.3163 99.2642L39.3079 99.2732C38.4088 100.24 38.1757 101.04 37.9713 101.742C37.9643 101.766 37.9574 101.789 37.9504 101.813C37.7609 102.461 37.576 103.047 36.7828 103.84C35.9939 104.629 35.4093 104.812 34.7596 105.002C34.738 105.009 34.7163 105.015 34.6946 105.021C33.9921 105.226 33.192 105.459 32.229 106.36C32.1596 106.421 32.0936 106.487 32.0437 106.537L32.0324 106.548C32.0287 106.552 32.0249 106.556 32.0211 106.56C31.9711 106.61 31.9047 106.676 31.8433 106.745C30.9438 107.708 30.7117 108.507 30.5082 109.209C30.5016 109.231 30.495 109.254 30.4884 109.277C30.2996 109.925 30.1164 110.51 29.3245 111.298L29.3235 111.299C28.5303 112.092 27.945 112.277 27.2968 112.467C27.273 112.474 27.2491 112.481 27.2252 112.488C26.5236 112.692 25.7235 112.925 24.7567 113.824L24.7478 113.833L24.3912 114.19L24.3836 114.198C23.4786 115.167 23.2459 115.968 23.0417 116.672C23.0351 116.694 23.0285 116.717 23.022 116.74C22.8331 117.388 22.6498 117.973 21.857 118.766C21.0683 119.555 20.4838 119.738 19.834 119.928C19.8124 119.934 19.7907 119.941 19.7689 119.947C19.0664 120.152 18.2663 120.385 17.3033 121.285C17.2318 121.349 17.164 121.416 17.1123 121.468C17.1103 121.47 17.1083 121.472 17.1063 121.474L15.9739 122.607L161.788 123.122M19.9375 121.287C20.0065 121.267 20.0763 121.246 20.1473 121.225C20.1675 121.22 20.1878 121.214 20.2082 121.208C20.958 120.988 21.7857 120.723 22.7998 119.709C23.8176 118.691 24.0835 117.863 24.3021 117.112C24.3084 117.091 24.3146 117.07 24.3207 117.048C24.5093 116.399 24.6695 115.848 25.3505 115.116L25.6735 114.793C26.404 114.116 26.955 113.955 27.6038 113.766C27.626 113.76 27.6484 113.753 27.6709 113.747C28.4222 113.527 29.2491 113.259 30.2663 112.242C31.2841 111.228 31.55 110.4 31.7686 109.65C31.7748 109.628 31.781 109.607 31.7871 109.586C31.9764 108.934 32.1368 108.382 32.8231 107.65L32.831 107.641L32.8386 107.633C32.8716 107.595 32.9123 107.554 32.9752 107.491C33.038 107.428 33.0785 107.388 33.1162 107.355L33.1249 107.347L33.1333 107.34C33.8668 106.652 34.4202 106.49 35.0729 106.3C35.0931 106.294 35.1134 106.288 35.1338 106.282C35.8836 106.063 36.7112 105.797 37.7256 104.783C38.7428 103.766 39.0105 102.939 39.2302 102.187C39.2368 102.165 39.2433 102.142 39.2498 102.12C39.4389 101.471 39.5996 100.92 40.2762 100.19L40.5999 99.8666C41.3315 99.1855 41.8827 99.0255 42.532 98.837C42.5532 98.8309 42.5745 98.8247 42.5959 98.8184C43.3468 98.5998 44.1743 98.3341 45.1921 97.3163C46.2098 96.2985 46.4756 95.4711 46.6942 94.7202C46.7005 94.6988 46.7066 94.6775 46.7128 94.6563C46.9013 94.007 47.0614 93.4556 47.7427 92.7238L48.0657 92.4004C48.7962 91.7238 49.3472 91.5632 49.996 91.374C50.0182 91.3675 50.0406 91.361 50.0631 91.3544C50.8142 91.1348 51.6408 90.8673 52.6576 89.8508C52.6579 89.8504 52.6582 89.8501 52.6586 89.8498M19.9375 121.287L160.454 121.784V3.12679H137.349C136.687 3.84499 136.527 4.3907 136.339 5.03239L136.321 5.09554C136.1 5.8472 135.833 6.67586 134.812 7.69675M134.812 7.69675C133.794 8.71396 132.968 8.98162 132.217 9.20206L132.153 9.22084C131.501 9.41177 130.948 9.5739 130.212 10.2617L130.204 10.2691L130.195 10.2763C130.157 10.3101 130.115 10.3513 130.052 10.414C129.992 10.4744 129.951 10.516 129.917 10.5539L129.91 10.5626L129.902 10.571C129.21 11.3081 129.049 11.8618 128.859 12.5139L128.841 12.5751C128.621 13.3254 128.356 14.1528 127.338 15.1705C126.321 16.1877 125.494 16.4553 124.743 16.6758C124.722 16.6821 124.7 16.6884 124.679 16.6946C124.027 16.8855 123.474 17.0477 122.737 17.7355L122.729 17.7429L122.721 17.75C122.684 17.783 122.641 17.8248 122.582 17.8847L122.58 17.8862C122.547 17.9199 122.52 17.9469 122.497 17.9704C122.477 17.991 122.46 18.0088 122.446 18.0258L122.438 18.0349L122.429 18.0437C121.742 18.78 121.58 19.3336 121.389 19.9854C121.382 20.0067 121.376 20.0281 121.37 20.0495C121.149 20.8002 120.882 21.627 119.865 22.6442C118.847 23.662 118.019 23.9278 117.268 24.1463L117.204 24.1649C116.555 24.3534 116.004 24.5135 115.272 25.1945L114.948 25.5185C114.266 26.2515 114.104 26.8053 113.915 27.4575L113.897 27.5184C113.678 28.2698 113.413 29.099 112.399 30.117L112.398 30.1179C111.38 31.136 110.55 31.4017 109.798 31.6202L109.734 31.6387C109.082 31.8273 108.53 31.9874 107.798 32.6683L107.475 32.9916C106.798 33.7221 106.637 34.2731 106.448 34.9218C106.442 34.9441 106.435 34.9665 106.429 34.989C106.209 35.7403 105.941 36.5672 104.924 37.5844C103.906 38.6022 103.079 38.868 102.328 39.0865C102.306 39.0928 102.285 39.099 102.264 39.1051C101.614 39.2936 101.063 39.4537 100.331 40.1347L100.008 40.458C99.3317 41.1884 99.1711 41.7394 98.982 42.3882C98.9755 42.4105 98.969 42.4329 98.9624 42.4555C98.7428 43.2068 98.4751 44.0336 97.4578 45.0509C97.4581 45.0506 97.4584 45.0503 97.4587 45.05L96.9874 44.5805L97.4578 45.0509M85.3988 55.0676L85.0745 55.3916C84.3937 56.1232 84.2338 56.6744 84.0454 57.3236C84.0393 57.3448 84.0331 57.3662 84.0268 57.3876C83.8083 58.1386 83.5426 58.9661 82.5249 59.9839C81.5076 61.0012 80.6806 61.2688 79.9292 61.4885C79.9067 61.4951 79.8843 61.5016 79.8621 61.5081C79.2132 61.6972 78.6621 61.8579 77.9316 62.5345L77.6082 62.8579C76.9277 63.5892 76.7675 64.1417 76.579 64.792C76.5728 64.8134 76.5665 64.835 76.5602 64.8567C76.3417 65.6083 76.0759 66.4362 75.058 67.4504C74.0408 68.4676 73.2141 68.7352 72.4635 68.9557C72.442 68.962 72.4206 68.9682 72.3993 68.9745C71.7475 69.1654 71.1939 69.3276 70.4575 70.0154L70.4496 70.0227L70.4414 70.0299C70.4036 70.0629 70.3614 70.1047 70.3019 70.1646L70.3004 70.1661C70.2393 70.2272 70.1969 70.27 70.1622 70.3093L70.1554 70.317L70.1483 70.3246C69.4606 71.0579 69.2992 71.6112 69.1088 72.2639C69.1029 72.2842 69.097 72.3046 69.091 72.325C68.8717 73.0749 68.606 73.9025 67.5915 74.9168M67.5915 74.9168C67.5915 74.9168 67.5915 74.9169 67.5915 74.9168ZM67.5915 74.9168C66.5743 75.9341 65.7475 76.2018 64.9962 76.4215C64.9737 76.4281 64.9513 76.4346 64.929 76.4411C64.2803 76.6302 63.7293 76.7909 62.9986 77.4675L62.6757 77.7907C61.9937 78.5236 61.8324 79.0773 61.6427 79.7284C61.6367 79.749 61.6307 79.7696 61.6246 79.7904C61.4053 80.5413 61.1396 81.369 60.125 82.3833M60.125 82.3833C59.1078 83.4006 58.2809 83.6683 57.5296 83.888C57.5071 83.8945 57.4847 83.9011 57.4625 83.9076C56.8137 84.0967 56.2627 84.2573 55.5322 84.9339L55.2092 85.2573M75.058 67.4504C75.0577 67.4507 75.0574 67.451 75.0571 67.4513L74.5866 66.979L75.058 67.4504ZM77.6082 62.8579L77.5999 62.8662L77.1285 62.3948L77.6157 62.8499C77.6132 62.8526 77.6107 62.8553 77.6082 62.8579ZM77.9316 62.5345C77.9287 62.5372 77.9258 62.5399 77.9229 62.5426L77.4689 62.0544L77.9403 62.5258L77.9316 62.5345ZM85.0745 55.3916L85.0662 55.4L84.5951 54.9284L85.0822 55.3834C85.0796 55.3861 85.0771 55.3889 85.0745 55.3916ZM85.3988 55.0676L85.4069 55.0596L84.9358 54.5879L85.3908 55.0751C85.3935 55.0726 85.3962 55.0701 85.3988 55.0676Z" fill="#4C0D00"/>
<path d="M25.0373 114.479C25.0949 114.421 25.1528 114.363 25.2107 114.312L24.8707 114.653C24.9214 114.595 24.9794 114.537 25.0373 114.479Z" fill="white"/>
<path fill-rule="evenodd" clip-rule="evenodd" d="M24.369 114.214L25.3424 115.124L25.6824 114.784L24.7717 113.811C24.694 113.879 24.6207 113.953 24.5652 114.008C24.5634 114.01 24.5617 114.012 24.56 114.014C24.506 114.068 24.4346 114.139 24.369 114.214Z" fill="#4C0D00"/>
<path d="M39.9628 99.5532C40.0208 99.4953 40.0787 99.4374 40.1366 99.3867L39.7963 99.7271C39.847 99.6691 39.9049 99.6112 39.9628 99.5532Z" fill="white"/>
<path fill-rule="evenodd" clip-rule="evenodd" d="M39.2946 99.2881L40.2677 100.198L40.6081 99.8581L39.6976 98.885C39.6227 98.9505 39.5513 99.022 39.4974 99.0759C39.4954 99.0779 39.4934 99.0799 39.4914 99.0819C39.4895 99.0838 39.4875 99.0858 39.4855 99.0878C39.4315 99.1418 39.3601 99.2132 39.2946 99.2881Z" fill="#4C0D00"/>
<path d="M47.4294 92.0869C47.4873 92.029 47.5449 91.9711 47.6028 91.9204L47.2628 92.2607C47.3135 92.2028 47.3714 92.1449 47.4294 92.0869Z" fill="white"/>
<path fill-rule="evenodd" clip-rule="evenodd" d="M46.7611 91.8218L47.7345 92.7319L48.0745 92.3916L47.1638 91.4187C47.091 91.4824 47.0213 91.5522 46.9692 91.6043C46.9654 91.6082 46.9616 91.6119 46.958 91.6156C46.956 91.6175 46.9541 91.6195 46.952 91.6215C46.8981 91.6755 46.8266 91.7469 46.7611 91.8218Z" fill="#4C0D00"/>
<path d="M54.8958 84.6204C54.9537 84.5624 55.0117 84.5045 55.0693 84.4538L54.7292 84.7942C54.7799 84.7363 54.8379 84.6783 54.8958 84.6204Z" fill="white"/>
<path fill-rule="evenodd" clip-rule="evenodd" d="M54.2275 84.3552L55.2009 85.2654L55.5409 84.925L54.6287 83.9535C54.555 84.0184 54.4842 84.0892 54.4302 84.1432C54.4283 84.1452 54.4263 84.1471 54.4244 84.149C54.4225 84.151 54.4205 84.1529 54.4185 84.155C54.3645 84.2089 54.2931 84.2803 54.2275 84.3552Z" fill="#4C0D00"/>
<path d="M62.3624 77.1538C62.4199 77.0959 62.4779 77.038 62.5358 76.9873L62.1958 77.3276C62.2465 77.2697 62.3044 77.2118 62.3624 77.1538Z" fill="white"/>
<path fill-rule="evenodd" clip-rule="evenodd" d="M61.6941 76.8887L62.6675 77.7988L63.0075 77.4585L62.0968 76.4856C62.0191 76.5536 61.9457 76.6274 61.8902 76.6832C61.8885 76.6849 61.8868 76.6866 61.885 76.6884C61.8311 76.7423 61.7596 76.8138 61.6941 76.8887Z" fill="#4C0D00"/>
<path d="M77.2952 62.221C77.3532 62.163 77.4111 62.1051 77.469 62.0544L77.1287 62.3948C77.1797 62.3368 77.2373 62.2789 77.2952 62.221Z" fill="white"/>
<path fill-rule="evenodd" clip-rule="evenodd" d="M76.6284 61.954L77.6 62.8662L77.9404 62.5258L77.03 61.5527C76.9551 61.6182 76.8836 61.6897 76.8297 61.7437C76.8277 61.7457 76.8257 61.7476 76.8237 61.7496C76.7674 61.8059 76.6954 61.878 76.6284 61.954Z" fill="#4C0D00"/>
<path d="M84.7617 54.7544C84.8196 54.6965 84.8775 54.6385 84.9355 54.5878L84.5951 54.9282C84.6461 54.8703 84.7041 54.8124 84.7617 54.7544Z" fill="white"/>
<path fill-rule="evenodd" clip-rule="evenodd" d="M84.0948 54.4875L85.0664 55.3997L85.4068 55.0593L84.4964 54.0862C84.4215 54.1517 84.3501 54.2231 84.2961 54.2771C84.2941 54.2791 84.2921 54.2811 84.2902 54.283L84.2887 54.2845L84.2887 54.2845C84.285 54.2883 84.2811 54.2921 84.2772 54.2961C84.2253 54.3483 84.1572 54.4167 84.0948 54.4875Z" fill="#4C0D00"/>
<path d="M99.6949 39.8213C99.7528 39.7634 99.8108 39.7054 99.8683 39.6547L99.5283 39.9951C99.579 39.9372 99.637 39.8792 99.6949 39.8213Z" fill="white"/>
<path fill-rule="evenodd" clip-rule="evenodd" d="M99.0266 39.5562L100 40.4663L100.34 40.1259L99.4278 39.1544C99.3541 39.2193 99.2833 39.2901 99.2293 39.3442C99.2273 39.3461 99.2254 39.348 99.2235 39.3499C99.2215 39.3519 99.2196 39.3539 99.2176 39.3559C99.1636 39.4098 99.0921 39.4813 99.0266 39.5562Z" fill="#4C0D00"/>
<path d="M107.161 32.355C107.219 32.2971 107.277 32.2391 107.335 32.1884L106.995 32.5288C107.046 32.4709 107.104 32.4129 107.161 32.355Z" fill="white"/>
<path fill-rule="evenodd" clip-rule="evenodd" d="M106.493 32.0898L107.466 33.0002L107.807 32.6599L106.896 31.6867C106.821 31.7523 106.75 31.8237 106.696 31.8777C106.694 31.8797 106.692 31.8817 106.69 31.8836C106.688 31.8856 106.686 31.8876 106.684 31.8896C106.63 31.9435 106.559 32.0149 106.493 32.0898Z" fill="#4C0D00"/>
<path d="M114.809 24.7148L114.469 25.0552C114.519 24.9972 114.577 24.9393 114.635 24.8814C114.693 24.8234 114.751 24.7655 114.809 24.7148Z" fill="white"/>
<path fill-rule="evenodd" clip-rule="evenodd" d="M113.967 24.616L114.94 25.5264L115.28 25.186L114.37 24.2129C114.295 24.2784 114.224 24.3499 114.17 24.4038C114.168 24.4058 114.166 24.4078 114.164 24.4098C114.162 24.4117 114.16 24.4137 114.158 24.4157C114.104 24.4696 114.032 24.5411 113.967 24.616Z" fill="#4C0D00"/>
<path d="M106.32 39.0997C108.952 36.3789 113.472 38.9885 112.432 42.6284C116.072 41.588 118.681 46.1078 115.96 48.7402C119.633 49.6592 119.633 54.8785 115.96 55.7975C118.681 58.4296 116.072 62.9494 112.432 61.9094C113.472 65.5492 108.952 68.1589 106.32 65.4381C105.401 69.1105 100.182 69.1105 99.2625 65.4381C96.6304 68.1589 92.1103 65.5492 93.1506 61.9094C89.5108 62.9494 86.9012 58.4296 89.622 55.7975C85.9496 54.8785 85.9496 49.6592 89.622 48.7402C86.9012 46.1078 89.5108 41.588 93.1506 42.6284C92.1103 38.9885 96.6304 36.3789 99.2625 39.0997C100.182 35.4273 105.401 35.4273 106.32 39.0997Z" fill="#FFF4DA"/>
<path fill-rule="evenodd" clip-rule="evenodd" d="M106.618 66.5501C109.491 68.4464 113.452 66.1595 113.246 62.7234C116.682 62.9292 118.969 58.9683 117.072 56.0956C120.151 54.556 120.151 49.9819 117.072 48.4423C118.969 45.5695 116.682 41.6084 113.246 41.8144C113.452 38.3784 109.49 36.0915 106.618 37.9878C105.078 34.9091 100.504 34.9091 98.9646 37.9878C96.0919 36.0915 92.1307 38.3784 92.3367 41.8144C88.9006 41.6084 86.6138 45.5695 88.5101 48.4423C85.4314 49.9819 85.4314 54.556 88.5101 56.0956C86.6137 58.9683 88.9008 62.9292 92.3367 62.7234C92.1306 66.1595 96.0919 68.4464 98.9646 66.5501C100.504 69.6288 105.078 69.6288 106.618 66.5501ZM105.673 65.2763C104.923 68.2756 100.66 68.2756 99.9093 65.2763L99.6179 64.112L98.7834 64.9746C96.6337 67.1968 92.9421 65.0653 93.7917 62.0927L94.1215 60.9388L92.9675 61.2685C89.9947 62.1179 87.8635 58.4264 90.0856 56.2768L90.9482 55.4423L89.7839 55.1509C86.7846 54.4003 86.7846 50.1376 89.7839 49.387L90.9481 49.0957L90.0856 48.2612C87.8633 46.1111 89.9949 42.4198 92.9675 43.2694L94.1215 43.5993L93.7917 42.4452C92.9421 39.4726 96.6337 37.3412 98.7834 39.5633L99.6179 40.4259L99.9093 39.2616C100.66 36.2623 104.923 36.2623 105.673 39.2616L105.965 40.4259L106.799 39.5633C108.949 37.3412 112.64 39.4726 111.791 42.4452L111.461 43.5993L112.615 43.2694C115.588 42.4198 117.719 46.1111 115.497 48.2612L114.634 49.0957L115.799 49.387C118.798 50.1376 118.798 54.4003 115.799 55.1509L114.634 55.4423L115.497 56.2768C117.719 58.4264 115.588 62.1179 112.615 61.2685L111.461 60.9388L111.791 62.0927C112.64 65.0653 108.949 67.1968 106.799 64.9746L105.965 64.112L105.673 65.2763Z" fill="#4C0D00"/>
<path d="M99.4109 51.4631C99.4109 52.6363 98.4601 53.5872 97.2869 53.5872C96.1137 53.5872 95.1628 52.6363 95.1628 51.4631C95.1628 50.2899 96.1137 49.339 97.2869 49.339C98.4601 49.339 99.4109 50.2899 99.4109 51.4631Z" fill="#FFF4DA"/>
<path fill-rule="evenodd" clip-rule="evenodd" d="M94.4961 51.4632C94.4961 53.0046 95.7454 54.2539 97.2868 54.2539C98.8282 54.2539 100.078 53.0046 100.078 51.4632C100.078 49.9218 98.8282 48.6724 97.2868 48.6724C95.7454 48.6724 94.4961 49.9218 94.4961 51.4632ZM97.2868 52.9206C96.4818 52.9206 95.8294 52.2682 95.8294 51.4632C95.8294 50.6582 96.4818 50.0058 97.2868 50.0058C98.0918 50.0058 98.7442 50.6582 98.7442 51.4632C98.7442 52.2682 98.0918 52.9206 97.2868 52.9206Z" fill="#4C0D00"/>
<path d="M110.897 49.0089C110.897 50.6633 109.556 52.0042 107.902 52.0042C106.247 52.0042 104.906 50.6633 104.906 49.0089C104.906 47.3544 106.247 46.0136 107.902 46.0136C109.556 46.0136 110.897 47.3544 110.897 49.0089Z" fill="#FFF4DA"/>
<path fill-rule="evenodd" clip-rule="evenodd" d="M104.239 49.0089C104.239 51.0317 105.879 52.6709 107.902 52.6709C109.924 52.6709 111.564 51.0316 111.564 49.0089C111.564 46.9863 109.924 45.347 107.902 45.347C105.879 45.347 104.239 46.9862 104.239 49.0089ZM107.902 51.3376C106.615 51.3376 105.573 50.2951 105.573 49.0089C105.573 47.7228 106.615 46.6803 107.902 46.6803C109.188 46.6803 110.23 47.7228 110.23 49.0089C110.23 50.2951 109.188 51.3376 107.902 51.3376Z" fill="#4C0D00"/>
<path d="M102.658 57.6068C102.587 58.6247 101.704 59.3927 100.686 59.3213C99.6677 59.2504 98.9001 58.3676 98.971 57.3497C99.042 56.3318 99.9248 55.5638 100.943 55.6352C101.961 55.7061 102.729 56.5889 102.658 57.6068Z" fill="#FFF4DA"/>
<path fill-rule="evenodd" clip-rule="evenodd" d="M100.64 59.9864C102.025 60.0834 103.226 59.0381 103.323 57.6532C103.419 56.2682 102.375 55.0669 100.99 54.9702M100.639 59.9864C99.254 59.8897 98.2094 58.6885 98.306 57.3034C98.4026 55.9184 99.6037 54.8732 100.989 54.9702M101.993 57.5605C101.947 58.2112 101.383 58.7019 100.733 58.6564L100.732 58.6563C100.081 58.611 99.5907 58.0466 99.6361 57.3961C99.6815 56.7455 100.246 56.2547 100.896 56.3003L100.897 56.3003C101.547 56.3456 102.038 56.9099 101.993 57.5605Z" fill="#4C0D00"/>
<path d="M103.208 46.5813C103.208 47.4108 102.536 48.0833 101.706 48.0833C100.877 48.0833 100.204 47.4108 100.204 46.5813C100.204 45.7517 100.877 45.0793 101.706 45.0793C102.536 45.0793 103.208 45.7517 103.208 46.5813Z" fill="#FFF4DA"/>
<path fill-rule="evenodd" clip-rule="evenodd" d="M99.5375 46.5813C99.5375 47.7791 100.508 48.75 101.706 48.75C102.904 48.75 103.875 47.7791 103.875 46.5813C103.875 45.3836 102.904 44.4127 101.706 44.4127C100.508 44.4127 99.5375 45.3836 99.5375 46.5813ZM101.706 47.4167C101.245 47.4167 100.871 47.0427 100.871 46.5813C100.871 46.12 101.245 45.746 101.706 45.746C102.168 45.746 102.542 46.12 102.542 46.5813C102.542 47.0427 102.168 47.4167 101.706 47.4167Z" fill="#4C0D00"/>
<path d="M108.663 55.6306C108.663 56.4602 107.99 57.1326 107.161 57.1326C106.331 57.1326 105.659 56.4602 105.659 55.6306C105.659 54.801 106.331 54.1286 107.161 54.1286C107.99 54.1286 108.663 54.801 108.663 55.6306Z" fill="#FFF4DA"/>
<path fill-rule="evenodd" clip-rule="evenodd" d="M104.992 55.6307C104.992 56.8284 105.963 57.7993 107.161 57.7993C108.359 57.7993 109.33 56.8284 109.33 55.6307C109.33 54.4329 108.359 53.462 107.161 53.462C105.963 53.462 104.992 54.4329 104.992 55.6307ZM107.161 56.466C106.7 56.466 106.326 56.092 106.326 55.6307C106.326 55.1693 106.7 54.7953 107.161 54.7953C107.622 54.7953 107.996 55.1693 107.996 55.6307C107.996 56.092 107.622 56.466 107.161 56.466Z" fill="#4C0D00"/>
<path d="M73.7344 72.9001C74.54 73.4277 76.6409 75.7368 76.1134 76.5424C75.5858 77.3485 72.6292 76.3458 71.8236 75.8182C71.0179 75.2903 70.7923 74.2094 71.3199 73.4038C71.8475 72.5981 72.9287 72.3725 73.7344 72.9001Z" fill="white"/>
<path fill-rule="evenodd" clip-rule="evenodd" d="M76.6711 76.9075C76.3461 77.4039 75.7519 77.4976 75.3541 77.5097ZM75.3541 77.5097C74.9062 77.5234 74.3971 77.4429 73.9182 77.3288ZM73.9182 77.3288C72.971 77.1031 71.9493 76.6973 71.4583 76.3758ZM72.1888 75.2604C71.6909 74.934 71.5519 74.2663 71.8776 73.7688C72.2035 73.2711 72.8715 73.1318 73.3691 73.4577C73.6839 73.6638 74.3568 74.3078 74.8912 75.0178C75.1551 75.3683 75.3545 75.6953 75.4586 75.9553C75.4952 76.0466 75.5131 76.1115 75.5219 76.1551C75.4784 76.1645 75.4118 76.174 75.3135 76.177C75.0335 76.1855 74.6542 76.1335 74.2273 76.0318C73.363 75.8258 72.5038 75.4666 72.189 75.2605M75.9565 74.2159C75.3709 73.438 74.5905 72.6637 74.0996 72.3422C72.9859 71.6129 71.4914 71.9247 70.7622 73.0384C70.0328 74.1522 70.3448 75.6461 71.4582 76.3757L71.4583 76.3758M75.9565 74.2159C76.2525 74.6092 76.5298 75.0436 76.6964 75.4596ZM76.6964 75.4596C76.8443 75.829 76.9961 76.411 76.6712 76.9074Z" fill="#4C0D00"/>
<path d="M69.9863 82.226C70.7771 82.1782 73.297 82.6685 73.3451 83.4593C73.3929 84.2498 70.9506 85.0413 70.1601 85.0891C69.3693 85.1373 68.6893 84.5351 68.6415 83.7443C68.5937 82.9538 69.1955 82.2738 69.9863 82.226Z" fill="white"/>
<path fill-rule="evenodd" clip-rule="evenodd" d="M70.2004 85.7544C69.0421 85.8247 68.0461 84.9427 67.9761 83.7843ZM70.1196 84.4235C69.6964 84.4493 69.3325 84.127 69.307 83.7039L69.307 83.7038C69.2814 83.2806 69.6036 82.9168 70.0266 82.8912C70.317 82.8737 71.0627 82.9642 71.7567 83.1677C72.0984 83.2679 72.3793 83.382 72.563 83.4945C72.5691 83.4982 72.5749 83.5019 72.5805 83.5054C72.5754 83.5096 72.5701 83.5138 72.5645 83.5182C72.3957 83.6521 72.1307 83.7994 71.8035 83.9401C71.1391 84.226 70.41 84.4059 70.1199 84.4235L70.1196 84.4235ZM72.6968 83.3888C72.6967 83.3888 72.6962 83.3896 72.6953 83.3914C72.6964 83.3896 72.6968 83.3888 72.6968 83.3888ZM72.7082 83.6047C72.7092 83.6063 72.7099 83.6071 72.7099 83.6071C72.71 83.6071 72.7095 83.6063 72.7082 83.6047ZM73.3932 84.5628C73.6542 84.3557 74.0439 83.9684 74.0106 83.4189L74.0106 83.4186C73.9772 82.8691 73.5437 82.5317 73.2595 82.3576C72.9325 82.1572 72.5249 82.0035 72.1318 81.8882C71.3562 81.6608 70.4465 81.5301 69.9461 81.5603C68.7875 81.6304 67.9061 82.6267 67.9761 83.7843M73.3932 84.5628C73.0928 84.8011 72.7068 85.003 72.3305 85.1649ZM72.3305 85.1649C71.5882 85.4843 70.7012 85.724 70.2007 85.7543Z" fill="#4C0D00"/>
<path d="M70.4494 95.725C62.3275 86.7333 63.0325 72.8573 72.0242 64.7354C80.0067 57.5253 91.8419 57.2726 100.081 63.5995L94.4211 69.8588L90.5162 74.1815L89.8195 74.9546L88.1289 76.8219L86.4155 78.7215L84.3939 80.9564L83.9702 81.4257L82.4657 83.0902L79.6869 86.1648L78.4804 87.4966L70.751 96.0461C70.6471 95.944 70.5497 95.8361 70.4494 95.725Z" fill="#FFF4DA"/>
<path fill-rule="evenodd" clip-rule="evenodd" d="M70.7794 97.0085L80.1809 86.6122L82.9602 83.5371L84.4647 81.8725L84.8882 81.4034L86.9098 79.1685L90.3147 75.4007L91.0109 74.6282L94.9155 70.3057L101.06 63.5106L100.487 63.0706C91.9973 56.5512 79.8029 56.8107 71.5772 64.2405C62.3124 72.6091 61.5859 86.9065 69.9544 96.1714C69.9544 96.1715 69.9543 96.1713 69.9544 96.1714L69.9591 96.1766C70.056 96.284 70.165 96.4049 70.2837 96.5215L70.7794 97.0085ZM70.7468 95.0565C63.0811 86.3331 63.826 73.0387 72.471 65.2299C80.0245 58.4073 91.1374 58.0092 99.0936 63.6973L93.9265 69.4114L89.3253 74.5069L89.3242 74.5081L87.6346 76.3743L85.921 78.2741L83.4755 80.9784L81.971 82.643L77.9863 87.0488L70.7468 95.0565Z" fill="#4C0D00"/>
<path d="M78.1127 87.8231C77.6561 87.4516 77.2908 86.9577 77.0692 86.3678C76.383 84.5555 77.2947 82.5274 79.1042 81.8383C79.2588 81.7796 79.4185 81.7329 79.5778 81.6989C79.497 81.5584 79.4286 81.4125 79.3699 81.2582C78.6838 79.4459 79.5955 77.4178 81.4078 76.7316C82.0191 76.5024 82.6516 76.4495 83.252 76.5527C82.983 75.3553 83.349 74.0503 84.3235 73.1704C85.3804 72.2155 86.8556 72.024 88.0791 72.5555C88.2635 72.2108 88.5129 71.8871 88.8207 71.609C90.0396 70.5082 91.8185 70.4231 93.1246 71.295L90.5161 74.1813L89.8198 74.9544L88.1291 76.8218L86.4153 78.7213L84.3941 80.9562L83.9704 81.4255L82.4655 83.0901L79.6868 86.165L78.4806 87.4965L78.0827 87.9368C78.0877 87.8977 78.1015 87.8618 78.1127 87.8231Z" fill="white"/>
<path fill-rule="evenodd" clip-rule="evenodd" d="M77.1474 89.9658L80.1808 86.6125L82.96 83.5371L86.9097 79.1685L88.6241 77.2683L90.3151 75.4005L94.1369 71.1692L93.4948 70.7405C91.9418 69.7038 89.8254 69.8032 88.3739 71.1142C88.158 71.3092 87.9659 71.5235 87.7996 71.7509C86.4689 71.3812 84.9811 71.6777 83.8765 72.6756C82.9471 73.5149 82.4837 74.6782 82.5001 75.8386C82.0568 75.8557 81.6099 75.9438 81.1737 76.1073L81.1717 76.1081C79.0812 76.8996 77.9983 79.1903 78.676 81.2932C76.6503 82.1797 75.6538 84.5125 76.4457 86.6038L77.0691 86.3677L76.4451 86.6022C76.6588 87.1712 76.9859 87.667 77.393 88.0713L77.1474 89.9658ZM78.1257 86.8952C77.9469 86.6721 77.7998 86.4169 77.6932 86.1333L77.6926 86.1317C77.1366 84.6632 77.8756 83.0197 79.3409 82.4614C79.4632 82.415 79.5903 82.3779 79.717 82.3508L80.6116 82.1597L80.1558 81.3666C80.0936 81.2586 80.0401 81.1448 79.9932 81.0217C79.4376 79.5535 80.1764 77.9113 81.6428 77.3554C82.1422 77.1683 82.6546 77.1264 83.139 77.2097L84.1208 77.3785L83.9024 76.4065C83.6838 75.4336 83.982 74.3769 84.7702 73.6651C85.6258 72.8922 86.8206 72.7355 87.8135 73.1669L88.3772 73.4118L88.667 72.8698C88.8155 72.5921 89.0175 72.3296 89.2676 72.1036C90.0444 71.4021 91.1039 71.2093 92.0364 71.5048L89.3255 74.5069L89.3244 74.5082L87.6349 76.3743L81.971 82.6429L78.1257 86.8952Z" fill="#4C0D00"/>
<path d="M67.0547 100.134L70.751 96.0459L67.0547 100.134Z" fill="white"/>
<path fill-rule="evenodd" clip-rule="evenodd" d="M70.2565 95.5987L66.5602 99.6868L67.5492 100.581L71.2455 96.493L70.2565 95.5987Z" fill="#4C0D00"/>
<path d="M100.081 63.5994L103.771 59.5171L100.081 63.5994Z" fill="white"/>
<path fill-rule="evenodd" clip-rule="evenodd" d="M103.276 59.07L99.5864 63.1523L100.576 64.0464L104.265 59.9641L103.276 59.07Z" fill="#4C0D00"/>
<path d="M78.1127 87.8231C77.6561 87.4516 77.2908 86.9577 77.0692 86.3678C76.383 84.5555 77.2947 82.5274 79.1042 81.8383C79.2588 81.7796 79.4185 81.7329 79.5778 81.6989C79.497 81.5584 79.4286 81.4125 79.3699 81.2582C78.6838 79.4459 79.5955 77.4178 81.4078 76.7316C82.0191 76.5024 82.6516 76.4495 83.252 76.5527C82.983 75.3553 83.349 74.0503 84.3235 73.1704C85.3804 72.2155 86.8556 72.024 88.0791 72.5555C88.2635 72.2108 88.5129 71.8871 88.8207 71.609C90.0396 70.5082 91.8185 70.4231 93.1246 71.295L90.5161 74.1813L89.8198 74.9544L88.1291 76.8218L86.4153 78.7213L84.3941 80.9562L83.9704 81.4255L82.4655 83.0901L79.6868 86.165L78.4806 87.4965L78.0827 87.9368C78.0877 87.8977 78.1015 87.8618 78.1127 87.8231Z" fill="white"/>
<path fill-rule="evenodd" clip-rule="evenodd" d="M77.1474 89.9658L80.1808 86.6125L82.96 83.5371L86.9097 79.1685L88.6241 77.2683L90.3151 75.4005L94.1369 71.1692L93.4948 70.7405C91.9418 69.7038 89.8254 69.8032 88.3739 71.1142C88.158 71.3092 87.9659 71.5235 87.7996 71.7509C86.4689 71.3812 84.9811 71.6777 83.8765 72.6756C82.9471 73.5149 82.4837 74.6782 82.5001 75.8386C82.0568 75.8557 81.6099 75.9438 81.1737 76.1073L81.1717 76.1081C79.0812 76.8996 77.9983 79.1903 78.676 81.2932C76.6503 82.1797 75.6538 84.5125 76.4457 86.6038L77.0691 86.3677L76.4451 86.6022C76.6588 87.1712 76.9859 87.667 77.393 88.0713L77.1474 89.9658ZM78.1257 86.8952C77.9469 86.6721 77.7998 86.4169 77.6932 86.1333L77.6926 86.1317C77.1366 84.6632 77.8756 83.0197 79.3409 82.4614C79.4632 82.415 79.5903 82.3779 79.717 82.3508L80.6116 82.1597L80.1558 81.3666C80.0936 81.2586 80.0401 81.1448 79.9932 81.0217C79.4376 79.5535 80.1764 77.9113 81.6428 77.3554C82.1422 77.1683 82.6546 77.1264 83.139 77.2097L84.1208 77.3785L83.9024 76.4065C83.6838 75.4336 83.982 74.3769 84.7702 73.6651C85.6258 72.8922 86.8206 72.7355 87.8135 73.1669L88.3772 73.4118L88.667 72.8698C88.8155 72.5921 89.0175 72.3296 89.2676 72.1036C90.0444 71.4021 91.1039 71.2093 92.0364 71.5048L89.3255 74.5069L89.3244 74.5082L87.6349 76.3743L81.971 82.6429L78.1257 86.8952Z" fill="#4C0D00"/>
<path d="M66.3739 99.4061C56.2192 88.164 57.1038 70.818 68.3459 60.6633C78.4424 51.5438 93.4582 51.3226 103.771 59.5172L100.081 63.5995C91.8415 57.2726 80.0066 57.5253 72.0241 64.7355C63.0325 72.8573 62.3271 86.7333 70.4494 95.725C70.5497 95.8362 70.6471 95.9441 70.751 96.0462L67.0547 100.134C66.8244 99.8982 66.5977 99.6538 66.3739 99.4061Z" fill="#4C0D00"/>
<path fill-rule="evenodd" clip-rule="evenodd" d="M67.0732 101.108L71.6745 96.0189L71.2183 95.5706C71.131 95.4849 71.0469 95.392 70.9444 95.2784C63.069 86.56 63.7526 73.1053 72.4711 65.2302C80.2104 58.2397 91.6861 57.9938 99.6747 64.1283L100.163 64.503L104.742 59.4373L104.186 58.9953C93.6219 50.6011 78.2413 50.8271 67.8991 60.1685C56.3839 70.57 55.4777 88.3375 65.8793 99.853C66.1067 100.105 66.3395 100.356 66.5775 100.6L67.0732 101.108ZM67.0442 99.1519C66.9856 99.0881 66.9271 99.0238 66.8687 98.9592C56.9608 87.9904 57.8239 71.066 68.7929 61.158C78.4614 52.425 92.7547 52.055 102.794 59.6043L99.9931 62.7023C91.5296 56.564 79.6448 56.9538 71.5773 64.2407C62.3523 72.5734 61.5921 86.784 69.8471 96.0519L67.0442 99.1519Z" fill="#4C0D00"/>
<path d="M80.4641 65.8404C80.8773 66.7105 81.4689 69.7757 80.5988 70.1888C79.729 70.602 77.7266 68.2071 77.3135 67.337C76.9003 66.4668 77.2704 65.4265 78.1405 65.0134C79.0106 64.6002 80.0509 64.9703 80.4641 65.8404Z" fill="white"/>
<path fill-rule="evenodd" clip-rule="evenodd" d="M80.8848 70.7912C80.3489 71.0457 79.7929 70.8162 79.4471 70.6195ZM79.4471 70.6195C79.0576 70.398 78.6649 70.0643 78.3154 69.7175ZM78.3154 69.7175C77.6243 69.0317 76.9631 68.1533 76.7113 67.6231ZM79.2545 68.771C78.6237 68.1451 78.0771 67.391 77.9158 67.0511C77.6604 66.5134 77.8892 65.8709 78.4265 65.6157C78.9643 65.3604 79.6068 65.5892 79.8619 66.1265C80.0234 66.4665 80.2626 67.3668 80.3493 68.2511C80.392 68.6879 80.3921 69.0708 80.3456 69.347C80.3293 69.4439 80.3108 69.5086 80.2956 69.5504C80.2536 69.5358 80.1918 69.5092 80.1063 69.4606C79.8629 69.3221 79.566 69.0801 79.2545 68.771ZM81.6762 68.1211C81.5813 67.1521 81.3181 66.0847 81.0664 65.5546C80.4952 64.3516 79.0571 63.8403 77.8546 64.4113C76.6517 64.9825 76.1403 66.4206 76.7113 67.6231M81.6762 68.1211C81.7242 68.6111 81.7348 69.1263 81.6604 69.5683ZM81.6604 69.5683C81.5944 69.9607 81.4209 70.5366 80.8849 70.7912Z" fill="#4C0D00"/>
<path d="M90.3393 64.8247C90.1793 65.5489 89.0897 67.6918 88.3655 67.5318C87.641 67.3717 87.5566 64.9692 87.7167 64.245C87.8767 63.5208 88.5937 63.0635 89.3179 63.2235C90.0421 63.3836 90.4994 64.1005 90.3393 64.8247Z" fill="white"/>
<path fill-rule="evenodd" clip-rule="evenodd" d="M90.1276 66.8658C90.5332 66.2236 90.8875 65.4335 90.9903 64.9685C91.2298 63.8849 90.5455 62.812 89.4617 62.5725C88.378 62.333 87.3052 63.0173 87.0657 64.1011C86.9629 64.5659 86.951 65.4317 87.0481 66.1851C87.0974 66.5672 87.1805 66.9709 87.32 67.3076C87.4403 67.598 87.6963 68.0666 88.2216 68.1827M90.1276 66.8658C89.9219 67.1916 89.6763 67.5225 89.408 67.7691ZM89.408 67.7691C89.1766 67.9816 88.747 68.2988 88.2217 68.1827ZM88.5364 66.7583C88.6745 66.6235 88.8354 66.4148 89.0003 66.1538C89.3605 65.5835 89.6311 64.9401 89.6884 64.6808C89.769 64.3161 89.5386 63.955 89.174 63.8744C88.8092 63.7938 88.4482 64.0242 88.3676 64.3888C88.3103 64.6482 88.2843 65.3457 88.3705 66.0147C88.41 66.3209 88.468 66.5779 88.5364 66.7583ZM88.3782 66.8832C88.3781 66.8833 88.38 66.8827 88.3837 66.8809C88.38 66.8821 88.3782 66.883 88.3782 66.8832ZM88.6232 66.9338C88.6258 66.937 88.6272 66.9383 88.6272 66.9382C88.6273 66.938 88.626 66.9364 88.6232 66.9338Z" fill="#4C0D00"/>
<path d="M80.4303 79.4305C76.5167 81.5006 75.1621 78.9402 71.2489 81.0104C67.3353 83.0805 68.6899 85.6412 64.7764 87.7114C60.8657 89.78 59.5111 87.2196 55.6 89.2883C51.6883 91.3577 53.0429 93.9181 49.1308 95.9879C45.2201 98.0565 43.8655 95.4958 39.9548 97.5645L36.3516 90.753C40.2622 88.6843 41.6168 91.2447 45.5275 89.1761C49.4396 87.1067 48.085 84.5463 51.9971 82.4769C55.9078 80.4078 57.2624 82.9686 61.1731 80.8999C65.0867 78.8294 63.7321 76.269 67.6456 74.1989C71.5588 72.1284 72.9134 74.6892 76.827 72.6191L80.4303 79.4305Z" fill="#4C0D00"/>
<path fill-rule="evenodd" clip-rule="evenodd" d="M39.6773 98.4656L40.2666 98.1539C42.0461 97.2125 43.2025 97.3206 44.4771 97.4397L44.4808 97.44C45.8373 97.5668 47.3131 97.7037 49.4425 96.5773C51.5726 95.4503 52.2903 94.1532 52.9491 92.9604L52.9509 92.9571C53.57 91.8363 54.1317 90.8194 55.9118 89.8777C57.6916 88.9363 58.848 89.0443 60.1227 89.1634L60.1264 89.1637C61.4829 89.2904 62.9587 89.4272 65.0881 88.3008C67.2188 87.1737 67.9369 85.8765 68.5961 84.6834L68.5979 84.6802C69.2174 83.5591 69.7795 82.5419 71.5606 81.5998C73.3416 80.6576 74.4987 80.7653 75.774 80.884L75.7777 80.8843C77.1349 81.0107 78.6113 81.147 80.742 80.0199L81.3313 79.7082L77.1046 71.7182L76.5153 72.0299C74.7343 72.972 73.5771 72.8643 72.3018 72.7455L72.298 72.7452C70.9408 72.6188 69.4645 72.4825 67.3339 73.6097M39.6773 98.4656L39.3656 97.8763ZM40.2427 96.6829C42.0567 95.8752 43.3794 95.998 44.6049 96.1125L44.6085 96.1128C45.8832 96.232 47.0395 96.34 48.8191 95.3987C50.5995 94.4567 51.1611 93.4398 51.7802 92.3189L51.782 92.3157C52.4409 91.1229 53.1584 89.8259 55.2883 88.6991C57.4179 87.5727 58.8938 87.7095 60.2503 87.8362L60.254 87.8365C61.5287 87.9556 62.6851 88.0635 64.4647 87.1222C66.2458 86.18 66.8079 85.1629 67.4273 84.0418L67.4291 84.0385C68.0884 82.8455 68.8065 81.5482 70.9372 80.4212C73.0677 79.2941 74.544 79.4304 75.9012 79.5567L75.9049 79.5571C77.0309 79.6619 78.0649 79.7581 79.5175 79.1307L76.5392 73.5008C74.724 74.3093 73.4005 74.1869 72.1744 74.0728L72.1708 74.0724C70.8955 73.9537 69.7384 73.846 67.9574 74.7883C66.1763 75.7304 65.6142 76.7476 64.9947 77.8686L64.9929 77.8718C64.3336 79.0649 63.6156 80.3621 61.4849 81.4893C59.3555 82.6157 57.8796 82.4789 56.5231 82.3521L56.5196 82.3518C55.2449 82.2327 54.0886 82.1247 52.3089 83.0662C50.5286 84.008 49.9668 85.0249 49.3477 86.1457L49.3459 86.1489C48.687 87.3417 47.9693 88.6387 45.8393 89.7655C43.7099 90.8919 42.2341 90.7551 40.8776 90.6284L40.8739 90.6281C39.7486 90.523 38.7155 90.4265 37.2645 91.053L40.2427 96.6829ZM39.3656 97.8763L35.7623 91.0648ZM41.0016 89.3009C39.645 89.1742 38.1693 89.0374 36.0399 90.1638L35.4506 90.4755L35.7623 91.0648M41.0016 89.3009L41.0052 89.3012ZM41.0052 89.3012C42.2799 89.4202 43.4362 89.5282 45.2158 88.5869ZM45.2158 88.5869L45.5056 89.1346ZM48.177 85.5074C47.5579 86.6283 46.9962 87.6451 45.2158 88.5869L45.5056 89.1346M48.177 85.5074L48.1788 85.5042ZM48.1788 85.5042C48.8377 84.3114 49.5554 83.0144 51.6854 81.8877ZM51.6854 81.8877C53.8148 80.7611 55.2906 80.8979 56.6472 81.0246L56.651 81.0249C57.9256 81.144 59.0819 81.2521 60.8614 80.3107C62.6425 79.3684 63.2046 78.3513 63.8241 77.2302L63.8259 77.2269C64.4852 76.0339 65.2033 74.7368 67.3339 73.6097" fill="#4C0D00"/>
<path d="M166.465 1.82906V122.454H27.251L147.876 1.82906H166.465Z" fill="#FF6D2F"/>
<path fill-rule="evenodd" clip-rule="evenodd" d="M25.6415 123.121H167.132V1.16248H147.599L25.6415 123.121ZM28.8604 121.788L148.152 2.49582H165.799V121.788H28.8604Z" fill="#4C0D00"/>
<path d="M166.466 122.455H45.8392L166.466 1.82739V122.455Z" fill="#FFF4DA"/>
<path fill-rule="evenodd" clip-rule="evenodd" d="M44.2297 123.121H167.133V0.217995L44.2297 123.121ZM47.4487 121.788L165.8 3.43695V121.788H47.4487Z" fill="#4C0D00"/>
<path fill-rule="evenodd" clip-rule="evenodd" d="M102.791 106.906H166.467V105.573H102.791V106.906Z" fill="#4C0D00"/>
<path fill-rule="evenodd" clip-rule="evenodd" d="M112.854 98.3193H166.466V96.986H112.854V98.3193Z" fill="#4C0D00"/>
<path fill-rule="evenodd" clip-rule="evenodd" d="M120.589 89.7327H166.466V88.3993H120.589V89.7327Z" fill="#4C0D00"/>
</svg>
