<svg width="182" height="128" viewBox="0 0 182 128" fill="none" xmlns="http://www.w3.org/2000/svg">
<path d="M18.7341 83.6873C29.68 37.4914 72.7256 -0.491364 116.349 19.1685C116.588 19.1685 118.492 18.9439 119.427 18.9657C73.201 -4.06493 27.1507 36.3722 16.127 85.6354L17.9733 86.8086C18.1833 85.802 18.444 84.7591 18.7341 83.6873Z" fill="#FFF4DA"/>
<path d="M18.7341 83.6873C29.68 37.4914 72.7256 -0.49136 116.349 19.1685C116.588 19.1685 118.492 18.944 119.427 18.9657C73.201 -4.06492 27.1507 36.3722 16.127 85.6354L17.9733 86.8086C18.1833 85.802 18.444 84.7591 18.7341 83.6873Z" stroke="#4C0D00" stroke-width="1.33333" stroke-miterlimit="10"/>
<path d="M29.38 106.171C-2.15635 91.2162 -0.698902 71.7841 4.4831 68.7074C9.66474 65.6306 15.4945 68.7074 15.4945 68.7074C15.4945 68.7074 5.94055 50.1175 25.6963 49.98C25.6963 49.98 20.5954 38.1831 26.6678 34.0537C32.7402 29.9244 53.8724 36.9183 53.8724 36.9183C53.8724 36.9183 49.0807 18.6881 61.055 7.36521C70.8754 -1.92046 78.486 8.22556 77.8386 13.8124C77.8386 13.8124 78.2434 5.14881 83.5062 3.93433C88.7689 2.71985 89.0119 7.9826 89.0119 7.9826C89.0119 7.9826 90.0645 -0.0328369 97.2703 1.01942C104.476 2.07205 96.6225 16.1783 96.6225 16.1783C96.6225 16.1783 112.9 4.1581 122.143 16.1783C131.281 28.0628 52.6383 106.33 52.6383 106.33L29.38 106.171Z" fill="#FFF4DA"/>
<path d="M29.38 106.171C-2.15635 91.2162 -0.698902 71.7841 4.4831 68.7074C9.66474 65.6306 15.4945 68.7074 15.4945 68.7074C15.4945 68.7074 5.94055 50.1176 25.6963 49.98C25.6963 49.98 20.5954 38.1831 26.6678 34.0537C32.7402 29.9244 53.8724 36.9183 53.8724 36.9183C53.8724 36.9183 49.0807 18.6881 61.055 7.36521C70.8754 -1.92046 78.486 8.22556 77.8386 13.8124C77.8386 13.8124 78.2434 5.14881 83.5062 3.93433C88.7689 2.71985 89.0119 7.9826 89.0119 7.9826C89.0119 7.9826 90.0645 -0.0328346 97.2703 1.01943C104.476 2.07205 96.6225 16.1783 96.6225 16.1783C96.6225 16.1783 112.9 4.1581 122.143 16.1783C131.281 28.0628 52.6383 106.33 52.6383 106.33L29.38 106.171Z" stroke="#4C0D00" stroke-width="1.33333" stroke-miterlimit="10"/>
<path d="M68.5587 52.7205C78.8713 37.1429 91.6679 27.1925 105.225 22.9052C89.6329 27.4025 78.2054 37.9975 68.5587 52.7205Z" stroke="#4C0D00" stroke-width="1.33333" stroke-miterlimit="10"/>
<path d="M105.225 22.9052C91.6682 27.1925 78.8716 37.143 68.5586 52.7205C78.2053 37.9975 89.6328 27.4025 105.225 22.9052Z" fill="white"/>
<path d="M105.225 22.9052C91.6682 27.1925 78.8716 37.1429 68.5586 52.7205C78.2053 37.9975 89.6328 27.4025 105.225 22.9052Z" stroke="#4C0D00" stroke-width="1.33333" stroke-miterlimit="10"/>
<path d="M117.428 22.5993C94.565 17.6747 70.623 27.7701 53.8506 52.6318C42.737 69.103 36.4901 89.5022 35.0044 110.512C34.8918 112.104 33.1617 113.039 31.7625 112.269L30.9413 111.818C29.9886 111.294 29.4165 110.265 29.4918 109.18C30.9518 88.1219 37.2031 67.6651 48.3394 51.1544C66.4661 24.2939 92.9718 14.6621 117.428 22.5993Z" fill="#4C0D00"/>
<path d="M117.428 22.5993C94.565 17.6747 70.623 27.77 53.8506 52.6318C42.737 69.103 36.4901 89.5022 35.0044 110.512C34.8918 112.104 33.1617 113.039 31.7625 112.269L30.9413 111.818C29.9886 111.294 29.4165 110.265 29.4918 109.18C30.9518 88.1219 37.2031 67.6651 48.3394 51.1544C66.4661 24.2939 92.9718 14.6621 117.428 22.5993Z" stroke="#4C0D00" stroke-width="1.33333" stroke-miterlimit="10"/>
<path d="M133.302 88.8581L33.7029 112.351C34.4054 112.047 34.9413 111.373 35.0065 110.512C36.4914 89.5026 42.7337 69.1019 53.8501 52.6337C70.0146 28.6772 92.8337 18.4298 114.936 22.1304L133.302 88.8581Z" fill="#FFF4DA"/>
<path d="M133.302 88.8581L33.7029 112.351C34.4054 112.047 34.9413 111.373 35.0065 110.512C36.4914 89.5026 42.7337 69.1019 53.8501 52.6337C70.0146 28.6772 92.8337 18.4298 114.936 22.1304L133.302 88.8581Z" stroke="#4C0D00" stroke-width="1.33333" stroke-miterlimit="10"/>
<path d="M50.5361 89.2209C40.0689 83.1174 36.5309 69.6817 42.6348 59.2145C48.0532 49.922 59.2537 46.0909 69.0242 49.6196L65.53 57.3012L63.1205 62.6048L62.6918 63.5528L61.6472 65.8449L60.5906 68.1746L59.3428 70.9179L59.0813 71.4933L58.1525 73.5359L56.4376 77.309L55.6924 78.9438L50.9211 89.4353C50.7911 89.3698 50.6654 89.2963 50.5361 89.2209Z" fill="#FFF4DA"/>
<path d="M50.5361 89.2209C40.0689 83.1174 36.5309 69.6817 42.6348 59.2145C48.0532 49.922 59.2537 46.0909 69.0242 49.6196L65.53 57.3012L63.1205 62.6048L62.6918 63.5528L61.6472 65.8449L60.5906 68.1746L59.3428 70.9179L59.0813 71.4933L58.1525 73.5359L56.4376 77.309L55.6924 78.9438L50.9211 89.4353C50.7911 89.3698 50.6654 89.2963 50.5361 89.2209Z" stroke="#4C0D00" stroke-width="1.33333" stroke-miterlimit="10"/>
<path d="M55.4408 79.3666C54.8929 79.1511 54.3947 78.7912 54.005 78.2966C52.8014 76.7779 53.0545 74.5688 54.5699 73.363C54.6992 73.2601 54.8372 73.1674 54.9787 73.0863C54.8592 72.9773 54.7499 72.8589 54.6471 72.7297C53.4434 71.211 53.6965 69.0018 55.2155 67.7982C55.7283 67.3941 56.3149 67.1522 56.9185 67.0682C56.2986 66.0087 56.2515 64.6545 56.9131 63.52C57.6304 62.2896 58.9781 61.6596 60.3052 61.795C60.3762 61.4104 60.516 61.0262 60.7249 60.6681C61.5523 59.2494 63.2212 58.6284 64.7304 59.0629L63.1205 62.6046L62.6918 63.5526L61.6472 65.8451L60.5905 68.1748L59.3428 70.9177L59.0813 71.4931L58.1525 73.536L56.4376 77.3091L55.6921 78.944L55.4466 79.4839C55.4397 79.4451 55.4419 79.4068 55.4408 79.3666Z" fill="white"/>
<path d="M55.4408 79.3666C54.8929 79.1511 54.3947 78.7912 54.005 78.2966C52.8014 76.7779 53.0545 74.5688 54.5699 73.363C54.6992 73.2601 54.8372 73.1674 54.9787 73.0863C54.8592 72.9773 54.7499 72.8589 54.6471 72.7297C53.4434 71.211 53.6965 69.0018 55.2155 67.7982C55.7283 67.3941 56.3149 67.1522 56.9185 67.0682C56.2986 66.0087 56.2515 64.6545 56.9131 63.52C57.6304 62.2896 58.9781 61.6596 60.3052 61.795C60.3762 61.4104 60.516 61.0262 60.7249 60.6681C61.5523 59.2494 63.2212 58.6284 64.7304 59.0629L63.1205 62.6046L62.6918 63.5526L61.6472 65.8451L60.5905 68.1748L59.3428 70.9177L59.0813 71.4931L58.1525 73.536L56.4376 77.3091L55.6921 78.944L55.4466 79.4839C55.4397 79.4451 55.4419 79.4068 55.4408 79.3666Z" stroke="#4C0D00" stroke-width="1.33333"/>
<path d="M48.6393 94.4521L50.9209 89.4353L48.6393 94.4521Z" fill="white"/>
<path d="M48.6393 94.4521L50.9209 89.4353" stroke="#4C0D00" stroke-width="1.33333"/>
<path d="M69.0241 49.6194L71.3017 44.6101L69.0241 49.6194Z" fill="white"/>
<path d="M69.0241 49.6194L71.3017 44.6101" stroke="#4C0D00" stroke-width="1.33333"/>
<path d="M55.4408 79.3666C54.8929 79.1511 54.3947 78.7912 54.005 78.2966C52.8014 76.7779 53.0545 74.5688 54.5699 73.363C54.6992 73.2601 54.8372 73.1674 54.9787 73.0863C54.8592 72.9773 54.7499 72.8589 54.6471 72.7297C53.4434 71.211 53.6965 69.0018 55.2155 67.7982C55.7283 67.3941 56.3149 67.1522 56.9185 67.0682C56.2986 66.0087 56.2515 64.6545 56.9131 63.52C57.6304 62.2896 58.9781 61.6596 60.3052 61.795C60.3762 61.4104 60.516 61.0262 60.7249 60.6681C61.5523 59.2494 63.2212 58.6284 64.7304 59.0629L63.1205 62.6046L62.6918 63.5526L61.6472 65.8451L60.5905 68.1748L59.3428 70.9177L59.0813 71.4931L58.1525 73.536L56.4376 77.3091L55.6921 78.944L55.4466 79.4839C55.4397 79.4451 55.4419 79.4068 55.4408 79.3666Z" fill="#FFF4DA"/>
<path d="M55.4408 79.3666C54.8929 79.1511 54.3947 78.7912 54.005 78.2966C52.8014 76.7779 53.0545 74.5688 54.5699 73.363C54.6992 73.2601 54.8372 73.1674 54.9787 73.0863C54.8592 72.9773 54.7499 72.8589 54.6471 72.7297C53.4434 71.211 53.6965 69.0018 55.2155 67.7982C55.7283 67.3941 56.3149 67.1522 56.9185 67.0682C56.2986 66.0087 56.2515 64.6545 56.9131 63.52C57.6304 62.2896 58.9781 61.6596 60.3052 61.795C60.3762 61.4104 60.516 61.0262 60.7249 60.6681C61.5523 59.2494 63.2212 58.6284 64.7304 59.0629L63.1205 62.6046L62.6918 63.5526L61.6472 65.8451L60.5905 68.1748L59.3428 70.9177L59.0813 71.4931L58.1525 73.536L56.4376 77.3091L55.6921 78.944L55.4466 79.4839C55.4397 79.4451 55.4419 79.4068 55.4408 79.3666Z" stroke="#4C0D00" stroke-width="1.33333"/>
<path d="M47.7699 93.965C34.6833 86.3338 30.2631 69.5371 37.8944 56.4501C44.7478 44.6971 58.9892 39.9308 71.3017 44.6102L69.0244 49.6194C59.2539 46.0908 48.0534 49.9222 42.6346 59.2143C36.5311 69.6815 40.0691 83.1172 50.5363 89.2211C50.6656 89.2965 50.7913 89.3696 50.9213 89.4355L48.6393 94.4524C48.3485 94.2974 48.0581 94.133 47.7699 93.965Z" fill="#FF6D2F"/>
<path d="M47.7699 93.965C34.6833 86.3338 30.2631 69.5371 37.8944 56.4501C44.7478 44.6971 58.9892 39.9308 71.3017 44.6102L69.0244 49.6194C59.2539 46.0908 48.0534 49.9222 42.6346 59.2143C36.5311 69.6815 40.0691 83.1172 50.5363 89.2211C50.6656 89.2965 50.7913 89.3696 50.9213 89.4355L48.6393 94.4524C48.3485 94.2974 48.0581 94.133 47.7699 93.965Z" stroke="#4C0D00" stroke-width="1.33333"/>
<path d="M46.7413 66.4753C47.6694 66.7335 50.3717 68.2963 50.1136 69.2243C49.855 70.152 46.7337 70.0937 45.806 69.8356C44.878 69.577 44.3352 68.6157 44.5937 67.6876C44.8519 66.7599 45.8133 66.2171 46.7413 66.4753Z" fill="#FFF4DA"/>
<path d="M46.7413 66.4753C47.6694 66.7335 50.3717 68.2963 50.1136 69.2243C49.855 70.152 46.7337 70.0937 45.806 69.8356C44.878 69.577 44.3352 68.6157 44.5937 67.6876C44.8519 66.7599 45.8133 66.2171 46.7413 66.4753Z" stroke="#4C0D00" stroke-width="1.33333"/>
<path d="M45.9993 76.4988C46.738 76.2131 49.2883 75.9162 49.574 76.6549C49.8593 77.3935 47.7722 78.8886 47.0335 79.1743C46.2948 79.46 45.4642 79.0925 45.1785 78.3538C44.8931 77.6148 45.2603 76.7845 45.9993 76.4988Z" fill="#FFF4DA"/>
<path d="M45.9993 76.4988C46.738 76.2131 49.2883 75.9162 49.574 76.6549C49.8593 77.3935 47.7722 78.8886 47.0335 79.1743C46.2948 79.46 45.4642 79.0925 45.1785 78.3538C44.8931 77.6148 45.2603 76.7845 45.9993 76.4988Z" stroke="#4C0D00" stroke-width="1.33333"/>
<path d="M51.9413 56.5242C52.5992 57.2278 54.0929 59.9692 53.389 60.6268C52.6854 61.2844 50.0512 59.6097 49.3932 58.9061C48.7357 58.2025 48.7726 57.0989 49.4765 56.4413C50.1801 55.7834 51.2834 55.8207 51.9413 56.5242Z" fill="#FFF4DA"/>
<path d="M51.9413 56.5242C52.5992 57.2278 54.0929 59.9692 53.389 60.6268C52.6854 61.2844 50.0512 59.6097 49.3932 58.9061C48.7357 58.2025 48.7726 57.0989 49.4765 56.4413C50.1801 55.7834 51.2834 55.8207 51.9413 56.5242Z" stroke="#4C0D00" stroke-width="1.33333"/>
<path d="M60.1136 53.7426C60.1806 54.4813 59.7928 56.8538 59.0541 56.9212C58.3154 56.9881 57.5058 54.7247 57.4384 53.986C57.3714 53.2473 57.9157 52.5941 58.6544 52.5267C59.393 52.4597 60.0463 53.004 60.1136 53.7426Z" fill="#FFF4DA"/>
<path d="M60.1136 53.7426C60.1806 54.4813 59.7928 56.8538 59.0541 56.9212C58.3154 56.9881 57.5058 54.7247 57.4384 53.986C57.3714 53.2473 57.9157 52.5941 58.6544 52.5267C59.393 52.4597 60.0463 53.004 60.1136 53.7426Z" stroke="#4C0D00" stroke-width="1.33333"/>
<path d="M54.3342 113.047C32.5098 120.78 13.7339 104.019 29.4852 101.591C20.5366 98.7404 20.3921 94.1791 23.6119 89.4356C29.4852 80.7821 41.6611 97.38 41.6611 97.38C41.6611 97.38 39.0247 83.8292 46.1204 84.9115C57.3035 86.6173 56.3222 99.9712 56.3222 99.9712C56.3222 99.9712 69.4899 107.677 54.3342 113.047Z" fill="#FFF4DA"/>
<path d="M54.3342 113.047C32.5098 120.78 13.7339 104.019 29.4852 101.591C20.5366 98.7404 20.3921 94.1791 23.6119 89.4356C29.4852 80.7821 41.6611 97.38 41.6611 97.38C41.6611 97.38 39.0247 83.8292 46.1204 84.9115C57.3035 86.6173 56.3222 99.9712 56.3222 99.9712C56.3222 99.9712 69.4899 107.677 54.3342 113.047Z" stroke="#4C0D00" stroke-width="1.33333" stroke-miterlimit="10"/>
<path d="M84.5002 23.4076C87.1323 20.6868 91.652 23.2964 90.612 26.9362C94.2518 25.8959 96.8615 30.4156 94.1407 33.0481C97.8131 33.9671 97.8131 39.186 94.1407 40.1054C96.8615 42.7375 94.2518 47.2572 90.612 46.2173C91.652 49.8571 87.1323 52.4667 84.5002 49.7459C83.5811 53.4183 78.3618 53.4183 77.4428 49.7459C74.8107 52.4667 70.2907 49.8571 71.331 46.2173C67.6911 47.2572 65.0815 42.7375 67.8023 40.1054C64.1299 39.186 64.1299 33.9671 67.8023 33.0481C65.0815 30.4156 67.6911 25.8959 71.331 26.9362C70.2907 23.2964 74.8107 20.6868 77.4428 23.4076C78.3618 19.7352 83.5811 19.7352 84.5002 23.4076Z" fill="#FFF4DA"/>
<path d="M84.5002 23.4076C87.1323 20.6868 91.652 23.2964 90.612 26.9362C94.2518 25.8959 96.8615 30.4156 94.1407 33.0481C97.8131 33.9671 97.8131 39.186 94.1407 40.1054C96.8615 42.7375 94.2518 47.2572 90.612 46.2173C91.652 49.8571 87.1323 52.4667 84.5002 49.7459C83.5811 53.4183 78.3618 53.4183 77.4428 49.7459C74.8107 52.4667 70.2907 49.8571 71.331 46.2173C67.6911 47.2572 65.0815 42.7375 67.8023 40.1054C64.1299 39.186 64.1299 33.9671 67.8023 33.0481C65.0815 30.4156 67.6911 25.8959 71.331 26.9362C70.2907 23.2964 74.8107 20.6868 77.4428 23.4076C78.3618 19.7352 83.5811 19.7352 84.5002 23.4076Z" stroke="#4C0D00" stroke-width="1.33333" stroke-miterlimit="10"/>
<path d="M77.5913 35.7709C77.5913 36.9441 76.6405 37.895 75.4673 37.895C74.2941 37.895 73.3432 36.9441 73.3432 35.7709C73.3432 34.5977 74.2941 33.6469 75.4673 33.6469C76.6405 33.6469 77.5913 34.5977 77.5913 35.7709Z" fill="#FFF4DA"/>
<path d="M77.5913 35.7709C77.5913 36.9441 76.6405 37.895 75.4673 37.895C74.2941 37.895 73.3432 36.9441 73.3432 35.7709C73.3432 34.5977 74.2941 33.6469 75.4673 33.6469C76.6405 33.6469 77.5913 34.5977 77.5913 35.7709Z" stroke="#4C0D00" stroke-width="1.33333"/>
<path d="M89.0774 33.317C89.0774 34.9714 87.7362 36.3123 86.0821 36.3123C84.4277 36.3123 83.0865 34.9714 83.0865 33.317C83.0865 31.6625 84.4277 30.3217 86.0821 30.3217C87.7362 30.3217 89.0774 31.6625 89.0774 33.317Z" fill="#FFF4DA"/>
<path d="M89.0774 33.317C89.0774 34.9714 87.7362 36.3123 86.0821 36.3123C84.4277 36.3123 83.0865 34.9714 83.0865 33.317C83.0865 31.6625 84.4277 30.3217 86.0821 30.3217C87.7362 30.3217 89.0774 31.6625 89.0774 33.317Z" stroke="#4C0D00" stroke-width="1.33333"/>
<path d="M80.838 41.9149C80.7671 42.9328 79.8843 43.7008 78.866 43.6294C77.8482 43.5585 77.0805 42.6757 77.1515 41.6578C77.2225 40.6399 78.1053 39.8719 79.1235 39.9433C80.1413 40.0142 80.909 40.897 80.838 41.9149Z" fill="#FFF4DA"/>
<path d="M80.838 41.9149C80.7671 42.9328 79.8843 43.7008 78.866 43.6294C77.8482 43.5585 77.0805 42.6757 77.1515 41.6578C77.2225 40.6399 78.1053 39.8719 79.1235 39.9433C80.1413 40.0142 80.909 40.897 80.838 41.9149Z" stroke="#4C0D00" stroke-width="1.33333"/>
<path d="M81.3886 30.8891C81.3886 31.7187 80.7162 32.3911 79.8866 32.3911C79.0571 32.3911 78.3846 31.7187 78.3846 30.8891C78.3846 30.0596 79.0571 29.3871 79.8866 29.3871C80.7162 29.3871 81.3886 30.0596 81.3886 30.8891Z" fill="#FFF4DA"/>
<path d="M81.3886 30.8891C81.3886 31.7187 80.7162 32.3911 79.8866 32.3911C79.0571 32.3911 78.3846 31.7187 78.3846 30.8891C78.3846 30.0596 79.0571 29.3871 79.8866 29.3871C80.7162 29.3871 81.3886 30.0596 81.3886 30.8891Z" stroke="#4C0D00" stroke-width="1.33333"/>
<path d="M86.8433 39.9384C86.8433 40.768 86.1709 41.4404 85.3413 41.4404C84.5117 41.4404 83.8393 40.768 83.8393 39.9384C83.8393 39.1089 84.5117 38.4365 85.3413 38.4365C86.1709 38.4365 86.8433 39.1089 86.8433 39.9384Z" fill="#FFF4DA"/>
<path d="M86.8433 39.9384C86.8433 40.768 86.1709 41.4404 85.3413 41.4404C84.5117 41.4404 83.8393 40.768 83.8393 39.9384C83.8393 39.1089 84.5117 38.4365 85.3413 38.4365C86.1709 38.4365 86.8433 39.1089 86.8433 39.9384Z" stroke="#4C0D00" stroke-width="1.33333"/>
<path d="M77.8431 13.7151C77.8573 13.6354 77.8573 13.5485 77.8649 13.4689C77.8504 13.5702 77.8431 13.6572 77.8431 13.7151Z" fill="white"/>
<path d="M77.8431 13.7151C77.8573 13.6354 77.8573 13.5485 77.8649 13.4689C77.8504 13.5702 77.8431 13.6572 77.8431 13.7151Z" stroke="#4C0D00" stroke-width="1.33333" stroke-miterlimit="10"/>
<path d="M122.866 19.1684C121.939 19.0815 121.019 19.0236 120.093 18.9874C79.3131 16.9452 49.8234 65.843 46.5504 106.29C46.42 107.933 46.3255 109.563 46.2824 111.171C46.1445 118.384 41.5607 125.618 33.9855 121.585C26.5553 117.529 17.8721 113.227 17.0534 99.0258C16.2499 98.4537 15.4895 97.8743 14.7653 97.3022C14.8739 113.691 25.1938 119.492 33.8407 123.801C33.8479 123.801 33.8479 123.808 33.8552 123.808C42.6249 128.305 48.694 121.722 48.9113 112.691C49.0127 110.555 49.1716 108.426 49.3892 106.311C51.417 86.6493 58.3983 68.2112 68.5588 52.7278V52.7206C80.6384 33.9421 96.7011 21.8987 118.268 20.6675C119.738 20.5299 121.208 20.472 122.685 20.4937C131.006 20.5806 139.356 23.0863 147.178 27.475C139.342 22.6808 131.122 19.9216 122.866 19.1684Z" fill="#FFF4DA"/>
<path d="M122.866 19.1684C121.939 19.0815 121.019 19.0236 120.093 18.9874C79.3131 16.9452 49.8234 65.843 46.5504 106.29C46.42 107.933 46.3255 109.563 46.2824 111.171C46.1445 118.384 41.5607 125.618 33.9855 121.585C26.5553 117.529 17.8721 113.227 17.0534 99.0258C16.2499 98.4537 15.4895 97.8743 14.7653 97.3022C14.8739 113.691 25.1938 119.492 33.8407 123.801C33.848 123.801 33.8479 123.808 33.8552 123.808C42.6249 128.305 48.694 121.722 48.9113 112.691C49.0127 110.555 49.1716 108.426 49.3892 106.311C51.417 86.6493 58.3983 68.2112 68.5588 52.7278V52.7206C80.6384 33.9421 96.7011 21.8987 118.268 20.6675C119.738 20.5299 121.208 20.472 122.685 20.4937C131.006 20.5806 139.356 23.0863 147.178 27.475C139.342 22.6808 131.122 19.9216 122.866 19.1684Z" stroke="#4C0D00" stroke-width="1.33333" stroke-miterlimit="10"/>
<path d="M173.591 92.8082L49.9191 125.676C44.5159 127.112 38.7687 126.44 33.8416 123.798C42.6417 128.301 48.6797 121.726 48.9122 112.688C49.8753 91.513 56.8711 71.2282 67.314 54.6513C92.7446 11.1693 146.784 6.82594 173.199 51.3493C180.524 63.6958 181.01 73.7234 181.243 82.551C181.369 87.3333 178.215 91.5796 173.591 92.8082Z" fill="#FFF4DA"/>
<path d="M173.591 92.8082L49.9192 125.676C44.5159 127.112 38.7687 126.44 33.8416 123.798C42.6417 128.301 48.6797 121.726 48.9122 112.688C49.8753 91.513 56.8711 71.2282 67.314 54.6513C92.7446 11.1693 146.784 6.82594 173.199 51.3493C180.524 63.6958 181.01 73.7234 181.243 82.551C181.369 87.3333 178.215 91.5796 173.591 92.8082Z" stroke="#4C0D00" stroke-width="1.33333" stroke-miterlimit="10"/>
<path d="M117.425 40.0426L94.4642 83.8291" stroke="#4C0D00" stroke-width="1.33333" stroke-miterlimit="10"/>
<path d="M129.563 47.0261L108.072 90.2585" stroke="#4C0D00" stroke-width="1.33333" stroke-miterlimit="10"/>
<path d="M141.159 53.6974L121.027 96.3799" stroke="#4C0D00" stroke-width="1.33333" stroke-miterlimit="10"/>
<path d="M143.909 64.0273L106.907 43.3804" stroke="#4C0D00" stroke-width="1.33333" stroke-miterlimit="10"/>
<path d="M137.695 77.5676L99.3235 57.4335" stroke="#4C0D00" stroke-width="1.33333" stroke-miterlimit="10"/>
<path d="M131.193 91.7371L91.361 72.1895" stroke="#4C0D00" stroke-width="1.33333" stroke-miterlimit="10"/>
</svg>
