<svg width="602" height="397" viewBox="0 0 602 397" fill="none" xmlns="http://www.w3.org/2000/svg">
<path d="M69.1728 226.245C136.163 90.5711 296.993 3.33205 418.453 95.5512C419.195 95.7219 425.272 96.3847 428.158 97.1193C301.022 -7.42839 129.106 85.2883 59.6835 230.434L64.5807 235.397C65.9519 232.42 67.5065 229.367 69.1728 226.245Z" fill="#FFF4DA"/>
<path d="M69.1728 226.245C136.163 90.5711 296.993 3.33205 418.453 95.5512C419.195 95.7219 425.272 96.3847 428.158 97.1194C301.022 -7.4284 129.106 85.2883 59.6835 230.434L64.5807 235.397C65.9519 232.42 67.5065 229.367 69.1728 226.245Z" stroke="#4C0D00" stroke-width="1.33333" stroke-miterlimit="10"/>
<path d="M86.1855 303.684C-1.09116 234.712 17.3131 175.394 35.6063 169.538C53.8985 163.682 69.8094 177.402 69.8094 177.402C69.8094 177.402 53.4091 112.836 114.872 126.517C114.872 126.517 107.452 86.2321 129.263 77.7422C151.073 69.2523 211.718 106.068 211.718 106.068C211.718 106.068 209.853 46.0202 255.133 19.4011C292.268 -2.42823 308.662 34.5218 302.661 51.4129C302.661 51.4129 310.106 24.7917 327.32 24.7777C344.534 24.7637 341.53 41.284 341.53 41.284C341.53 41.284 350.524 17.1387 372.155 25.5531C393.786 33.9689 359.317 72.1762 359.317 72.1762C359.317 72.1762 418.46 46.4637 438.586 90.401C458.485 133.842 158.315 320.788 158.315 320.788L86.1855 303.684Z" fill="#FFF4DA"/>
<path d="M86.1855 303.684C-1.09116 234.712 17.3131 175.394 35.6063 169.538C53.8985 163.682 69.8094 177.402 69.8094 177.402C69.8094 177.402 53.4091 112.836 114.872 126.517C114.872 126.517 107.452 86.2321 129.263 77.7422C151.073 69.2523 211.718 106.068 211.718 106.068C211.718 106.068 209.853 46.0202 255.133 19.4011C292.268 -2.42824 308.662 34.5218 302.661 51.4129C302.661 51.4129 310.106 24.7917 327.32 24.7777C344.534 24.7637 341.53 41.284 341.53 41.284C341.53 41.284 350.524 17.1387 372.155 25.5531C393.786 33.9689 359.317 72.1762 359.317 72.1762C359.317 72.1762 418.46 46.4638 438.586 90.401C458.485 133.842 158.315 320.788 158.315 320.788L86.1855 303.684Z" stroke="#4C0D00" stroke-width="1.33333" stroke-miterlimit="10"/>
<path d="M246.051 165.64C289.208 124.619 336.062 102.85 381.233 99.2144C329.591 102.049 286.529 126.797 246.051 165.64Z" stroke="#4C0D00" stroke-width="1.33333" stroke-miterlimit="10"/>
<path d="M381.233 99.2142C336.063 102.85 289.209 124.619 246.051 165.64C286.529 126.797 329.591 102.048 381.233 99.2142Z" fill="#FFF4DA"/>
<path d="M381.233 99.2142C336.063 102.85 289.209 124.619 246.051 165.64C286.529 126.797 329.591 102.048 381.233 99.2142Z" stroke="#4C0D00" stroke-width="1.33333" stroke-miterlimit="10"/>
<path d="M419.356 106.978C351.857 75.3545 270.281 89.614 200.429 154.86C154.146 198.085 120.174 256.987 100.555 321.185C99.0682 326.051 93.0268 327.718 89.2306 324.328L87.0021 322.339C84.4172 320.031 83.375 316.426 84.3834 313.111C103.957 248.744 137.983 189.667 184.365 146.335C259.851 75.848 349.06 64.8589 419.356 106.978Z" fill="#4C0D00"/>
<path d="M419.356 106.978C351.857 75.3545 270.281 89.614 200.429 154.86C154.146 198.085 120.174 256.987 100.555 321.185C99.0682 326.051 93.0268 327.718 89.2306 324.328L87.0021 322.339C84.4172 320.031 83.375 316.426 84.3834 313.111C103.957 248.744 137.983 189.667 184.365 146.335C259.851 75.848 349.06 64.8589 419.356 106.978Z" stroke="#4C0D00" stroke-width="1.33333" stroke-miterlimit="10"/>
<path d="M421.345 324.124L95.1992 325.969C97.5984 325.525 99.744 323.816 100.562 321.186C120.178 256.989 154.136 198.08 200.426 154.866C267.743 91.9975 345.941 76.4637 411.951 103.743L421.345 324.124Z" fill="#FFF4DA"/>
<path d="M421.345 324.124L95.1992 325.969C97.5984 325.525 99.744 323.816 100.562 321.186C120.178 256.989 154.136 198.08 200.426 154.866C267.743 91.9975 345.941 76.4637 411.951 103.743L421.345 324.124Z" stroke="#4C0D00" stroke-width="1.33333" stroke-miterlimit="10"/>
<path d="M164.004 266.144C135.85 239.711 134.455 195.451 160.89 167.298C184.357 142.303 221.883 138.402 249.711 156.34L233.372 177.705L222.101 192.458L220.092 195.097L215.21 201.47L210.264 207.952L204.43 215.582L203.207 217.182L198.863 222.864L190.842 233.359L187.359 237.905L165.047 267.085C164.69 266.789 164.352 266.471 164.004 266.144Z" fill="#FFF4DA"/>
<path d="M164.004 266.144C135.85 239.711 134.455 195.451 160.89 167.298C184.357 142.303 221.883 138.402 249.711 156.34L233.372 177.705L222.101 192.458L220.092 195.097L215.21 201.47L210.264 207.952L204.43 215.582L203.207 217.182L198.863 222.864L190.842 233.359L187.359 237.905L165.047 267.085C164.69 266.789 164.352 266.471 164.004 266.144Z" stroke="#4C0D00" stroke-width="1.33333" stroke-miterlimit="10"/>
<path d="M186.276 239.038C184.728 237.978 183.437 236.504 182.58 234.689C179.926 229.112 182.29 222.431 187.858 219.768C188.333 219.541 188.828 219.352 189.326 219.201C189.032 218.777 188.777 218.331 188.55 217.856C185.896 212.279 188.26 205.598 193.838 202.944C195.719 202.055 197.714 201.723 199.648 201.893C198.48 198.159 199.3 193.919 202.166 190.868C205.272 187.558 209.908 186.564 213.934 187.932C214.429 186.788 215.137 185.695 216.042 184.732C219.625 180.916 225.253 180.179 229.63 182.606L222.1 192.458L220.092 195.096L215.21 201.471L210.264 207.952L204.429 215.581L203.207 217.182L198.863 222.864L190.841 233.359L187.358 237.905L186.21 239.407C186.216 239.281 186.25 239.164 186.276 239.038Z" fill="#FFF4DA"/>
<path d="M186.276 239.038C184.728 237.978 183.437 236.504 182.58 234.689C179.926 229.112 182.29 222.431 187.858 219.768C188.333 219.541 188.828 219.352 189.326 219.201C189.032 218.777 188.777 218.331 188.55 217.856C185.896 212.279 188.26 205.598 193.838 202.944C195.719 202.055 197.714 201.723 199.648 201.893C198.48 198.159 199.3 193.919 202.166 190.868C205.272 187.558 209.908 186.564 213.934 187.932C214.429 186.788 215.137 185.695 216.042 184.732C219.625 180.916 225.253 180.179 229.63 182.606L222.1 192.458L220.092 195.096L215.21 201.471L210.264 207.952L204.429 215.581L203.207 217.182L198.863 222.864L190.841 233.359L187.358 237.905L186.21 239.407C186.216 239.281 186.25 239.164 186.276 239.038Z" stroke="#4C0D00" stroke-width="1.33333"/>
<path d="M154.377 281.039L165.047 267.085L154.377 281.039Z" fill="#FFF4DA"/>
<path d="M154.377 281.039L165.047 267.085" stroke="#4C0D00" stroke-width="1.33333"/>
<path d="M249.711 156.34L260.363 142.407L249.711 156.34Z" fill="#FFF4DA"/>
<path d="M249.711 156.34L260.363 142.407" stroke="#4C0D00" stroke-width="1.33333"/>
<path d="M186.276 239.038C184.728 237.978 183.437 236.504 182.58 234.689C179.926 229.112 182.29 222.431 187.858 219.768C188.333 219.541 188.828 219.352 189.326 219.201C189.032 218.777 188.777 218.331 188.55 217.856C185.896 212.279 188.26 205.598 193.838 202.944C195.719 202.055 197.714 201.723 199.648 201.893C198.48 198.159 199.3 193.919 202.166 190.868C205.272 187.558 209.908 186.564 213.934 187.932C214.429 186.788 215.137 185.695 216.042 184.732C219.625 180.916 225.253 180.179 229.63 182.606L222.1 192.458L220.092 195.096L215.21 201.471L210.264 207.952L204.429 215.581L203.207 217.182L198.863 222.864L190.841 233.359L187.358 237.905L186.21 239.407C186.216 239.281 186.25 239.164 186.276 239.038Z" fill="#FFF4DA"/>
<path d="M186.276 239.038C184.728 237.978 183.437 236.504 182.58 234.689C179.926 229.112 182.29 222.431 187.858 219.768C188.333 219.541 188.828 219.352 189.326 219.201C189.032 218.777 188.777 218.331 188.55 217.856C185.896 212.279 188.26 205.598 193.838 202.944C195.719 202.055 197.714 201.723 199.648 201.893C198.48 198.159 199.3 193.919 202.166 190.868C205.272 187.558 209.908 186.564 213.934 187.932C214.429 186.788 215.137 185.695 216.042 184.732C219.625 180.916 225.253 180.179 229.63 182.606L222.1 192.458L220.092 195.096L215.21 201.471L210.264 207.952L204.429 215.581L203.207 217.182L198.863 222.864L190.841 233.359L187.358 237.905L186.21 239.407C186.216 239.281 186.25 239.164 186.276 239.038Z" stroke="#4C0D00" stroke-width="1.33333"/>
<path d="M152.023 278.904C116.824 245.855 115.09 190.526 148.139 155.325C177.82 123.713 225.46 119.079 260.362 142.406L249.712 156.34C221.883 138.402 184.357 142.304 160.889 167.297C134.456 195.451 135.85 239.71 164.004 266.145C164.352 266.471 164.69 266.788 165.046 267.086L154.376 281.039C153.583 280.35 152.798 279.632 152.023 278.904Z" fill="#FF6D2F"/>
<path d="M152.023 278.904C116.824 245.855 115.09 190.526 148.139 155.325C177.82 123.713 225.46 119.079 260.362 142.406L249.711 156.34C221.883 138.402 184.357 142.304 160.889 167.297C134.456 195.451 135.85 239.71 164.004 266.145C164.352 266.471 164.69 266.788 165.046 267.086L154.376 281.039C153.583 280.35 152.798 279.632 152.023 278.904Z" stroke="#4C0D00" stroke-width="1.33333"/>
<path d="M168.46 192.783C171.159 194.247 178.437 201.032 176.972 203.73C175.506 206.427 165.853 204.017 163.156 202.552C160.458 201.087 159.458 197.713 160.924 195.015C162.388 192.318 165.762 191.318 168.46 192.783Z" fill="#FFF4DA"/>
<path d="M168.46 192.783C171.159 194.247 178.437 201.032 176.972 203.73C175.506 206.427 165.853 204.017 163.156 202.552C160.458 201.087 159.458 197.713 160.924 195.015C162.388 192.318 165.762 191.318 168.46 192.783Z" stroke="#4C0D00" stroke-width="1.33333"/>
<path d="M158.996 223.387C161.495 223.028 169.628 223.927 169.988 226.425C170.347 228.923 162.796 232.077 160.298 232.437C157.799 232.797 155.482 231.062 155.122 228.563C154.763 226.064 156.497 223.747 158.996 223.387Z" fill="#FFF4DA"/>
<path d="M158.996 223.387C161.495 223.028 169.628 223.927 169.988 226.425C170.347 228.923 162.796 232.077 160.298 232.437C157.799 232.797 155.482 231.062 155.122 228.563C154.763 226.064 156.497 223.747 158.996 223.387Z" stroke="#4C0D00" stroke-width="1.33333"/>
<path d="M191.718 165.588C193.259 168.243 195.941 177.825 193.285 179.365C190.63 180.905 183.643 173.822 182.102 171.166C180.562 168.511 181.465 165.11 184.121 163.57C186.776 162.029 190.177 162.932 191.718 165.588Z" fill="#FFF4DA"/>
<path d="M191.718 165.588C193.259 168.243 195.941 177.825 193.285 179.365C190.63 180.905 183.643 173.822 182.102 171.166C180.562 168.511 181.465 165.11 184.121 163.57C186.776 162.029 190.177 162.932 191.718 165.588Z" stroke="#4C0D00" stroke-width="1.33333"/>
<path d="M219.09 162.783C218.771 165.126 215.872 172.218 213.529 171.9C211.187 171.58 210.288 163.971 210.607 161.629C210.926 159.286 213.083 157.646 215.426 157.964C217.768 158.284 219.408 160.441 219.09 162.783Z" fill="#FFF4DA"/>
<path d="M219.09 162.783C218.771 165.126 215.872 172.218 213.529 171.9C211.187 171.58 210.288 163.971 210.607 161.629C210.926 159.286 213.083 157.646 215.426 157.964C217.768 158.284 219.408 160.441 219.09 162.783Z" stroke="#4C0D00" stroke-width="1.33333"/>
<path d="M158.785 342.865C85.4727 351.299 39.1217 285.828 89.7821 289.532C64.022 274.289 66.8307 260.018 80.2193 247.583C104.642 224.899 130.609 285.149 130.609 285.149C130.609 285.149 132.097 241.176 153.364 249.605C186.882 262.89 174.298 303.668 174.298 303.668C174.298 303.668 209.695 337.008 158.785 342.865Z" fill="#FFF4DA"/>
<path d="M158.785 342.865C85.4727 351.299 39.1217 285.828 89.7821 289.532C64.022 274.289 66.8307 260.018 80.2193 247.583C104.642 224.899 130.609 285.149 130.609 285.149C130.609 285.149 132.097 241.176 153.364 249.605C186.882 262.89 174.298 303.668 174.298 303.668C174.298 303.668 209.695 337.008 158.785 342.865Z" stroke="#4C0D00" stroke-width="1.33333" stroke-miterlimit="10"/>
<path d="M316.5 85.9742C326.619 79.4026 338.794 90.7363 332.965 101.299C345.013 100.667 349.892 116.57 339.56 122.804C350.311 128.281 346.584 144.492 334.52 144.725C341.092 154.843 329.758 167.019 319.195 161.189C319.826 173.237 303.924 178.116 297.691 167.785C292.214 178.535 276.002 174.808 275.77 162.745C265.651 169.316 253.475 157.983 259.306 147.42C247.257 148.051 242.379 132.148 252.71 125.915C241.959 120.437 245.686 104.226 257.75 103.994C251.178 93.8746 262.512 81.6993 273.075 87.53C272.443 75.4813 288.347 70.6033 294.579 80.9343C300.056 70.1835 316.268 73.9109 316.5 85.9742Z" fill="#FFF4DA"/>
<path d="M316.5 85.9742C326.619 79.4026 338.794 90.7363 332.965 101.299C345.013 100.667 349.892 116.57 339.56 122.804C350.311 128.281 346.584 144.492 334.52 144.725C341.092 154.843 329.758 167.019 319.195 161.189C319.826 173.237 303.924 178.116 297.691 167.785C292.214 178.535 276.002 174.808 275.77 162.745C265.651 169.316 253.475 157.983 259.306 147.42C247.257 148.051 242.379 132.148 252.71 125.915C241.959 120.437 245.686 104.226 257.75 103.994C251.178 93.8746 262.512 81.6993 273.075 87.53C272.443 75.4813 288.347 70.6033 294.579 80.9343C300.056 70.1835 316.268 73.9109 316.5 85.9742Z" stroke="#4C0D00" stroke-width="1.33333" stroke-miterlimit="10"/>
<path d="M286.212 119.443C285.374 123.087 281.742 125.362 278.098 124.524C274.454 123.686 272.179 120.053 273.017 116.409C273.855 112.765 277.487 110.491 281.131 111.328C284.776 112.166 287.05 115.799 286.212 119.443Z" fill="#FFF4DA"/>
<path d="M286.212 119.443C285.374 123.087 281.742 125.362 278.098 124.524C274.454 123.686 272.179 120.053 273.017 116.409C273.855 112.765 277.487 110.491 281.131 111.328C284.776 112.166 287.05 115.799 286.212 119.443Z" stroke="#4C0D00" stroke-width="1.33333"/>
<path d="M323.642 120.022C322.461 125.161 317.337 128.368 312.199 127.187C307.061 126.006 303.852 120.883 305.034 115.744C306.215 110.605 311.339 107.398 316.478 108.58C321.615 109.761 324.824 114.884 323.642 120.022Z" fill="#FFF4DA"/>
<path d="M323.642 120.022C322.461 125.161 317.337 128.368 312.199 127.187C307.061 126.006 303.852 120.883 305.034 115.744C306.215 110.605 311.339 107.398 316.478 108.58C321.615 109.761 324.824 114.884 323.642 120.022Z" stroke="#4C0D00" stroke-width="1.33333"/>
<path d="M291.908 140.845C290.96 143.956 287.67 145.711 284.558 144.762C281.447 143.815 279.693 140.525 280.64 137.414C281.588 134.303 284.878 132.548 287.99 133.496C291.101 134.444 292.855 137.734 291.908 140.845Z" fill="#FFF4DA"/>
<path d="M291.908 140.845C290.96 143.956 287.67 145.711 284.558 144.762C281.447 143.815 279.693 140.525 280.64 137.414C281.588 134.303 284.878 132.548 287.99 133.496C291.101 134.444 292.855 137.734 291.908 140.845Z" stroke="#4C0D00" stroke-width="1.33333"/>
<path d="M301.493 106.991C300.901 109.568 298.332 111.176 295.755 110.584C293.178 109.991 291.57 107.423 292.162 104.846C292.755 102.269 295.324 100.661 297.9 101.253C300.477 101.846 302.086 104.414 301.493 106.991Z" fill="#FFF4DA"/>
<path d="M301.493 106.991C300.901 109.568 298.332 111.176 295.755 110.584C293.178 109.991 291.57 107.423 292.162 104.846C292.755 102.269 295.324 100.661 297.9 101.253C300.477 101.846 302.086 104.414 301.493 106.991Z" stroke="#4C0D00" stroke-width="1.33333"/>
<path d="M311.972 138.994C311.379 141.571 308.81 143.179 306.234 142.587C303.657 141.995 302.049 139.426 302.641 136.849C303.233 134.272 305.802 132.664 308.379 133.256C310.956 133.849 312.564 136.418 311.972 138.994Z" fill="#FFF4DA"/>
<path d="M311.972 138.994C311.379 141.571 308.81 143.179 306.234 142.587C303.657 141.995 302.049 139.426 302.641 136.849C303.233 134.272 305.802 132.664 308.379 133.256C310.956 133.849 312.564 136.418 311.972 138.994Z" stroke="#4C0D00" stroke-width="1.33333"/>
<path d="M302.744 51.1138C302.845 50.8764 302.907 50.6065 302.987 50.3645C302.87 50.669 302.786 50.9338 302.744 51.1138Z" fill="#FFF4DA"/>
<path d="M302.744 51.1138C302.845 50.8764 302.907 50.6065 302.987 50.3645C302.87 50.669 302.786 50.9338 302.744 51.1138Z" stroke="#4C0D00" stroke-width="1.33333" stroke-miterlimit="10"/>
<path d="M438.699 100.205C435.88 99.2732 433.065 98.4364 430.213 97.6622C305.004 62.1964 178.485 193.02 139.434 316.315C137.855 321.328 136.398 326.322 135.116 331.285C129.536 353.591 110.132 372.79 89.483 354.851C69.2997 336.947 45.4008 317.385 52.9996 272.688C50.9124 270.337 48.9642 267.995 47.1233 265.7C35.757 316.683 63.6692 342.071 87.4505 361.631C87.473 361.636 87.4679 361.658 87.4904 361.663C111.519 381.895 135.071 365.782 142.195 337.886C144.036 331.323 146.05 324.823 148.236 318.41C168.576 258.785 203.428 206.5 246.046 165.662L246.051 165.64C296.982 115.938 355.476 90.0002 423.344 101.578C428.008 102.2 432.617 103.07 437.19 104.193C462.973 110.405 487.121 124.151 508.281 143.368C487.366 122.881 463.805 108.441 438.699 100.205Z" fill="#FFF4DA"/>
<path d="M438.699 100.205C435.88 99.2732 433.065 98.4364 430.213 97.6622C305.004 62.1964 178.485 193.02 139.434 316.315C137.855 321.328 136.398 326.322 135.116 331.285C129.536 353.591 110.132 372.79 89.483 354.851C69.2997 336.947 45.4008 317.385 52.9996 272.688C50.9124 270.337 48.9642 267.995 47.1233 265.7C35.757 316.683 63.6692 342.071 87.4505 361.631C87.473 361.636 87.4679 361.658 87.4904 361.663C111.519 381.895 135.071 365.782 142.195 337.886C144.036 331.323 146.05 324.823 148.236 318.41C168.576 258.785 203.428 206.5 246.046 165.662L246.051 165.64C296.982 115.938 355.476 90.0002 423.344 101.578C428.008 102.2 432.617 103.07 437.19 104.193C462.973 110.405 487.121 124.151 508.281 143.368C487.366 122.881 463.805 108.441 438.699 100.205Z" stroke="#4C0D00" stroke-width="1.33333" stroke-miterlimit="10"/>
<path d="M543.667 365.165L136.053 378.937C118.244 379.539 100.872 373.349 87.4549 361.622C111.573 381.895 135.023 365.784 142.2 337.877C160.314 272.792 196.53 214.78 240.805 170.748C350.848 53.8479 521.805 78.9487 572.058 236.108C585.993 279.689 580.34 311.183 574.759 338.769C571.735 353.714 558.905 364.651 543.667 365.165Z" fill="#FFF4DA"/>
<path d="M543.667 365.165L136.053 378.937C118.244 379.539 100.872 373.349 87.4549 361.622C111.573 381.895 135.023 365.784 142.2 337.877C160.314 272.792 196.53 214.78 240.805 170.748C350.848 53.8479 521.805 78.9487 572.058 236.108C585.993 279.689 580.34 311.183 574.759 338.769C571.735 353.714 558.905 364.651 543.667 365.165Z" stroke="#4C0D00" stroke-width="1.33333" stroke-miterlimit="10"/>
<path d="M406.888 161.157L304.301 280.767" stroke="#4C0D00" stroke-width="1.33333" stroke-miterlimit="10"/>
<path d="M439.604 191.517L341.977 310.456" stroke="#4C0D00" stroke-width="1.33333" stroke-miterlimit="10"/>
<path d="M470.859 220.521L377.846 338.721" stroke="#4C0D00" stroke-width="1.33333" stroke-miterlimit="10"/>
<path d="M472.024 254.571L371.834 164.014" stroke="#4C0D00" stroke-width="1.33333" stroke-miterlimit="10"/>
<path d="M443.056 292.192L338.246 202.249" stroke="#4C0D00" stroke-width="1.33333" stroke-miterlimit="10"/>
<path d="M412.738 331.56L302.973 242.397" stroke="#4C0D00" stroke-width="1.33333" stroke-miterlimit="10"/>
</svg>
