<svg width="575" height="402" viewBox="0 0 575 402" fill="none" xmlns="http://www.w3.org/2000/svg">
<path d="M56.1086 264.839C90.9951 117.605 228.189 -3.45315 367.224 59.2061C367.986 59.2061 374.056 58.4906 377.033 58.5598C229.704 -14.8427 82.9339 114.037 47.7993 271.048L53.6839 274.787C54.3533 271.579 55.1842 268.255 56.1086 264.839Z" fill="#FFF4DA"/>
<path d="M56.1086 264.839C90.9951 117.605 228.189 -3.45315 367.224 59.2061C367.986 59.2061 374.056 58.4906 377.033 58.5598C229.704 -14.8427 82.9339 114.037 47.7993 271.048L53.6839 274.787C54.3533 271.579 55.1842 268.255 56.1086 264.839Z" stroke="#4C0D00" stroke-width="1.33333" stroke-miterlimit="10"/>
<path d="M90.0401 336.497C-10.4716 288.835 -5.82649 226.901 10.6895 217.095C27.2043 207.289 45.7849 217.095 45.7849 217.095C45.7849 217.095 15.3346 157.846 78.2997 157.407C78.2997 157.407 62.0423 119.809 81.3961 106.648C100.75 93.4867 168.102 115.778 168.102 115.778C168.102 115.778 152.83 57.6747 190.994 21.5868C222.294 -8.00831 246.55 24.3289 244.486 42.1351C244.486 42.1351 245.777 14.5227 262.55 10.6519C279.323 6.78118 280.098 23.5545 280.098 23.5545C280.098 23.5545 283.453 -1.99211 306.419 1.36163C329.386 4.71653 304.354 49.6758 304.354 49.6758C304.354 49.6758 356.232 11.3651 385.691 49.6758C414.817 87.5536 164.169 337.004 164.169 337.004L90.0401 336.497Z" fill="#FFF4DA"/>
<path d="M90.0401 336.497C-10.4716 288.835 -5.82649 226.901 10.6895 217.095C27.2043 207.289 45.7849 217.095 45.7849 217.095C45.7849 217.095 15.3346 157.846 78.2997 157.407C78.2997 157.407 62.0423 119.809 81.3961 106.648C100.75 93.4867 168.102 115.778 168.102 115.778C168.102 115.778 152.83 57.6747 190.994 21.5868C222.294 -8.00831 246.55 24.3289 244.486 42.1351C244.486 42.1351 245.777 14.5227 262.55 10.6519C279.323 6.78118 280.098 23.5545 280.098 23.5545C280.098 23.5545 283.453 -1.99211 306.419 1.36163C329.386 4.71653 304.354 49.6758 304.354 49.6758C304.354 49.6758 356.232 11.3651 385.691 49.6758C414.817 87.5536 164.169 337.004 164.169 337.004L90.0401 336.497Z" stroke="#4C0D00" stroke-width="1.33333" stroke-miterlimit="10"/>
<path d="M214.91 166.142C247.778 116.494 288.563 84.7801 331.771 71.1159C282.077 85.4495 245.655 119.218 214.91 166.142Z" stroke="#4C0D00" stroke-width="1.33333" stroke-miterlimit="10"/>
<path d="M331.771 71.1157C288.564 84.7799 247.779 116.494 214.91 166.142C245.655 119.217 282.077 85.4493 331.771 71.1157Z" fill="#FFF4DA"/>
<path d="M331.771 71.1157C288.564 84.7799 247.779 116.494 214.91 166.142C245.655 119.217 282.077 85.4493 331.771 71.1157Z" stroke="#4C0D00" stroke-width="1.33333" stroke-miterlimit="10"/>
<path d="M370.664 70.1402C297.796 54.4448 221.489 86.6204 168.032 165.859C132.611 218.356 112.701 283.371 107.966 350.333C107.607 355.409 102.093 358.387 97.6336 355.934L95.0161 354.495C91.9797 352.825 90.1563 349.545 90.3964 346.088C95.0496 278.972 114.974 213.773 150.467 161.15C208.24 75.5413 292.718 44.8429 370.664 70.1402Z" fill="#4C0D00"/>
<path d="M370.664 70.1402C297.796 54.4448 221.489 86.6204 168.032 165.859C132.611 218.356 112.701 283.371 107.966 350.333C107.607 355.409 102.093 358.387 97.6336 355.934L95.0161 354.495C91.9797 352.825 90.1563 349.545 90.3964 346.088C95.0496 278.972 114.974 213.773 150.467 161.15C208.24 75.5413 292.718 44.8429 370.664 70.1402Z" stroke="#4C0D00" stroke-width="1.33333" stroke-miterlimit="10"/>
<path d="M421.258 281.319L103.818 356.195C106.057 355.226 107.765 353.079 107.973 350.333C112.706 283.373 132.601 218.353 168.031 165.865C219.55 89.5119 292.278 56.8516 362.723 68.6463L421.258 281.319Z" fill="#FFF4DA"/>
<path d="M421.258 281.319L103.818 356.195C106.057 355.226 107.765 353.079 107.973 350.333C112.706 283.373 132.601 218.353 168.031 165.865C219.55 89.5119 292.278 56.8516 362.723 68.6463L421.258 281.319Z" stroke="#4C0D00" stroke-width="1.33333" stroke-miterlimit="10"/>
<path d="M157.469 282.475C124.108 263.022 112.832 220.2 132.286 186.839C149.555 157.222 185.253 145.012 216.394 156.259L205.257 180.741L197.578 197.645L196.211 200.666L192.882 207.972L189.514 215.397L185.537 224.14L184.704 225.974L181.744 232.484L176.278 244.51L173.903 249.72L158.696 283.158C158.281 282.95 157.881 282.715 157.469 282.475Z" fill="#FFF4DA"/>
<path d="M157.469 282.475C124.108 263.022 112.832 220.2 132.286 186.839C149.555 157.222 185.253 145.012 216.394 156.259L205.257 180.741L197.578 197.645L196.211 200.666L192.882 207.972L189.514 215.397L185.537 224.14L184.704 225.974L181.744 232.484L176.278 244.51L173.903 249.72L158.696 283.158C158.281 282.95 157.881 282.715 157.469 282.475Z" stroke="#4C0D00" stroke-width="1.33333" stroke-miterlimit="10"/>
<path d="M173.101 251.068C171.354 250.381 169.766 249.234 168.525 247.657C164.688 242.817 165.495 235.776 170.325 231.933C170.737 231.605 171.177 231.31 171.628 231.051C171.247 230.704 170.899 230.327 170.571 229.915C166.735 225.075 167.541 218.034 172.383 214.197C174.017 212.909 175.886 212.139 177.81 211.871C175.835 208.494 175.684 204.178 177.793 200.562C180.079 196.64 184.375 194.632 188.604 195.064C188.831 193.838 189.276 192.614 189.942 191.473C192.579 186.951 197.898 184.972 202.708 186.357L197.577 197.644L196.211 200.666L192.881 207.972L189.514 215.398L185.537 224.14L184.704 225.974L181.743 232.485L176.278 244.51L173.901 249.721L173.119 251.442C173.097 251.318 173.104 251.196 173.101 251.068Z" fill="#FFF4DA"/>
<path d="M173.101 251.068C171.354 250.381 169.766 249.234 168.525 247.657C164.688 242.817 165.495 235.776 170.325 231.933C170.737 231.605 171.177 231.31 171.628 231.051C171.247 230.704 170.899 230.327 170.571 229.915C166.735 225.075 167.541 218.034 172.383 214.197C174.017 212.909 175.886 212.139 177.81 211.871C175.835 208.494 175.684 204.178 177.793 200.562C180.079 196.64 184.375 194.632 188.604 195.064C188.831 193.838 189.276 192.614 189.942 191.473C192.579 186.951 197.898 184.972 202.708 186.357L197.577 197.644L196.211 200.666L192.881 207.972L189.514 215.398L185.537 224.14L184.704 225.974L181.743 232.485L176.278 244.51L173.901 249.721L173.119 251.442C173.097 251.318 173.104 251.196 173.101 251.068Z" stroke="#4C0D00" stroke-width="1.33333"/>
<path d="M151.424 299.148L158.696 283.159Z" fill="#FFF4DA"/>
<path d="M151.424 299.148L158.696 283.159" stroke="#4C0D00" stroke-width="1.33333"/>
<path d="M216.393 156.259L223.652 140.293Z" fill="#FFF4DA"/>
<path d="M216.393 156.259L223.652 140.293" stroke="#4C0D00" stroke-width="1.33333"/>
<path d="M173.101 251.068C171.354 250.381 169.766 249.234 168.525 247.657C164.688 242.817 165.495 235.776 170.325 231.933C170.737 231.605 171.177 231.31 171.628 231.051C171.247 230.704 170.899 230.327 170.571 229.915C166.735 225.075 167.541 218.034 172.383 214.197C174.017 212.909 175.886 212.139 177.81 211.871C175.835 208.494 175.684 204.178 177.793 200.562C180.079 196.64 184.375 194.632 188.604 195.064C188.831 193.838 189.276 192.614 189.942 191.473C192.579 186.951 197.898 184.972 202.708 186.357L197.577 197.644L196.211 200.666L192.881 207.972L189.514 215.398L185.537 224.14L184.704 225.974L181.743 232.485L176.278 244.51L173.901 249.721L173.119 251.442C173.097 251.318 173.104 251.196 173.101 251.068Z" fill="#FFF4DA"/>
<path d="M173.101 251.068C171.354 250.381 169.766 249.234 168.525 247.657C164.688 242.817 165.495 235.776 170.325 231.933C170.737 231.605 171.177 231.31 171.628 231.051C171.247 230.704 170.899 230.327 170.571 229.915C166.735 225.075 167.541 218.034 172.383 214.197C174.017 212.909 175.886 212.139 177.81 211.871C175.835 208.494 175.684 204.178 177.793 200.562C180.079 196.64 184.375 194.632 188.604 195.064C188.831 193.838 189.276 192.614 189.942 191.473C192.579 186.951 197.898 184.972 202.708 186.357L197.577 197.644L196.211 200.666L192.881 207.972L189.514 215.398L185.537 224.14L184.704 225.974L181.743 232.485L176.278 244.51L173.901 249.721L173.119 251.442C173.097 251.318 173.104 251.196 173.101 251.068Z" stroke="#4C0D00" stroke-width="1.33333"/>
<path d="M148.652 297.595C106.942 273.273 92.8545 219.739 117.177 178.029C139.02 140.57 184.409 125.379 223.651 140.293L216.393 156.258C185.253 145.012 149.555 157.223 132.285 186.839C112.832 220.2 124.108 263.022 157.469 282.476C157.881 282.716 158.281 282.949 158.696 283.159L151.423 299.149C150.496 298.655 149.57 298.131 148.652 297.595Z" fill="#FF6D2F"/>
<path d="M148.652 297.595C106.942 273.273 92.8545 219.739 117.177 178.029C139.02 140.57 184.409 125.379 223.651 140.293L216.393 156.258C185.253 145.012 149.555 157.223 132.285 186.839C112.832 220.2 124.108 263.022 157.469 282.476C157.881 282.716 158.281 282.949 158.696 283.159L151.423 299.149C150.496 298.655 149.57 298.131 148.652 297.595Z" stroke="#4C0D00" stroke-width="1.33333"/>
<path d="M145.374 209.981C148.332 210.804 156.945 215.785 156.122 218.742C155.298 221.699 145.35 221.513 142.393 220.69C139.435 219.866 137.705 216.802 138.529 213.845C139.352 210.888 142.416 209.158 145.374 209.981Z" fill="#FFF4DA"/>
<path d="M145.374 209.981C148.332 210.804 156.945 215.785 156.122 218.742C155.298 221.699 145.35 221.513 142.393 220.69C139.435 219.866 137.705 216.802 138.529 213.845C139.352 210.888 142.416 209.158 145.374 209.981Z" stroke="#4C0D00" stroke-width="1.33333"/>
<path d="M143.008 241.928C145.362 241.017 153.49 240.071 154.401 242.425C155.31 244.779 148.658 249.545 146.304 250.455C143.95 251.366 141.302 250.194 140.392 247.84C139.482 245.484 140.652 242.838 143.008 241.928Z" fill="#FFF4DA"/>
<path d="M143.008 241.928C145.362 241.017 153.49 240.071 154.401 242.425C155.31 244.779 148.658 249.545 146.304 250.455C143.95 251.366 141.302 250.194 140.392 247.84C139.482 245.484 140.652 242.838 143.008 241.928Z" stroke="#4C0D00" stroke-width="1.33333"/>
<path d="M161.947 178.266C164.044 180.508 168.804 189.246 166.561 191.341C164.318 193.437 155.922 188.1 153.825 185.857C151.73 183.615 151.847 180.097 154.091 178.001C156.333 175.904 159.85 176.023 161.947 178.266Z" fill="#FFF4DA"/>
<path d="M161.947 178.266C164.044 180.508 168.804 189.246 166.561 191.341C164.318 193.437 155.922 188.1 153.825 185.857C151.73 183.615 151.847 180.097 154.091 178.001C156.333 175.904 159.85 176.023 161.947 178.266Z" stroke="#4C0D00" stroke-width="1.33333"/>
<path d="M187.994 169.4C188.208 171.754 186.972 179.315 184.617 179.53C182.263 179.744 179.683 172.529 179.468 170.175C179.254 167.821 180.989 165.739 183.343 165.524C185.698 165.311 187.78 167.045 187.994 169.4Z" fill="#FFF4DA"/>
<path d="M187.994 169.4C188.208 171.754 186.972 179.315 184.617 179.53C182.263 179.744 179.683 172.529 179.468 170.175C179.254 167.821 180.989 165.739 183.343 165.524C185.698 165.311 187.78 167.045 187.994 169.4Z" stroke="#4C0D00" stroke-width="1.33333"/>
<path d="M169.573 358.414C100.014 383.061 40.1723 329.641 90.3745 321.899C61.8538 312.816 61.3934 298.278 71.6554 283.159C90.3745 255.579 129.181 308.48 129.181 308.48C129.181 308.48 120.779 265.291 143.394 268.74C179.036 274.177 175.909 316.738 175.909 316.738C175.909 316.738 217.877 341.299 169.573 358.414Z" fill="#FFF4DA"/>
<path d="M169.573 358.414C100.014 383.061 40.1723 329.641 90.3745 321.899C61.8538 312.816 61.3934 298.278 71.6554 283.159C90.3745 255.579 129.181 308.48 129.181 308.48C129.181 308.48 120.779 265.291 143.394 268.74C179.036 274.177 175.909 316.738 175.909 316.738C175.909 316.738 217.877 341.299 169.573 358.414Z" stroke="#4C0D00" stroke-width="1.33333" stroke-miterlimit="10"/>
<path d="M265.718 72.7169C274.106 64.0452 288.512 72.3626 285.197 83.9634C296.798 80.6477 305.115 95.0529 296.444 103.443C308.148 106.372 308.148 123.006 296.444 125.936C305.115 134.325 296.798 148.73 285.197 145.416C288.512 157.016 274.106 165.334 265.718 156.662C262.788 168.367 246.154 168.367 243.225 156.662C234.836 165.334 220.429 157.016 223.745 145.416C212.144 148.73 203.827 134.325 212.499 125.936C200.794 123.006 200.794 106.372 212.499 103.443C203.827 95.0529 212.144 80.6477 223.745 83.9634C220.429 72.3626 234.836 64.0452 243.225 72.7169C246.154 61.0123 262.788 61.0123 265.718 72.7169Z" fill="#FFF4DA"/>
<path d="M265.718 72.7169C274.106 64.0452 288.512 72.3626 285.197 83.9634C296.798 80.6477 305.115 95.0529 296.444 103.443C308.148 106.372 308.148 123.006 296.444 125.936C305.115 134.325 296.798 148.73 285.197 145.416C288.512 157.016 274.106 165.334 265.718 156.662C262.788 168.367 246.154 168.367 243.225 156.662C234.836 165.334 220.429 157.016 223.745 145.416C212.144 148.73 203.827 134.325 212.499 125.936C200.794 123.006 200.794 106.372 212.499 103.443C203.827 95.0529 212.144 80.6477 223.745 83.9634C220.429 72.3626 234.836 64.0452 243.225 72.7169C246.154 61.0123 262.788 61.0123 265.718 72.7169Z" stroke="#4C0D00" stroke-width="1.33333" stroke-miterlimit="10"/>
<path d="M243.699 112.121C243.699 115.86 240.668 118.891 236.929 118.891C233.19 118.891 230.159 115.86 230.159 112.121C230.159 108.382 233.19 105.351 236.929 105.351C240.668 105.351 243.699 108.382 243.699 112.121Z" fill="#FFF4DA"/>
<path d="M243.699 112.121C243.699 115.86 240.668 118.891 236.929 118.891C233.19 118.891 230.159 115.86 230.159 112.121C230.159 108.382 233.19 105.351 236.929 105.351C240.668 105.351 243.699 108.382 243.699 112.121Z" stroke="#4C0D00" stroke-width="1.33333"/>
<path d="M280.307 104.299C280.307 109.572 276.032 113.846 270.76 113.846C265.487 113.846 261.213 109.572 261.213 104.299C261.213 99.0262 265.487 94.7527 270.76 94.7527C276.032 94.7527 280.307 99.0262 280.307 104.299Z" fill="#FFF4DA"/>
<path d="M280.307 104.299C280.307 109.572 276.032 113.846 270.76 113.846C265.487 113.846 261.213 109.572 261.213 104.299C261.213 99.0262 265.487 94.7527 270.76 94.7527C276.032 94.7527 280.307 99.0262 280.307 104.299Z" stroke="#4C0D00" stroke-width="1.33333"/>
<path d="M254.045 131.703C253.819 134.947 251.005 137.395 247.76 137.167C244.516 136.941 242.069 134.127 242.295 130.883C242.521 127.639 245.335 125.191 248.58 125.419C251.824 125.645 254.271 128.459 254.045 131.703Z" fill="#FFF4DA"/>
<path d="M254.045 131.703C253.819 134.947 251.005 137.395 247.76 137.167C244.516 136.941 242.069 134.127 242.295 130.883C242.521 127.639 245.335 125.191 248.58 125.419C251.824 125.645 254.271 128.459 254.045 131.703Z" stroke="#4C0D00" stroke-width="1.33333"/>
<path d="M255.801 96.5618C255.801 99.2058 253.658 101.349 251.014 101.349C248.37 101.349 246.227 99.2058 246.227 96.5618C246.227 93.9178 248.37 91.7747 251.014 91.7747C253.658 91.7747 255.801 93.9178 255.801 96.5618Z" fill="#FFF4DA"/>
<path d="M255.801 96.5618C255.801 99.2058 253.658 101.349 251.014 101.349C248.37 101.349 246.227 99.2058 246.227 96.5618C246.227 93.9178 248.37 91.7747 251.014 91.7747C253.658 91.7747 255.801 93.9178 255.801 96.5618Z" stroke="#4C0D00" stroke-width="1.33333"/>
<path d="M273.184 125.404C273.184 128.048 271.041 130.191 268.397 130.191C265.753 130.191 263.61 128.048 263.61 125.404C263.61 122.76 265.753 120.616 268.397 120.616C271.041 120.616 273.184 122.76 273.184 125.404Z" fill="#FFF4DA"/>
<path d="M273.184 125.404C273.184 128.048 271.041 130.191 268.397 130.191C265.753 130.191 263.61 128.048 263.61 125.404C263.61 122.76 265.753 120.616 268.397 120.616C271.041 120.616 273.184 122.76 273.184 125.404Z" stroke="#4C0D00" stroke-width="1.33333"/>
<path d="M244.5 41.825C244.545 41.5711 244.545 41.2941 244.569 41.0402C244.523 41.3633 244.5 41.6403 244.5 41.825Z" fill="#FFF4DA"/>
<path d="M244.5 41.825C244.545 41.5711 244.545 41.2941 244.569 41.0402C244.523 41.3633 244.5 41.6403 244.5 41.825Z" stroke="#4C0D00" stroke-width="1.33333" stroke-miterlimit="10"/>
<path d="M387.998 59.2056C385.042 58.9286 382.111 58.744 379.157 58.6285C249.186 52.1196 155.197 207.966 144.765 336.876C144.35 342.115 144.048 347.309 143.911 352.433C143.471 375.422 128.862 398.48 104.719 385.624C81.0371 372.698 53.3624 358.988 50.753 313.725C48.1922 311.902 45.7686 310.055 43.4604 308.232C43.8067 360.465 76.6978 378.953 104.257 392.687C104.28 392.687 104.28 392.71 104.303 392.71C132.254 407.043 151.597 386.062 152.29 357.28C152.613 350.471 153.119 343.685 153.813 336.945C160.276 274.279 182.526 215.513 214.91 166.165V166.142C253.41 106.292 304.604 67.9073 373.341 63.9834C378.025 63.5449 382.712 63.3602 387.421 63.4295C413.94 63.7064 440.554 71.6926 465.482 85.68C440.508 70.4001 414.311 61.6061 387.998 59.2056Z" fill="#FFF4DA"/>
<path d="M387.998 59.2056C385.042 58.9286 382.111 58.744 379.157 58.6285C249.186 52.1196 155.197 207.966 144.765 336.876C144.35 342.115 144.048 347.309 143.911 352.433C143.471 375.422 128.862 398.48 104.719 385.624C81.0371 372.698 53.3624 358.988 50.753 313.725C48.1922 311.902 45.7686 310.055 43.4604 308.232C43.8067 360.465 76.6978 378.953 104.257 392.687C104.28 392.687 104.28 392.71 104.303 392.71C132.254 407.043 151.597 386.062 152.29 357.28C152.613 350.471 153.119 343.685 153.813 336.945C160.276 274.279 182.526 215.513 214.91 166.165V166.142C253.41 106.292 304.604 67.9073 373.341 63.9834C378.025 63.5449 382.712 63.3602 387.421 63.4295C413.94 63.7064 440.554 71.6926 465.482 85.68C440.508 70.4001 414.311 61.6061 387.998 59.2056Z" stroke="#4C0D00" stroke-width="1.33333" stroke-miterlimit="10"/>
<path d="M549.666 293.909L155.501 398.663C138.28 403.24 119.963 401.1 104.259 392.678C132.307 407.031 151.551 386.075 152.292 357.27C155.362 289.781 177.658 225.129 210.942 172.296C291.994 33.7112 464.228 19.8681 548.417 161.772C571.763 201.122 573.311 233.082 574.053 261.217C574.454 276.459 564.401 289.993 549.666 293.909Z" fill="#FFF4DA"/>
<path d="M549.666 293.909L155.501 398.663C138.28 403.24 119.963 401.1 104.259 392.678C132.307 407.031 151.551 386.075 152.292 357.27C155.362 289.781 177.658 225.129 210.942 172.296C291.994 33.7112 464.228 19.8681 548.417 161.772C571.763 201.122 573.311 233.082 574.053 261.217C574.454 276.459 564.401 289.993 549.666 293.909Z" stroke="#4C0D00" stroke-width="1.33333" stroke-miterlimit="10"/>
<path d="M370.653 125.735L297.475 265.291" stroke="#4C0D00" stroke-width="1.33333" stroke-miterlimit="10"/>
<path d="M409.34 147.992L340.845 285.782" stroke="#4C0D00" stroke-width="1.33333" stroke-miterlimit="10"/>
<path d="M446.298 169.256L382.135 305.292" stroke="#4C0D00" stroke-width="1.33333" stroke-miterlimit="10"/>
<path d="M455.063 202.179L337.131 136.374" stroke="#4C0D00" stroke-width="1.33333" stroke-miterlimit="10"/>
<path d="M435.262 245.334L312.963 181.163" stroke="#4C0D00" stroke-width="1.33333" stroke-miterlimit="10"/>
<path d="M414.536 290.495L287.584 228.193" stroke="#4C0D00" stroke-width="1.33333" stroke-miterlimit="10"/>
</svg>
