<svg width="109" height="141" fill="none" xmlns="http://www.w3.org/2000/svg"><path d="M91.057 63.254c0 8.413-14.64 15.233-32.7 15.233-18.06 0-32.7-6.82-32.7-15.233 0-8.414 14.64-15.234 32.7-15.234 18.06 0 32.7 6.82 32.7 15.234Z" fill="#fff"/><path d="M91.057 63.254c0 8.413-14.64 15.233-32.7 15.233-18.06 0-32.7-6.82-32.7-15.233 0-8.414 14.64-15.234 32.7-15.234 18.06 0 32.7 6.82 32.7 15.234Z" stroke="#4C0D00" stroke-width="1.333"/><path d="M87.69 62.741c0 6.901-13.133 12.496-29.333 12.496S29.024 69.642 29.024 62.74c0-6.901 13.132-12.495 29.333-12.495 16.2 0 29.332 5.594 29.332 12.495Z" fill="#FFF4DA"/><path d="M87.69 62.741c0 6.901-13.133 12.496-29.333 12.496S29.024 69.642 29.024 62.74c0-6.901 13.132-12.495 29.333-12.495 16.2 0 29.332 5.594 29.332 12.495Z" stroke="#4C0D00" stroke-width="1.333"/><path d="m89.91 67.264-5.322 60.34c0 6.75-11.747 12.217-26.231 12.217-14.484 0-26.23-5.467-26.23-12.217l-5.323-60.34c3.78 6.467 16.475 11.225 31.553 11.225S86.13 73.73 89.91 67.264Z" fill="#FFF4DA"/><path d="m89.91 67.264-5.322 60.34c0 6.75-11.747 12.217-26.231 12.217-14.484 0-26.23-5.467-26.23-12.217l-5.323-60.34c3.78 6.467 16.475 11.225 31.553 11.225S86.13 73.73 89.91 67.264Z" stroke="#4C0D00" stroke-width="1.333"/><path d="m89.707 79.278-2.52 28.577-.369 4.179c-2.636 6.235-14.375 10.935-28.461 10.935-14.07 0-25.803-4.693-28.454-10.913l-.376-4.223-2.52-28.555c3.265 6.7 16.062 11.696 31.35 11.696 15.28 0 28.084-4.997 31.35-11.696Z" fill="#FFF4DA"/><path d="m89.707 79.278-2.52 28.577-.369 4.179c-2.636 6.235-14.375 10.935-28.461 10.935-14.07 0-25.803-4.693-28.454-10.913l-.376-4.223-2.52-28.555c3.265 6.7 16.062 11.696 31.35 11.696 15.28 0 28.084-4.997 31.35-11.696Zm-58.995 4.326 2.55 32.596m6.665-28.157 1.7 32.535m7.515-30.335.85 32.47m8.365-31.739v31.995M86.002 83.86l-2.549 32.596M76.787 88.3l-1.699 32.177m-7.516-29.979-.85 31.896" stroke="#4C0D00" stroke-width="1.333"/><path d="M94.162 46.465c-.942 2.687-3.983 9.98-6.489 15.896-.188.45-.377.89-.558 1.325-.528 1.253-1.028 2.412-1.455 3.419a10.03 10.03 0 0 1-.377.593c-4.505 4.44-14.86 7.54-26.926 7.54-10.913 0-20.43-2.543-25.484-6.308 1.658-3.281 5.728-7.018 12.521-10.856 4.367-2.47 6.844-5.113 8.278-7.67 1.528-2.715 1.875-5.322 2.056-7.517.21-2.505.21-4.468 1.492-5.395 3.477-2.513 5.026 4.092 13.319-2.26 8.299-6.358 9.001-22.13-4.49-23.282C52.556 10.784 62.723.218 71.653 1.652c8.914 1.426 18.394 11.616 16.786 26.1-1.607 14.484 2.187 8.972 4.708 7.242 2.513-1.731 2.7 6.67 1.014 11.47Z" fill="#4C0D00"/><path d="M94.162 46.465c-.942 2.687-3.983 9.98-6.489 15.896-.188.45-.377.89-.558 1.325-.528 1.253-1.028 2.412-1.455 3.419a10.03 10.03 0 0 1-.377.593c-4.505 4.44-14.86 7.54-26.926 7.54-10.913 0-20.43-2.543-25.484-6.308 1.658-3.281 5.728-7.018 12.521-10.856 4.367-2.47 6.844-5.113 8.278-7.67 1.528-2.715 1.875-5.322 2.056-7.517.21-2.505.21-4.468 1.492-5.395 3.477-2.513 5.026 4.092 13.319-2.26 8.299-6.358 9.001-22.13-4.49-23.282C52.556 10.784 62.723.218 71.653 1.652c8.914 1.426 18.394 11.616 16.786 26.1-1.607 14.484 2.187 8.972 4.708 7.242 2.513-1.731 2.7 6.67 1.014 11.47Z" stroke="#4C0D00" stroke-width="1.333" stroke-linejoin="bevel"/><path d="M103.115 14.808c2.741-1.259 5.811 1.137 3.41 4.705-2.491 3.705-8.464 3.906-9.608 8.141-1.144 4.236-5.561-7.444 6.198-12.846Z" fill="#4C0D00"/><path d="M103.115 14.808c2.741-1.259 5.811 1.137 3.41 4.705-2.491 3.705-8.464 3.906-9.608 8.141-1.144 4.236-5.561-7.444 6.198-12.846Z" stroke="#4C0D00" stroke-width="1.333" stroke-linejoin="bevel"/><path d="M50.319 21.293c5.75 5.642.592 20.218-11.513 32.557C26.7 66.19 12.226 71.624 6.476 65.983a7.102 7.102 0 0 1-1.579-2.34l-.325-.888c0-.009 0-.018-.01-.026l-2.435-6.625c.328.692.755 1.31 1.294 1.839.229.223.474.43.732.614 5.5 3.932 17.651-.925 27.88-11.351 10.234-10.431 14.853-22.669 10.808-28.092a6.113 6.113 0 0 0-.623-.716 6.37 6.37 0 0 0-1.864-1.259l6.675 2.304.013.005.907.313c.903.36 1.695.87 2.37 1.532Z" fill="#FF6D2F"/><path d="M50.319 21.293c5.75 5.642.592 20.218-11.513 32.557C26.7 66.19 12.226 71.624 6.476 65.983a7.102 7.102 0 0 1-1.579-2.34l-.325-.888c0-.009 0-.018-.01-.026l-2.435-6.625c.328.692.755 1.31 1.294 1.839.229.223.474.43.732.614 5.5 3.932 17.651-.925 27.88-11.351 10.234-10.431 14.853-22.669 10.808-28.092a6.113 6.113 0 0 0-.623-.716 6.372 6.372 0 0 0-1.864-1.259l6.675 2.304.013.005.907.313c.903.36 1.695.87 2.37 1.532Z" stroke="#4C0D00" stroke-width="1.333"/><path d="M42.218 18.397c5.087 4.99.526 17.888-10.187 28.808C21.318 58.125 8.51 62.93 3.423 57.94S2.897 40.051 13.61 29.132c10.713-10.92 23.521-15.726 28.608-10.735Z" fill="#FFF4DA"/><path d="M42.218 18.397c5.087 4.99.526 17.888-10.187 28.808C21.318 58.125 8.51 62.93 3.423 57.94S2.897 40.051 13.61 29.132c10.713-10.92 23.521-15.726 28.608-10.735Z" stroke="#4C0D00" stroke-width="1.333"/><path d="M36.96 23.755c3.159 3.098-.612 12.063-8.422 20.023-7.809 7.96-16.7 11.901-19.858 8.803-3.158-3.098.613-12.063 8.422-20.023 7.81-7.96 16.701-11.901 19.859-8.803Z" fill="#4C0D00"/><path d="M36.96 23.755c3.159 3.098-.612 12.063-8.422 20.023-7.809 7.96-16.7 11.901-19.858 8.803-3.158-3.098.613-12.063 8.422-20.023 7.81-7.96 16.701-11.901 19.859-8.803Z" stroke="#4C0D00" stroke-width="1.333" stroke-linejoin="bevel"/><path d="M36.963 23.755c.416.408.712.914.892 1.512-3.948-1.127-11.546 2.757-18.328 9.67S9.007 49.52 10.21 53.446a3.479 3.479 0 0 1-1.529-.864c-3.158-3.098.61-12.064 8.422-20.025 7.81-7.962 16.702-11.901 19.86-8.803Z" fill="#FFF4DA"/><path d="M36.963 23.755c.416.408.712.914.892 1.512-3.948-1.127-11.546 2.757-18.328 9.67S9.007 49.52 10.21 53.446a3.479 3.479 0 0 1-1.529-.864c-3.158-3.098.61-12.064 8.422-20.025 7.81-7.962 16.702-11.901 19.86-8.803Z" stroke="#4C0D00" stroke-width="1.333"/><path d="M11.384 56.733c.193-.751.874-1.506 1.522-1.686l1.316-.366c.648-.18 1.015.283.821 1.034-.193.75-.874 1.505-1.521 1.685l-1.318.367c-.646.18-1.014-.283-.82-1.034Z" stroke="#4C0D00" stroke-width="1.241"/></svg>