<svg width="164" height="141" fill="none" xmlns="http://www.w3.org/2000/svg"><path d="M14.862 78.657c-1.92 1.239-3.184 2.724-3.867 4.378a2.884 2.884 0 0 0-.142.364l-2.673 6.85C1.85 84.727.036 78.97 1.737 74.611l5.05-12.943c-.867 2.22-.817 4.798.269 7.524 1.226 3.075 3.761 6.327 7.806 9.465Z" fill="#FF6D2F"/><path d="M14.862 78.657c-1.92 1.239-3.184 2.724-3.867 4.378a2.884 2.884 0 0 0-.142.364l-2.673 6.85C1.85 84.727.036 78.97 1.737 74.611l5.05-12.943c-.867 2.22-.817 4.798.269 7.524 1.226 3.075 3.761 6.327 7.806 9.465Z" stroke="#4C0D00" stroke-width="1.333"/><path d="m39.314 108.445-5.05 12.943c-17.9-2.115-31.813-15.845-28.46-25.047l5.05-12.942c-3.35 9.193 10.559 22.931 28.46 25.046Z" fill="#FF6D2F"/><path d="m39.314 108.445-5.05 12.943c-17.9-2.115-31.813-15.845-28.46-25.047l5.05-12.942c-3.35 9.193 10.559 22.931 28.46 25.046Z" stroke="#4C0D00" stroke-width="1.333"/><path d="m115.98 120.999-4.879 12.505c-3.912 6.957-18.038 8.864-32.273 1.618l5.05-12.943c10.528 5.363 20.997 5.71 27.319 2.717 2.018-.953 3.617-2.25 4.645-3.837l.138-.06Z" fill="#FF6D2F"/><path d="m115.98 120.999-4.879 12.505c-3.912 6.957-18.038 8.864-32.273 1.618l5.05-12.943c10.528 5.363 20.997 5.71 27.319 2.717 2.018-.953 3.617-2.25 4.645-3.837l.138-.06Z" stroke="#4C0D00" stroke-width="1.333"/><path d="m126.829 102.577-5.05 12.943c-.895 2.294-2.807 4.221-5.799 5.479l.171-.438c.196-.332.362-.685.504-1.049.142-.363.255-.727.34-1.113.598-2.534.039-5.539-2-8.893 2.575-.26 4.73-.837 6.482-1.646 2.737-1.263 4.502-3.104 5.352-5.283Z" fill="#FF6D2F"/><path d="m126.829 102.577-5.05 12.943c-.895 2.294-2.807 4.221-5.799 5.479l.171-.438c.196-.332.362-.685.504-1.049.142-.363.255-.727.34-1.113.598-2.534.039-5.539-2-8.893 2.575-.26 4.73-.837 6.482-1.646 2.737-1.263 4.502-3.104 5.352-5.283Z" stroke="#FF6D2F" stroke-width="1.333"/><path d="m83.877 122.179-5.049 12.943c-5.52 5.493-16.833 5.188-26.828 1.288-7.95-3.101-15.06-8.472-17.736-15.022l5.05-12.943c2.675 6.55 9.786 11.921 17.735 15.022 9.996 3.9 21.309 4.205 26.828-1.288Z" fill="#FF6D2F"/><path d="m83.877 122.179-5.049 12.943c-5.52 5.493-16.833 5.188-26.828 1.288-7.95-3.101-15.06-8.472-17.736-15.022l5.05-12.943c2.675 6.55 9.786 11.921 17.735 15.022 9.996 3.9 21.309 4.205 26.828-1.288Z" stroke="#4C0D00" stroke-width="1.333"/><path d="M115.842 121.059c.12-.162.221-.322.309-.498l-.171.438-.138.06Z" fill="#fff"/><path d="M115.842 121.059c.12-.162.221-.322.309-.498l-.171.438-.138.06Z" stroke="#4C0D00" stroke-width="1.333"/><path d="M116.655 119.512a7.282 7.282 0 0 1-.504 1.049l.843-2.162c-.083.385-.197.75-.339 1.113Z" fill="#fff"/><path d="M116.655 119.512a7.282 7.282 0 0 1-.504 1.049l.843-2.162c-.083.385-.197.75-.339 1.113Z" stroke="#4C0D00" stroke-width="1.333"/><path d="M111.945 131.342c-.084.385-.198.75-.339 1.113a7.287 7.287 0 0 1-.505 1.049l.844-2.162Z" fill="#fff"/><path d="M111.945 131.342c-.084.385-.198.75-.339 1.113a7.287 7.287 0 0 1-.505 1.049l.844-2.162Z" stroke="#4C0D00" stroke-width="1.333"/><path d="M116.655 119.512a7.282 7.282 0 0 1-.504 1.049l.843-2.162c-.083.385-.197.75-.339 1.113Z" fill="#fff"/><path d="M116.655 119.512a7.282 7.282 0 0 1-.504 1.049l.843-2.162c-.083.385-.197.75-.339 1.113Z" stroke="#4C0D00" stroke-width="1.333"/><path d="M39.316 108.45C17.93 105.927 2.234 86.802 14.863 78.656-1.893 65.65 7.139 50.614 28.933 55.232c.493-13.695 27.453-13.319 42.002.586 17.369-4.071 41.955 11.433 38.302 24.154 21.167 8.618 24.865 27.575 5.761 29.534 9.026 14.817-10.948 22.953-31.117 12.673-9.912 9.86-38.518 1.047-44.565-13.729Z" fill="#FFF4DA"/><path d="M39.316 108.45C17.93 105.927 2.234 86.802 14.863 78.656-1.893 65.65 7.139 50.614 28.933 55.232c.493-13.695 27.453-13.319 42.002.586 17.369-4.071 41.955 11.433 38.302 24.154 21.167 8.618 24.865 27.575 5.761 29.534 9.026 14.817-10.948 22.953-31.117 12.673-9.912 9.86-38.518 1.047-44.565-13.729Z" stroke="#4C0D00" stroke-width="1.333"/><path d="M81.499 87.723c-1.905.291-8.861-.015-10.066-1.52-1.205-1.504 3.798-3.637 5.703-3.928 1.905-.292 4.427.692 5.631 2.197 1.205 1.504.637 2.96-1.268 3.251ZM47.518 86.8c1.905-.291 8.861.015 10.066 1.52 1.205 1.504-3.798 3.637-5.703 3.928-1.906.291-4.427-.692-5.632-2.197-1.204-1.505-.637-2.96 1.269-3.251Zm20.364-9.891c.09 1.448-1.45 5.588-3.703 5.088s-4.364-5.451-4.454-6.9c-.091-1.448 1.661-2.217 3.914-1.717 2.252.5 4.152 2.08 4.243 3.529Zm-6.747 20.705c-.09-1.448 1.45-5.588 3.703-5.088s4.363 5.451 4.454 6.9c.09 1.448-1.662 2.217-3.915 1.717-2.252-.5-4.151-2.08-4.242-3.529ZM50.891 76.447c1.997 1.157 7.411 5.604 6.364 6.608-1.048 1.004-8.162-1.813-10.158-2.97-1.996-1.158-2.765-2.91-1.717-3.915 1.048-1.004 3.515-.88 5.511.277Zm27.234 21.629c-1.996-1.157-7.41-5.604-6.363-6.608 1.048-1.005 8.161 1.813 10.157 2.97 1.997 1.158 2.765 2.91 1.718 3.915-1.048 1.004-3.515.88-5.512-.277ZM6.786 61.669l.3-.768m3.767 22.498.142-.364m105.156 37.527.843-2.163.017-.041m9.818-15.781.302-.776" stroke="#4C0D00" stroke-width="1.333"/><path d="M146.574 8.476c11.166 22.029 2.358 48.944-19.672 60.11-19.556 9.913-42.97 4.08-55.791-12.77l14.48-9.285 9.992-6.414 1.783-1.148 4.325-2.768 4.386-2.82 5.171-3.315 1.084-.696 3.85-2.47 7.11-4.561 3.085-1.974 19.775-12.682c.15.256.284.52.422.793Z" fill="#FFF4DA"/><path d="M146.574 8.476c11.166 22.029 2.358 48.944-19.672 60.11-19.556 9.913-42.97 4.08-55.791-12.77l14.48-9.285 9.992-6.414 1.783-1.148 4.325-2.768 4.386-2.82 5.171-3.315 1.084-.696 3.85-2.47 7.11-4.561 3.085-1.974 19.775-12.682c.15.256.284.52.422.793Z" stroke="#4C0D00" stroke-width="1.333"/><path d="M127.275 19.92a6.966 6.966 0 0 1 1.274 3.42 7.168 7.168 0 0 1-6.425 7.82 6.663 6.663 0 0 1-1.006.022 6.2 6.2 0 0 1 .173.977c.381 3.932-2.497 7.434-6.429 7.814a7.192 7.192 0 0 1-3.723-.635 7.158 7.158 0 0 1-11.632 5.28 7.134 7.134 0 0 1-1.965 1.465c-2.986 1.514-6.53.73-8.633-1.683l6.674-4.282 1.784-1.149 4.324-2.768 4.386-2.82 5.171-3.315 1.084-.696 3.85-2.47 7.11-4.561 3.085-1.974 1.018-.653c-.031.074-.078.137-.12.207Zm28.333-18.301-9.456 6.064M71.11 55.816l-9.44 6.056" stroke="#4C0D00" stroke-width="1.333"/><path d="M127.275 19.92a6.966 6.966 0 0 1 1.274 3.42 7.168 7.168 0 0 1-6.425 7.82 6.663 6.663 0 0 1-1.006.022 6.2 6.2 0 0 1 .173.977c.381 3.932-2.497 7.434-6.429 7.814a7.192 7.192 0 0 1-3.723-.635 7.158 7.158 0 0 1-11.632 5.28 7.134 7.134 0 0 1-1.965 1.465c-2.986 1.514-6.53.73-8.633-1.683l6.674-4.282 1.784-1.149 4.324-2.768 4.386-2.82 5.171-3.315 1.084-.696 3.85-2.47 7.11-4.561 3.085-1.974 1.018-.653c-.031.074-.078.137-.12.207Z" stroke="#4C0D00" stroke-width="1.333"/><path d="M156.558 3.415c13.961 27.542 2.944 61.187-24.599 75.148C107.224 91.1 77.571 83.505 61.67 61.872l9.44-6.056c12.823 16.85 36.236 22.683 55.793 12.77 22.029-11.166 30.837-38.081 19.671-60.11a15.96 15.96 0 0 0-.422-.793l9.456-6.064c.327.587.642 1.19.95 1.796Z" fill="#FFF4DA"/><path d="M156.558 3.415c13.961 27.542 2.944 61.187-24.599 75.148C107.224 91.1 77.571 83.505 61.67 61.872l9.44-6.056c12.823 16.85 36.236 22.683 55.793 12.77 22.029-11.166 30.837-38.081 19.671-60.11a15.96 15.96 0 0 0-.422-.793l9.456-6.064c.327.587.642 1.19.95 1.796Z" stroke="#4C0D00" stroke-width="1.333"/><path d="M127.905 51.613c-1.302-1.469-4.2-7.134-2.731-8.437 1.469-1.303 6.748 2.25 8.05 3.72a3.555 3.555 0 1 1-5.319 4.717Zm12.36-16.339c-1.581-.328-6.275-2.64-5.946-4.222.328-1.58 5.555-1.831 7.136-1.502a2.923 2.923 0 1 1-1.19 5.724Zm-32.27 27.621c-.348-1.932.128-8.278 2.06-8.625 1.932-.348 4.589 5.434 4.937 7.366a3.555 3.555 0 0 1-6.997 1.259Zm-17.068-4.279c.702-1.34 3.991-4.972 5.33-4.27 1.339.703.22 5.474-.482 6.813a2.737 2.737 0 1 1-4.848-2.543Z" stroke="#4C0D00" stroke-width="1.333"/></svg>