<svg width="78" height="100" fill="none" xmlns="http://www.w3.org/2000/svg"><path d="M40.484 1A36.644 36.644 0 0 0 3.841 37.644C3.84 55.922 37.644 99 37.644 99h2.84s36.643-41.12 36.643-61.356A36.643 36.643 0 0 0 40.484 1Zm0 54.54a17.895 17.895 0 1 1 0-35.792 17.895 17.895 0 0 1 0 35.791Z" fill="#FF6D2F" stroke="#4C0D00" stroke-linecap="round" stroke-linejoin="round"/><path d="M37.644 1A36.644 36.644 0 0 0 1 37.644C1 57.88 37.644 99 37.644 99s36.643-41.12 36.643-61.356A36.644 36.644 0 0 0 37.643 1Zm0 54.54a17.896 17.896 0 1 1 0-35.792 17.896 17.896 0 0 1 0 35.791Z" fill="#FFF4DA" stroke="#4C0D00" stroke-linecap="round" stroke-linejoin="round"/></svg>