<svg width="110" height="89" fill="none" xmlns="http://www.w3.org/2000/svg"><path d="m20.013 89 12.638-5.764-6.945-15.225-12.637 5.764L20.012 89Z" fill="#4C0D00"/><path d="M9.825 49.733 20.29 72.668l17.37-5.552 44.733-3.381L57.278 8.669 25.401 40.24 9.825 49.733Z" fill="#FFF4DA"/><path fill-rule="evenodd" clip-rule="evenodd" d="m37.468 66.127 43.42-3.282-23.925-52.456L26.022 41.03l-14.918 9.095 9.728 21.318 16.637-5.317Zm-17.178 6.54L9.825 49.733l15.576-9.495L57.278 8.67l25.115 55.065-44.733 3.381-17.37 5.552Z" fill="#4C0D00"/><path d="M61.839 39.82c6.972 15.289 16.6 25.852 21.512 23.616 4.913-2.236 3.25-16.445-3.723-31.723C72.656 16.435 63.018 5.85 58.105 8.097s-3.239 16.478 3.734 31.723Z" fill="#FF6D2F"/><path fill-rule="evenodd" clip-rule="evenodd" d="M62.748 39.404v.001c3.456 7.577 7.553 13.945 11.359 18.122 1.906 2.092 3.7 3.591 5.264 4.432 1.581.85 2.75.939 3.566.567.815-.37 1.514-1.31 1.91-3.062.391-1.732.436-4.07.106-6.882-.658-5.613-2.78-12.883-6.235-20.454-3.455-7.571-7.555-13.942-11.363-18.122-1.908-2.094-3.704-3.594-5.269-4.435-1.582-.85-2.75-.938-3.566-.565-.815.373-1.515 1.316-1.91 3.071-.39 1.735-.433 4.077-.102 6.89.66 5.616 2.785 12.883 6.24 20.437Zm20.603 24.032C78.44 65.672 68.811 55.11 61.84 39.82c-6.973-15.245-8.647-29.476-3.734-31.723 4.912-2.247 14.55 8.338 21.523 23.616 6.973 15.278 8.636 29.487 3.723 31.723Z" fill="#4C0D00"/><path d="M64.879 37.892a84.278 84.278 0 0 0 2.578 5.188 6.035 6.035 0 0 0 7.005-8.36l-1.19-2.61a6.036 6.036 0 0 0-10.872-.221 83.61 83.61 0 0 0 2.479 6.003Z" fill="#FFF4DA"/><path opacity=".2" d="M56.42 13.615A19.044 19.044 0 0 0 56 20.41a44.008 44.008 0 0 0 1.19 6.741c.254 1.102.617 2.203.925 3.305.309 1.101.727 2.203 1.102 3.227a61.335 61.335 0 0 0 1.256 3.184c.451 1.046.892 2.103 1.366 3.139a74.91 74.91 0 0 0 6.763 11.93 39.218 39.218 0 0 0 4.406 5.22 16.358 16.358 0 0 0 5.65 3.768 16.865 16.865 0 0 1-5.43-3.999 37.714 37.714 0 0 1-4.23-5.287 77.867 77.867 0 0 1-6.609-11.875 80.577 80.577 0 0 1-4.78-12.7 42.522 42.522 0 0 1-1.355-6.609 19.64 19.64 0 0 1 .165-6.84Z" fill="#000"/><path d="M76.17 3.15c-.948 1.267-1.84 2.567-2.721 3.866-.882 1.3-1.719 2.644-2.556 3.977a106.546 106.546 0 0 0-2.423 4.053l-1.157 2.06c-.363.694-.749 1.377-1.101 2.093.484-.628.936-1.278 1.399-1.917l1.332-1.95c.882-1.299 1.719-2.632 2.556-3.965a100.746 100.746 0 0 0 2.412-4.053c.771-1.366 1.553-2.743 2.258-4.164Zm3.05 46.792c1.785 0 3.558-.066 5.332-.154 1.773-.088 3.547-.22 5.31-.353 1.762-.132 3.535-.308 5.297-.517l2.655-.32c.87-.132 1.751-.242 2.633-.396h-2.666l-2.666.12c-1.773.078-3.536.221-5.309.353a123.15 123.15 0 0 0-10.585 1.267Zm30.105-14.187c-2.578.452-5.133.991-7.711 1.531-2.577.54-5.089 1.102-7.633 1.708a341.076 341.076 0 0 0-7.6 1.872l-3.79 1.002c-1.255.353-2.511.683-3.767 1.102 1.289-.22 2.567-.485 3.844-.727l3.834-.793a263.6 263.6 0 0 0 7.644-1.718c2.545-.617 5.067-1.212 7.601-1.873 2.533-.66 5.066-1.344 7.578-2.104ZM90.412 0c-1.807 1.95-3.547 3.943-5.276 5.948a530.786 530.786 0 0 0-5.122 6.059 265.192 265.192 0 0 0-4.99 6.168l-2.457 3.128c-.793 1.102-1.608 2.093-2.39 3.172.903-.969 1.773-1.971 2.666-2.952l2.6-2.996c1.74-1.993 3.425-4.031 5.121-6.058 1.697-2.027 3.305-4.098 4.99-6.18A152.247 152.247 0 0 0 90.412 0ZM75.31 33.453c2.831-1.168 5.629-2.401 8.416-3.646 2.787-1.245 5.507-2.544 8.338-3.811 2.831-1.267 5.508-2.622 8.261-3.966l4.109-2.037c1.355-.705 2.721-1.377 4.076-2.104-1.421.573-2.82 1.19-4.23 1.784l-4.186 1.862c-2.798 1.244-5.563 2.544-8.338 3.81-2.776 1.268-5.508 2.623-8.262 3.966a271.019 271.019 0 0 0-8.184 4.142Z" fill="#263238"/><path d="m11.984 77.987 19.85-6.764L18.13 41.174 0 51.727l11.984 26.26Z" fill="#FFF4DA"/><path fill-rule="evenodd" clip-rule="evenodd" d="M31.834 71.223 18.13 41.174 0 51.727l11.984 26.26 19.85-6.764Zm-19.316 5.525L1.287 52.135l16.393-9.54 12.786 28.038-17.947 6.115Z" fill="#4C0D00"/></svg>