<svg width="186" height="131" fill="none" xmlns="http://www.w3.org/2000/svg"><g clip-path="url(#a)"><path d="m33.84 150 21.369-9.715-11.743-25.66-21.369 9.715L33.84 150Z" fill="#4C0D00"/><path d="m63.642 112.617-.058.004-.056.018-28.95 9.222-17.325-37.845L43.21 68.245l.05-.03.042-.042L96.694 15.47l41.87 91.502-74.922 5.646Z" fill="#FFF4DA" stroke="#4C0D00"/><path d="M105.017 66.904c-5.88-12.813-9.516-25.181-10.651-34.798-.569-4.812-.507-8.905.194-12.011.703-3.116 2.025-5.141 3.896-5.994 1.87-.853 4.27-.524 7.089.986 2.811 1.505 5.952 4.14 9.225 7.721 6.543 7.158 13.538 18.008 19.417 30.849 5.88 12.84 9.511 25.214 10.642 34.826.566 4.809.502 8.898-.201 11.998-.704 3.11-2.027 5.13-3.897 5.979-1.871.848-4.27.518-7.088-.992-2.809-1.504-5.947-4.137-9.218-7.716-6.538-7.153-13.529-17.998-19.408-30.848Z" fill="#FF6D2F" stroke="#4C0D00"/><path d="M109.703 63.863a142.345 142.345 0 0 0 4.358 8.744 10.24 10.24 0 0 0 5.678-.155 10.204 10.204 0 0 0 4.715-3.157 10.153 10.153 0 0 0 1.453-10.779l-2.012-4.4a10.184 10.184 0 0 0-3.679-4.271 10.23 10.23 0 0 0-10.854-.22 10.19 10.19 0 0 0-3.85 4.12 140.574 140.574 0 0 0 4.191 10.118Z" fill="#FFF4DA"/><path opacity=".2" d="M95.399 22.946A31.994 31.994 0 0 0 94.69 34.4a73.691 73.691 0 0 0 2.011 11.362c.429 1.856 1.043 3.713 1.565 5.57.521 1.856 1.23 3.712 1.862 5.439.634 1.726 1.36 3.601 2.124 5.365.763 1.764 1.508 3.546 2.309 5.291a126.098 126.098 0 0 0 11.436 20.106 66.197 66.197 0 0 0 7.45 8.8 27.655 27.655 0 0 0 9.555 6.348 28.498 28.498 0 0 1-9.182-6.739 63.605 63.605 0 0 1-7.152-8.91 131.142 131.142 0 0 1-11.176-20.013 135.576 135.576 0 0 1-8.083-21.406 71.477 71.477 0 0 1-2.29-11.138c-.585-3.83-.49-7.732.279-11.529Z" fill="#FFF4DA"/><path d="M128.794 5.31c-1.602 2.134-3.111 4.325-4.601 6.516-1.49 2.19-2.905 4.455-4.321 6.701a179.33 179.33 0 0 0-4.097 6.832l-1.956 3.472c-.615 1.17-1.266 2.32-1.862 3.527.819-1.058 1.583-2.153 2.365-3.23l2.254-3.286c1.49-2.19 2.905-4.437 4.321-6.683a170.41 170.41 0 0 0 4.079-6.832c1.303-2.302 2.626-4.623 3.818-7.018Zm5.159 78.862c3.017 0 6.016-.112 9.015-.26 2.998-.149 5.997-.371 8.977-.594 2.98-.223 5.979-.52 8.959-.873l4.488-.538c1.472-.223 2.962-.409 4.452-.668h-4.507l-4.508.204c-2.999.13-5.979.371-8.977.594a207.405 207.405 0 0 0-17.899 2.135Zm50.903-23.911c-4.358.761-8.679 1.671-13.038 2.58-4.358.91-8.604 1.857-12.907 2.878-4.302 1.021-8.586 2.042-12.851 3.156l-6.407 1.69c-2.124.594-4.247 1.15-6.37 1.856 2.179-.371 4.339-.817 6.5-1.225l6.481-1.337c4.322-.91 8.624-1.856 12.926-2.896 4.303-1.04 8.568-2.042 12.852-3.156 4.284-1.114 8.568-2.265 12.814-3.546ZM152.876 0c-3.054 3.286-5.997 6.646-8.921 10.025-2.924 3.379-5.793 6.795-8.661 10.21a446.881 446.881 0 0 0-8.437 10.397l-4.154 5.272c-1.341 1.857-2.719 3.527-4.041 5.347 1.527-1.634 2.998-3.323 4.507-4.976l4.396-5.05c2.942-3.36 5.792-6.794 8.66-10.21 2.869-3.416 5.588-6.906 8.438-10.415 2.849-3.508 5.587-6.998 8.213-10.6Zm-25.535 56.381c4.787-1.968 9.518-4.047 14.23-6.145s9.312-4.288 14.099-6.423c4.787-2.135 9.313-4.419 13.969-6.684l6.947-3.434c2.291-1.188 4.601-2.32 6.892-3.546-2.403.965-4.768 2.005-7.152 3.008l-7.078 3.137c-4.731 2.098-9.406 4.289-14.099 6.424-4.694 2.134-9.313 4.418-13.969 6.683-4.657 2.265-9.276 4.567-13.839 6.98Z" fill="#FFF4DA"/><path d="m30.432 70.103 22.71 49.641-32.611 11.075L.644 87.384l29.788-17.28Z" fill="#FFF4DA" stroke="#4C0D00"/></g><defs><clipPath id="a"><path fill="#fff" d="M0 0h186v131H0z"/></clipPath></defs></svg>