<svg width="83" height="179" fill="none" xmlns="http://www.w3.org/2000/svg"><path d="M81.566 178.339H1.247V73.329c0-22.178 17.98-40.158 40.16-40.158 22.179 0 40.159 17.98 40.159 40.159v105.009Z" fill="#4C0D00"/><path d="M81.566 178.339H1.247V73.329c0-22.178 17.98-40.158 40.16-40.158 22.179 0 40.159 17.98 40.159 40.159v105.009Z" stroke="#4C0D00" stroke-width="1.333" stroke-linecap="round" stroke-linejoin="round"/><path d="M12.912 154.944h-8.21V38.628h8.21v116.316Z" fill="#FFF4DA" stroke="#4C0D00" stroke-width="1.333" stroke-linecap="round" stroke-linejoin="round"/><path d="M12.912 44.661h-8.21v-6.033h8.21v6.033Zm64.635 122.482h-8.21V38.628h8.21v128.515Z" fill="#FFF4DA" stroke="#4C0D00" stroke-width="1.333" stroke-linecap="round" stroke-linejoin="round"/><path d="M77.547 41.423h-8.21v-2.795h8.21v2.795Z" fill="#FFF4DA" stroke="#4C0D00" stroke-width="1.333" stroke-linecap="round" stroke-linejoin="round"/><path d="M81.263 178.339H1.55c7.677-8.915 22.646-14.969 39.853-14.969 17.214 0 32.184 6.054 39.86 14.969Z" stroke="#4C0D00" stroke-width="1.333" stroke-linecap="round" stroke-linejoin="round"/><path d="M32.193 160.234H20.736V33.171h11.457v127.063Z" fill="#FFF4DA" stroke="#4C0D00" stroke-width="1.333" stroke-linecap="round" stroke-linejoin="round"/><path d="M41.407 141.342h-11.12V4.022L41.407 1v140.342Z" fill="#FFF4DA"/><path d="M41.407 141.342h-11.12V4.022L41.407 1v140.342Z" stroke="#4C0D00" stroke-width="1.333" stroke-linecap="round" stroke-linejoin="round"/><path d="M46.967 141.342h-5.56V1l5.56 3.023v137.319Z" fill="#FFF4DA"/><path d="M46.967 141.342h-5.56V1l5.56 3.023v137.319Z" stroke="#4C0D00" stroke-width="1.333" stroke-linecap="round" stroke-linejoin="round"/><path d="M34.48 167.143h-9.267V80.634l9.267-.044v86.553Z" fill="#FFF4DA"/><path d="M34.48 167.143h-9.267V80.634l9.267-.044v86.553Z" stroke="#4C0D00" stroke-width="1.333" stroke-linecap="round" stroke-linejoin="round"/><path d="M39.113 167.143h-4.634V80.59l4.634-2.79v89.343Z" fill="#FFF4DA"/><path d="M39.113 167.143h-4.634V80.59l4.634-2.79v89.343Z" stroke="#4C0D00" stroke-width="1.333" stroke-linecap="round" stroke-linejoin="round"/><path d="m30.49 77.8-5.277 2.834 9.267-.044 4.633-2.79H30.49Z" fill="#FFF4DA"/><path d="m30.49 77.8-5.277 2.834 9.267-.044 4.633-2.79H30.49Z" stroke="#4C0D00" stroke-width="1.333" stroke-linecap="round" stroke-linejoin="round"/><path d="M58.69 161.637h6.898V11.484L58.69 9.421v152.216Z" fill="#FFF4DA"/><path d="M58.69 161.637h6.898V11.484L58.69 9.421v152.216Z" stroke="#4C0D00" stroke-width="1.333" stroke-linecap="round" stroke-linejoin="round"/><path d="M55.241 161.637h3.45V9.421l-3.45 2.063v150.153Z" fill="#FFF4DA"/><path d="M55.241 161.637h3.45V9.421l-3.45 2.063v150.153Z" stroke="#4C0D00" stroke-width="1.333" stroke-linecap="round" stroke-linejoin="round"/><path d="M18.31 174.808H10.1V24.655l8.21 1.168v148.985Z" fill="#FFF4DA"/><path d="M18.31 174.808H10.1V24.655l8.21 1.168v148.985Z" stroke="#4C0D00" stroke-width="1.333" stroke-linecap="round" stroke-linejoin="round"/><path d="M56.966 168.762h-8.65V32.516l8.65-1.241v137.487Z" fill="#FFF4DA"/><path d="M56.966 168.762h-8.65V32.516l8.65-1.241v137.487Z" stroke="#4C0D00" stroke-width="1.333" stroke-linecap="round" stroke-linejoin="round"/><path d="M48.316 168.762h-2.807V30.538l2.806 1.978v136.246Z" fill="#FFF4DA"/><path d="M48.316 168.762h-2.807V30.538l2.806 1.978v136.246Z" stroke="#4C0D00" stroke-width="1.333" stroke-linecap="round" stroke-linejoin="round"/><path d="M23.162 174.808H18.31V25.823l4.852-1.168v150.153Z" fill="#FFF4DA"/><path d="M23.162 174.808H18.31V25.823l4.852-1.168v150.153Z" stroke="#4C0D00" stroke-width="1.333" stroke-linecap="round" stroke-linejoin="round"/><path d="M67.829 163.796h7.907V69.001h-7.907v94.795Z" fill="#FFF4DA" stroke="#4C0D00" stroke-width="1.333" stroke-linecap="round" stroke-linejoin="round"/><path d="M64.887 163.796h2.941V69.001l-2.941-1.285v96.08Z" fill="#FFF4DA"/><path d="M64.887 163.796h2.941V69.001l-2.941-1.285v96.08Z" stroke="#4C0D00" stroke-width="1.333" stroke-linecap="round" stroke-linejoin="round"/><path d="M72.228 67.716h-7.341l2.941 1.285h7.908l-3.508-1.285Z" fill="#FFF4DA"/><path d="M72.228 67.716h-7.341l2.941 1.285h7.908l-3.508-1.285Z" stroke="#4C0D00" stroke-width="1.333" stroke-linecap="round" stroke-linejoin="round"/><path d="M81.567 82.998v95.341H1.247V82.897a42.795 42.795 0 0 0 7.792 8.459c3.44 12.811 16.627 22.348 32.364 22.348 15.708 0 28.867-9.494 32.35-22.261a43.052 43.052 0 0 0 7.814-8.445Z" fill="#FF6D2F"/><path d="M81.567 82.998v95.341H1.247V82.897a42.795 42.795 0 0 0 7.792 8.459c3.44 12.811 16.627 22.348 32.364 22.348 15.708 0 28.867-9.494 32.35-22.261a43.052 43.052 0 0 0 7.814-8.445Z" stroke="#4C0D00" stroke-width="1.333"/><path d="M51.297 137.897c0 5.462-4.428 9.89-9.89 9.89-5.462 0-9.89-4.428-9.89-9.89 0-5.462 4.428-9.89 9.89-9.89 5.462 0 9.89 4.428 9.89 9.89Z" fill="#FFF4DA"/><path d="M51.297 137.897c0 5.462-4.428 9.89-9.89 9.89-5.462 0-9.89-4.428-9.89-9.89 0-5.462 4.428-9.89 9.89-9.89 5.462 0 9.89 4.428 9.89 9.89Z" stroke="#4C0D00" stroke-width="1.333" stroke-linecap="round" stroke-linejoin="round"/><path d="M81.263 178.339H1.55c7.677-8.915 22.646-14.969 39.853-14.969 17.214 0 32.184 6.054 39.86 14.969Z" fill="#FFF4DA"/><path d="M81.263 178.339H1.55c7.677-8.915 22.646-14.969 39.853-14.969 17.214 0 32.184 6.054 39.86 14.969Z" stroke="#4C0D00" stroke-width="1.333" stroke-linecap="round" stroke-linejoin="round"/><path d="m10.1 24.655 7.525-1.207 5.537 1.207-4.852 1.168-8.21-1.168Z" fill="#FFF4DA"/><path d="m10.1 24.655 7.525-1.207 5.537 1.207-4.852 1.168-8.21-1.168Z" stroke="#4C0D00" stroke-width="1.333" stroke-linecap="round" stroke-linejoin="round"/><path d="m52.64 29.237-7.131 1.3 2.806 1.98 8.651-1.242-4.325-2.038Z" fill="#FFF4DA"/><path d="m52.64 29.237-7.131 1.3 2.806 1.98 8.651-1.242-4.325-2.038Z" stroke="#4C0D00" stroke-width="1.333" stroke-linecap="round" stroke-linejoin="round"/></svg>