<svg width="602" height="397" fill="none" xmlns="http://www.w3.org/2000/svg"><g clip-path="url(#a)"><path d="m252.743 90.004 1.771 46.359-1.771-46.359Z" fill="#FFF4DA"/><path d="m252.743 90.004 1.771 46.359" stroke="#4C0D00" stroke-width=".8" stroke-linejoin="bevel"/><path d="M13.091 160.37 252.74 90.003l331.45 81.134-193.172 68.839L13.091 160.37Z" fill="#FF6D2F"/><path d="M13.091 160.37 252.74 90.003l331.45 81.134-193.172 68.839L13.091 160.37Z" stroke="#4C0D00" stroke-width=".8" stroke-linejoin="bevel"/><path d="m365.739 133.67 104.153 67.32-1.692 26.613-124.247-87.008 21.786-6.925Z" fill="#FFF4DA"/><path d="m365.739 133.67 104.153 67.32-1.692 26.613-124.247-87.008 21.786-6.925Z" stroke="#4C0D00" stroke-width=".8" stroke-linejoin="bevel"/><path d="m344.994 162.659 129.636 79.694-6.43-14.748-124.247-87.01 1.041 22.064Z" fill="#FFF4DA"/><path d="m344.994 162.659 129.636 79.694-6.43-14.748-124.247-87.01 1.041 22.064Z" stroke="#4C0D00" stroke-width=".8" stroke-linejoin="bevel"/><path d="m474.647 242.351-6.432-14.752.777-12.349.91-14.259 6.43 14.728-1.685 26.632Z" fill="#FFF4DA"/><path d="m474.647 242.351-6.432-14.752.777-12.349.91-14.259 6.43 14.728-1.685 26.632Z" stroke="#4C0D00" stroke-width=".8" stroke-linejoin="bevel"/><path d="m131.472 150.513 148.02 66.444 26.564-20.329L159.975 128.7l-28.503 21.813Z" fill="#FFF4DA"/><path d="m131.472 150.513 148.02 66.444 26.564-20.329L159.975 128.7l-28.503 21.813Z" stroke="#4C0D00" stroke-width=".8" stroke-linejoin="bevel"/><path d="m165.021 113.023 139.286 65.48 1.757 18.125L159.983 128.7l5.038-15.677Z" fill="#FFF4DA"/><path d="m165.021 113.023 139.286 65.48 1.757 18.125L159.983 128.7l5.038-15.677Z" stroke="#4C0D00" stroke-width=".8" stroke-linejoin="bevel"/><path d="m131.472 150.512 10.3-19.704 23.241-17.786-5.038 15.677-28.503 21.813Z" fill="#FFF4DA"/><path d="m131.472 150.512 10.3-19.704 23.241-17.786-5.038 15.677-28.503 21.813Z" stroke="#4C0D00" stroke-width=".8" stroke-linejoin="bevel"/><path d="m299.292 72.792-27.945 108.283-19.766-19.734 30.627-100.005 17.084 11.456Z" fill="#FFF4DA"/><path d="m299.292 72.792-27.945 108.283-19.766-19.734 30.627-100.005 17.084 11.456Z" stroke="#4C0D00" stroke-width=".8" stroke-linejoin="bevel"/><path d="m267.246 68.89-30.2 93.049 14.543-.598 30.627-100.005-14.97 7.554Z" fill="#FFF4DA"/><path d="m267.246 68.89-30.2 93.049 14.543-.598 30.627-100.005-14.97 7.554Z" stroke="#4C0D00" stroke-width=".8" stroke-linejoin="bevel"/><path d="m237.732 170.77 210.911 32.467 19.067 28.843s-171.402-13.828-247.47-40.18l17.492-21.13Z" fill="#FFF4DA"/><path d="m237.732 170.77 210.911 32.467 19.067 28.843s-171.402-13.828-247.47-40.18l17.492-21.13Z" stroke="#4C0D00" stroke-width=".8" stroke-linejoin="bevel"/><path d="m229.973 216.69 230.619 32.992 7.117-17.603-247.469-40.178 9.733 24.789Z" fill="#FFF4DA"/><path d="m229.973 216.69 230.619 32.992 7.117-17.603-247.469-40.178 9.733 24.789Z" stroke="#4C0D00" stroke-width=".8" stroke-linejoin="bevel"/><path d="m332.105 164.717-20.247-26.321-206.451 49.729 17.972 25.92 208.726-49.328Z" fill="#FFF4DA"/><path d="m332.105 164.717-20.247-26.321-206.451 49.729 17.972 25.92 208.726-49.328Z" stroke="#4C0D00" stroke-width=".8" stroke-linejoin="bevel"/><path d="m332.116 164.716-21.66 18.67-171.052 39.493-16.013-8.835 208.725-49.328Z" fill="#FFF4DA"/><path d="m332.116 164.716-21.66 18.67-171.052 39.493-16.013-8.835 208.725-49.328Z" stroke="#4C0D00" stroke-width=".8" stroke-linejoin="bevel"/><path d="m279.846 196.391 143.76-87.511-12.932-15.26-150.283 89.705 19.455 13.066Z" fill="#FFF4DA"/><path d="m279.846 196.391 143.76-87.511-12.932-15.26-150.283 89.705 19.455 13.066Z" stroke="#4C0D00" stroke-width=".8" stroke-linejoin="bevel"/><path d="m279.857 196.39 143.76-87.511 3.941 23.476-132.542 83.677-15.159-19.642Z" fill="#FFF4DA"/><path d="m279.857 196.39 143.76-87.511 3.941 23.476-132.542 83.677-15.159-19.642Z" stroke="#4C0D00" stroke-width=".8" stroke-linejoin="bevel"/><path d="m295.005 216.032-20.659-13.822-13.955-18.885 19.454 13.065 15.16 19.642Z" fill="#FFF4DA"/><path d="m295.005 216.032-20.659-13.822-13.955-18.885 19.454 13.065 15.16 19.642Z" stroke="#4C0D00" stroke-width=".8" stroke-linejoin="bevel"/><path d="m446.653 154.163-165.698-36.545 3.699 26.746 169.23 34.805-7.231-25.006Z" fill="#FFF4DA"/><path d="m446.653 154.163-165.698-36.545 3.699 26.746 169.23 34.805-7.231-25.006Z" stroke="#4C0D00" stroke-width=".8" stroke-linejoin="bevel"/><path d="m438.65 186.663-160.272-32.896 6.262-9.403 169.229 34.804-15.219 7.495Z" fill="#FFF4DA"/><path d="m438.65 186.663-160.272-32.896 6.262-9.403 169.229 34.804-15.219 7.495Z" stroke="#4C0D00" stroke-width=".8" stroke-linejoin="bevel"/><path d="m273.354 129.019 7.594-11.403 3.699 26.747-6.263 9.403-5.03-24.747Z" fill="#FFF4DA"/><path d="m273.354 129.019 7.594-11.403 3.699 26.747-6.263 9.403-5.03-24.747Z" stroke="#4C0D00" stroke-width=".8" stroke-linejoin="bevel"/><path d="M572.806 110.753 350.982 250.84l17.671 21.35 200.839-124.993 3.314-36.444Z" fill="#FFF4DA"/><path d="M572.806 110.753 350.982 250.84l17.671 21.35 200.839-124.993 3.314-36.444Z" stroke="#4C0D00" stroke-width=".8" stroke-linejoin="bevel"/><path d="M592.954 159.345 389.904 272.19h-21.258l200.841-124.993 23.467 12.148Z" fill="#FFF4DA"/><path d="M592.954 159.345 389.904 272.19h-21.258l200.841-124.993 23.467 12.148Z" stroke="#4C0D00" stroke-width=".8" stroke-linejoin="bevel"/><path d="m572.789 110.755 22.455 13.068-2.3 35.524-23.468-12.148 3.313-36.444Z" fill="#FFF4DA"/><path d="m572.789 110.755 22.455 13.068-2.3 35.524-23.468-12.148 3.313-36.444Z" stroke="#4C0D00" stroke-width=".8" stroke-linejoin="bevel"/><path d="m389.903 342.868 170.809-70.68 23.468-101.049-193.172 68.838-1.105 102.891Z" fill="#FFF4DA"/><path d="m389.903 342.868 170.809-70.68 23.468-101.049-193.172 68.838-1.105 102.891Z" stroke="#4C0D00" stroke-width=".8" stroke-linejoin="bevel"/><path d="m13.091 160.371 32.58 102.262 344.243 80.235 1.104-102.89-377.927-79.607Z" fill="#FFF4DA"/><path d="m13.091 160.371 32.58 102.262 344.243 80.235 1.104-102.89-377.927-79.607Z" stroke="#4C0D00" stroke-width=".8" stroke-linejoin="bevel"/><path d="m134.994 270.978-28.35 49.045c-5.008 8.57-16.693 13.928-37.313 13.928s-33.405-6.324-37.315-13.928L1.963 267.842l133.031 3.136Z" fill="#FFF4DA"/><path d="m134.994 270.978-28.35 49.045c-5.008 8.57-16.693 13.928-37.313 13.928s-33.405-6.324-37.315-13.928L1.963 267.842l133.031 3.136Z" stroke="#4C0D00" stroke-width=".8" stroke-linejoin="bevel"/><path d="M136.696 265.367c0 13.876-30.161 25.124-67.366 25.124-37.206 0-67.367-11.248-67.367-25.124 0-13.875 30.161-25.123 67.367-25.123 37.205 0 67.366 11.248 67.366 25.123Z" fill="#FFF4DA"/><path d="M136.696 265.367c0 13.876-30.161 25.124-67.366 25.124-37.206 0-67.367-11.248-67.367-25.124 0-13.875 30.161-25.123 67.367-25.123 37.205 0 67.366 11.248 67.366 25.123Z" stroke="#4C0D00" stroke-width=".8" stroke-linejoin="bevel"/><path d="M126.814 265.368c0 10.507-25.737 19.024-57.485 19.024-31.749 0-57.486-8.517-57.486-19.024 0-10.507 25.737-19.024 57.486-19.024 31.748 0 57.485 8.517 57.485 19.024Z" fill="#FF6D2F"/><path d="M126.814 265.368c0 10.507-25.737 19.024-57.485 19.024-31.749 0-57.486-8.517-57.486-19.024 0-10.507 25.737-19.024 57.486-19.024 31.748 0 57.485 8.517 57.485 19.024Z" stroke="#4C0D00" stroke-width=".8" stroke-linejoin="bevel"/><path d="M126.817 265.368c0 10.495-25.731 19.015-57.49 19.015-21.854 0-40.87-4.05-50.575-9.976.296-6.643 6.223-11.73 19.658-9.039 0 0-3.854-9.211 2.395-13.434 0 0 16.127 17.434 40.87 17.78 20.57.297 24.497-11.853 45.043-5.482.074.37.099.766.099 1.136Z" fill="#FFF4DA"/><path d="M126.817 265.368c0 10.495-25.731 19.015-57.49 19.015-21.854 0-40.87-4.05-50.575-9.976.296-6.643 6.223-11.73 19.658-9.039 0 0-3.854-9.211 2.395-13.434 0 0 16.127 17.434 40.87 17.78 20.57.297 24.497-11.853 45.043-5.482.074.37.099.766.099 1.136Z" stroke="#4C0D00" stroke-width=".8" stroke-linejoin="bevel"/><path d="M126.817 265.368c0 10.495-25.731 19.015-57.49 19.015-21.854 0-40.87-4.05-50.575-9.976.296-6.643 6.223-11.73 19.658-9.039 0 0-3.854-9.211 2.395-13.434 0 0 16.127 17.434 40.87 17.78 20.57.297 24.497-11.853 45.043-5.482.074.37.099.766.099 1.136Z" fill="#FFF4DA"/><path d="M126.817 265.368c0 10.495-25.731 19.015-57.49 19.015-21.854 0-40.87-4.05-50.575-9.976.296-6.643 6.223-11.73 19.658-9.039 0 0-3.854-9.211 2.395-13.434 0 0 16.127 17.434 40.87 17.78 20.57.297 24.497-11.853 45.043-5.482.074.37.099.766.099 1.136Z" stroke="#4C0D00" stroke-width=".8" stroke-linejoin="bevel"/><path d="M104.487 70.825 58.483 181.136l13.99 29.09L124.76 61.693l-20.272 9.132Z" fill="#FFF4DA"/><path d="M104.487 70.825 58.483 181.136l13.99 29.09L124.76 61.693l-20.272 9.132Z" stroke="#4C0D00" stroke-width=".8" stroke-linejoin="bevel"/><path d="m74.518 204.406 50.236-142.712 17.237 20.586-52.613 125.153-14.86-3.027Z" fill="#FFF4DA"/><path d="m74.518 204.406 50.236-142.712 17.237 20.586-52.613 125.153-14.86-3.027Z" stroke="#4C0D00" stroke-width=".8" stroke-linejoin="bevel"/><path d="M76.207 165.92c-4.398-2.069-6.601.747-14.702 8.586-8.102 7.84-12.051 11.768-3.166 20.632 8.885 8.862 10.67 9.863 10.728 18.445.058 8.583-.718 14.526 5.275 14.567 5.993.043 5.927-7.065 6.327-11.558.4-4.493-1.39-20.132 4.256-19.044 5.644 1.089.895 13.862 6.625 13.701 5.73-.161 13.951-29.947 14.155-34.268.205-4.322-5.834-.768-7.772-6.252-1.94-5.483 2.617-16.794-3.08-18.475-5.696-1.682-7.167 15.833-12.047 15.963-4.367.116-4.98-1.536-6.6-2.297Z" fill="#FFF4DA"/><path d="M76.207 165.92c-4.398-2.069-6.601.747-14.702 8.586-8.102 7.84-12.051 11.768-3.166 20.632 8.885 8.862 10.67 9.863 10.728 18.445.058 8.583-.718 14.526 5.275 14.567 5.993.043 5.927-7.065 6.327-11.558.4-4.493-1.39-20.132 4.256-19.044 5.644 1.089.895 13.862 6.625 13.701 5.73-.161 13.951-29.947 14.155-34.268.205-4.322-5.834-.768-7.772-6.252-1.94-5.483 2.617-16.794-3.08-18.475-5.696-1.682-7.167 15.833-12.047 15.963-4.367.116-4.98-1.536-6.6-2.297Z" stroke="#4C0D00" stroke-width=".8" stroke-linejoin="bevel"/></g><defs><clipPath id="a"><path fill="#fff" d="M0 0h602v397H0z"/></clipPath></defs></svg>