<svg width="67" height="168" fill="none" xmlns="http://www.w3.org/2000/svg"><path d="M66.342 45.285c0 .152-.007.304-.014.449a4.344 4.344 0 0 1-.03.304c-.513 5.953-5.633 8.437-12.31 10.697-.03.014-.059.021-.087.029-.32.115-.652.224-.985.333-.283.101-.565.188-.855.275-5.163 1.571-11.399 2.491-18.105 2.491-17.518 0-31.785-6.257-32.364-14.078l-.022-.5c0-8.046 14.498-14.57 32.386-14.57 17.888 0 32.386 6.524 32.386 14.57Z" fill="#4C0D00"/><path d="M66.342 45.285c0 .152-.007.304-.014.449a4.344 4.344 0 0 1-.03.304c-.513 5.953-5.633 8.437-12.31 10.697-.03.014-.059.021-.087.029-.32.115-.652.224-.985.333-.283.101-.565.188-.855.275-5.163 1.571-11.399 2.491-18.105 2.491-17.518 0-31.785-6.257-32.364-14.078l-.022-.5c0-8.046 14.498-14.57 32.386-14.57 17.888 0 32.386 6.524 32.386 14.57Z" stroke="#4C0D00" stroke-width="1.333"/><path d="M3.06 43.96s-.972-29.796 4.016-31.871c6.776-2.82 10.795 6.693 10.795 6.693s-.472-16.13 9.284-17.705c8.207-1.324 9.932 7.125 9.932 7.125s3.031-7.125 9.068-5.83c4.742 1.019 4.75 9.717 4.75 9.717s7.67-7.335 11.88-1.055c3.086 4.6 1.27 31.48 1.27 31.48l.004 13.62-60.945 4.83L3.06 43.96Z" fill="#FF6D2F"/><path d="M3.06 43.96s-.972-29.796 4.016-31.871c6.776-2.82 10.795 6.693 10.795 6.693s-.472-16.13 9.284-17.705c8.207-1.324 9.932 7.125 9.932 7.125s3.031-7.125 9.068-5.83c4.742 1.019 4.75 9.717 4.75 9.717s7.67-7.335 11.88-1.055c3.086 4.6 1.27 31.48 1.27 31.48l.004 13.62-60.945 4.83L3.06 43.96Z" stroke="#4C0D00"/><path d="M21.734 40.253c-2.34-6.69-1.035-17.415 2.03-17.39 3.064.027 2.445 6.274 4.48 4.308 2.037-1.965 1.07-8.673 5.01-9.02 6.52-.577 7.547 22.22 7.547 22.22s-9.864 8.579-10.082 8.611c-.219.033-8.985-8.729-8.985-8.729Z" fill="#FFF4DA"/><path d="M21.734 40.253c-2.34-6.69-1.035-17.415 2.03-17.39 3.064.027 2.445 6.274 4.48 4.308 2.037-1.965 1.07-8.673 5.01-9.02 6.52-.577 7.547 22.22 7.547 22.22s-9.864 8.579-10.082 8.611c-.219.033-8.985-8.729-8.985-8.729Z" stroke="#4C0D00" stroke-width="1.333"/><path d="M24.442 49.727c0 5.327-4.64 9.645-10.364 9.645-5.723 0-10.363-4.318-10.363-9.645s4.64-9.645 10.363-9.645c5.724 0 10.364 4.318 10.364 9.645Z" fill="#FFF4DA"/><path d="M24.442 49.727c0 5.327-4.64 9.645-10.364 9.645-5.723 0-10.363-4.318-10.363-9.645s4.64-9.645 10.363-9.645c5.724 0 10.364 4.318 10.364 9.645Z" stroke="#4C0D00" stroke-width="1.333"/><path d="M42.414 45.693c0 7.623-6.18 13.804-13.804 13.804-7.623 0-13.804-6.18-13.804-13.804 0-7.624 6.18-13.805 13.804-13.805 7.624 0 13.804 6.18 13.804 13.805Z" fill="#FFF4DA"/><path d="M42.414 45.693c0 7.623-6.18 13.804-13.804 13.804-7.623 0-13.804-6.18-13.804-13.804 0-7.624 6.18-13.805 13.804-13.805 7.624 0 13.804 6.18 13.804 13.805Z" stroke="#4C0D00" stroke-width="1.333"/><path d="M39.822 45.693c0 6.192-5.02 11.211-11.212 11.211s-11.212-5.02-11.212-11.211c0-6.192 5.02-11.212 11.212-11.212s11.212 5.02 11.212 11.212Z" fill="#FFF4DA"/><path d="M39.822 45.693c0 6.192-5.02 11.211-11.212 11.211s-11.212-5.02-11.212-11.211c0-6.192 5.02-11.212 11.212-11.212s11.212 5.02 11.212 11.212Z" stroke="#4C0D00" stroke-width="1.333"/><path d="M36.961 45.693a8.351 8.351 0 1 1-16.702 0 8.351 8.351 0 0 1 16.702 0Z" fill="#FFF4DA"/><path d="M36.961 45.693a8.351 8.351 0 1 1-16.702 0 8.351 8.351 0 0 1 16.702 0Z" stroke="#4C0D00" stroke-width="1.333"/><path d="M50.322 22.972c6.418 6.418 6.418 16.824 0 23.242-5.697 5.697-14.54 6.336-20.944 1.916l3.995-4.897 2.757-3.382.492-.605 1.194-1.461 1.21-1.486 1.426-1.749.3-.367 1.062-1.303 1.961-2.405.852-1.042 5.457-6.69c.082.073.159.15.238.23Z" fill="#FFF4DA"/><path d="M50.322 22.972c6.418 6.418 6.418 16.824 0 23.242-5.697 5.697-14.54 6.336-20.944 1.916l3.995-4.897 2.757-3.382.492-.605 1.194-1.461 1.21-1.486 1.426-1.749.3-.367 1.062-1.303 1.961-2.405.852-1.042 5.457-6.69c.082.073.159.15.238.23Z" stroke="#4C0D00" stroke-width="1.333"/><path d="M44.89 29.174c.356.26.648.617.836 1.05a2.634 2.634 0 0 1-1.35 3.465c-.113.05-.231.09-.349.123.066.101.122.208.172.321a2.63 2.63 0 0 1-2.725 3.667 2.632 2.632 0 0 1-3.46 3.174 2.633 2.633 0 0 1-3.726 1.135l1.842-2.258.492-.605 1.194-1.461 1.21-1.486 1.427-1.75.299-.366 1.062-1.302 1.962-2.406.851-1.042.281-.345c-.002.03-.011.057-.018.086Z" fill="#FFF4DA"/><path d="M44.89 29.174c.356.26.648.617.836 1.05a2.634 2.634 0 0 1-1.35 3.465c-.113.05-.231.09-.349.123.066.101.122.208.172.321a2.63 2.63 0 0 1-2.725 3.667 2.632 2.632 0 0 1-3.46 3.174 2.633 2.633 0 0 1-3.726 1.135l1.842-2.258.492-.605 1.194-1.461 1.21-1.486 1.427-1.75.299-.366 1.062-1.302 1.962-2.406.851-1.042.281-.345c-.002.03-.011.057-.018.086Z" stroke="#4C0D00" stroke-width="1.333"/><path d="m52.694 19.545-2.61 3.198 2.61-3.198Z" fill="#FFF4DA"/><path d="m52.694 19.545-2.61 3.198" stroke="#4C0D00" stroke-width="1.333"/><path d="m29.378 48.13-2.605 3.194 2.605-3.194Z" fill="#FFF4DA"/><path d="m29.378 48.13-2.605 3.194" stroke="#4C0D00" stroke-width="1.333"/><path d="M44.89 29.174c.356.26.648.617.836 1.05a2.634 2.634 0 0 1-1.35 3.465c-.113.05-.231.09-.349.123.066.101.122.208.172.321a2.63 2.63 0 0 1-2.725 3.667 2.632 2.632 0 0 1-3.46 3.174 2.633 2.633 0 0 1-3.726 1.135l1.842-2.258.492-.605 1.194-1.461 1.21-1.486 1.427-1.75.299-.366 1.062-1.302 1.962-2.406.851-1.042.281-.345c-.002.03-.011.057-.018.086Z" fill="#FFF4DA"/><path d="M44.89 29.174c.356.26.648.617.836 1.05a2.634 2.634 0 0 1-1.35 3.465c-.113.05-.231.09-.349.123.066.101.122.208.172.321a2.63 2.63 0 0 1-2.725 3.667 2.632 2.632 0 0 1-3.46 3.174 2.633 2.633 0 0 1-3.726 1.135l1.842-2.258.492-.605 1.194-1.461 1.21-1.486 1.427-1.75.299-.366 1.062-1.302 1.962-2.406.851-1.042.281-.345c-.002.03-.011.057-.018.086Z" stroke="#4C0D00" stroke-width="1.333"/><path d="M53.23 20.064c8.024 8.023 8.022 21.032-.002 29.056-7.205 7.206-18.43 7.942-26.456 2.204l2.606-3.194c6.403 4.42 15.247 3.78 20.944-1.916 6.417-6.418 6.417-16.824 0-23.242a5.68 5.68 0 0 0-.238-.229l2.61-3.198c.181.167.36.342.537.519Z" fill="#FFF4DA"/><path d="M53.23 20.064c8.024 8.023 8.022 21.032-.002 29.056-7.205 7.206-18.43 7.942-26.456 2.204l2.606-3.194c6.403 4.42 15.247 3.78 20.944-1.916 6.417-6.418 6.417-16.824 0-23.242a5.68 5.68 0 0 0-.238-.229l2.61-3.198c.181.167.36.342.537.519Z" stroke="#4C0D00" stroke-width="1.333"/><path d="M48.733 40.171c-.623-.364-2.283-2.011-1.918-2.634.364-.623 2.613.015 3.236.379a1.306 1.306 0 0 1-1.318 2.255Z" fill="#FFF4DA"/><path d="M48.733 40.171c-.623-.364-2.283-2.011-1.918-2.634.364-.623 2.613.015 3.236.379a1.306 1.306 0 0 1-1.318 2.255Z" stroke="#4C0D00" stroke-width="1.333"/><path d="M51.182 33.053c-.59.066-2.494-.206-2.56-.795-.065-.59 1.731-1.275 2.321-1.34a1.074 1.074 0 0 1 .239 2.135Z" fill="#FFF4DA"/><path d="M51.182 33.053c-.59.066-2.494-.206-2.56-.795-.065-.59 1.731-1.275 2.321-1.34a1.074 1.074 0 0 1 .239 2.135Z" stroke="#4C0D00" stroke-width="1.333"/><path d="M43.068 46.387c-.342-.635-.901-2.905-.266-3.247.635-.343 2.224 1.373 2.566 2.008a1.306 1.306 0 0 1-2.3 1.24Z" fill="#FFF4DA"/><path d="M43.068 46.387c-.342-.635-.901-2.905-.266-3.247.635-.343 2.224 1.373 2.566 2.008a1.306 1.306 0 0 1-2.3 1.24Z" stroke="#4C0D00" stroke-width="1.333"/><path d="M36.618 46.843c.093-.548.826-2.192 1.374-2.1.548.092.703 1.886.61 2.434a1.006 1.006 0 1 1-1.984-.334Z" fill="#FFF4DA"/><path d="M36.618 46.843c.093-.548.826-2.192 1.374-2.1.548.092.703 1.886.61 2.434a1.006 1.006 0 1 1-1.984-.334Z" stroke="#4C0D00" stroke-width="1.333"/><path d="M13.688 59.14c-3.779-11.124 2.834-18.326 8.825-14.547 5.992 3.778 5.776-3.779 10.688-3.24 4.911.54 4.156 5.155 7.556 4.899 3.401-.256 4.103-4.954 7.557-4.926 3.455.028 2.807 3.914 9.824 3.806 7.017-.108-2.267 26.989-2.267 26.989L13.688 59.139Z" fill="#FFF4DA"/><path d="M13.688 59.14c-3.779-11.124 2.834-18.326 8.825-14.547 5.992 3.778 5.776-3.779 10.688-3.24 4.911.54 4.156 5.155 7.556 4.899 3.401-.256 4.103-4.954 7.557-4.926 3.455.028 2.807 3.914 9.824 3.806 7.017-.108-2.267 26.989-2.267 26.989L13.688 59.139Z" stroke="#4C0D00" stroke-width="1.333"/><path d="M66.34 125.486v40.917H1.566l.008-40.917.014-79.698c.58 7.821 14.846 14.078 32.365 14.078 6.705 0 12.94-.92 18.105-2.491-14.014 4.548-33.19 9.43-32.358 41.352v26.759h46.64Z" fill="#FFF4DA"/><path d="M66.34 125.486v40.917H1.566l.008-40.917.014-79.698c.58 7.821 14.846 14.078 32.365 14.078 6.705 0 12.94-.92 18.105-2.491-14.014 4.548-33.19 9.43-32.358 41.352v26.759h46.64Z" stroke="#4C0D00" stroke-width="1.333"/><path d="M66.34 166.403H1.566c6.238-7.214 18.401-12.114 32.383-12.114 13.988 0 26.152 4.9 32.39 12.114Z" fill="#FFF4DA"/><path d="M66.34 166.403H1.566c6.238-7.214 18.401-12.114 32.383-12.114 13.988 0 26.152 4.9 32.39 12.114Z" stroke="#4C0D00" stroke-width="1.333" stroke-linecap="round" stroke-linejoin="round"/><path d="M19.074 58.768v6.417a2.134 2.134 0 1 1-4.268 0v-4.552a.928.928 0 0 0-1.856 0v31.65a2.269 2.269 0 0 1-4.538 0V57.169a3.124 3.124 0 0 1 4.072-2.976l4.414 1.599a3.124 3.124 0 0 1 2.176 2.976Z" fill="#FFF4DA"/><path d="M19.074 58.768v6.417a2.134 2.134 0 0 1-4.268 0v-4.552a.928.928 0 0 0-1.856 0v31.65a2.269 2.269 0 0 1-4.538 0V57.169a3.124 3.124 0 0 1 4.072-2.976l4.414 1.599a3.124 3.124 0 0 1 2.176 2.976Z" stroke="#4C0D00" stroke-width="1.333"/><path d="M66.34 45.288v121.115c-8.547-3.639-30.417-6.726-30.417-6.726a20.687 20.687 0 0 1-16.222-20.2v-40.75c-.833-31.923 18.344-36.804 32.358-41.352.29-.087.572-.174.854-.275.333-.109.666-.218.985-.333a.408.408 0 0 0 .087-.03c6.677-2.259 11.797-4.743 12.311-10.696.015-.101.022-.202.03-.304.006-.145.014-.297.014-.449Z" fill="#FFF4DA"/><path d="M66.34 45.288v121.115c-8.547-3.639-30.417-6.726-30.417-6.726a20.687 20.687 0 0 1-16.222-20.2v-40.75c-.833-31.923 18.344-36.804 32.358-41.352.29-.087.572-.174.854-.275.333-.109.666-.218.985-.333a.408.408 0 0 0 .087-.03c6.677-2.259 11.797-4.743 12.311-10.696.015-.101.022-.202.03-.304.006-.145.014-.297.014-.449Z" stroke="#4C0D00" stroke-width="1.333"/><path d="M32.175 106.147s8.178-3.779 14.088-10.5l-14.088 10.5Z" fill="#fff"/><path d="M32.175 106.147s8.178-3.779 14.088-10.5" stroke="#4C0D00" stroke-width="1.333"/><path d="M35.09 114.917s6.558-2.267 9.392-5.019l-9.392 5.019Z" fill="#fff"/><path d="M35.09 114.917s6.558-2.267 9.392-5.019" stroke="#4C0D00" stroke-width="1.333"/></svg>