<svg width="168" height="124" fill="none" xmlns="http://www.w3.org/2000/svg"><path d="M140.824 1.83v120.624H1.609L122.234 1.829h18.59Z" fill="#4C0D00"/><path fill-rule="evenodd" clip-rule="evenodd" d="M0 123.121h141.491V1.162h-19.533L0 123.121Zm3.219-1.334L122.51 2.496h17.647v119.291H3.219Z" fill="#FF6D2F"/><path d="M154.59 1.83v120.624H15.375L136 1.829h18.59Z" fill="#fff"/><path fill-rule="evenodd" clip-rule="evenodd" d="M13.766 123.121h141.491V1.162h-19.533L13.766 123.121Zm3.219-1.333L136.276 2.496h17.647v119.292H16.985Z" fill="#4C0D00"/><path d="M71.217 68.206c-1.813-9.394 2.044-21.372 13.909-19.19 0 0-6.724-5.595-2.373-10.605 4.35-5.01 11.337 3.955 11.337 3.955s-3.625-15.358 10.547-15.029c0 0-7.059-4.917-3.494-9.426 4.483-5.669 12.228-5.207 17.073-1.549 0 0-.511-5.026 5.289-7.663 5.801-2.637 16.331 1.896 16.331 1.896s30.19 51.81 5.142 72.112C119.93 103.01 71.217 68.206 71.217 68.206Z" fill="#FFF4DA"/><path fill-rule="evenodd" clip-rule="evenodd" d="M122.852 89.672c8.197.413 16.118-1.237 22.546-6.447 6.438-5.219 9.304-12.452 10.008-20.291.702-7.826-.745-16.295-2.965-24.08-2.221-7.79-5.227-14.937-7.676-20.131a141.272 141.272 0 0 0-3.092-6.176 97.576 97.576 0 0 0-.922-1.691c-.108-.194-.193-.343-.25-.443a5.796 5.796 0 0 1-.065-.114l-.017-.03-.006-.01-.577.335.264-.612-.003-.001-.007-.003-.025-.01a38.394 38.394 0 0 0-1.741-.668 42.837 42.837 0 0 0-4.323-1.29c-1.705-.409-3.613-.738-5.477-.794-1.857-.055-3.716.159-5.295.876-3.072 1.396-4.512 3.453-5.168 5.192a8.324 8.324 0 0 0-.462 1.848c-5.074-3.157-12.519-3.275-16.979 2.366-1.008 1.275-1.28 2.614-1.095 3.885.183 1.244.797 2.384 1.491 3.327a14.346 14.346 0 0 0 1.819 2.006c-2.73.21-4.764 1.064-6.255 2.32-1.797 1.515-2.727 3.553-3.181 5.544-.453 1.99-.44 3.973-.318 5.446l.02.235c-.708-.72-1.63-1.567-2.664-2.296-1.184-.835-2.576-1.559-4.006-1.712-1.478-.159-2.947.3-4.182 1.721-1.194 1.375-1.649 2.822-1.628 4.218.021 1.376.504 2.656 1.105 3.727a13.401 13.401 0 0 0 1.568 2.199c-2.25-.14-4.212.247-5.891 1.054-2.145 1.032-3.775 2.725-4.94 4.768-2.319 4.067-2.83 9.581-1.9 14.392l.05.261.216.155.388-.543-.387.543.01.007.027.02a48.71 48.71 0 0 0 .525.365c.366.253.905.619 1.6 1.078 1.388.916 3.398 2.203 5.887 3.681 4.977 2.957 11.88 6.69 19.576 9.789 7.691 3.096 16.205 5.571 24.397 5.984Zm-51.03-21.856c-.815-4.517-.283-9.563 1.8-13.216 1.055-1.852 2.5-3.332 4.359-4.226 1.856-.893 4.175-1.226 7.024-.702l2.504.46-1.956-1.627-.003-.002-.01-.01a5.446 5.446 0 0 1-.026-.022l-.023-.02a13.247 13.247 0 0 1-.86-.842c-.54-.578-1.208-1.392-1.742-2.343-.535-.954-.918-2.013-.934-3.094-.016-1.063.32-2.194 1.3-3.324.941-1.083 1.977-1.383 3.033-1.27 1.104.119 2.275.697 3.38 1.477 1.097.773 2.073 1.703 2.779 2.447a22.437 22.437 0 0 1 1.101 1.253l.013.017.003.003m0 0 1.876 2.407-.7-2.969h-.001l-.002-.007-.006-.028a13.883 13.883 0 0 1-.112-.583 19.732 19.732 0 0 1-.21-1.678c-.115-1.397-.122-3.232.29-5.041.412-1.807 1.232-3.548 2.74-4.82 1.503-1.266 3.763-2.132 7.182-2.052l2.212.051-1.815-1.265-.002-.002-.013-.008-.052-.038c-.046-.034-.116-.085-.204-.153a15.164 15.164 0 0 1-.718-.592c-.584-.512-1.318-1.233-1.939-2.077-.625-.85-1.107-1.785-1.245-2.73-.135-.92.047-1.886.821-2.865 4.196-5.307 11.506-4.936 16.148-1.43l1.22.92-.155-1.518v-.004l-.002-.03a5.2 5.2 0 0 1 .014-.673 6.877 6.877 0 0 1 .418-1.836c.54-1.432 1.744-3.208 4.472-4.448 1.322-.601 2.955-.81 4.703-.757 1.743.052 3.555.362 5.207.757a41.42 41.42 0 0 1 5.68 1.817l.216.384c.213.38.523.943.909 1.667a138.588 138.588 0 0 1 3.063 6.117c2.429 5.154 5.405 12.23 7.6 19.929 2.197 7.706 3.601 15.997 2.919 23.595-.681 7.586-3.435 14.442-9.52 19.374-6.096 4.941-13.657 6.554-21.639 6.151-7.987-.402-16.348-2.822-23.966-5.889-7.613-3.065-14.454-6.763-19.393-9.698a145.823 145.823 0 0 1-5.834-3.648 98.328 98.328 0 0 1-1.904-1.289m68.014-57.222.264-.612.202.087.11.19-.576.335Z" fill="#4C0D00"/><path d="M21.957 118.743c-14.185-2.452-4.461-27.664 10.435-21.996 0 0-3.823-13.513 2.373-17.665 6.197-4.153 9.492 3.955 9.492 3.955s-.857-5.34 4.483-11.602c5.339-6.262 10.412-5.511 16.41-3.267 0 0 2.771-14.398 19.184-.424 10.084 8.585-17.665 47.46-17.665 47.46l-44.712 3.539Z" fill="#FFF4DA"/><path fill-rule="evenodd" clip-rule="evenodd" d="m21.926 119.414 45.105-3.57.18-.253-.542-.387.542.387.021-.029.06-.085.232-.33c.202-.288.497-.712.868-1.254.741-1.084 1.79-2.641 3.015-4.536 2.45-3.788 5.615-8.934 8.466-14.353 2.846-5.412 5.4-11.133 6.603-16.065.601-2.465.875-4.772.657-6.763-.219-2-.94-3.725-2.366-4.94-4.145-3.528-7.49-5.32-10.199-5.97-2.737-.655-4.816-.141-6.353.897-1.513 1.022-2.438 2.506-2.981 3.697-.252.551-.426 1.05-.542 1.43-2.769-.99-5.438-1.649-8.072-1.34-2.889.338-5.635 1.824-8.387 5.053-2.746 3.22-3.914 6.222-4.389 8.442a14.3 14.3 0 0 0-.199 1.154 10.371 10.371 0 0 0-1.353-1.582c-.861-.813-1.974-1.526-3.331-1.729-1.372-.204-2.905.126-4.567 1.24-1.724 1.155-2.716 2.94-3.256 4.888-.539 1.944-.641 4.1-.549 6.087a36.22 36.22 0 0 0 .649 5.196c.076.389.15.737.218 1.035-3.468-.982-6.654-.392-9.306 1.136-2.93 1.689-5.187 4.508-6.494 7.568-1.304 3.055-1.695 6.429-.782 9.242.929 2.86 3.184 5.065 6.97 5.72l.082.014Zm11.108-22.848-.002-.008-.007-.026-.03-.108c-.025-.097-.062-.24-.107-.424-.09-.37-.213-.903-.342-1.558a34.899 34.899 0 0 1-.625-5.001c-.089-1.911.015-3.912.502-5.67.486-1.754 1.34-3.214 2.713-4.135 1.437-.963 2.64-1.176 3.628-1.029 1.003.15 1.877.685 2.613 1.38.737.695 1.306 1.52 1.693 2.184a11.38 11.38 0 0 1 .564 1.102l.005.013v.002l2.204 5.42-.927-5.775v-.005l-.005-.034a7.344 7.344 0 0 1-.037-.786c.002-.557.058-1.375.274-2.384.431-2.016 1.505-4.814 4.1-7.856 2.586-3.034 5.045-4.303 7.527-4.594 2.519-.295 5.16.403 8.142 1.519l.74.276.148-.774.001-.004.005-.024.023-.102a10.313 10.313 0 0 1 .612-1.75c.49-1.073 1.283-2.315 2.515-3.147 1.206-.814 2.897-1.28 5.296-.705 2.426.581 5.583 2.23 9.645 5.689 1.095.932 1.712 2.3 1.906 4.069.194 1.777-.046 3.916-.628 6.302-1.164 4.772-3.657 10.38-6.487 15.76-2.826 5.372-5.968 10.481-8.406 14.25a209.557 209.557 0 0 1-2.996 4.507c-.368.538-.66.958-.86 1.243l-.126.181-44.316 3.508c-3.256-.588-5.08-2.442-5.846-4.803-.788-2.427-.476-5.461.74-8.307 1.212-2.841 3.293-5.415 5.933-6.937 2.62-1.51 5.813-1.997 9.34-.655l1.24.472-.362-1.276Z" fill="#4C0D00"/><path d="M25.037 114.479a3.68 3.68 0 0 1 .174-.167l-.34.341c.05-.058.108-.116.166-.174Zm14.926-14.926a3.33 3.33 0 0 1 .174-.166l-.34.34c.05-.058.108-.116.166-.174Zm7.467-7.466c.057-.058.115-.116.173-.167l-.34.34c.05-.057.108-.115.166-.173Zm7.466-7.467c.058-.058.116-.116.173-.166l-.34.34c.05-.058.109-.116.167-.174Zm7.466-7.466c.058-.058.116-.116.174-.167l-.34.34c.05-.057.108-.115.166-.173Zm14.933-14.933c.058-.058.116-.116.174-.167l-.34.34c.05-.057.108-.115.166-.173Zm7.467-7.467c.058-.057.115-.115.174-.166l-.34.34c.05-.058.108-.116.166-.174Zm14.933-14.933c.058-.058.116-.116.173-.166l-.34.34c.051-.058.109-.116.167-.174Zm7.466-7.466c.058-.058.116-.116.174-.167l-.34.34c.051-.057.109-.115.166-.173Zm7.474-7.474a3.33 3.33 0 0 1 .174-.166l-.341.34c.051-.058.109-.116.167-.174Z" fill="#fff"/><path d="M161.121 2.46v119.993l-143.543-.507c.058-.058.116-.116.173-.167 1.753-1.644 2.774-.739 4.577-2.542 1.81-1.81.899-2.824 2.543-4.584l.34-.34c1.76-1.637 2.773-.732 4.584-2.542 1.81-1.804.898-2.825 2.542-4.577.05-.058.109-.116.167-.174.058-.058.115-.116.173-.167 1.753-1.644 2.774-.738 4.577-2.542 1.81-1.81.905-2.824 2.542-4.584l.34-.34c1.76-1.644 2.774-.731 4.585-2.542 1.81-1.81.898-2.824 2.542-4.584l.34-.34c1.76-1.637 2.774-.732 4.584-2.543 1.81-1.803.899-2.824 2.542-4.584l.34-.34c1.76-1.637 2.774-.731 4.585-2.542 1.803-1.803.898-2.824 2.542-4.584l.34-.34c1.76-1.637 2.774-.732 4.584-2.543 1.804-1.803.898-2.824 2.542-4.576.051-.058.109-.116.167-.174a3.48 3.48 0 0 1 .173-.167c1.76-1.644 2.774-.739 4.585-2.549 1.81-1.803.897-2.824 2.541-4.584l.34-.34c1.76-1.637 2.775-.732 4.585-2.542 1.81-1.81.898-2.825 2.542-4.585l.34-.34c1.76-1.644 2.774-.731 4.585-2.542 1.81-1.81.905-2.824 2.55-4.584.05-.058.108-.116.166-.174a3.48 3.48 0 0 1 .173-.166c1.753-1.644 2.774-.732 4.577-2.542 1.81-1.81.906-2.825 2.542-4.585l.34-.34c1.76-1.644 2.774-.731 4.584-2.542 1.811-1.81.906-2.824 2.542-4.584l.341-.34c1.76-1.644 2.781-.732 4.592-2.542 1.802-1.81.897-2.832 2.541-4.592l.341-.34c1.76-1.644 2.774-.732 4.584-2.542 1.811-1.81.905-2.824 2.549-4.584.051-.058.109-.116.167-.174.057-.058.115-.116.173-.167 1.76-1.644 2.774-.738 4.584-2.549 1.811-1.81.899-2.824 2.55-4.584.05-.058.108-.116.166-.174a3.33 3.33 0 0 1 .174-.166c1.76-1.644 2.774-.74 4.584-2.55 1.818-1.817.905-2.831 2.557-4.591.05-.058.108-.116.167-.174h24.057Z" fill="#FFF4DA"/><path fill-rule="evenodd" clip-rule="evenodd" d="M161.788 123.122V1.793h-24.999l-.195.194a3.81 3.81 0 0 0-.191.2c-.903.965-1.137 1.764-1.342 2.467l-.02.066c-.19.65-.375 1.237-1.172 2.034-.793.793-1.379.978-2.028 1.169l-.068.02c-.701.205-1.5.439-2.464 1.338-.074.065-.145.136-.197.187l-.001.002a4.312 4.312 0 0 0-.189.197c-.904.966-1.137 1.766-1.342 2.47l-.019.064c-.19.65-.373 1.234-1.166 2.027-.793.793-1.379.978-2.027 1.168l-.069.02c-.701.206-1.499.44-2.464 1.338-.075.066-.145.137-.199.19a4.968 4.968 0 0 0-.189.198c-.898.964-1.131 1.763-1.337 2.464l-.019.068c-.191.649-.376 1.234-1.169 2.027-.793.793-1.378.976-2.026 1.165l-.068.02c-.704.204-1.505.437-2.474 1.342l-.008.007-.357.357-.008.008c-.906.97-1.14 1.774-1.345 2.48l-.019.065c-.19.652-.374 1.239-1.163 2.031M91.961 46.628c.962-.9 1.762-1.132 2.463-1.335l.068-.02c.649-.189 1.233-.372 2.022-1.164h.001c.793-.794.978-1.38 1.168-2.028l.02-.071c.205-.702.438-1.502 1.337-2.469l.008-.008.357-.358.008-.007c.969-.905 1.771-1.138 2.474-1.342l.068-.02c.649-.188 1.233-.372 2.026-1.164.793-.794.978-1.379 1.168-2.027l.021-.072c.204-.701.437-1.501 1.336-2.468l.009-.01.357-.356.008-.008c.969-.905 1.773-1.137 2.478-1.341l.068-.02c.65-.19 1.236-.372 2.028-1.164M91.961 46.628a3.803 3.803 0 0 0-.198.19c-.05.05-.123.122-.189.197-.898.964-1.132 1.763-1.337 2.464l-.02.068c-.19.649-.375 1.234-1.168 2.028-.793.792-1.378.975-2.027 1.164l-.067.02c-.704.204-1.505.437-2.474 1.342l-.008.007-.357.357-.008.008c-.905.969-1.138 1.77-1.342 2.474l-.02.068c-.188.649-.371 1.233-1.164 2.026-.793.793-1.379.978-2.027 1.168l-.072.02c-.701.205-1.501.438-2.468 1.337l-.009.008-.357.357-.008.009c-.904.968-1.137 1.772-1.341 2.475l-.02.07c-.189.649-.372 1.233-1.164 2.022-.794.794-1.38.979-2.028 1.17l-.068.02c-.702.205-1.5.438-2.465 1.337a4.253 4.253 0 0 0-.198.19c-.053.053-.123.122-.188.196-.9.963-1.134 1.763-1.339 2.465l-.019.066c-.19.65-.373 1.234-1.162 2.023-.793.793-1.379.978-2.027 1.168l-.072.02c-.701.205-1.501.438-2.468 1.337l-.009.008-.357.358-.007.008c-.906.969-1.14 1.773-1.345 2.477l-.02.067c-.19.65-.373 1.235-1.162 2.023-.793.794-1.378.979-2.027 1.168l-.071.021c-.702.204-1.502.438-2.469 1.337l-.009.008-.356.357-.008.008c-.904.969-1.137 1.772-1.341 2.476l-.02.069c-.19.65-.372 1.233-1.164 2.022l-.001.001c-.794.793-1.379.978-2.027 1.168l-.072.02c-.701.205-1.501.438-2.468 1.337l-.009.008-.357.357-.007.009c-.905.969-1.138 1.77-1.342 2.474l-.02.067c-.189.649-.372 1.234-1.165 2.027-.793.792-1.377.976-2.026 1.164l-.068.02c-.703.204-1.505.437-2.473 1.342l-.008.007-.358.357-.008.01c-.9.966-1.132 1.766-1.337 2.468l-.02.071c-.19.648-.375 1.234-1.168 2.027-.79.789-1.374.972-2.023 1.162l-.065.019c-.703.205-1.503.438-2.466 1.339-.07.061-.135.127-.185.177l-.012.011-.01.012c-.05.05-.117.116-.179.185-.9.963-1.131 1.762-1.335 2.464l-.02.068c-.188.648-.372 1.233-1.163 2.021l-.002.001c-.793.793-1.378.978-2.026 1.168l-.072.021c-.701.204-1.502.437-2.468 1.336l-.01.009-.356.357-.007.008c-.905.969-1.138 1.77-1.342 2.474a4.463 4.463 0 0 0-.02.068c-.189.648-.372 1.233-1.165 2.026-.789.789-1.373.972-2.023 1.162l-.065.019c-.703.205-1.503.438-2.466 1.338a4.616 4.616 0 0 0-.197.189l-1.132 1.133 145.814.515m-141.85-1.835.21-.062.06-.017c.75-.22 1.578-.485 2.592-1.499 1.018-1.018 1.284-1.846 1.502-2.597l.019-.064c.188-.649.348-1.2 1.03-1.932l.323-.323c.73-.677 1.281-.838 1.93-1.027l.067-.019c.751-.22 1.578-.488 2.595-1.505 1.018-1.014 1.284-1.842 1.503-2.592l.018-.064c.19-.652.35-1.204 1.036-1.936l.008-.009.008-.008c.033-.038.073-.079.136-.142.063-.063.103-.103.141-.136l.009-.008.008-.007c.734-.688 1.287-.85 1.94-1.04l.06-.018c.75-.219 1.578-.485 2.593-1.499 1.017-1.017 1.285-1.844 1.504-2.596l.02-.067c.189-.649.35-1.2 1.026-1.93l.324-.323c.731-.681 1.283-.842 1.932-1.03l.064-.019c.75-.218 1.578-.484 2.596-1.502 1.018-1.017 1.284-1.845 1.502-2.596l.019-.064c.188-.649.348-1.2 1.03-1.932l.323-.324c.73-.676 1.281-.837 1.93-1.026l.067-.02c.751-.22 1.578-.487 2.595-1.503v-.001m-32.72 31.437 140.516.497V3.127h-23.105c-.662.718-.822 1.264-1.01 1.905l-.018.064c-.221.751-.488 1.58-1.509 2.6m0 0c-1.018 1.018-1.844 1.286-2.595 1.506l-.064.019c-.652.19-1.205.353-1.941 1.04l-.008.008-.009.007c-.038.034-.08.075-.143.138-.06.06-.101.102-.135.14l-.007.009-.008.008c-.692.737-.853 1.29-1.043 1.943l-.018.061c-.22.75-.485 1.578-1.503 2.596-1.017 1.017-1.844 1.284-2.595 1.505l-.064.019c-.652.19-1.205.353-1.942 1.04l-.008.008-.008.007c-.037.033-.08.075-.139.135l-.002.001-.083.084a.953.953 0 0 0-.051.056l-.008.009-.009.009c-.687.736-.849 1.29-1.04 1.941l-.019.064c-.221.751-.488 1.578-1.505 2.595-1.018 1.018-1.846 1.284-2.597 1.502l-.064.019c-.649.188-1.2.349-1.932 1.03l-.324.323c-.682.733-.844 1.287-1.033 1.94l-.018.06c-.219.752-.484 1.581-1.498 2.599h-.001c-1.018 1.019-1.848 1.285-2.6 1.503l-.064.019c-.652.188-1.204.348-1.936 1.03l-.323.323c-.677.73-.838 1.281-1.027 1.93l-.019.067c-.22.751-.488 1.578-1.505 2.595-1.018 1.018-1.845 1.284-2.596 1.502l-.064.02c-.65.188-1.201.348-1.933 1.029l-.323.323c-.676.73-.837 1.281-1.026 1.93l-.02.068c-.22.75-.487 1.578-1.504 2.595v-.001l-.47-.47.47.47m-12.06 10.018-.323.324c-.681.731-.841 1.282-1.03 1.932l-.018.064c-.219.75-.484 1.578-1.502 2.596-1.017 1.017-1.844 1.285-2.596 1.505l-.067.02c-.649.188-1.2.349-1.93 1.026l-.324.323c-.68.731-.84 1.284-1.029 1.934l-.019.065c-.218.751-.484 1.58-1.502 2.593-1.017 1.018-1.844 1.285-2.595 1.506l-.064.019c-.651.19-1.205.353-1.942 1.04l-.007.008-.009.007a2.88 2.88 0 0 0-.14.135v.001a3.367 3.367 0 0 0-.139.143l-.007.008-.007.008c-.687.733-.849 1.286-1.04 1.939l-.017.061c-.22.75-.485 1.578-1.5 2.592m0 0Zm0 0c-1.017 1.017-1.843 1.285-2.595 1.504l-.067.02c-.649.19-1.2.35-1.93 1.026l-.323.324c-.682.733-.844 1.286-1.033 1.937l-.018.062c-.22.751-.485 1.579-1.5 2.593m0 0c-1.017 1.018-1.844 1.285-2.595 1.505l-.068.02c-.648.189-1.2.35-1.93 1.026l-.323.323M75.058 67.45v.001l-.471-.472.471.471Zm2.55-4.592-.008.008-.471-.471.487.455a.586.586 0 0 1-.008.008Zm.324-.323-.01.008-.453-.489.471.472-.008.008Zm7.142-7.143-.008.008-.47-.472.486.455-.007.009Zm.325-.324.008-.008-.471-.472.455.487a.586.586 0 0 0 .008-.007Z" fill="#4C0D00"/><path d="M25.037 114.479a3.68 3.68 0 0 1 .174-.167l-.34.341c.05-.058.108-.116.166-.174Z" fill="#fff"/><path fill-rule="evenodd" clip-rule="evenodd" d="m24.369 114.214.973.91.34-.34-.91-.973c-.078.068-.151.142-.207.197a.278.278 0 0 0-.005.006c-.054.054-.125.125-.191.2Z" fill="#4C0D00"/><path d="M39.963 99.553a3.33 3.33 0 0 1 .174-.166l-.34.34c.05-.058.108-.116.166-.174Z" fill="#fff"/><path fill-rule="evenodd" clip-rule="evenodd" d="m39.295 99.288.973.91.34-.34-.91-.973a4.41 4.41 0 0 0-.2.19l-.007.007-.005.006a4.172 4.172 0 0 0-.191.2Z" fill="#4C0D00"/><path d="M47.43 92.087c.057-.058.115-.116.173-.167l-.34.34c.05-.057.108-.115.166-.173Z" fill="#fff"/><path fill-rule="evenodd" clip-rule="evenodd" d="m46.761 91.822.973.91.34-.34-.91-.973c-.073.063-.143.133-.195.185l-.011.012-.006.005c-.054.055-.125.126-.19.2Z" fill="#4C0D00"/><path d="M54.896 84.62c.058-.058.116-.116.173-.166l-.34.34c.05-.058.109-.116.167-.174Z" fill="#fff"/><path fill-rule="evenodd" clip-rule="evenodd" d="m54.227 84.355.974.91.34-.34-.912-.971a3.446 3.446 0 0 0-.199.19l-.006.005-.005.006a4.166 4.166 0 0 0-.191.2Z" fill="#4C0D00"/><path d="M62.362 77.154c.058-.058.116-.116.174-.167l-.34.34c.05-.057.108-.115.166-.173Z" fill="#fff"/><path fill-rule="evenodd" clip-rule="evenodd" d="m61.694 76.889.973.91.34-.34-.91-.973c-.078.068-.151.141-.207.197l-.005.005a4.174 4.174 0 0 0-.19.2Z" fill="#4C0D00"/><path d="M77.295 62.221c.058-.058.116-.116.174-.167l-.34.34c.05-.057.108-.115.166-.173Z" fill="#fff"/><path fill-rule="evenodd" clip-rule="evenodd" d="m76.628 61.954.972.912.34-.34-.91-.973a4.124 4.124 0 0 0-.2.19l-.006.007a4.522 4.522 0 0 0-.196.204Z" fill="#4C0D00"/><path d="M84.762 54.754c.058-.057.115-.115.174-.166l-.34.34c.05-.058.108-.116.166-.174Z" fill="#fff"/><path fill-rule="evenodd" clip-rule="evenodd" d="m84.095 54.487.971.913.34-.34-.91-.974c-.075.066-.146.137-.2.191l-.006.006-.001.002-.012.011c-.052.052-.12.12-.182.191Z" fill="#4C0D00"/><path d="M99.695 39.821c.058-.058.116-.116.173-.166l-.34.34c.051-.058.109-.116.167-.174Z" fill="#fff"/><path fill-rule="evenodd" clip-rule="evenodd" d="m99.027 39.556.973.91.34-.34-.912-.972a4.314 4.314 0 0 0-.204.196l-.006.006a4.124 4.124 0 0 0-.191.2Z" fill="#4C0D00"/><path d="M107.161 32.355c.058-.058.116-.116.174-.167l-.34.34c.051-.057.109-.115.166-.173Z" fill="#fff"/><path fill-rule="evenodd" clip-rule="evenodd" d="m106.493 32.09.973.91.341-.34-.911-.973c-.075.065-.146.137-.2.19a.331.331 0 0 1-.006.007l-.006.006a4.373 4.373 0 0 0-.191.2Z" fill="#4C0D00"/><path d="m114.809 24.715-.34.34a3.29 3.29 0 0 1 .166-.174 3.33 3.33 0 0 1 .174-.166Z" fill="#fff"/><path fill-rule="evenodd" clip-rule="evenodd" d="m113.967 24.616.973.91.34-.34-.91-.973c-.075.065-.146.137-.2.19l-.006.007a.331.331 0 0 0-.006.006c-.054.054-.126.125-.191.2Z" fill="#4C0D00"/><path d="M106.32 39.1c2.632-2.721 7.152-.111 6.112 3.528 3.64-1.04 6.249 3.48 3.528 6.112 3.673.92 3.673 6.139 0 7.057 2.721 2.633.112 7.152-3.528 6.112 1.04 3.64-3.48 6.25-6.112 3.53-.919 3.672-6.138 3.672-7.057 0-2.633 2.72-7.153.11-6.112-3.53-3.64 1.04-6.25-3.48-3.529-6.111-3.672-.92-3.672-6.139 0-7.058-2.72-2.632-.111-7.152 3.529-6.112-1.04-3.64 3.48-6.25 6.112-3.528.919-3.673 6.138-3.673 7.057 0Z" fill="#FFF4DA"/><path fill-rule="evenodd" clip-rule="evenodd" d="M106.618 66.55c2.873 1.896 6.834-.39 6.628-3.827 3.436.206 5.723-3.755 3.826-6.627 3.079-1.54 3.079-6.114 0-7.654 1.897-2.873-.39-6.834-3.826-6.628.206-3.436-3.756-5.722-6.628-3.826-1.54-3.079-6.114-3.079-7.653 0-2.873-1.896-6.834.39-6.628 3.826-3.436-.206-5.723 3.755-3.827 6.628-3.079 1.54-3.079 6.114 0 7.654-1.896 2.872.39 6.833 3.827 6.627-.206 3.436 3.755 5.723 6.628 3.827 1.539 3.079 6.113 3.079 7.653 0Zm-.945-1.274c-.75 3-5.013 3-5.764 0l-.291-1.164-.835.863c-2.15 2.222-5.84.09-4.991-2.882l.33-1.154-1.154.33c-2.973.849-5.105-2.843-2.882-4.992l.862-.835-1.164-.291c-3-.75-3-5.013 0-5.764l1.164-.291-.862-.835c-2.223-2.15-.091-5.841 2.882-4.992l1.153.33-.33-1.154c-.849-2.972 2.843-5.104 4.992-2.882l.835.863.291-1.164c.751-3 5.014-3 5.764 0l.292 1.164.834-.863c2.15-2.222 5.841-.09 4.992 2.882l-.33 1.154 1.154-.33c2.973-.85 5.104 2.842 2.882 4.992l-.863.835 1.165.291c2.999.75 2.999 5.013 0 5.764l-1.165.291.863.835c2.222 2.15.091 5.84-2.882 4.992l-1.154-.33.33 1.154c.849 2.972-2.842 5.104-4.992 2.882l-.834-.863-.292 1.164Z" fill="#4C0D00"/><path d="M99.41 51.463a2.124 2.124 0 1 1-4.247 0 2.124 2.124 0 0 1 4.248 0Z" fill="#FFF4DA"/><path fill-rule="evenodd" clip-rule="evenodd" d="M94.496 51.463a2.79 2.79 0 1 0 5.581 0 2.79 2.79 0 0 0-5.58 0Zm2.79 1.458a1.457 1.457 0 1 1 0-2.915 1.457 1.457 0 0 1 0 2.915Z" fill="#4C0D00"/><path d="M110.897 49.009a2.995 2.995 0 1 1-5.99 0 2.995 2.995 0 0 1 5.99 0Z" fill="#FFF4DA"/><path fill-rule="evenodd" clip-rule="evenodd" d="M104.239 49.009a3.662 3.662 0 1 0 7.325 0 3.662 3.662 0 0 0-7.325 0Zm3.663 2.329a2.328 2.328 0 1 1-.001-4.657 2.328 2.328 0 0 1 .001 4.657Z" fill="#4C0D00"/><path d="M102.658 57.607a1.848 1.848 0 1 1-3.686-.257 1.848 1.848 0 0 1 3.686.257Z" fill="#FFF4DA"/><path fill-rule="evenodd" clip-rule="evenodd" d="M100.64 59.986a2.514 2.514 0 0 0 .35-5.016m-.351 5.016a2.514 2.514 0 0 1 .35-5.016m1.004 2.59a1.181 1.181 0 0 1-1.26 1.096h-.001a1.18 1.18 0 1 1 .164-2.356h.001c.65.046 1.141.61 1.096 1.26Z" fill="#4C0D00"/><path d="M103.208 46.581a1.502 1.502 0 1 1-3.003 0 1.502 1.502 0 0 1 3.003 0Z" fill="#FFF4DA"/><path fill-rule="evenodd" clip-rule="evenodd" d="M99.537 46.581a2.168 2.168 0 1 0 4.337.001 2.168 2.168 0 0 0-4.337 0Zm2.169.836a.835.835 0 1 1 0-1.67.835.835 0 0 1 0 1.67Z" fill="#4C0D00"/><path d="M108.663 55.63a1.502 1.502 0 1 1-3.005 0 1.502 1.502 0 0 1 3.005 0Z" fill="#FFF4DA"/><path fill-rule="evenodd" clip-rule="evenodd" d="M104.992 55.63a2.169 2.169 0 1 0 4.337 0 2.169 2.169 0 0 0-4.337 0Zm2.169.836a.835.835 0 1 1 0-1.67.835.835 0 0 1 0 1.67Z" fill="#4C0D00"/><path d="M73.734 72.9c.806.528 2.907 2.837 2.38 3.642-.528.806-3.485-.196-4.29-.724a1.744 1.744 0 0 1 1.91-2.918Z" fill="#fff"/><path fill-rule="evenodd" clip-rule="evenodd" d="M76.671 76.907c-.325.497-.92.59-1.317.603Zm-1.317.603c-.448.013-.957-.067-1.436-.181Zm-1.436-.181c-.947-.226-1.969-.632-2.46-.953Zm-1.73-2.069a1.078 1.078 0 0 1 1.181-1.802c.315.206.988.85 1.522 1.56.264.35.463.677.568.937.036.092.054.157.063.2-.044.01-.11.019-.209.022-.28.008-.659-.044-1.086-.145-.864-.206-1.723-.565-2.038-.772m3.768-1.044c-.586-.778-1.366-1.552-1.857-1.874a2.41 2.41 0 0 0-2.642 4.034m4.499-2.16c.296.393.573.828.74 1.244Zm.74 1.244c.147.369.3.951-.026 1.447Z" fill="#4C0D00"/><path d="M69.986 82.226c.791-.048 3.311.442 3.36 1.233.047.79-2.395 1.582-3.186 1.63a1.434 1.434 0 1 1-.174-2.863Z" fill="#fff"/><path fill-rule="evenodd" clip-rule="evenodd" d="M70.2 85.754a2.1 2.1 0 0 1-2.224-1.97Zm-.08-1.33a.768.768 0 0 1-.093-1.532c.29-.018 1.036.072 1.73.276.341.1.622.214.806.326l.017.011a3.522 3.522 0 0 1-.777.435c-.664.286-1.393.466-1.683.484Zm2.577-1.035-.002.002a.04.04 0 0 0 .002-.002Zm.011.216.002.002-.002-.002Zm.685.958c.261-.207.65-.595.618-1.144-.034-.55-.467-.887-.751-1.061-.328-.2-.735-.355-1.128-.47-.776-.227-1.686-.358-2.186-.328a2.1 2.1 0 0 0-1.97 2.224m5.417.779c-.3.238-.686.44-1.063.602Zm-1.063.602c-.742.32-1.629.559-2.13.59Z" fill="#4C0D00"/><path d="M70.45 95.725c-8.123-8.992-7.418-22.868 1.574-30.99 7.983-7.21 19.818-7.462 28.057-1.136l-5.66 6.26-3.905 4.323-.697.773-1.69 1.867-1.714 1.9-2.021 2.234-.424.47-1.504 1.664-2.78 3.075-1.206 1.332-7.729 8.55a7.786 7.786 0 0 1-.302-.322Z" fill="#FFF4DA"/><path fill-rule="evenodd" clip-rule="evenodd" d="m70.78 97.008 9.4-10.396 2.78-3.075 1.505-1.665.423-.469 2.022-2.235 3.405-3.767.696-.773 3.904-4.322 6.145-6.795-.573-.44c-8.49-6.52-20.684-6.26-28.91 1.17-9.265 8.368-9.991 22.665-1.623 31.93l.005.006c.097.107.206.228.325.344l.495.487Zm-.033-1.951c-7.666-8.724-6.921-22.018 1.724-29.827 7.553-6.823 18.666-7.22 26.623-1.533l-5.167 5.714-4.602 5.096v.001l-1.69 1.866-1.714 1.9-2.446 2.704-1.504 1.665-3.985 4.406-7.24 8.007Z" fill="#4C0D00"/><path d="M78.113 87.823a3.418 3.418 0 0 1-1.044-1.455 3.516 3.516 0 0 1 2.035-4.53c.155-.058.314-.105.474-.14a2.907 2.907 0 0 1-.208-.44 3.511 3.511 0 0 1 3.882-4.705 3.514 3.514 0 0 1 4.827-3.998 3.512 3.512 0 0 1 5.046-1.26l-2.609 2.886-.696.773-1.69 1.868-1.715 1.9-2.02 2.234-.425.47-1.504 1.664-2.78 3.075-1.205 1.331-.398.44c.005-.038.019-.074.03-.113Z" fill="#fff"/><path fill-rule="evenodd" clip-rule="evenodd" d="m77.147 89.966 3.034-3.353 2.779-3.076 3.95-4.369 1.714-1.9 1.691-1.868 3.822-4.23-.642-.43a4.181 4.181 0 0 0-5.695 1.01 4.174 4.174 0 0 0-3.924.926 4.17 4.17 0 0 0-1.376 3.163 4.24 4.24 0 0 0-1.326.268l-.002.001a4.178 4.178 0 0 0-2.496 5.185 4.183 4.183 0 0 0-2.23 5.31l.623-.235-.624.234c.214.57.54 1.065.948 1.47l-.246 1.894Zm.979-3.07a2.778 2.778 0 0 1-.433-.763v-.001a2.85 2.85 0 0 1 1.648-3.67c.122-.047.25-.084.376-.111l.895-.191-.456-.793a2.393 2.393 0 0 1-.163-.345 2.845 2.845 0 0 1 3.146-3.812l.982.169-.219-.973a2.848 2.848 0 0 1 3.912-3.24l.563.246.29-.542a2.845 2.845 0 0 1 3.37-1.365l-2.712 3.002v.001l-1.69 1.866-5.664 6.269-3.845 4.252Z" fill="#4C0D00"/><path d="m67.055 100.134 3.696-4.088-3.696 4.088Z" fill="#fff"/><path fill-rule="evenodd" clip-rule="evenodd" d="m70.257 95.599-3.697 4.088.99.894 3.696-4.088-.99-.894Z" fill="#4C0D00"/><path d="m100.081 63.6 3.69-4.083-3.69 4.082Z" fill="#fff"/><path fill-rule="evenodd" clip-rule="evenodd" d="m103.276 59.07-3.69 4.082.99.894 3.689-4.082-.989-.894Z" fill="#4C0D00"/><path d="M78.113 87.823a3.418 3.418 0 0 1-1.044-1.455 3.516 3.516 0 0 1 2.035-4.53c.155-.058.314-.105.474-.14a2.907 2.907 0 0 1-.208-.44 3.511 3.511 0 0 1 3.882-4.705 3.514 3.514 0 0 1 4.827-3.998 3.512 3.512 0 0 1 5.046-1.26l-2.609 2.886-.696.773-1.69 1.868-1.715 1.9-2.02 2.234-.425.47-1.504 1.664-2.78 3.075-1.205 1.331-.398.44c.005-.038.019-.074.03-.113Z" fill="#fff"/><path fill-rule="evenodd" clip-rule="evenodd" d="m77.147 89.966 3.034-3.353 2.779-3.076 3.95-4.369 1.714-1.9 1.691-1.868 3.822-4.23-.642-.43a4.181 4.181 0 0 0-5.695 1.01 4.174 4.174 0 0 0-3.924.926 4.17 4.17 0 0 0-1.376 3.163 4.24 4.24 0 0 0-1.326.268l-.002.001a4.178 4.178 0 0 0-2.496 5.185 4.183 4.183 0 0 0-2.23 5.31l.623-.235-.624.234c.214.57.54 1.065.948 1.47l-.246 1.894Zm.979-3.07a2.778 2.778 0 0 1-.433-.763v-.001a2.85 2.85 0 0 1 1.648-3.67c.122-.047.25-.084.376-.111l.895-.191-.456-.793a2.393 2.393 0 0 1-.163-.345 2.845 2.845 0 0 1 3.146-3.812l.982.169-.219-.973a2.848 2.848 0 0 1 3.912-3.24l.563.246.29-.542a2.845 2.845 0 0 1 3.37-1.365l-2.712 3.002v.001l-1.69 1.866-5.664 6.269-3.845 4.252Z" fill="#4C0D00"/><path d="M66.374 99.406c-10.155-11.242-9.27-28.588 1.972-38.743 10.096-9.12 25.112-9.34 35.425-1.146l-3.69 4.082c-8.24-6.326-20.074-6.074-28.057 1.137-8.992 8.121-9.697 21.997-1.575 30.989.1.111.198.22.302.321l-3.696 4.088c-.23-.236-.457-.48-.681-.728Z" fill="#4C0D00"/><path fill-rule="evenodd" clip-rule="evenodd" d="m67.073 101.108 4.602-5.09-.457-.447a6.67 6.67 0 0 1-.274-.293c-7.875-8.718-7.191-22.173 1.527-30.048 7.74-6.99 19.215-7.236 27.204-1.102l.488.375 4.579-5.066-.556-.442c-10.564-8.394-25.945-8.168-36.287 1.174-11.515 10.401-12.421 28.169-2.02 39.684.228.252.46.503.698.747l.496.508Zm-.029-1.956a32.984 32.984 0 0 1-.175-.193c-9.908-10.969-9.045-27.893 1.924-37.801 9.668-8.733 23.962-9.103 34.001-1.554l-2.8 3.098c-8.464-6.138-20.35-5.748-28.417 1.539-9.225 8.332-9.985 22.543-1.73 31.81l-2.803 3.1Z" fill="#4C0D00"/><path d="M80.464 65.84c.413.87 1.005 3.936.135 4.349-.87.413-2.872-1.982-3.285-2.852a1.744 1.744 0 1 1 3.15-1.497Z" fill="#fff"/><path fill-rule="evenodd" clip-rule="evenodd" d="M80.885 70.791c-.536.255-1.092.025-1.438-.171Zm-1.438-.171c-.39-.222-.782-.556-1.132-.903Zm-1.132-.903c-.69-.685-1.352-1.564-1.604-2.094Zm.94-.946c-.631-.626-1.178-1.38-1.34-1.72a1.077 1.077 0 1 1 1.947-.925c.161.34.4 1.24.487 2.125.043.437.043.82-.003 1.096a1.168 1.168 0 0 1-.05.203 1.17 1.17 0 0 1-.19-.09c-.243-.138-.54-.38-.852-.689Zm2.421-.65c-.095-.969-.358-2.036-.61-2.566a2.41 2.41 0 1 0-4.355 2.068m4.965.498c.048.49.059 1.005-.016 1.447Zm-.016 1.447c-.066.393-.24.969-.775 1.223Z" fill="#4C0D00"/><path d="M90.34 64.825c-.16.724-1.25 2.867-1.975 2.707-.724-.16-.808-2.563-.648-3.287a1.343 1.343 0 0 1 2.622.58Z" fill="#fff"/><path fill-rule="evenodd" clip-rule="evenodd" d="M90.128 66.866c.405-.642.76-1.433.862-1.897a2.01 2.01 0 0 0-3.924-.868c-.103.465-.115 1.33-.018 2.084.05.382.132.786.272 1.123.12.29.376.759.902.875m1.906-1.317c-.206.326-.452.656-.72.903Zm-.72.903c-.231.213-.661.53-1.186.414Zm-.872-1.01c.138-.135.3-.344.464-.605.36-.57.631-1.214.688-1.473a.676.676 0 0 0-1.32-.292c-.058.26-.084.957.003 1.626.039.306.097.563.165.743Zm-.158.124.006-.002a.018.018 0 0 0-.006.002Zm.245.05a.029.029 0 0 0 .004.005l-.004-.004Z" fill="#4C0D00"/><path d="M80.43 79.43c-3.913 2.07-5.268-.49-9.181 1.58-3.914 2.07-2.56 4.631-6.473 6.701-3.91 2.069-5.265-.491-9.176 1.577-3.912 2.07-2.557 4.63-6.47 6.7-3.91 2.069-5.265-.492-9.175 1.576l-3.603-6.811c3.91-2.069 5.265.492 9.176-1.577 3.912-2.07 2.557-4.63 6.47-6.7 3.91-2.068 5.264.493 9.175-1.576 3.914-2.07 2.56-4.631 6.473-6.701 3.913-2.07 5.267.49 9.181-1.58l3.603 6.811Z" fill="#4C0D00"/><path fill-rule="evenodd" clip-rule="evenodd" d="m39.677 98.466.59-.312c1.78-.941 2.935-.833 4.21-.714h.004c1.356.127 2.832.264 4.962-.863s2.847-2.424 3.506-3.617l.002-.003c.619-1.12 1.18-2.138 2.96-3.08 1.78-.94 2.937-.833 4.212-.714h.003c1.357.127 2.833.264 4.962-.862 2.13-1.127 2.849-2.425 3.508-3.618l.002-.003c.62-1.12 1.181-2.138 2.963-3.08 1.78-.942 2.938-.835 4.213-.716h.004c1.357.127 2.833.263 4.964-.864l.59-.312-4.227-7.99-.59.312c-1.78.942-2.938.834-4.213.716h-.004c-1.357-.127-2.834-.263-4.964.864M39.677 98.466l-.311-.59Zm.566-1.783c1.814-.808 3.136-.685 4.362-.57h.004c1.274.119 2.43.227 4.21-.714 1.78-.942 2.342-1.96 2.961-3.08l.002-.003c.659-1.193 1.376-2.49 3.506-3.617 2.13-1.126 3.606-.99 4.962-.863h.004c1.275.12 2.431.228 4.21-.714 1.782-.942 2.344-1.96 2.963-3.08l.002-.004c.66-1.192 1.377-2.49 3.508-3.617 2.13-1.127 3.607-.99 4.964-.864h.004c1.126.105 2.16.201 3.612-.426L76.54 73.5c-1.815.808-3.139.686-4.365.572h-.003c-1.276-.12-2.433-.227-4.214.715-1.78.942-2.343 1.96-2.962 3.08l-.002.004c-.66 1.193-1.377 2.49-3.508 3.617-2.13 1.127-3.605.99-4.962.863h-.003c-1.275-.12-2.431-.227-4.211.714-1.78.942-2.342 1.959-2.961 3.08l-.002.003c-.659 1.193-1.377 2.49-3.507 3.617-2.13 1.126-3.605.99-4.961.862h-.004c-1.125-.105-2.159-.201-3.61.425l2.979 5.63Zm-.877 1.193-3.604-6.811Zm1.636-8.575c-1.357-.127-2.833-.264-4.962.863l-.59.311.312.59m5.24-1.764h.003Zm.003 0c1.275.12 2.431.227 4.21-.714Zm4.21-.714.29.548Zm2.962-3.08c-.62 1.121-1.18 2.138-2.961 3.08l.29.548m2.671-3.628.002-.003Zm.002-.003c.659-1.193 1.376-2.49 3.506-3.616Zm3.506-3.616c2.13-1.127 3.606-.99 4.962-.863h.004c1.275.119 2.43.227 4.21-.714 1.782-.943 2.344-1.96 2.963-3.08l.002-.004c.66-1.193 1.377-2.49 3.508-3.617" fill="#4C0D00"/><path d="M166.465 1.83v120.624H27.251L147.876 1.829h18.589Z" fill="#FF6D2F"/><path fill-rule="evenodd" clip-rule="evenodd" d="M25.642 123.121h141.49V1.162h-19.533L25.642 123.121Zm3.218-1.333L148.152 2.496h17.647v119.292H28.86Z" fill="#4C0D00"/><path d="M166.466 122.455H45.839L166.466 1.827v120.628Z" fill="#FFF4DA"/><path fill-rule="evenodd" clip-rule="evenodd" d="M44.23 123.121h122.903V.218L44.23 123.121Zm3.219-1.333L165.8 3.437v118.351H47.449Z" fill="#4C0D00"/><path fill-rule="evenodd" clip-rule="evenodd" d="M102.791 106.906h63.676v-1.333h-63.676v1.333Zm10.063-8.586h53.612v-1.334h-53.612v1.333Zm7.735-8.587h45.877v-1.334h-45.877v1.334Z" fill="#4C0D00"/></svg>