<svg width="602" height="397" fill="none" xmlns="http://www.w3.org/2000/svg"><path d="M69.173 226.245c66.99-135.674 227.82-222.913 349.28-130.694.742.17 6.819.834 9.705 1.568C301.022-7.428 129.106 85.29 59.683 230.434l4.898 4.963c1.37-2.977 2.925-6.03 4.592-9.152Z" fill="#FFF4DA"/><path d="M69.173 226.245c66.99-135.674 227.82-222.913 349.28-130.694.742.17 6.819.834 9.705 1.568C301.022-7.428 129.106 85.29 59.683 230.434l4.898 4.963c1.37-2.977 2.925-6.03 4.592-9.152Z" stroke="#4C0D00" stroke-width="1.333" stroke-miterlimit="10"/><path d="M86.186 303.684c-87.277-68.972-68.873-128.29-50.58-134.146 18.292-5.856 34.203 7.864 34.203 7.864s-16.4-64.566 45.063-50.885c0 0-7.42-40.285 14.391-48.775 21.81-8.49 82.455 28.326 82.455 28.326s-1.865-60.048 43.415-86.667c37.135-21.83 53.529 15.12 47.528 32.012 0 0 7.445-26.621 24.659-26.635 17.214-.014 14.21 16.506 14.21 16.506s8.994-24.145 30.625-15.73-12.838 46.622-12.838 46.622 59.143-25.712 79.269 18.225c19.899 43.441-280.271 230.387-280.271 230.387l-72.13-17.104Z" fill="#FFF4DA"/><path d="M86.186 303.684c-87.277-68.972-68.873-128.29-50.58-134.146 18.292-5.856 34.203 7.864 34.203 7.864s-16.4-64.566 45.063-50.885c0 0-7.42-40.285 14.391-48.775 21.81-8.49 82.455 28.326 82.455 28.326s-1.865-60.048 43.415-86.667c37.135-21.83 53.529 15.12 47.528 32.012 0 0 7.445-26.621 24.659-26.635 17.214-.014 14.21 16.506 14.21 16.506s8.994-24.145 30.625-15.73-12.838 46.622-12.838 46.622 59.143-25.712 79.269 18.225c19.899 43.441-280.271 230.387-280.271 230.387l-72.13-17.104Z" stroke="#4C0D00" stroke-width="1.333" stroke-miterlimit="10"/><path d="M246.051 165.64c43.157-41.021 90.011-62.79 135.182-66.426-51.642 2.835-94.704 27.583-135.182 66.426Z" stroke="#4C0D00" stroke-width="1.333" stroke-miterlimit="10"/><path d="M381.233 99.214c-45.17 3.636-92.024 25.405-135.182 66.426 40.478-38.843 83.54-63.592 135.182-66.426Z" fill="#FFF4DA"/><path d="M381.233 99.214c-45.17 3.636-92.024 25.405-135.182 66.426 40.478-38.843 83.54-63.592 135.182-66.426Z" stroke="#4C0D00" stroke-width="1.333" stroke-miterlimit="10"/><path d="M419.356 106.978c-67.499-31.623-149.075-17.364-218.927 47.882-46.283 43.225-80.255 102.127-99.874 166.325-1.487 4.866-7.528 6.533-11.324 3.143l-2.229-1.989c-2.585-2.308-3.627-5.913-2.619-9.228 19.574-64.367 53.6-123.444 99.982-166.776 75.486-70.487 164.695-81.476 234.991-39.357Z" fill="#4C0D00"/><path d="M419.356 106.978c-67.499-31.623-149.075-17.364-218.927 47.882-46.283 43.225-80.255 102.127-99.874 166.325-1.487 4.866-7.528 6.533-11.324 3.143l-2.229-1.989c-2.585-2.308-3.627-5.913-2.619-9.228 19.574-64.367 53.6-123.444 99.982-166.776 75.486-70.487 164.695-81.476 234.991-39.357Z" stroke="#4C0D00" stroke-width="1.333" stroke-miterlimit="10"/><path d="m421.345 324.124-326.146 1.845a6.912 6.912 0 0 0 5.363-4.783c19.616-64.197 53.574-123.106 99.864-166.32 67.317-62.869 145.515-78.402 211.525-51.123l9.394 220.381Z" fill="#FFF4DA"/><path d="m421.345 324.124-326.146 1.845a6.912 6.912 0 0 0 5.363-4.783c19.616-64.197 53.574-123.106 99.864-166.32 67.317-62.869 145.515-78.402 211.525-51.123l9.394 220.381Z" stroke="#4C0D00" stroke-width="1.333" stroke-miterlimit="10"/><path d="M164.004 266.144c-28.154-26.433-29.549-70.693-3.114-98.846 23.467-24.995 60.993-28.896 88.821-10.958l-16.339 21.365-11.271 14.753-2.009 2.639-4.882 6.373-4.946 6.482-5.834 7.63-1.223 1.6-4.344 5.682-8.021 10.495-3.483 4.546-22.312 29.18c-.357-.296-.695-.614-1.043-.941Z" fill="#FFF4DA"/><path d="M164.004 266.144c-28.154-26.433-29.549-70.693-3.114-98.846 23.467-24.995 60.993-28.896 88.821-10.958l-16.339 21.365-11.271 14.753-2.009 2.639-4.882 6.373-4.946 6.482-5.834 7.63-1.223 1.6-4.344 5.682-8.021 10.495-3.483 4.546-22.312 29.18c-.357-.296-.695-.614-1.043-.941Z" stroke="#4C0D00" stroke-width="1.333" stroke-miterlimit="10"/><path d="M186.276 239.038a10.88 10.88 0 0 1-3.696-4.349c-2.654-5.577-.29-12.258 5.278-14.921.475-.227.97-.416 1.468-.567a9.639 9.639 0 0 1-.776-1.345c-2.654-5.577-.29-12.258 5.288-14.912a11.245 11.245 0 0 1 5.81-1.051c-1.168-3.734-.348-7.974 2.518-11.025 3.106-3.31 7.742-4.304 11.768-2.936a11.155 11.155 0 0 1 2.108-3.2c3.583-3.816 9.211-4.553 13.588-2.126l-7.53 9.852-2.008 2.638-4.882 6.375-4.946 6.481-5.835 7.629-1.222 1.601-4.344 5.682-8.022 10.495-3.483 4.546-1.148 1.502c.006-.126.04-.243.066-.369Z" fill="#FFF4DA"/><path d="M186.276 239.038a10.88 10.88 0 0 1-3.696-4.349c-2.654-5.577-.29-12.258 5.278-14.921.475-.227.97-.416 1.468-.567a9.639 9.639 0 0 1-.776-1.345c-2.654-5.577-.29-12.258 5.288-14.912a11.245 11.245 0 0 1 5.81-1.051c-1.168-3.734-.348-7.974 2.518-11.025 3.106-3.31 7.742-4.304 11.768-2.936a11.155 11.155 0 0 1 2.108-3.2c3.583-3.816 9.211-4.553 13.588-2.126l-7.53 9.852-2.008 2.638-4.882 6.375-4.946 6.481-5.835 7.629-1.222 1.601-4.344 5.682-8.022 10.495-3.483 4.546-1.148 1.502c.006-.126.04-.243.066-.369Z" stroke="#4C0D00" stroke-width="1.333"/><path d="m154.377 281.039 10.67-13.954-10.67 13.954Z" fill="#FFF4DA"/><path d="m154.377 281.039 10.67-13.954" stroke="#4C0D00" stroke-width="1.333"/><path d="m249.711 156.34 10.652-13.933-10.652 13.933Z" fill="#FFF4DA"/><path d="m249.711 156.34 10.652-13.933" stroke="#4C0D00" stroke-width="1.333"/><path d="M186.276 239.038a10.88 10.88 0 0 1-3.696-4.349c-2.654-5.577-.29-12.258 5.278-14.921.475-.227.97-.416 1.468-.567a9.639 9.639 0 0 1-.776-1.345c-2.654-5.577-.29-12.258 5.288-14.912a11.245 11.245 0 0 1 5.81-1.051c-1.168-3.734-.348-7.974 2.518-11.025 3.106-3.31 7.742-4.304 11.768-2.936a11.155 11.155 0 0 1 2.108-3.2c3.583-3.816 9.211-4.553 13.588-2.126l-7.53 9.852-2.008 2.638-4.882 6.375-4.946 6.481-5.835 7.629-1.222 1.601-4.344 5.682-8.022 10.495-3.483 4.546-1.148 1.502c.006-.126.04-.243.066-.369Z" fill="#FFF4DA"/><path d="M186.276 239.038a10.88 10.88 0 0 1-3.696-4.349c-2.654-5.577-.29-12.258 5.278-14.921.475-.227.97-.416 1.468-.567a9.639 9.639 0 0 1-.776-1.345c-2.654-5.577-.29-12.258 5.288-14.912a11.245 11.245 0 0 1 5.81-1.051c-1.168-3.734-.348-7.974 2.518-11.025 3.106-3.31 7.742-4.304 11.768-2.936a11.155 11.155 0 0 1 2.108-3.2c3.583-3.816 9.211-4.553 13.588-2.126l-7.53 9.852-2.008 2.638-4.882 6.375-4.946 6.481-5.835 7.629-1.222 1.601-4.344 5.682-8.022 10.495-3.483 4.546-1.148 1.502c.006-.126.04-.243.066-.369Z" stroke="#4C0D00" stroke-width="1.333"/><path d="M152.023 278.904c-35.199-33.049-36.933-88.378-3.884-123.579 29.681-31.612 77.321-36.246 112.223-12.919l-10.65 13.934c-27.829-17.938-65.355-14.036-88.823 10.957-26.433 28.154-25.039 72.413 3.115 98.848.348.326.686.643 1.042.941l-10.67 13.953a82.123 82.123 0 0 1-2.353-2.135Z" fill="#FF6D2F"/><path d="M152.023 278.904c-35.199-33.049-36.933-88.378-3.884-123.579 29.681-31.612 77.321-36.246 112.223-12.919l-10.651 13.934c-27.828-17.938-65.354-14.036-88.822 10.957-26.433 28.154-25.039 72.413 3.115 98.848.348.326.686.643 1.042.941l-10.67 13.953a82.123 82.123 0 0 1-2.353-2.135Z" stroke="#4C0D00" stroke-width="1.333"/><path d="M168.46 192.783c2.699 1.464 9.977 8.249 8.512 10.947-1.466 2.697-11.119.287-13.816-1.178a5.557 5.557 0 0 1-2.232-7.537 5.557 5.557 0 0 1 7.536-2.232Z" fill="#FFF4DA"/><path d="M168.46 192.783c2.699 1.464 9.977 8.249 8.512 10.947-1.466 2.697-11.119.287-13.816-1.178a5.557 5.557 0 0 1-2.232-7.537 5.557 5.557 0 0 1 7.536-2.232Z" stroke="#4C0D00" stroke-width="1.333"/><path d="M158.996 223.387c2.499-.359 10.632.54 10.992 3.038.359 2.498-7.192 5.652-9.69 6.012a4.572 4.572 0 0 1-1.302-9.05Z" fill="#FFF4DA"/><path d="M158.996 223.387c2.499-.359 10.632.54 10.992 3.038.359 2.498-7.192 5.652-9.69 6.012a4.572 4.572 0 0 1-1.302-9.05Z" stroke="#4C0D00" stroke-width="1.333"/><path d="M191.718 165.588c1.541 2.655 4.223 12.237 1.567 13.777-2.655 1.54-9.642-5.543-11.183-8.199a5.557 5.557 0 0 1 2.019-7.596 5.557 5.557 0 0 1 7.597 2.018Z" fill="#FFF4DA"/><path d="M191.718 165.588c1.541 2.655 4.223 12.237 1.567 13.777-2.655 1.54-9.642-5.543-11.183-8.199a5.557 5.557 0 0 1 2.019-7.596 5.557 5.557 0 0 1 7.597 2.018Z" stroke="#4C0D00" stroke-width="1.333"/><path d="M219.09 162.783c-.319 2.343-3.218 9.435-5.561 9.117-2.342-.32-3.241-7.929-2.922-10.271a4.281 4.281 0 0 1 8.483 1.154Z" fill="#FFF4DA"/><path d="M219.09 162.783c-.319 2.343-3.218 9.435-5.561 9.117-2.342-.32-3.241-7.929-2.922-10.271a4.281 4.281 0 0 1 8.483 1.154Z" stroke="#4C0D00" stroke-width="1.333"/><path d="M158.785 342.865c-73.312 8.434-119.663-57.037-69.003-53.333-25.76-15.243-22.951-29.514-9.563-41.949 24.423-22.684 50.39 37.566 50.39 37.566s1.488-43.973 22.755-35.544c33.518 13.285 20.934 54.063 20.934 54.063s35.397 33.34-15.513 39.197Z" fill="#FFF4DA"/><path d="M158.785 342.865c-73.312 8.434-119.663-57.037-69.003-53.333-25.76-15.243-22.951-29.514-9.563-41.949 24.423-22.684 50.39 37.566 50.39 37.566s1.488-43.973 22.755-35.544c33.518 13.285 20.934 54.063 20.934 54.063s35.397 33.34-15.513 39.197Z" stroke="#4C0D00" stroke-width="1.333" stroke-miterlimit="10"/><path d="M316.5 85.974c10.119-6.571 22.294 4.762 16.465 15.325 12.048-.632 16.927 15.271 6.595 21.505 10.751 5.477 7.024 21.688-5.04 21.921 6.572 10.118-4.762 22.294-15.325 16.464.631 12.048-15.271 16.927-21.504 6.596-5.477 10.75-21.689 7.023-21.921-5.04-10.119 6.571-22.295-4.762-16.464-15.325-12.049.631-16.927-15.272-6.596-21.505-10.751-5.478-7.024-21.689 5.04-21.921-6.572-10.12 4.762-22.295 15.325-16.464-.632-12.049 15.272-16.927 21.504-6.596 5.477-10.75 21.689-7.023 21.921 5.04Z" fill="#FFF4DA"/><path d="M316.5 85.974c10.119-6.571 22.294 4.762 16.465 15.325 12.048-.632 16.927 15.271 6.595 21.505 10.751 5.477 7.024 21.688-5.04 21.921 6.572 10.118-4.762 22.294-15.325 16.464.631 12.048-15.271 16.927-21.504 6.596-5.477 10.75-21.689 7.023-21.921-5.04-10.119 6.571-22.295-4.762-16.464-15.325-12.049.631-16.927-15.272-6.596-21.505-10.751-5.478-7.024-21.689 5.04-21.921-6.572-10.12 4.762-22.295 15.325-16.464-.632-12.049 15.272-16.927 21.504-6.596 5.477-10.75 21.689-7.023 21.921 5.04Z" stroke="#4C0D00" stroke-width="1.333" stroke-miterlimit="10"/><path d="M286.212 119.443a6.77 6.77 0 1 1-13.194-3.034 6.77 6.77 0 0 1 13.194 3.034Z" fill="#FFF4DA"/><path d="M286.212 119.443a6.77 6.77 0 1 1-13.194-3.034 6.77 6.77 0 0 1 13.194 3.034Z" stroke="#4C0D00" stroke-width="1.333"/><path d="M323.642 120.022c-1.181 5.139-6.305 8.346-11.443 7.165s-8.347-6.304-7.165-11.443c1.181-5.139 6.305-8.346 11.444-7.164 5.137 1.181 8.346 6.304 7.164 11.442Z" fill="#FFF4DA"/><path d="M323.642 120.022c-1.181 5.139-6.305 8.346-11.443 7.165s-8.347-6.304-7.165-11.443c1.181-5.139 6.305-8.346 11.444-7.164 5.137 1.181 8.346 6.304 7.164 11.442Z" stroke="#4C0D00" stroke-width="1.333"/><path d="M291.908 140.845a5.888 5.888 0 0 1-7.35 3.917 5.888 5.888 0 1 1 3.432-11.266 5.89 5.89 0 0 1 3.918 7.349Z" fill="#FFF4DA"/><path d="M291.908 140.845a5.888 5.888 0 0 1-7.35 3.917 5.888 5.888 0 1 1 3.432-11.266 5.89 5.89 0 0 1 3.918 7.349Z" stroke="#4C0D00" stroke-width="1.333"/><path d="M301.493 106.991a4.787 4.787 0 1 1-9.33-2.144 4.787 4.787 0 0 1 9.33 2.144Z" fill="#FFF4DA"/><path d="M301.493 106.991a4.787 4.787 0 1 1-9.33-2.144 4.787 4.787 0 0 1 9.33 2.144Z" stroke="#4C0D00" stroke-width="1.333"/><path d="M311.972 138.994a4.788 4.788 0 1 1-9.332-2.147 4.788 4.788 0 0 1 9.332 2.147Z" fill="#FFF4DA"/><path d="M311.972 138.994a4.788 4.788 0 1 1-9.332-2.147 4.788 4.788 0 0 1 9.332 2.147Z" stroke="#4C0D00" stroke-width="1.333"/><path d="M302.744 51.114c.101-.238.163-.508.243-.75-.117.305-.201.57-.243.75Z" fill="#FFF4DA"/><path d="M302.744 51.114c.101-.238.163-.508.243-.75-.117.305-.201.57-.243.75Z" stroke="#4C0D00" stroke-width="1.333" stroke-miterlimit="10"/><path d="M438.699 100.205a163.077 163.077 0 0 0-8.486-2.543C305.004 62.196 178.485 193.02 139.434 316.315c-1.579 5.013-3.036 10.007-4.318 14.97-5.58 22.306-24.984 41.505-45.633 23.566C69.3 336.947 45.401 317.385 53 272.688a182.233 182.233 0 0 1-5.877-6.988c-11.366 50.983 16.546 76.371 40.328 95.931.022.005.017.027.04.032 24.028 20.232 47.58 4.119 54.704-23.777a370.714 370.714 0 0 1 6.041-19.476c20.34-59.625 55.192-111.91 97.81-152.748l.005-.022c50.931-49.702 109.425-75.64 177.293-64.062 4.664.622 9.273 1.492 13.846 2.615 25.783 6.212 49.931 19.958 71.091 39.175-20.915-20.487-44.476-34.927-69.582-43.163Z" fill="#FFF4DA"/><path d="M438.699 100.205a163.077 163.077 0 0 0-8.486-2.543C305.004 62.196 178.485 193.02 139.434 316.315c-1.579 5.013-3.036 10.007-4.318 14.97-5.58 22.306-24.984 41.505-45.633 23.566C69.3 336.947 45.401 317.385 53 272.688a182.233 182.233 0 0 1-5.877-6.988c-11.366 50.983 16.546 76.371 40.328 95.931.022.005.017.027.04.032 24.028 20.232 47.58 4.119 54.704-23.777a370.714 370.714 0 0 1 6.041-19.476c20.34-59.625 55.192-111.91 97.81-152.748l.005-.022c50.931-49.702 109.425-75.64 177.293-64.062 4.664.622 9.273 1.492 13.846 2.615 25.783 6.212 49.931 19.958 71.091 39.175-20.915-20.487-44.476-34.927-69.582-43.163Z" stroke="#4C0D00" stroke-width="1.333" stroke-miterlimit="10"/><path d="m543.667 365.165-407.614 13.772a70.241 70.241 0 0 1-48.598-17.315c24.118 20.273 47.568 4.162 54.745-23.745 18.114-65.085 54.33-123.097 98.605-167.129 110.043-116.9 281-91.8 331.253 65.36 13.935 43.581 8.282 75.075 2.701 102.661-3.024 14.945-15.854 25.882-31.092 26.396Z" fill="#FFF4DA"/><path d="m543.667 365.165-407.614 13.772a70.241 70.241 0 0 1-48.598-17.315c24.118 20.273 47.568 4.162 54.745-23.745 18.114-65.085 54.33-123.097 98.605-167.129 110.043-116.9 281-91.8 331.253 65.36 13.935 43.581 8.282 75.075 2.701 102.661-3.024 14.945-15.854 25.882-31.092 26.396ZM406.888 161.157l-102.587 119.61m135.303-89.25-97.627 118.939m128.882-89.935-93.013 118.2m94.178-84.15-100.19-90.557m71.222 128.178-104.81-89.943m74.492 129.311-109.765-89.163" stroke="#4C0D00" stroke-width="1.333" stroke-miterlimit="10"/></svg>