<svg width="191" height="92" viewBox="0 0 191 92" fill="none" xmlns="http://www.w3.org/2000/svg">
<path d="M80.6348 10.43L81.1971 25.1521L80.6348 10.43Z" fill="#FFF9EB"/>
<path d="M80.6348 10.43L81.1971 25.1521" stroke="#4C0D00" stroke-width="1.33333" stroke-linejoin="bevel"/>
<path d="M4.53125 32.7759L80.6355 10.4298L185.893 36.1953L124.548 58.0564L4.53125 32.7759Z" fill="#FF6D2F"/>
<path d="M4.53125 32.7759L80.6355 10.4298L185.893 36.1953L124.548 58.0564L4.53125 32.7759Z" stroke="#4C0D00" stroke-width="1.33333" stroke-linejoin="bevel"/>
<path d="M116.528 24.297L149.603 45.6754L149.066 54.127L109.609 26.496L116.528 24.297Z" fill="#FFF4DA"/>
<path d="M116.528 24.297L149.603 45.6754L149.066 54.127L109.609 26.496L116.528 24.297Z" stroke="#4C0D00" stroke-width="1.33333" stroke-linejoin="bevel"/>
<path d="M109.94 33.5024L151.108 58.8105L149.066 54.1272L109.609 26.4959L109.94 33.5024Z" fill="#FFF4DA"/>
<path d="M109.94 33.5024L151.108 58.8105L149.066 54.1272L109.609 26.4959L109.94 33.5024Z" stroke="#4C0D00" stroke-width="1.33333" stroke-linejoin="bevel"/>
<path d="M151.107 58.8105L149.064 54.1257L149.311 50.2043L149.6 45.6762L151.642 50.3533L151.107 58.8105Z" fill="#FFF4DA"/>
<path d="M151.107 58.8105L149.064 54.1257L149.311 50.2043L149.6 45.6762L151.642 50.3533L151.107 58.8105Z" stroke="#4C0D00" stroke-width="1.33333" stroke-linejoin="bevel"/>
<path d="M42.127 29.6457L89.1332 50.7461L97.5691 44.2902L51.1786 22.7186L42.127 29.6457Z" fill="#FFF4DA"/>
<path d="M42.127 29.6457L89.1332 50.7461L97.5691 44.2902L51.1786 22.7186L42.127 29.6457Z" stroke="#4C0D00" stroke-width="1.33333" stroke-linejoin="bevel"/>
<path d="M52.7778 17.7404L97.0104 38.5344L97.5682 44.2903L51.1777 22.7186L52.7778 17.7404Z" fill="#FFF4DA"/>
<path d="M52.7778 17.7404L97.0104 38.5344L97.5682 44.2903L51.1777 22.7186L52.7778 17.7404Z" stroke="#4C0D00" stroke-width="1.33333" stroke-linejoin="bevel"/>
<path d="M42.127 29.6458L45.3981 23.3886L52.7786 17.7403L51.1786 22.7186L42.127 29.6458Z" fill="#FFF4DA"/>
<path d="M42.127 29.6458L45.3981 23.3886L52.7786 17.7403L51.1786 22.7186L42.127 29.6458Z" stroke="#4C0D00" stroke-width="1.33333" stroke-linejoin="bevel"/>
<path d="M95.421 4.96415L86.5467 39.3513L80.2695 33.0842L89.9957 1.32615L95.421 4.96415Z" fill="#FFF4DA"/>
<path d="M95.421 4.96415L86.5467 39.3513L80.2695 33.0842L89.9957 1.32615L95.421 4.96415Z" stroke="#4C0D00" stroke-width="1.33333" stroke-linejoin="bevel"/>
<path d="M85.2429 3.72511L75.6523 33.2742L80.2706 33.0843L89.9968 1.32604L85.2429 3.72511Z" fill="#FFF4DA"/>
<path d="M85.2429 3.72511L75.6523 33.2742L80.2706 33.0843L89.9968 1.32604L85.2429 3.72511Z" stroke="#4C0D00" stroke-width="1.33333" stroke-linejoin="bevel"/>
<path d="M75.8694 36.0785L142.848 46.3891L148.903 55.5486C148.903 55.5486 94.4713 51.1575 70.3145 42.789L75.8694 36.0785Z" fill="#FFF4DA"/>
<path d="M75.8694 36.0785L142.848 46.3891L148.903 55.5486C148.903 55.5486 94.4713 51.1575 70.3145 42.789L75.8694 36.0785Z" stroke="#4C0D00" stroke-width="1.33333" stroke-linejoin="bevel"/>
<path d="M73.4055 50.6615L146.642 61.1384L148.903 55.5484L70.3145 42.7891L73.4055 50.6615Z" fill="#FFF4DA"/>
<path d="M73.4055 50.6615L146.642 61.1384L148.903 55.5484L70.3145 42.7891L73.4055 50.6615Z" stroke="#4C0D00" stroke-width="1.33333" stroke-linejoin="bevel"/>
<path d="M105.843 34.156L99.4135 25.7975L33.8516 41.5899L39.5589 49.821L105.843 34.156Z" fill="#FFF4DA"/>
<path d="M105.843 34.156L99.4135 25.7975L33.8516 41.5899L39.5589 49.821L105.843 34.156Z" stroke="#4C0D00" stroke-width="1.33333" stroke-linejoin="bevel"/>
<path d="M105.843 34.1561L98.9644 40.0853L44.6439 52.6267L39.5586 49.8211L105.843 34.1561Z" fill="#FFF4DA"/>
<path d="M105.843 34.1561L98.9644 40.0853L44.6439 52.6267L39.5586 49.8211L105.843 34.1561Z" stroke="#4C0D00" stroke-width="1.33333" stroke-linejoin="bevel"/>
<path d="M89.2448 44.2146L134.898 16.424L130.791 11.5782L83.0664 40.0653L89.2448 44.2146Z" fill="#FFF4DA"/>
<path d="M89.2448 44.2146L134.898 16.424L130.791 11.5782L83.0664 40.0653L89.2448 44.2146Z" stroke="#4C0D00" stroke-width="1.33333" stroke-linejoin="bevel"/>
<path d="M89.2461 44.2146L134.9 16.4241L136.151 23.8791L94.0602 50.4524L89.2461 44.2146Z" fill="#FFF4DA"/>
<path d="M89.2461 44.2146L134.9 16.4241L136.151 23.8791L94.0602 50.4524L89.2461 44.2146Z" stroke="#4C0D00" stroke-width="1.33333" stroke-linejoin="bevel"/>
<path d="M94.0586 50.4524L87.4983 46.0628L83.0664 40.0656L89.2445 44.2146L94.0586 50.4524Z" fill="#FFF4DA"/>
<path d="M94.0586 50.4524L87.4983 46.0628L83.0664 40.0656L89.2445 44.2146L94.0586 50.4524Z" stroke="#4C0D00" stroke-width="1.33333" stroke-linejoin="bevel"/>
<path d="M142.216 30.8047L89.5957 19.1991L90.7704 27.6929L144.512 38.7456L142.216 30.8047Z" fill="#FFF4DA"/>
<path d="M142.216 30.8047L89.5957 19.1991L90.7704 27.6929L144.512 38.7456L142.216 30.8047Z" stroke="#4C0D00" stroke-width="1.33333" stroke-linejoin="bevel"/>
<path d="M139.678 41.1255L88.7812 30.6788L90.7698 27.6928L144.511 38.7455L139.678 41.1255Z" fill="#FFF4DA"/>
<path d="M139.678 41.1255L88.7812 30.6788L90.7698 27.6928L144.511 38.7455L139.678 41.1255Z" stroke="#4C0D00" stroke-width="1.33333" stroke-linejoin="bevel"/>
<path d="M87.1855 22.8201L89.5972 19.1989L90.7719 27.6927L88.783 30.6787L87.1855 22.8201Z" fill="#FFF4DA"/>
<path d="M87.1855 22.8201L89.5972 19.1989L90.7719 27.6927L88.783 30.6787L87.1855 22.8201Z" stroke="#4C0D00" stroke-width="1.33333" stroke-linejoin="bevel"/>
<path d="M182.278 17.0197L111.834 61.5067L117.445 68.2869L181.226 28.5931L182.278 17.0197Z" fill="#FFF4DA"/>
<path d="M182.278 17.0197L111.834 61.5067L117.445 68.2869L181.225 28.5931L182.278 17.0197Z" stroke="#4C0D00" stroke-width="1.33333" stroke-linejoin="bevel"/>
<path d="M188.678 32.451L124.196 68.2869H117.445L181.226 28.5931L188.678 32.451Z" fill="#FFF4DA"/>
<path d="M188.678 32.451L124.196 68.2869H117.445L181.226 28.5931L188.678 32.451Z" stroke="#4C0D00" stroke-width="1.33333" stroke-linejoin="bevel"/>
<path d="M182.277 17.0197L189.408 21.1698L188.677 32.4509L181.225 28.5931L182.277 17.0197Z" fill="#FFF4DA"/>
<path d="M182.277 17.0197L189.408 21.1698L188.677 32.4509L181.225 28.5931L182.277 17.0197Z" stroke="#4C0D00" stroke-width="1.33333" stroke-linejoin="bevel"/>
<path d="M124.197 90.731L178.44 68.2855L185.893 36.1955L124.548 58.0563L124.197 90.731Z" fill="#FFF4DA"/>
<path d="M124.197 90.731L178.44 68.2855L185.893 36.1955L124.548 58.0563L124.197 90.731Z" stroke="#4C0D00" stroke-width="1.33333" stroke-linejoin="bevel"/>
<path d="M4.53125 32.7761L14.8772 65.2512L124.198 90.731L124.548 58.0566L4.53125 32.7761Z" fill="#FFF4DA"/>
<path d="M4.53125 32.7761L14.8772 65.2512L124.198 90.731L124.548 58.0566L4.53125 32.7761Z" stroke="#4C0D00" stroke-width="1.33333" stroke-linejoin="bevel"/>
<path d="M43.2464 67.9013L34.2433 83.4761C32.653 86.1978 28.9422 87.8992 22.3938 87.8992C15.8455 87.8992 11.7855 85.8909 10.544 83.4761L1 66.9053L43.2464 67.9013Z" fill="#FFF4DA"/>
<path d="M43.2464 67.9013L34.2433 83.4761C32.653 86.1978 28.9422 87.8992 22.3938 87.8992C15.8455 87.8992 11.7855 85.8909 10.544 83.4761L1 66.9053L43.2464 67.9013Z" stroke="#4C0D00" stroke-width="1.33333" stroke-linejoin="bevel"/>
<path d="M43.7887 66.1199C43.7887 70.5263 34.2107 74.0984 22.3955 74.0984C10.5803 74.0984 1.00195 70.5263 1.00195 66.1199C1.00195 61.7134 10.5803 58.1413 22.3955 58.1413C34.2107 58.1413 43.7887 61.7134 43.7887 66.1199Z" fill="#FFF4DA"/>
<path d="M43.7887 66.1199C43.7887 70.5263 34.2107 74.0984 22.3955 74.0984C10.5803 74.0984 1.00195 70.5263 1.00195 66.1199C1.00195 61.7134 10.5803 58.1413 22.3955 58.1413C34.2107 58.1413 43.7887 61.7134 43.7887 66.1199Z" stroke="#4C0D00" stroke-width="1.33333" stroke-linejoin="bevel"/>
<path d="M40.6497 66.1198C40.6497 69.4563 32.4765 72.1611 22.3943 72.1611C12.3119 72.1611 4.13867 69.4563 4.13867 66.1198C4.13867 62.7832 12.3119 60.0784 22.3943 60.0784C32.4765 60.0784 40.6497 62.7832 40.6497 66.1198Z" fill="#FF6D2F"/>
<path d="M40.6497 66.1198C40.6497 69.4563 32.4765 72.1611 22.3943 72.1611C12.3119 72.1611 4.13867 69.4563 4.13867 66.1198C4.13867 62.7832 12.3119 60.0784 22.3943 60.0784C32.4765 60.0784 40.6497 62.7832 40.6497 66.1198Z" stroke="#4C0D00" stroke-width="1.33333" stroke-linejoin="bevel"/>
<path d="M40.6482 66.1197C40.6482 69.4525 32.4766 72.1582 22.3911 72.1582C15.4511 72.1582 9.41227 70.8722 6.33008 68.9901C6.42428 66.8805 8.30637 65.2647 12.573 66.1197C12.573 66.1197 11.3492 63.1945 13.3335 61.8534C13.3335 61.8534 18.4548 67.39 26.3123 67.4999C32.8449 67.5941 34.0918 63.7358 40.6168 65.7589C40.6402 65.8765 40.6482 66.0021 40.6482 66.1197Z" fill="#FFF9EB"/>
<path d="M40.6482 66.1197C40.6482 69.4525 32.4766 72.1582 22.3911 72.1582C15.4511 72.1582 9.41227 70.8722 6.33008 68.9901C6.42428 66.8805 8.30637 65.2647 12.573 66.1197C12.573 66.1197 11.3492 63.1945 13.3335 61.8534C13.3335 61.8534 18.4548 67.39 26.3122 67.4999C32.8449 67.5941 34.0918 63.7358 40.6168 65.7589C40.6402 65.8765 40.6482 66.0021 40.6482 66.1197Z" stroke="#4C0D00" stroke-width="1.33333" stroke-linejoin="bevel"/>
<path d="M40.6482 66.1197C40.6482 69.4525 32.4766 72.1582 22.3911 72.1582C15.4511 72.1582 9.41227 70.8722 6.33008 68.9901C6.42428 66.8805 8.30637 65.2647 12.573 66.1197C12.573 66.1197 11.3492 63.1945 13.3335 61.8534C13.3335 61.8534 18.4548 67.39 26.3123 67.4999C32.8449 67.5941 34.0918 63.7358 40.6168 65.7589C40.6402 65.8765 40.6482 66.0021 40.6482 66.1197Z" fill="#FFF4DA"/>
<path d="M40.6482 66.1197C40.6482 69.4525 32.4766 72.1582 22.3911 72.1582C15.4511 72.1582 9.41227 70.8722 6.33008 68.9901C6.42428 66.8805 8.30637 65.2647 12.573 66.1197C12.573 66.1197 11.3492 63.1945 13.3335 61.8534C13.3335 61.8534 18.4548 67.39 26.3122 67.4999C32.8449 67.5941 34.0918 63.7358 40.6168 65.7589C40.6402 65.8765 40.6482 66.0021 40.6482 66.1197Z" stroke="#4C0D00" stroke-width="1.33333" stroke-linejoin="bevel"/>
<path d="M33.5586 4.33919L18.9492 39.3704L23.3922 48.6084L39.9962 1.43941L33.5586 4.33919Z" fill="#FFF4DA"/>
<path d="M33.5586 4.33919L18.9492 39.3704L23.3922 48.6084L39.9962 1.43941L33.5586 4.33919Z" stroke="#4C0D00" stroke-width="1.33333" stroke-linejoin="bevel"/>
<path d="M24.041 46.7603L39.9944 1.4394L45.4682 7.9769L28.7601 47.7214L24.041 46.7603Z" fill="#FFF4DA"/>
<path d="M24.041 46.7603L39.9944 1.4394L45.4682 7.9769L28.7601 47.7214L24.041 46.7603Z" stroke="#4C0D00" stroke-width="1.33333" stroke-linejoin="bevel"/>
<path d="M24.5751 34.5384C23.1786 33.8812 22.4789 34.7756 19.9063 37.2651C17.3336 39.7547 16.0793 41.0022 18.9009 43.8169C21.7224 46.6313 22.2894 46.9491 22.3079 49.6747C22.3262 52.4004 22.0798 54.2876 23.983 54.3007C25.8862 54.3141 25.8651 52.0569 25.9922 50.6302C26.1192 49.2034 25.5511 44.2368 27.3438 44.5825C29.1363 44.9282 27.6282 48.9845 29.4477 48.9334C31.2676 48.8823 33.8782 39.4233 33.943 38.051C34.0078 36.6785 32.0903 37.807 31.4746 36.0656C30.8588 34.3243 32.3058 30.7325 30.4968 30.1984C28.6878 29.6643 28.2205 35.2266 26.671 35.2677C25.2842 35.3046 25.0892 34.7802 24.5751 34.5384Z" fill="#FFF4DA"/>
<path d="M24.5751 34.5384C23.1786 33.8812 22.4789 34.7756 19.9063 37.2651C17.3336 39.7547 16.0793 41.0022 18.9009 43.8169C21.7224 46.6313 22.2894 46.9491 22.3079 49.6747C22.3262 52.4004 22.0798 54.2876 23.983 54.3007C25.8862 54.3141 25.8651 52.0569 25.9922 50.6302C26.1192 49.2034 25.5511 44.2368 27.3438 44.5825C29.1363 44.9282 27.6282 48.9845 29.4477 48.9334C31.2676 48.8823 33.8782 39.4233 33.943 38.051C34.0078 36.6785 32.0903 37.807 31.4746 36.0656C30.8588 34.3243 32.3058 30.7325 30.4968 30.1984C28.6878 29.6643 28.2205 35.2266 26.671 35.2677C25.2842 35.3046 25.0892 34.7802 24.5751 34.5384Z" stroke="#4C0D00" stroke-width="1.33333" stroke-linejoin="bevel"/>
</svg>
