<svg width="24" height="24" viewBox="0 0 24 24" fill="none" xmlns="http://www.w3.org/2000/svg">
<path fill-rule="evenodd" clip-rule="evenodd" d="M12.5 21C17.1944 21 21 17.1944 21 12.5C21 7.80558 17.1944 4 12.5 4C7.80558 4 4 7.80558 4 12.5C4 17.1944 7.80558 21 12.5 21ZM13.2502 8.91071C13.2502 8.40774 12.8425 8 12.3395 8C11.8365 8 11.4288 8.40774 11.4288 8.91071V11.9907L9.50363 12.9533C9.05376 13.1782 8.87141 13.7253 9.09635 14.1751C9.32128 14.625 9.86832 14.8074 10.3182 14.5824L12.7468 13.3681C13.0553 13.2139 13.2502 12.8985 13.2502 12.5536V8.91071Z" fill="#330D03"/>
</svg>
